<svg xmlns="http://www.w3.org/2000/svg" width="722.5" height="786" viewBox="0 0 722.5 786">
    <defs>
        <style>
            .cls-1{fill:#fff}.cls-2{fill:#ebebeb}.cls-3{fill:#0052a3}.cls-4{fill:#1976d2}.cls-5{fill:#a6a6a6}.cls-6{fill:#263238}.cls-7{fill:#ffc727}.cls-8{fill:#ad6359}.cls-11{fill:#d3766a}.cls-12{fill:#455a64}.cls-13{fill:#ff9cbd}.cls-15{fill:#f7a9a0}.cls-16{opacity:.1}
        </style>
    </defs>
    <g id="Group_3197" transform="translate(-1097.5 -197)">
        <path id="Path_760" d="M470.12 77H750.6v-786H469.011q-171.834 0-279.922 105.317T81-315.446q0 181.811 108.643 287.129T470.12 77z" class="cls-1" transform="translate(1069.403 906)"/>
        <g id="Group_2836" transform="translate(1097.5 337.384)">
            <g id="Character_4" transform="translate(11.691 392.342)">
                <path id="Path_1830" d="M666.357 361.833v81.677h-81.689v-81.677zm-6.168 75.509V368h-69.341v69.341z" class="cls-2" transform="translate(-584.668 -219.06)"/>
                <path id="Rectangle_830" d="M0 0H239.008V239.008H0z" class="cls-3" transform="translate(44.197)"/>
            </g>
            <g id="Character_3" transform="translate(303.844 269.585)">
                <path id="Path_2016" d="M0 0h244.422v252.359H0z" class="cls-4" transform="translate(7.56 3.443)"/>
                <g id="Group_2751">
                    <g id="Group_2717" transform="translate(181.799 78.799)">
                        <path id="Path_1831" d="M462.472 271.7v129.781H332.694V271.7zm-9.8 119.978V281.5H342.494v110.181z" class="cls-5" transform="translate(-332.694 -271.703)"/>
                    </g>
                    <g id="Group_2722" transform="translate(30.646 67.577)">
                        <g id="Group_2718" transform="translate(24.864 6.459)">
                            <path id="Path_1832" d="M471.96 269.748c-6.429-1.523-23.09 2.83-28.775 11.351s-5.43 22.461-2.592 23.865 15.139.543 23.639-3.98 10.896-30.484 7.728-31.236z" class="cls-6" transform="translate(-436.716 -269.356)"/>
                            <path id="Path_1833" d="M474.448 269.835c.215-.044.247-.4 0-.412-5.644-.228-11.72 1.583-17.123 3.052-4.361 1.185-8.843 2.6-12.4 5.5a15.152 15.152 0 0 0-5.685 11.347c-.257 4.977.36 11.005 2.739 15.456.068.131.319.1.273-.075-2.455-9.447-4.556-20.971 4.889-27.238 8.022-5.315 18.187-5.796 27.307-7.63z" class="cls-6" transform="translate(-439.187 -269.404)"/>
                        </g>
                        <g id="Group_2719" transform="translate(3.987 39.63)">
                            <path id="Path_1834" d="M474.442 285.415c-5.656.64-20.48 11.153-23.1 21.845s5.838 26.681 8.586 27.872 15.373-8.9 19.552-16.39c2.793-5.006.738-10.925-.4-16.8-1.692-8.662-3.758-16.626-4.638-16.527z" class="cls-6" transform="translate(-448.718 -285.415)"/>
                            <path id="Path_1835" d="M471.8 317.334c1.844-10.906-4.185-21.826-7.759-31.757-.037-.106-.213-.06-.191.05 1.919 9.505 7.492 18.1 7.5 28.013 0 5.882-2.132 11.621-7.034 15.153-4.247 3.06-9.545 4.407-14.438 6.058-.323.11-.12.586.2.487 9.755-3.025 19.822-6.746 21.722-18.004z" class="cls-6" transform="translate(-437.633 -285.305)"/>
                            <path id="Path_1836" d="M478.969 286.141c.284-.135.1-.584-.186-.454-8.082 3.673-17.826 9.068-22.245 17.13-4.786 8.733-.263 18.021 3.752 26.028.05.1.211.035.162-.066-3.959-8.128-8.117-18.2-2.7-26.7 4.663-7.307 13.592-12.341 21.217-15.938z" class="cls-6" transform="translate(-454.477 -285.148)"/>
                        </g>
                        <g id="Group_2720" transform="translate(0 89.073)">
                            <path id="Path_1837" d="M456.041 309.279c3.551 2.314 8.368 9.286 8.855 16.939.835 13.1 5.946 11.055 19.668 15.905 11.6 4.1 12.773 17.662 5.768 23.592 0 0 4.51-7.831-3.1-12.663-9.087-5.774-32 2.068-41.552-12.57-12.355-18.936 10.361-31.203 10.361-31.203z" class="cls-6" transform="translate(-440.199 -309.279)"/>
                            <path id="Path_1838" d="M441.34 312.563c-.137-.191.189-.433.336-.249a19 19 0 0 1 3.3 6c.928 2.849.686 5.8 1.411 8.681 1.844 7.326 10.4 7.945 16.535 9.01 8.231 1.43 14.387 7.17 14.014 15.951a.1.1 0 0 1-.2-.006 14.837 14.837 0 0 0-7.527-13.411c-4.639-2.538-10.214-2.01-15.12-3.736-3.358-1.179-6.634-2.987-7.891-6.5a29.381 29.381 0 0 1-.945-6.058 20.657 20.657 0 0 0-3.913-9.682z" class="cls-6" transform="translate(-421.048 -306.096)"/>
                            <path id="Path_1839" d="M461.015 309.931c.083-.052.182.079.1.141-5.165 4.16-10.612 8.31-12.651 14.952-2.194 7.148.829 14.836 6.114 19.823 5.919 5.586 13.042 3.926 20.355 3.255 5.291-.487 10.643-.563 15.557 1.726.149.07.037.317-.118.265-8.008-2.735-15.76-1.052-23.948-.568-6.69.4-11.633-2.416-15.35-7.954-8.193-12.219-1.166-24.513 9.941-31.64z" class="cls-6" transform="translate(-447.51 -308.593)"/>
                        </g>
                        <g id="Group_2721" transform="translate(51.238)">
                            <path id="Path_1840" d="M445.407 267.15c-1.755-2.3-5.3.472-3.539 2.778s5.3-.47 3.539-2.778z" class="cls-7" transform="translate(-441.391 -266.286)"/>
                            <path id="Path_1841" d="M444.6 269c-1.757-2.3-5.3.47-3.541 2.778s5.295-.47 3.541-2.778z" class="cls-7" transform="translate(-438.893 -264.304)"/>
                            <path id="Path_1842" d="M443.463 270.7c-1.755-2.3-5.3.47-3.539 2.776s5.298-.476 3.539-2.776z" class="cls-7" transform="translate(-435.42 -262.484)"/>
                            <path id="Path_1843" d="M442.155 272.19c-1.755-2.3-5.3.47-3.539 2.776s5.298-.466 3.539-2.776z" class="cls-7" transform="translate(-431.402 -260.885)"/>
                            <path id="Path_1844" d="M440.577 273.463c-1.757-2.3-5.3.47-3.541 2.776s5.3-.47 3.541-2.776z" class="cls-7" transform="translate(-426.551 -259.52)"/>
                            <path id="Path_1845" d="M438.861 274.4c-1.757-2.3-5.3.47-3.541 2.778s5.3-.478 3.541-2.778z" class="cls-7" transform="translate(-421.28 -258.52)"/>
                        </g>
                    </g>
                    <g id="Group_2750">
                        <g id="Group_2728" transform="translate(96.335)">
                            <path id="Path_1846" d="M354.979 326.8c9.727 11.961 61.732 49.676 105.631 48.973 14.911-.24 56.353-63.895 64.013-88.1 5.5-17.38-31.415-26.159-41.842-23.646-13.011 3.137-38.386 57.737-43.4 58.085-14.9 1.038-40.51-7.945-71.946-11.128-16.135-1.636-19.947 6.603-12.456 15.816z" class="cls-8" transform="translate(-348.466 -201.589)"/>
                            <g id="Group_2726" transform="translate(115.893)">
                                <g id="Group_2724" transform="translate(10.495)">
                                    <path id="Path_1847" d="M392.043 323.745c2.768-6.041 15.8-39.661 16.858-48.314s2.291-33.783-4.255-35.264-7.5 5.845-7.5 5.845-1.158-10.693-7.883-11.583-7.827 10.556-7.827 10.556-1.991-10.9-8.762-11.3-5.952 11.285-5.952 11.285-1.355-10.044-7.077-8.035c-6.88 2.418-2.291 20.656-4.173 30.122-.429 2.151-11.772 42.959-11.772 42.959z" class="cls-8" transform="translate(-343.704 -233.669)"/>
                                    <g id="Group_2723" transform="translate(21.176 9.706)">
                                        <path id="Path_1848" d="M364.429 238.941c3.346 13.419 2.486 19.869-1.782 32.8-.083.253.274.435.385.178 5.331-12.28 7.575-20.215 2.039-33.172-.271-.637-.8-.447-.642.194z" class="cls-6" transform="translate(-362.635 -238.354)"/>
                                        <path id="Path_1849" d="M358.168 238.865c2.256 14.242 1.386 21.246-2.088 35.117-.048.195.278.3.344.106 4.548-13.322 6.6-21.29 2.48-35.223-.187-.629-.84-.65-.736 0z" class="cls-6" transform="translate(-341.892 -238.32)"/>
                                        <path id="Path_1850" d="M353.48 240.3c1.189 13.945.568 21.665-4.533 34.7a.258.258 0 0 0 .468.215c6.493-12.783 7.34-22.411 4.494-34.906-.195-.855-.504-.888-.429-.009z" class="cls-6" transform="translate(-321.408 -236.961)"/>
                                    </g>
                                </g>
                                <g id="Group_2725" transform="translate(0 24.63)">
                                    <path id="Path_1851" d="M363.418 303.6s-1.925-17.223-1.1-24.976 14.528-35.513 20.691-32.894c7.958 3.383 3.205 20.967-.249 29.275 0 0 18.416 7.8 17.737 21.163s-37.079 7.432-37.079 7.432z" class="cls-8" transform="translate(-362.111 -245.557)"/>
                                    <path id="Path_1852" d="M364.733 246.473c5.035 8.318-.2 18.932-2.95 27.242a.8.8 0 0 0 .74 1.088c7.5 3.785 16.981 11.312 18.224 20.092a.2.2 0 0 0 .4-.023c-.056-9.6-8.764-17.753-17.246-21.375 2.952-8.478 7.736-19.351.907-27.076a.047.047 0 0 0-.075.052z" class="cls-6" transform="translate(-341.956 -244.652)"/>
                                </g>
                            </g>
                            <g id="Group_2727" transform="translate(0 107.758)">
                                <path id="Path_1853" d="M472.124 294.218l-18.112 41.927s-27.393-13.025-44.042-29.882 1.852-22.485 17.985-20.036 44.169 7.991 44.169 7.991z" class="cls-1" transform="translate(-403.427 -285.68)"/>
                                <path id="Path_1854" fill="#c7c7c7" d="M416.041 303.3c16.657 16.844 44.047 29.875 44.047 29.875l5.511-12.742-55.172-31.983c-2.027 3.356-.912 8.25 5.614 14.85z" transform="translate(-409.505 -282.712)"/>
                                <path id="Path_1855" d="M408.2 325.9c8.938-16.817 14.219-32.753 15.648-35.985.068-.153-.186-.244-.246-.087-1.237 3.244-9.849 21.047-15.673 35.977-.071.174.18.259.271.095z" class="cls-6" transform="translate(-364.454 -281.32)"/>
                            </g>
                        </g>
                        <g id="Group_2731" transform="translate(33.079 104.214)">
                            <path id="Path_1856" d="M521.105 378.828l7.43 56.728-118.721.008s15.7-106.379 41.059-139.045c12.682-16.336 29.674-15.909 41.685-3.421 2.619 2.722 29.152 40.612 33.82 56.256 4.086 13.809-5.273 29.474-5.273 29.474z" class="cls-1" transform="translate(-409.814 -283.97)"/>
                            <g id="Group_2730" transform="translate(76.734 14.801)">
                                <path id="Path_1857" d="M420.18 291.114l7.492 20.109q3.723 10.057 7.127 20.2c2.113 6.793 4.664 13.579 3.648 20.519a52.219 52.219 0 0 1-6.733 19.763l-.164.288.033.288c1.028 9.017 2.242 18.012 3.354 27.018q1.709 13.5 3.634 26.985-1.137-13.571-2.459-27.118c-.92-9.029-1.736-18.068-2.739-27.087l-.128.576a54 54 0 0 0 7.243-20.5 29.378 29.378 0 0 0-.779-10.985c-.91-3.514-2.008-6.938-3.172-10.334-2.291-6.806-5.008-13.438-7.718-20.065s-5.619-13.171-8.639-19.657z" class="cls-6" transform="translate(-420.18 -291.114)"/>
                                <g id="Group_2729" transform="translate(13.388 24.735)">
                                    <path id="Path_1858" d="M425.251 304.516a1.767 1.767 0 0 1-1.305 2.047 1.619 1.619 0 0 1-1.85-1.436 1.767 1.767 0 0 1 1.305-2.047 1.617 1.617 0 0 1 1.85 1.436z" class="cls-6" transform="translate(-422.073 -303.053)"/>
                                    <path id="Path_1859" d="M421.778 313.972a1.768 1.768 0 0 1-1.305 2.047 1.616 1.616 0 0 1-1.848-1.436 1.762 1.762 0 0 1 1.305-2.047 1.616 1.616 0 0 1 1.848 1.436z" class="cls-6" transform="translate(-411.406 -292.918)"/>
                                    <path id="Path_1860" d="M421.34 323.612a1.765 1.765 0 0 1-1.305 2.047 1.617 1.617 0 0 1-1.848-1.436 1.763 1.763 0 0 1 1.305-2.047 1.614 1.614 0 0 1 1.848 1.436z" class="cls-6" transform="translate(-410.06 -282.586)"/>
                                    <path id="Path_1861" d="M424.02 331.592a1.769 1.769 0 0 1-1.305 2.049 1.619 1.619 0 0 1-1.85-1.438 1.768 1.768 0 0 1 1.305-2.047 1.619 1.619 0 0 1 1.85 1.436z" class="cls-6" transform="translate(-418.291 -274.032)"/>
                                    <path id="Path_1862" d="M422.978 340.306a1.768 1.768 0 0 1-1.305 2.047 1.619 1.619 0 0 1-1.85-1.438 1.768 1.768 0 0 1 1.305-2.047 1.619 1.619 0 0 1 1.85 1.438z" class="cls-6" transform="translate(-415.091 -264.695)"/>
                                    <path id="Path_1863" d="M422.028 348.905a1.766 1.766 0 0 1-1.305 2.049 1.619 1.619 0 0 1-1.848-1.438 1.768 1.768 0 0 1 1.305-2.047 1.616 1.616 0 0 1 1.848 1.436z" class="cls-6" transform="translate(-412.176 -255.475)"/>
                                </g>
                            </g>
                        </g>
                        <g id="Group_2735" transform="translate(0 110.106)">
                            <path id="Path_1864" d="M461.621 412.683c-5.973 4.063-16.044-13.84-19.471-17.677s-4.9-3.721-4.7-.783l-7.784-30.928c4.03 3.135 12.6 9.874 17.153 14.3 6.103 5.923 20.792 31.023 14.802 35.088z" class="cls-8" transform="translate(-352.358 -204.841)"/>
                            <path id="Path_1865" d="M504.611 297.333c-25.365 20.444-57.327 56.417-63.843 79.667-5.028 17.944 20.2 80.28 27.727 94.829 3.278 6.34 46.7-12.961 48.617-20.349s-28.361-61.08-28.667-66.78 19.5-43.326 33-68.772c16.348-30.817 4.732-35.978-16.834-18.595z" class="cls-8" transform="translate(-440.111 -286.13)"/>
                            <g id="Group_2733" transform="translate(27.137 156.757)">
                                <path id="Path_1866" d="M509.8 431.3c-4 4.357-12.093-.914-12.093-.914s7.2 8.894 1.566 12.354c-5.648 3.46-13.318-4.146-13.318-4.146s6.17 8.536.309 11.571c-5.874 3.054-13.448-3.59-13.448-3.59s.408 3.282-4.7 3.559c-7.33.425-17.791-11.474-21.789-18.965-4-7.508-13.09-37.947-14.395-42.63l47.95-26.065s.849.636 2.221 1.7l7.784 30.928c.13 1.927 5.615 13.792 7.606 17.2 4.507 7.706 16.794 14.12 12.307 18.998z" class="cls-8" transform="translate(-431.933 -362.476)"/>
                                <g id="Group_2732" transform="translate(22.574 41.335)">
                                    <path id="Path_1867" d="M457.353 408.569c-10.751-8.146-14.045-13.568-18.715-26-.091-.242-.472-.162-.4.1 3.464 12.586 6.615 19.985 18.746 26.436.594.32.88-.151.369-.536z" class="cls-6" transform="translate(-414.4 -382.427)"/>
                                    <path id="Path_1868" d="M463.8 413.835c-10.425-9.433-14.051-15.284-19.9-27.94-.083-.18-.4-.058-.327.128 4.7 12.9 8.012 20.206 19.668 28.264.524.364 1.031-.021.559-.452z" class="cls-6" transform="translate(-431.815 -378.805)"/>
                                    <path id="Path_1869" d="M468.384 418.138c-9.435-9.864-13.684-16.106-17.784-29.123a.251.251 0 0 0-.487.122c2.888 13.68 8.136 21.509 17.942 29.256.669.528.923.364.329-.255z" class="cls-6" transform="translate(-450.106 -375.56)"/>
                                </g>
                            </g>
                            <g id="Group_2734" transform="translate(32.663)">
                                <path id="Path_1870" d="M476 353.98l-36.6-27.323s19.011-23.635 39.261-35.933 21.447 7.007 15.331 22.135S476 353.98 476 353.98z" class="cls-1" transform="translate(-439.402 -286.814)"/>
                                <path id="Path_1871" d="M448.6 303.626c14.291 12.588 28.574 21.414 31.388 23.552.133.1.282-.124.141-.22-2.869-1.954-18.195-14.453-31.373-23.573-.15-.104-.291.121-.156.241z" class="cls-6" transform="translate(-441.297 -269.081)"/>
                                <path id="Path_1872" d="M452.194 320.637c2.236-5 5.283-12.28 7.8-17.144.035-.064.141-.017.116.05-.99 2.845-2.117 5.664-3.294 8.463.1-.141.18-.292.278-.431.918-1.311 1.856-2.59 2.872-3.829.035-.043.1.014.073.058-.773 1.421-1.6 2.807-2.5 4.152-.559.837-1.156 1.649-1.751 2.461-.636 1.475-2.12 5.128-2.758 6.588-1.075 2.455-6.348 16.336-6.576 16.189a44.91 44.91 0 0 1-3.677-2.762c-.178-.153.1-.477.273-.329.653.547 2.306 1.655 2.579 1.865 1.2-2.511 2.173-5.163 3.263-7.722s2.175-5.086 3.302-7.609z" class="cls-6" transform="translate(-409.157 -268.97)"/>
                            </g>
                        </g>
                        <g id="Group_2749" transform="translate(79.435 18.652)">
                            <g id="Group_2736" transform="translate(11.369 53.465)">
                                <path id="Path_1873" d="M426.518 305.259c.613 2.109 11.532 15.414 21.257 14.438 3.168-.323 2.175-17.689 2.175-17.689l.22-1.3 3.062-18.18-21.824-12.42-3.145-1.631s-.512 5.028-1.084 11.3c-.027.292-.056.582-.081.893-.041.354-.087.688-.11 1.019-.1.934-.193 1.892-.267 2.845-.062.725-.124 1.432-.159 2.2-.054.765-.093 1.51-.147 2.275-.384 7.556-.143 15.355.103 16.25z" class="cls-8" transform="translate(-426.214 -268.478)"/>
                                <path id="Path_1874" d="M426.214 279.776a36.989 36.989 0 0 0 22.986 20.933l3.062-18.18-21.824-12.42-3.145-1.631s-.507 5.028-1.079 11.298z" class="cls-6" transform="translate(-425.249 -268.478)"/>
                            </g>
                            <g id="Group_2746">
                                <path id="Path_1875" d="M473.812 277.4c6.576 31.682-11.66 39.2-18.493 40.607-6.2 1.28-27.489 4.85-37.3-25.983s2.84-43.908 16.873-47.585 32.346 1.273 38.92 32.961z" class="cls-8" transform="translate(-412.643 -241.898)"/>
                                <g id="Group_2742" transform="translate(26.453 24.905)">
                                    <path id="Path_1876" d="M424.674 257.824a21.151 21.151 0 0 1-2.233-.091 3.6 3.6 0 0 1-2.26-.526 1.149 1.149 0 0 1-.232-1.386 2.857 2.857 0 0 1 2.662-1.127 4.189 4.189 0 0 1 2.843 1.026 1.227 1.227 0 0 1-.78 2.104z" class="cls-6" transform="translate(-400.649 -254.693)"/>
                                    <path id="Path_1877" d="M430.463 260.577a21.141 21.141 0 0 0 2.08-.818 3.619 3.619 0 0 0 1.962-1.241 1.153 1.153 0 0 0-.236-1.384 2.856 2.856 0 0 0-2.886-.189 4.192 4.192 0 0 0-2.347 1.9 1.227 1.227 0 0 0 1.427 1.732z" class="cls-6" transform="translate(-428.225 -252.596)"/>
                                    <g id="Group_2738" transform="translate(0 12.941)">
                                        <g id="Group_2737" transform="translate(3.289)">
                                            <path id="Path_1878" d="M429.2 261.865c-.033-.079-.149.135-.128.224.485 2.151.679 4.695-1.137 5.791-.058.033-.029.141.041.116 2.324-.796 2.029-4.171 1.224-6.131z" class="cls-6" transform="translate(-424.64 -259.966)"/>
                                            <path id="Path_1879" d="M430.179 260.951c-3.53.408-2.455 7.44.816 7.063 3.218-.373 2.143-7.403-.816-7.063z" class="cls-6" transform="translate(-427.988 -260.939)"/>
                                        </g>
                                        <path id="Path_1880" d="M433.895 261.258c-.553.491-1.046 1.285-1.776 1.471-.843.215-1.6-.421-2.273-1.044-.068-.064-.12.006-.106.1.184 1.351.914 2.654 2.389 2.635 1.347-.019 2.109-1.357 2.24-2.762.023-.258-.25-.599-.474-.4z" class="cls-6" transform="translate(-429.738 -260.662)"/>
                                    </g>
                                    <g id="Group_2740" transform="translate(21.149 8.376)">
                                        <g id="Group_2739" transform="translate(0 .799)">
                                            <path id="Path_1881" d="M420.215 260.4c.006-.087.186.079.2.168.247 2.19.9 4.657 2.975 5.095.064.015.075.124 0 .126-2.46.011-3.29-3.277-3.175-5.389z" class="cls-6" transform="translate(-420.205 -257.778)"/>
                                            <path id="Path_1882" d="M420.966 259.181c3.468-.773 4.763 6.22 1.55 6.939-3.164.706-4.457-6.289-1.55-6.939z" class="cls-6" transform="translate(-419.337 -259.121)"/>
                                        </g>
                                        <path id="Path_1883" d="M418.727 259.785c.622.269 1.293.841 1.96.762.775-.091 1.2-.953 1.556-1.767.037-.085.1-.037.122.056.284 1.328.1 2.8-1.137 3.3-1.129.449-2.2-.539-2.766-1.811-.106-.236.014-.648.265-.54z" class="cls-6" transform="translate(-415.554 -258.736)"/>
                                    </g>
                                    <path id="Path_1884" d="M423.886 269.877c.58.458 1.179 1.108 1.981 1.09a5.83 5.83 0 0 0 2.3-.8.077.077 0 0 1 .108.1 2.965 2.965 0 0 1-2.654 1.486 2.34 2.34 0 0 1-1.934-1.753c-.048-.125.113-.19.199-.123z" class="cls-6" transform="translate(-411.092 -238.447)"/>
                                    <g id="Group_2741" transform="translate(13.348 1.043)">
                                        <path id="Path_1885" d="M427.469 276.226s.984 3.172 1.239 4.705c.021.143-.338.271-.852.387-.025.012-.037.025-.06.012a7.374 7.374 0 0 1-7.519-1.554c-.13-.133.037-.321.193-.249a11.121 11.121 0 0 0 6.961.808c.039-.441-1.867-5.378-1.626-5.436a13.532 13.532 0 0 1 3.607.216c-1.858-6.669-4.769-12.986-6.52-19.653a.212.212 0 0 1 .383-.166c3.52 6.4 5.828 14.032 7.923 20.869.269.851-3.073.221-3.729.061z" class="cls-6" transform="translate(-420.231 -255.196)"/>
                                    </g>
                                </g>
                                <g id="Group_2743" transform="translate(.156)">
                                    <path id="Path_1886" d="M454.257 249.217s1.728 4.695.4 8.333c-2.735 7.477-11.534 6.418-14.211 9.528-2.509 2.915-1.021 8.314-3.269 11.206-3.112 4-7.958 3.029-8.293 5.557S427.653 294.4 424.6 295.7s-22.514-49.665 18.839-51.953c0 0 5.434-2.847 14.625.731 10.144 3.949 15.872 19.463 15.872 19.463s-.228-.2-1.755-1.3c-2.157-1.564-3.079-3.112-4.643-4.108-2.459-1.566-3.653-.771-6.2-2.281-3.878-2.305-7.081-7.035-7.081-7.035z" class="cls-6" transform="translate(-417.362 -242.672)"/>
                                    <path id="Path_1887" d="M451.754 244.76a27.765 27.765 0 0 1 1.8 6.184 11.6 11.6 0 0 1-.294 6.207 8.573 8.573 0 0 1-4.378 4.127c-1.892.909-4.032 1.32-6.058 2.364a6.469 6.469 0 0 0-2.565 2.339 8.636 8.636 0 0 0-.91 3.28c-.234 2.155-.481 4.278-1.738 5.919a7.165 7.165 0 0 1-5.3 2.847c-2.076.2-4.425-.162-6.365.943 2.024-.945 4.212-.4 6.394-.445a7.776 7.776 0 0 0 5.888-2.859c1.531-1.784 1.771-4.2 2.045-6.28a7.762 7.762 0 0 1 .833-2.917 5.5 5.5 0 0 1 2.2-1.927c1.811-.976 3.976-1.438 5.979-2.424a11.2 11.2 0 0 0 2.782-1.887 6.76 6.76 0 0 0 1.929-2.8 12.163 12.163 0 0 0 .05-6.586 28.049 28.049 0 0 0-2.292-6.085z" class="cls-6" transform="translate(-415.704 -240.434)"/>
                                    <path id="Path_1888" d="M418.494 245.629a22.5 22.5 0 0 0 2.538 5.488 10.6 10.6 0 0 0 4.564 4.144 15.438 15.438 0 0 0 2.954.835 4.921 4.921 0 0 1 2.368 1.278 15.234 15.234 0 0 0 2.022 2.26 6.723 6.723 0 0 0 2.762 1.274 7.455 7.455 0 0 1-2.424-1.647 15.215 15.215 0 0 1-1.749-2.385 5.21 5.21 0 0 0-2.724-1.705 16.4 16.4 0 0 1-2.793-.835 11.272 11.272 0 0 1-4.307-3.694 44.308 44.308 0 0 1-3.211-5.013z" class="cls-6" transform="translate(-381.477 -239.502)"/>
                                </g>
                                <g id="Group_2745" transform="translate(0 42.062)">
                                    <g id="Group_2744">
                                        <path id="Path_1889" d="M450.43 269.405s-8.5-8.925-12.653-5.747 3.3 16.854 8.917 18.027a5.471 5.471 0 0 0 6.806-4.009z" class="cls-8" transform="translate(-436.571 -262.974)"/>
                                        <path id="Path_1890" d="M438.035 265.175a.075.075 0 0 0-.008.147c3.961.945 6.449 4.1 8.37 7.481-1.32-1.212-2.944-1.738-4.593-.137-.087.083.029.222.13.184a3.366 3.366 0 0 1 3.839.605 16.183 16.183 0 0 1 2.2 2.7c.224.307.8.037.613-.327l-.044-.081c-.623-4.775-5.33-10.868-10.507-10.572z" class="cls-6" transform="translate(-434.595 -260.625)"/>
                                    </g>
                                </g>
                            </g>
                            <g id="Group_2748" transform="translate(6.989 86.527)">
                                <g id="Group_2747">
                                    <path id="Path_1891" d="M453.423 286.323l-4.581 14.751-19.216-16.639-4.56 6.207s19.688 27.313 19.692 26.007l4.892-12.791 9.193 7.879-2.43-21.454z" class="cls-1" transform="translate(-425.066 -284.436)"/>
                                    <path id="Path_1892" d="M457.131 298c-.52-3.528-.945-7.1-1.628-10.6-.025-.124-.226-.164-.244-.014-.433 3.483 1.626 16.966 1.875 20.219l-.039-.033c-.385-.342-8.488-6.9-8.555-6.781-1.119 2.057-4.713 11.374-4.943 12.215-3.114-4.34-14.983-20.072-18.582-24.122a.124.124 0 0 0-.2.141c2.816 4.62 18.551 25.825 18.76 25.744a138.948 138.948 0 0 0 5.1-13.516c1.4 1.459 9.648 8.932 9.632 8.4A112.193 112.193 0 0 0 457.131 298z" class="cls-6" transform="translate(-423.955 -281.372)"/>
                                </g>
                            </g>
                        </g>
                    </g>
                </g>
            </g>
            <g id="Character_2" transform="translate(0 39.43)">
                <path id="Rectangle_832" fill="#fafafa" d="M0 0H268.07V268.07H0z" transform="translate(26.826 67.933)"/>
                <g id="Group_2752">
                    <path id="Path_1893" d="M723.169 122.58v180.6H542.57v-180.6zm-170.8 170.8h161v-161h-161z" class="cls-3" transform="translate(-542.57 -122.58)"/>
                </g>
                <g id="Group_2792" transform="translate(54.047 87.368)">
                    <g id="Group_2791">
                        <g id="Group_2753" transform="translate(35.014 3.033)">
                            <path id="Path_1894" d="M646.529 303.03c-1.16.075-6.582.447-14.507 1.009-3.008-4.929-6.677-13.728-5.853-26.457.149-2.109-4.26 10.164-1.514 26.977-15.317 1.069-36.151 2.511-54.36 3.6-.677-7.1-1.628-13.647-1.628-13.647a78.755 78.755 0 0 1-2.333 13.9c-2.488.168-4.931.286-7.27.421.029-11.07-2.735-30.228-2.735-30.228a97.248 97.248 0 0 1-7.62 30.787c-11.567.57-19.187.733-18.723.164 16.585-20.867 3.24-31.838 7.409-49.738 5-21.449 23.107-25.647 21.839-41.527-1-12.922-3.686-36.327 12.433-42.093 0 0 12.632-15.172 33.88-8.107 26.287 8.714 17.888 49.089 20.02 57.126 3.037 11.482 8.745 15.315 13.471 28.351 4.817 13.191-.872 22.355-1.15 31.462-.241 9.095 11.544 17.841 8.641 18z" class="cls-6" transform="translate(-529.337 -166.214)"/>
                            <path id="Path_1895" d="M571.582 281.213a45.27 45.27 0 0 0 5.1-11.586c1.142-4.007.383-8.02-.6-12.151a126.516 126.516 0 0 1-2.714-12.688 33.8 33.8 0 0 1 .669-13.382 29.617 29.617 0 0 1 6.441-11.8 78.747 78.747 0 0 1 9.549-8.894c3.228-2.764 6.45-5.494 8.8-8.93A23.255 23.255 0 0 0 602.935 190a21.745 21.745 0 0 1-2.782 12.607 43.707 43.707 0 0 1-8.432 9.994 99.067 99.067 0 0 0-8.844 9 28.243 28.243 0 0 0-5.567 10.674 33.108 33.108 0 0 0-.661 12.112c.427 4.131 1.388 8.258 2.142 12.528a42.877 42.877 0 0 1 .719 6.572 19 19 0 0 1-1.162 6.642 36.708 36.708 0 0 1-6.766 11.084z" class="cls-6" transform="translate(-571.582 -140.715)"/>
                            <path id="Path_1896" d="M527.995 173.96c2.236 4.813 3.226 10.1 4.22 15.28.9 5.221 1.539 10.471 2.121 15.7l.922 7.811a39.1 39.1 0 0 0 1.525 7.434c1.5 4.788 4.407 8.888 7.666 13.046a60.19 60.19 0 0 1 4.537 6.719 36.866 36.866 0 0 1 3.228 7.6 54.664 54.664 0 0 1 1.506 8.022 33.686 33.686 0 0 1-.075 8.194c-.346 2.718-.99 5.306-1.513 7.834a40.218 40.218 0 0 0-.862 7.649c-.155 5.051 2.735 9.957 6.961 13.065a16.417 16.417 0 0 1-8.6-13 39.643 39.643 0 0 1 .307-8.076c.338-2.662.885-5.219 1.057-7.746a41.934 41.934 0 0 0-1.889-15.006 36.387 36.387 0 0 0-3.033-6.866 56.812 56.812 0 0 0-4.367-6.315 79.538 79.538 0 0 1-4.62-6.6 32.882 32.882 0 0 1-3.41-7.548 42.419 42.419 0 0 1-1.409-8.059c-.269-2.65-.437-5.283-.6-7.912-.354-5.254-.63-10.5-1.121-15.719a76.509 76.509 0 0 0-2.551-15.507z" class="cls-6" transform="translate(-436.498 -157.911)"/>
                        </g>
                        <g id="Group_2755" transform="translate(0 240.353)">
                            <g id="Group_2754">
                                <path id="Path_1897" d="M603.588 281.693c.045-.315.106-.615.166-.932-.075.392-.149.769-.195 1.158.015-.074.015-.149.029-.226z" class="cls-7" transform="translate(-603.559 -280.761)"/>
                                <path id="Path_1898" d="M579.228 285.642a4.6 4.6 0 0 1-.543.286l-.075-.135-.015-.017c.18-.046.375-.075.555-.12a.145.145 0 0 0 .078-.014z" class="cls-7" transform="translate(-527.315 -275.529)"/>
                            </g>
                        </g>
                        <g id="Group_2787" transform="translate(16.498)">
                            <g id="Group_2773" transform="translate(0 90.545)">
                                <g id="Group_2758" transform="translate(89.236 2.933)">
                                    <g id="Group_2756">
                                        <path id="Path_1899" d="M532.026 221.823c32.563 36.638 72 112.188 63.159 126.629-9.841 16.085-56.823-36.087-55.207-38.449 1.374-2.008-13.9-47.2-24.99-80.249-11.079-33.018 8.985-16.991 17.038-7.931z" class="cls-11" transform="translate(-511.728 -209.869)"/>
                                    </g>
                                    <g id="Group_2757">
                                        <path id="Path_1900" d="M532.026 221.823c32.563 36.638 72 112.188 63.159 126.629-9.841 16.085-56.823-36.087-55.207-38.449 1.374-2.008-13.9-47.2-24.99-80.249-11.079-33.018 8.985-16.991 17.038-7.931z" class="cls-12" transform="translate(-511.728 -209.869)"/>
                                    </g>
                                    <path id="Path_1901" d="M524.011 244.772c3.174 9.64 6.091 18.684 8.3 25.908 5.034.226 19.753-.586 35.049-15.284-4.6-8.155-9.578-16.342-14.708-24.168a45.7 45.7 0 0 1-28.641 13.544z" class="cls-2" transform="translate(-508.095 -186.975)"/>
                                </g>
                                <g id="Group_2759" transform="translate(19.756)">
                                    <path id="Path_1902" d="M648.852 366.674l-8.177-55.415s13.108-22.889 5.5-39.315c-3.839-8.32-30.163-48.98-44.345-59.272-13.3-9.657-31.525-.849-37.721 7.55-17.822 24.149-26.5 67.618-36.453 146.452z" class="cls-12" transform="translate(-527.657 -208.453)"/>
                                    <path id="Path_1903" d="M527.68 222.841c2.689 3.692 5.3 7.44 7.871 11.219-.7-1.471-1.407-2.938-2.1-4.413-.05-.106.106-.195.161-.089.955 1.848 1.834 3.721 2.691 5.606q5.146 7.626 9.98 15.454a40.53 40.53 0 0 1 3.535 6.912 31.034 31.034 0 0 1 1.736 7.351 38.923 38.923 0 0 1 .12 7.546 52.057 52.057 0 0 1-1.094 7.7 49.276 49.276 0 0 1-2.71 8.407c-.57 1.326-1.177 2.644-1.831 3.928-.6 1.175-1.817 3.572-1.8 3.665.245 1.328.493 2.258.661 3.375l.514 3.41c.344 2.275 3.3 24.408 3.63 26.685.661 4.519 1.229 9.041 1.792 13.572.323 2.6.493 5.225.86 7.819.015.1-.145.147-.162.039-.375-2.26-.934-4.49-1.345-6.744s-.829-4.51-1.251-6.766c-.855-4.556-4.146-29.009-4.86-33.59q-.3-1.9-.592-3.8a24.906 24.906 0 0 1-.483-4.228 102.334 102.334 0 0 0 5.635-14.184 50.21 50.21 0 0 0 1.612-7.537 39.476 39.476 0 0 0 .091-7.488 32.891 32.891 0 0 0-1.438-7.351 37.889 37.889 0 0 0-3.184-7c-2.65-4.707-5.465-9.329-8.32-13.914q-4.857-7.8-9.862-15.507c-.054-.087.082-.157.143-.077z" class="cls-6" transform="translate(-430.34 -193.07)"/>
                                </g>
                                <g id="Group_2764" transform="translate(0 102.963)">
                                    <g id="Group_2762" transform="translate(0 .219)">
                                        <path id="Path_1904" d="M617.16 296.591c-8.312 10.666-29.486 11.679-82.559 19.237-7.344 1.044-28.668-48.8-20.882-50.318 9.806-1.914 48.275-7.218 51.136-7.251 24.145-.277 57.945 31.097 52.305 38.332z" class="cls-11" transform="translate(-444.467 -258.256)"/>
                                        <g id="Group_2761" transform="translate(0 5.403)">
                                            <path id="Path_1905" d="M620.591 260.864s-22.431 2.206-33.859 7.013c-15.3 6.435-25.863 18.292-29.987 23.529-8.613 10.929-21.878 43.309-13.218 48.758 7.838 4.931 19.726-28.852 19.726-28.852s-17.8 32.444-7.274 36.646 22.1-35.8 22.1-35.8-17.546 33.746-6 36.362c8.724 1.977 21.244-33.665 21.244-33.665s-14.882 29.111-6 31.531c9.816 2.673 23.436-29.5 23.436-29.5 23.619 2.349 35.826-6.195 43.786-13.305 1.928-1.72-33.954-42.717-33.954-42.717z" class="cls-11" transform="translate(-540.707 -260.864)"/>
                                            <g id="Group_2760" transform="translate(12.027 38.787)">
                                                <path id="Path_1906" d="M598.063 279.63c-2.229 3.735-4.512 7.5-6.4 11.422s-3.644 7.912-5.161 11.99c-3.717 10-4.481 16.852-4.388 16.434 2.2-9.878 8.751-24.02 10.643-27.942s3.576-7.921 5.459-11.836c.045-.098-.101-.157-.153-.068z" class="cls-6" transform="translate(-582.104 -279.585)"/>
                                                <path id="Path_1907" d="M589.471 282.795c-2.639 4.894-5.44 9.652-7.867 14.666-2.412 4.985-4.266 9.928-6.329 15.068-.157.4.108.35.282-.041 2.269-5.053 4.753-9.549 7.079-14.575 2.318-5.008 4.459-10.146 6.957-15.064.037-.077-.083-.129-.122-.054z" class="cls-6" transform="translate(-559.232 -276.185)"/>
                                                <path id="Path_1908" d="M579.1 284.464c-4.417 7.272-7.488 15.35-10.312 23.345-.139.4.195.3.363-.1 3.282-7.825 5.8-13.987 10.2-23.1.071-.133-.158-.299-.251-.145z" class="cls-6" transform="translate(-535.59 -274.423)"/>
                                            </g>
                                        </g>
                                    </g>
                                    <g id="Group_2763" transform="translate(62.935)">
                                        <path id="Path_1909" d="M511.759 264.111l43.694 51.416s59.685-4.154 66.557-19.877-38.571-38.641-52.723-37.406-57.528 5.867-57.528 5.867z" class="cls-12" transform="translate(-511.759 -258.101)"/>
                                        <path id="Path_1910" d="M549.507 265.1c-3.431-2.343-13.175-7.908-22.991-6.808a.085.085 0 0 0 0 .17c8.049.247 19.4 4.78 22.908 6.779a.082.082 0 0 0 .083-.141z" class="cls-6" transform="translate(-468.988 -258.15)"/>
                                        <path id="Path_1911" d="M575.025 304.222c-17.171-18.188-32.461-39.909-35.395-43.506-.139-.17.151-.375.282-.195 2.693 3.678 22.86 26.606 35.424 43.487.145.192-.145.392-.311.214z" class="cls-6" transform="translate(-522.091 -255.684)"/>
                                    </g>
                                </g>
                                <g id="Group_2766" transform="translate(88.331 31.168)">
                                    <path id="Rectangle_833" d="M0 0H96.808V74.366H0z" class="cls-4" transform="rotate(-101.537 57.777 51.002)"/>
                                    <g id="Group_2765" transform="translate(17.863)">
                                        <path id="Rectangle_834" d="M0 0H35.246V10.681H0z" class="cls-2" transform="scale(-1) rotate(-11.6 -105.17 171.778)"/>
                                        <path id="Path_1912" d="M533.422 236.153l4.252-.873-.991-4.824 10.331-2.121.99 4.824 4.252-.873-1.805-8.789-18.894 3.88z" class="cls-2" transform="translate(-525.58 -223.497)"/>
                                    </g>
                                </g>
                                <g id="Group_2772" transform="translate(8.11 5.445)">
                                    <g id="Group_2769" transform="translate(1.507 1.351)">
                                        <path id="Path_1913" d="M569.506 228.187c-35.092 44.658-48.333 124.882-28.854 131.135 17.8 5.714 91-12.6 112.806-20.009 6.4-2.178-13.378-51.971-20.227-49.653-8.281 2.8-53.554 13.529-54.433 13.55-1.881.041 8.179-49.348 12.5-71.73 6.012-31.18-8.613-20.062-21.792-3.293z" class="cls-11" transform="translate(-531.645 -211.733)"/>
                                        <g id="Group_2768" transform="translate(92.939 55.714)">
                                            <path id="Path_1914" d="M575.729 242.128c3.7 4.2.7 9.172.7 9.172a11.952 11.952 0 0 1 6.526 4.846c2.521 4.229-3 10.038-3 10.038a14.753 14.753 0 0 1 6.068 6.209c2.008 4.291-2.731 10.947-2.731 10.947a12.919 12.919 0 0 1 1.9 8.82c-1.523 8.159-13.324 12.789-20.8 15.81s-31.493 4.587-36.039 5.349l-19.8-47.788s29.654-23.074 38.942-25.375c7.831-1.941 24.074-2.747 28.234 1.972z" class="cls-11" transform="translate(-508.559 -238.625)"/>
                                            <g id="Group_2767" transform="translate(41.537 12.044)">
                                                <path id="Path_1915" d="M539.33 244.438c-8.813.066-17.13 2.735-25.58 4.929a.151.151 0 0 0 .079.292c8.38-2.279 17.1-2.865 25.556-4.8a.213.213 0 0 0-.055-.421z" class="cls-6" transform="translate(-513.642 -244.438)"/>
                                                <path id="Path_1916" d="M535.754 251.656a22.971 22.971 0 0 0-5.845 1.4q-3.049.957-6.062 2.014-6.039 2.113-11.963 4.527c-.174.07-.108.356.079.292 4.013-1.4 8.047-2.735 12.116-3.961q3.055-.92 6.122-1.794a27.4 27.4 0 0 0 5.7-1.912.3.3 0 0 0-.147-.566z" class="cls-6" transform="translate(-506.305 -236.702)"/>
                                                <path id="Path_1917" d="M531.928 260.234c-1.736 0-3.59.941-5.194 1.539q-2.732 1.022-5.472 2.01c-3.655 1.32-7.309 2.637-11.01 3.829-.184.06-.106.35.081.292 3.762-1.191 7.543-2.331 11.3-3.555q2.766-.9 5.519-1.834c1.562-.53 3.574-1.013 4.854-2.1a.107.107 0 0 0-.078-.181z" class="cls-6" transform="translate(-498.901 -227.508)"/>
                                            </g>
                                        </g>
                                    </g>
                                    <g id="Group_2771">
                                        <path id="Path_1918" d="M587.264 301.884c-.566-.34 9.951-48.01 13.477-72.886s-7.583-22.485-23.571-1.22c-17.123 22.782-47.614 84.445-37.052 130.105 3.421 14.786 109.352-5.925 109.352-5.925l-14.27-60.887s-47.06 11.337-47.936 10.813z" class="cls-12" transform="translate(-537.946 -211.082)"/>
                                        <path id="Path_1919" d="M564.586 270.7c17.279 5.07 36.01 2.494 43.655 1.057 1.109-5.983 3.789-18.951 6.522-32.964-18.151 2.01-30.472-.58-37.2-2.834a235.946 235.946 0 0 0-12.977 34.741z" class="cls-2" transform="translate(-558.432 -184.418)"/>
                                        <g id="Group_2770" transform="translate(26.601 48.316)">
                                            <path id="Path_1920" d="M555.385 301.214c-6.441-21.2-10-44.455-10.9-48.464-.044-.191.267-.238.3-.044.684 3.98 7.63 30.116 10.933 48.46.038.213-.268.253-.333.048z" class="cls-6" transform="translate(-484.329 -214.918)"/>
                                            <path id="Path_1921" d="M547.547 267.637c2.045-.35 56.125-15.58 67.951-17.413.186-.029.021-.651-.176-.615-36.337 6.41-66.194 16.125-68.484 17.038-2.711 1.079-3.099 1.644.709.99z" class="cls-6" transform="translate(-544.747 -218.107)"/>
                                            <path id="Path_1922" d="M564.568 277.375c-.039-.106 3.566-18.356 4.2-19.5.653-1.181 2.07-3.8 2.652-5.026 1.171-2.467 2.186-4.989 3.263-7.487.091-.205-.222-.365-.311-.16-1.164 2.418-2.538 4.734-3.922 7.023-.69 1.123-1.378 2.256-2.068 3.371-.052.075 3.327-17.836 3.8-20.981.037-.232-.215-.3-.288-.1-1.015 3.166-8.1 39.043-9.074 43.019a16.162 16.162 0 0 0 1.748-.159z" class="cls-6" transform="translate(-541.328 -234.402)"/>
                                            <path id="Path_1923" d="M537.553 286.932c3.528-.976 17.683-3.265 21.126-3.76a45.372 45.372 0 0 1-1.251-7.738.169.169 0 0 1 .294-.1c.8 1.181 2.184 7.409 2.594 8.88.079.28-19.067 2.683-22.732 2.878a.083.083 0 0 1-.031-.16z" class="cls-6" transform="translate(-474.444 -190.592)"/>
                                        </g>
                                    </g>
                                </g>
                            </g>
                            <g id="Group_2786" transform="translate(49.855)">
                                <path id="Path_1924" d="M592.535 217.1s-1.421 14.01-13.034 16.191-33.313-13.073-33.313-13.073 8.714-11.728 24.462-11.768c15.144-.033 21.885 8.65 21.885 8.65z" class="cls-11" transform="translate(-539.834 -117.908)"/>
                                <g id="Group_2785">
                                    <g id="Group_2774" transform="translate(19.021 58.492)">
                                        <path id="Path_1925" d="M549.769 229.771c.622 2.1 11.592 15.367 21.315 14.351 3.166-.336 2.1-17.7 2.1-17.7l.213-1.3 2.992-18.192-21.87-12.33-3.153-1.618s-.489 5.03-1.036 11.3c-.027.292-.054.582-.079.893-.042.354-.083.688-.106 1.019-.093.936-.184 1.894-.257 2.847-.056.725-.116 1.432-.149 2.2-.052.767-.087 1.51-.139 2.277-.351 7.56-.082 15.358.169 16.253z" class="cls-11" transform="translate(-549.432 -192.982)"/>
                                        <path id="Path_1926" d="M549.432 204.284a36.983 36.983 0 0 0 23.068 20.842l2.992-18.192-21.871-12.334-3.153-1.618s-.489 5.03-1.036 11.302z" class="cls-6" transform="translate(-548.534 -192.982)"/>
                                    </g>
                                    <g id="Group_2784">
                                        <path id="Path_1927" d="M597.745 199.92c8.513 31.218-9.224 39.843-15.959 41.67-6.112 1.662-27.136 6.534-38.83-23.637s.128-44 13.908-48.532 32.366-.721 40.881 30.499z" class="cls-11" transform="translate(-530.736 -161.436)"/>
                                        <g id="Group_2781" transform="translate(31.866 29.387)">
                                            <path id="Path_1928" d="M549.14 181.926a21.168 21.168 0 0 1-2.233.062 3.6 3.6 0 0 1-2.291-.369 1.152 1.152 0 0 1-.327-1.367 2.857 2.857 0 0 1 2.579-1.307 4.2 4.2 0 0 1 2.907.827 1.228 1.228 0 0 1-.635 2.154z" class="cls-6" transform="translate(-525.241 -178.934)"/>
                                            <path id="Path_1929" d="M555.146 183.979a21.692 21.692 0 0 0 2.034-.926 3.619 3.619 0 0 0 1.9-1.34 1.153 1.153 0 0 0-.309-1.371 2.85 2.85 0 0 0-2.89-.039 4.2 4.2 0 0 0-2.248 2.02 1.229 1.229 0 0 0 1.513 1.656z" class="cls-6" transform="translate(-553.498 -177.871)"/>
                                            <g id="Group_2776" transform="translate(.903 14.299)">
                                                <g id="Group_2775" transform="translate(3.384)">
                                                    <path id="Path_1930" d="M552.628 186.708c-.037-.079-.143.141-.118.23.6 2.122.924 4.651-.837 5.84-.054.037-.021.143.048.116 2.279-.918 1.812-4.272.907-6.186z" class="cls-6" transform="translate(-548.131 -184.92)"/>
                                                    <path id="Path_1931" d="M553.786 185.861c-3.505.59-2.068 7.556 1.179 7.011 3.194-.539 1.757-7.504-1.179-7.011z" class="cls-6" transform="translate(-551.751 -185.836)"/>
                                                </g>
                                                <path id="Path_1932" d="M557.706 186.2c-.526.52-.98 1.338-1.7 1.562-.831.261-1.622-.338-2.322-.924-.071-.062-.118.012-.1.1.255 1.34 1.052 2.6 2.523 2.507 1.343-.087 2.037-1.463 2.093-2.874.009-.26-.283-.583-.494-.371z" class="cls-6" transform="translate(-553.58 -185.521)"/>
                                            </g>
                                            <g id="Group_2778" transform="translate(21.635 7.958)">
                                                <g id="Group_2777" transform="translate(0 1.108)">
                                                    <path id="Path_1933" d="M544.073 184.659c0-.087.191.064.207.153.4 2.169 1.216 4.585 3.319 4.879.064.008.083.118.008.124-2.451.178-3.507-3.039-3.534-5.156z" class="cls-6" transform="translate(-544.071 -181.893)"/>
                                                    <path id="Path_1934" d="M544.777 183.411c3.406-1.011 5.179 5.876 2.022 6.812-3.106.922-4.879-5.966-2.022-6.812z" class="cls-6" transform="translate(-543.337 -183.31)"/>
                                                </g>
                                                <path id="Path_1935" d="M542.82 184.068c.64.226 1.349.75 2.01.626.767-.145 1.131-1.034 1.43-1.871.031-.087.1-.044.126.048.375 1.307.292 2.791-.907 3.369-1.094.526-2.233-.385-2.884-1.616-.12-.229-.029-.648.225-.556z" class="cls-6" transform="translate(-539.829 -182.775)"/>
                                            </g>
                                            <path id="Path_1936" d="M547.423 194.588c.6.427 1.233 1.046 2.035.986a5.838 5.838 0 0 0 2.25-.92.076.076 0 0 1 .112.1 2.961 2.961 0 0 1-2.573 1.622 2.348 2.348 0 0 1-2.018-1.651c-.054-.125.105-.2.194-.137z" class="cls-6" transform="translate(-533.125 -162.181)"/>
                                            <g id="Group_2779" transform="translate(14.545 1.883)">
                                                <path id="Path_1937" d="M551.067 200.619s1.148 3.118 1.479 4.635c.031.143-.321.29-.829.433-.025.012-.035.025-.06.014a7.379 7.379 0 0 1-7.589-1.162c-.137-.124.021-.323.18-.259a11.13 11.13 0 0 0 6.994.448c.014-.443-2.144-5.275-1.906-5.345a13.479 13.479 0 0 1 3.613.027c-2.2-6.563-5.436-12.721-7.529-19.288a.211.211 0 0 1 .373-.184c3.847 6.213 6.547 13.711 8.994 20.43.313.832-3.057.377-3.72.251z" class="cls-6" transform="translate(-544.016 -179.843)"/>
                                            </g>
                                            <g id="Group_2780" transform="translate(14.401 26.417)">
                                                <path id="Path_1938" d="M553.041 192.514a8.757 8.757 0 0 1-2.683 3.528 3.958 3.958 0 0 1-2.273.762c-1.788.006-2.24-1.517-2.283-2.911a9.335 9.335 0 0 1 .211-2.209 11.327 11.327 0 0 0 7.028.83z" class="cls-6" transform="translate(-545.798 -191.685)"/>
                                                <path id="Path_1939" d="M551.649 194.932a3.958 3.958 0 0 1-2.273.762c-1.788.006-2.24-1.517-2.283-2.911 1.84-.294 3.936.448 4.556 2.149z" class="cls-13" transform="translate(-547.088 -190.575)"/>
                                            </g>
                                        </g>
                                        <path id="Path_1940" d="M555.841 220.743c3.329-1.173 9.474-13.017 5.055-29.451 0 0 2.948 15.031 2.461 17.5s3.427-6.657.047-19.958c0 0 8.816 3.176 15.545 3.137s10.523-1.191 10.838-1.771-9.675-.837-12.974-2.983c0 0 18.775 2.952 26.579 1.345.9-.186-3.253-18.655-17.269-22.98s-30.331 9.367-33.967 15.665c0 0-5.664 2.534-9.578 13.106s9.678 27.647 13.263 26.39z" class="cls-6" transform="translate(-541.878 -164.75)"/>
                                        <g id="Group_2783" transform="translate(4.86 50.553)">
                                            <g id="Group_2782">
                                                <path id="Path_1941" d="M574.892 195.276s-8.753-8.675-12.812-5.378 3.781 16.753 9.433 17.762a5.473 5.473 0 0 0 6.69-4.2z" class="cls-11" transform="translate(-560.957 -189.15)"/>
                                                <path id="Path_1942" d="M562.41 191.358a.075.075 0 0 0 0 .147c3.984.829 6.564 3.916 8.581 7.235-1.355-1.173-2.994-1.651-4.6 0-.085.087.035.222.137.18a3.365 3.365 0 0 1 3.854.5 16.258 16.258 0 0 1 2.281 2.629c.234.3.8.014.6-.344l-.045-.081c-.76-4.757-5.641-10.713-10.808-10.266z" class="cls-6" transform="translate(-558.944 -186.809)"/>
                                            </g>
                                        </g>
                                    </g>
                                </g>
                            </g>
                        </g>
                        <g id="Group_2790" transform="translate(0 240.353)">
                            <g id="Group_2789">
                                <path id="Path_1943" d="M579.188 285.649l-.541.137-.015-.017c.181-.045.376-.074.556-.12z" class="cls-11" transform="translate(-527.352 -275.522)"/>
                                <g id="Group_2788">
                                    <path id="Path_1944" d="M603.754 280.761c-.075.392-.149.769-.195 1.158.015-.075.015-.149.029-.226.046-.315.106-.615.166-.932z" class="cls-7" transform="translate(-603.559 -280.761)"/>
                                    <path id="Path_1945" d="M603.754 280.761c-.075.392-.149.769-.195 1.158.015-.075.015-.149.029-.226.046-.315.106-.615.166-.932z" class="cls-7" transform="translate(-603.559 -280.761)"/>
                                    <path id="Path_1946" d="M579.133 288.365v.017c-.572.135-1.127.269-1.684.39.557-.136 1.129-.272 1.684-.407z" class="cls-7" transform="translate(-524.844 -272.611)"/>
                                </g>
                            </g>
                        </g>
                        <path id="Path_1947" fill="#dbdbdb" d="M603.754 280.761c-.075.392-.149.769-.195 1.158.015-.075.015-.149.029-.226.046-.315.106-.615.166-.932z" transform="translate(-603.559 -40.408)"/>
                    </g>
                </g>
            </g>
            <g id="Character_1" transform="translate(311.405)">
                <g id="Group_2794" transform="translate(253.498 20.858)">
                    <g id="Group_2793">
                        <path id="Path_1948" d="M399.338 113.616v81.677h-81.689v-81.677zm-6.168 75.509v-69.341h-69.341v69.341z" class="cls-2" transform="translate(-317.649 -113.616)"/>
                    </g>
                </g>
                <path id="Rectangle_835" d="M0 0H277.136V255.221H0z" class="cls-3"/>
                <g id="Group_2835" transform="translate(18.693 .189)">
                    <g id="Group_2834">
                        <g id="Group_2833">
                            <g id="Group_2808">
                                <g id="Group_2807">
                                    <g id="Group_2796" transform="translate(0 115.022)">
                                        <path id="Path_1949" d="M495.968 170.256c-33.768 34.228-76.246 106.228-68.328 120.823 8.82 16.257 55.841-31.723 55.661-34.527-.137-2.117 16.4-45.851 28.951-77.66 12.537-31.778-7.934-17.102-16.284-8.636z" class="cls-15" transform="translate(-425.605 -158.897)"/>
                                        <g id="Group_2795">
                                            <path id="Path_1950" d="M484.55 256.867c1.436-4.678 23.944-62.347 30.379-80.585s.47-23.88-17.907-7.177-58.651 72.5-67.843 102.121c-8.855 28.529 5.832 28.529 25.214 15.377 15.868-10.765 30.157-29.736 30.157-29.736z" class="cls-4" transform="translate(-426.539 -159.158)"/>
                                            <path id="Path_1951" d="M501.445 164.871a13.621 13.621 0 0 0 1.146 3.694 13.455 13.455 0 0 0 2.053 3.276 13.5 13.5 0 0 0-1.146-3.694 13.644 13.644 0 0 0-2.053-3.276zm-55.678 79.3a13.52 13.52 0 0 1 1.144 3.694 13.512 13.512 0 0 1-2.053-3.276 13.682 13.682 0 0 1-1.144-3.694 13.681 13.681 0 0 1 2.053 3.276zm19.906-30.3a13.5 13.5 0 0 1 1.146 3.694 13.471 13.471 0 0 1-2.055-3.278 13.687 13.687 0 0 1-1.144-3.694 13.7 13.7 0 0 1 2.053 3.28zm20.677-7.606a13.524 13.524 0 0 1 3.694-1.146 13.455 13.455 0 0 1-3.276 2.053 13.62 13.62 0 0 1-3.694 1.146 13.682 13.682 0 0 1 3.276-2.05zm-18.638 30.638a13.44 13.44 0 0 1 3.692-1.146 13.478 13.478 0 0 1-3.276 2.053 13.691 13.691 0 0 1-3.694 1.146 13.569 13.569 0 0 1 3.278-2.05zm15.153-52.479a13.544 13.544 0 0 1 3.694-1.144 13.517 13.517 0 0 1-3.276 2.053 13.692 13.692 0 0 1-3.694 1.146 13.7 13.7 0 0 1 3.276-2.052zm11.561 40.908a13.479 13.479 0 0 1-1.8 3.421 13.536 13.536 0 0 1 .864-3.769 13.685 13.685 0 0 1 1.8-3.421 13.681 13.681 0 0 1-.864 3.772zm-39 36.511a13.48 13.48 0 0 1-1.8 3.421 13.506 13.506 0 0 1 .864-3.767 13.662 13.662 0 0 1 1.8-3.423 13.685 13.685 0 0 1-.866 3.772zm26.26-6.143c.031.01.052.021.083.031-.218.261-.437.53-.676.81a12.691 12.691 0 0 1-3.18-1.7 13.452 13.452 0 0 1 3.771.859zm-46.216 21.785a13.475 13.475 0 0 1-3.421-1.8 13.463 13.463 0 0 1 3.769.864 13.615 13.615 0 0 1 3.421 1.8 13.594 13.594 0 0 1-3.77-.861zm69.35-84.5a15.388 15.388 0 0 1 2.441 1.144c-.062.166-.124.342-.187.51a15.02 15.02 0 0 1-2.6-.717 13.552 13.552 0 0 1-3.429-1.8 13.369 13.369 0 0 1 3.773.863z" class="cls-16" transform="translate(-427.777 -153.034)"/>
                                        </g>
                                    </g>
                                    <g id="Group_2798" transform="translate(62.035 107.261)">
                                        <g id="Group_2797">
                                            <path id="Path_1952" d="M378.507 303.252h128.384s-20.407-100.692-69.642-144.274c-6.085-5.387-19.813-4.162-28.767.288-3.2 1.589-14.677 17.648-17.952 32.832-3.253 15.166-12.381 110.702-12.023 111.154z" class="cls-4" transform="translate(-378.497 -155.412)"/>
                                        </g>
                                        <path id="Path_1953" d="M440.255 176.193c-1.007 3.39-1.84 6.907-2.521 10.442 0-.137-.017-.273-.019-.41-.052-1.985-.068-4.009-.278-5.981-.013-.1-.178-.135-.195-.017a30.488 30.488 0 0 0-.164 6.025c.052.947.11 1.9.191 2.845-.269 1.587-.512 3.172-.709 4.744-.377 3-1.386 14.15-1.471 16.369-.019.466.518.541.648.058.6-2.242 2.206-13.742 2.716-16.7a161.529 161.529 0 0 0 2.028-17.349c.011-.14-.19-.142-.226-.026z" class="cls-6" transform="translate(-429.339 -133.227)"/>
                                        <path id="Path_1954" d="M424.5 179.257a13.62 13.62 0 0 0 1.146 3.694 13.414 13.414 0 0 0 2.053 3.276 13.509 13.509 0 0 0-1.146-3.692 13.655 13.655 0 0 0-2.053-3.278zm17.4 51.13a13.5 13.5 0 0 1 1.144 3.694 13.529 13.529 0 0 1-2.053-3.278 13.665 13.665 0 0 1-1.144-3.694 13.7 13.7 0 0 1 2.053 3.278zm41.7 18.3a13.494 13.494 0 0 1 1.144 3.694 14.951 14.951 0 0 1-3.2-6.972 13.7 13.7 0 0 1 2.056 3.283zm-30.654 32.783a13.456 13.456 0 0 1 1.146 3.694 13.484 13.484 0 0 1-2.053-3.278 13.655 13.655 0 0 1-1.146-3.692 13.683 13.683 0 0 1 2.053 3.276zm-53.523-63.337a13.508 13.508 0 0 1 1.144 3.692 13.476 13.476 0 0 1-2.053-3.276 13.688 13.688 0 0 1-1.144-3.694 13.7 13.7 0 0 1 2.053 3.278zm-16.863 34.785a13.521 13.521 0 0 1 1.144 3.694 13.514 13.514 0 0 1-2.053-3.275 13.688 13.688 0 0 1-1.144-3.694 13.683 13.683 0 0 1 2.053 3.275zm40.808 25.067a13.5 13.5 0 0 1 1.144 3.694 14.956 14.956 0 0 1-3.2-6.97 13.753 13.753 0 0 1 2.057 3.276zm39.112-67.812a13.509 13.509 0 0 1 1.146 3.692 13.487 13.487 0 0 1-2.055-3.276 13.684 13.684 0 0 1-1.144-3.694 13.656 13.656 0 0 1 2.053 3.278zm-48.536-11.441a13.476 13.476 0 0 1 3.694-1.146 13.519 13.519 0 0 1-3.276 2.053 13.692 13.692 0 0 1-3.694 1.146 13.557 13.557 0 0 1 3.276-2.053zm-8.1 41.308a13.472 13.472 0 0 1 3.694-1.144 13.518 13.518 0 0 1-3.276 2.053 13.689 13.689 0 0 1-3.694 1.144 13.684 13.684 0 0 1 3.279-2.053zm75.493 43.773a13.427 13.427 0 0 1 3.694-1.144 14.952 14.952 0 0 1-6.972 3.2 13.7 13.7 0 0 1 3.281-2.056zm-76.82 8.368a13.39 13.39 0 0 1 3.7-1.15 13.9 13.9 0 0 1-3.276 2.051c-.269.114-.518.23-.785.344-.69.039-1.361.1-2.051.135a14.584 14.584 0 0 1 2.414-1.38zm47.96-41.811a13.43 13.43 0 0 1 3.694-1.146 13.488 13.488 0 0 1-3.278 2.053 13.655 13.655 0 0 1-3.692 1.146 13.581 13.581 0 0 1 3.279-2.053zm-38.536-88.211a13.541 13.541 0 0 1 3.694-1.144 14.932 14.932 0 0 1-6.97 3.2 13.687 13.687 0 0 1 3.279-2.056zm-8.312 19.162a13.509 13.509 0 0 1-1.8 3.421 13.466 13.466 0 0 1 .864-3.769 13.68 13.68 0 0 1 1.8-3.421 13.684 13.684 0 0 1-.861 3.769zm-20.391 95.556a13.415 13.415 0 0 1-1.8 3.421 13.464 13.464 0 0 1 .866-3.769 13.611 13.611 0 0 1 1.8-3.421 13.683 13.683 0 0 1-.863 3.769zm55.073-71.535a13.55 13.55 0 0 1-1.8 3.421 13.517 13.517 0 0 1 .864-3.769 13.749 13.749 0 0 1 1.8-3.421 13.7 13.7 0 0 1-.861 3.768zM424.458 247.4a13.547 13.547 0 0 1-1.8 3.421 13.519 13.519 0 0 1 .864-3.769 13.7 13.7 0 0 1 1.8-3.423 13.7 13.7 0 0 1-.864 3.771zm73.572 49.315c-.01.178-.023.354-.044.53h-.331c.114-.172.239-.345.375-.527zm-36.145-.166a13.853 13.853 0 0 1 1.807-3.429 13.732 13.732 0 0 1-.862 3.773c-.041.114-.093.238-.135.352h-1.04c.073-.224.145-.465.231-.692zm7.382-29.646a13.481 13.481 0 0 1-1.8 3.421 13.465 13.465 0 0 1 .866-3.769 13.674 13.674 0 0 1 1.8-3.42 13.607 13.607 0 0 1-.866 3.772zm-31.089-98.978a13.517 13.517 0 0 1-1.8 3.421 13.536 13.536 0 0 1 .864-3.769 13.684 13.684 0 0 1 1.8-3.421 13.684 13.684 0 0 1-.864 3.773zm-34.359 97.012a13.55 13.55 0 0 1-3.421-1.8 13.43 13.43 0 0 1 3.769.866 13.685 13.685 0 0 1 3.423 1.8 13.626 13.626 0 0 1-3.771-.862zm33.609 30.918a13.524 13.524 0 0 1-3.423-1.8 13.534 13.534 0 0 1 3.771.864 13.751 13.751 0 0 1 3.421 1.8 13.664 13.664 0 0 1-3.769-.861zm57.161-28c.083.29.176.593.261.872a10.548 10.548 0 0 1-1.747-1.071 9.78 9.78 0 0 1 1.486.204zm-29.308-35.608a13.382 13.382 0 0 1-3.421-1.8 13.522 13.522 0 0 1 3.769.866 13.684 13.684 0 0 1 3.421 1.8 13.63 13.63 0 0 1-3.769-.861zm-26.944 34.023a13.546 13.546 0 0 1-3.421-1.8 13.522 13.522 0 0 1 3.769.864 13.685 13.685 0 0 1 3.421 1.8 13.683 13.683 0 0 1-3.769-.859zm-16-48.8a13.513 13.513 0 0 1-3.421-1.8 13.536 13.536 0 0 1 3.769.864 13.682 13.682 0 0 1 3.421 1.8 13.685 13.685 0 0 1-3.773-.858zm-33.874-19.421a13.416 13.416 0 0 1-3.421-1.8 13.467 13.467 0 0 1 3.769.866 13.616 13.616 0 0 1 3.421 1.8 13.67 13.67 0 0 1-3.773-.86zM449.03 186.7a13.526 13.526 0 0 1-3.423-1.8 13.534 13.534 0 0 1 3.771.864 13.684 13.684 0 0 1 3.421 1.8 13.667 13.667 0 0 1-3.769-.864z" class="cls-16" transform="translate(-373.801 -149.406)"/>
                                    </g>
                                    <g id="Group_2806" transform="translate(109.252)">
                                        <g id="Group_2802" transform="translate(52.745)">
                                            <g id="Group_2800" transform="translate(9.652)">
                                                <path id="Path_1955" d="M418.745 174.892c.271-6.168-.974-34.537-3.089-42.356s-9.824-29.873-15.976-28.862-4.409 7.649-4.409 7.649-4.732-8.8-10.831-7.216-3.05 11.818-3.05 11.818-5.517-8.681-11.488-6.669-1.181 11.793-1.181 11.793-4.676-8.171-8.9-4.444c-5.078 4.485 5.242 18.578 6.928 27.383.383 2 4.871 41.082 4.871 41.082z" class="cls-15" transform="translate(-358.432 -103.64)"/>
                                                <g id="Group_2799" transform="translate(9.753 7.758)">
                                                    <path id="Path_1956" d="M377.924 111.945c7.566 10.382 9.081 16.231 9.922 28.848.017.247.387.278.394.019.3-12.431-.541-20.043-9.831-29.26-.454-.452-.844-.102-.485.393z" class="cls-6" transform="translate(-377.784 -103.14)"/>
                                                    <path id="Path_1957" d="M371.656 109.447c6.916 11.47 8.613 17.8 10.467 30.951.027.184.344.16.334-.029-.74-13.052-1.753-20.629-10.168-31.179-.38-.478-.95-.267-.633.257z" class="cls-6" transform="translate(-359.067 -105.735)"/>
                                                    <path id="Path_1958" d="M365.6 107.981c5.894 11.588 8.055 18.447 8.217 31.446a.239.239 0 0 0 .476.021c1.125-13.268-1.508-21.849-8.322-31.607-.464-.666-.742-.59-.371.14z" class="cls-6" transform="translate(-338.441 -107.384)"/>
                                                </g>
                                            </g>
                                            <g id="Group_2801" transform="translate(0 36.507)">
                                                <path id="Path_1959" d="M393.132 174.25s-11.72-11.03-15.8-17.014-11.078-33.87-5.14-35.724c7.666-2.393 14.878 12.911 17.43 20.867 0 0 17.729-5.552 25.282 4.311s-21.772 27.56-21.772 27.56z" class="cls-15" transform="translate(-369.897 -121.261)"/>
                                                <path id="Path_1960" d="M370.341 121.441c8.565 2.861 11.242 13.523 14.3 21.056a.744.744 0 0 0 1.179.323c7.585-1.831 18.82-2.2 24.982 3.261a.188.188 0 0 0 .271-.259c-5.811-6.76-16.879-7.295-25.061-4.755-3.01-7.775-6.164-18.35-15.644-19.709a.043.043 0 0 0-.027.083z" class="cls-6" transform="translate(-365.725 -121.157)"/>
                                            </g>
                                        </g>
                                        <g id="Group_2803" transform="translate(1.431 67.234)">
                                            <path id="Path_1961" d="M358.6 194.7c7.705 13.338 52.259 54.462 91.093 61.586 5.271.968 25.334-3.273 29.532-16.585 7.475-23.706 1.5-72.646-2.325-102.088-.746-5.751-54.157 6.062-52.771 14.851 1.531 9.729 7.253 45.472 6.373 45.878-3.2 1.477-37.336-13.264-59.747-18.1-15.881-3.422-18.088 4.181-12.155 14.458z" class="cls-15" transform="translate(-355.585 -136.092)"/>
                                        </g>
                                        <g id="Group_2805" transform="translate(0 83.316)">
                                            <path id="Path_1962" d="M484.977 143.854l-60.859 13.177s5.536 31.1 4.446 30.915-43.786-15.75-60.252-17.385-16.469 5.6-8.113 19.193 63.047 59.1 90 59.088c13.718 0 26.486-8.793 28.97-12.986 7.731-13.043 5.808-92.002 5.808-92.002z" class="cls-12" transform="translate(-354.692 -143.854)"/>
                                            <path id="Path_1963" d="M484.977 143.854l-60.859 13.177s5.536 31.1 4.446 30.915-43.786-15.75-60.252-17.385-16.469 5.6-8.113 19.193 63.047 59.1 90 59.088c13.718 0 26.486-8.793 28.97-12.986 7.731-13.043 5.808-92.002 5.808-92.002z" class="cls-4" transform="translate(-354.692 -143.854)"/>
                                            <path id="Path_1964" d="M383.4 183.354a13.573 13.573 0 0 1 1.148 3.694 13.2 13.2 0 0 1-2.053-3.267 13.7 13.7 0 0 1-1.148-3.7 14.21 14.21 0 0 1 2.053 3.273zm48.37 54.325a13.6 13.6 0 0 1 1.137 3.692 13.763 13.763 0 0 1-2.055-3.278 13.584 13.584 0 0 1-1.135-3.692 14.179 14.179 0 0 1 2.05 3.278zm35.842-37.251a13.218 13.218 0 0 1 1.146 3.694 13.436 13.436 0 0 1-2.053-3.278 13.98 13.98 0 0 1-1.148-3.692 13.806 13.806 0 0 1 2.052 3.276zm-52.993.153a13.118 13.118 0 0 1 1.148 3.692 13.359 13.359 0 0 1-2.056-3.273 14.024 14.024 0 0 1-1.148-3.692 13.373 13.373 0 0 1 2.053 3.273zm26.666 15.348a13.532 13.532 0 0 1 1.146 3.692 13.115 13.115 0 0 1-2.053-3.276 13.645 13.645 0 0 1-1.148-3.694 13.379 13.379 0 0 1 2.052 3.278zm-2.349-37.413a13.589 13.589 0 0 1 1.137 3.692 13.7 13.7 0 0 1-2.055-3.278 13.516 13.516 0 0 1-1.135-3.692 13.756 13.756 0 0 1 2.05 3.279zm27.078-27.816a13.982 13.982 0 0 1 1.148 3.692 13.206 13.206 0 0 1-2.055-3.267 13.6 13.6 0 0 1-1.146-3.7 14.178 14.178 0 0 1 2.053 3.275zm-109.456 31.442a13.4 13.4 0 0 1 1.8-3.418 13.521 13.521 0 0 1-.864 3.769 13.91 13.91 0 0 1-1.8 3.419 13.521 13.521 0 0 1 .864-3.77zm36.047 24.874a13.926 13.926 0 0 1 1.8-3.421 13.586 13.586 0 0 1-.862 3.771 13.277 13.277 0 0 1-1.8 3.418 13.673 13.673 0 0 1 .862-3.768zm27.07-28.032a13.646 13.646 0 0 1 1.8-3.418 14.915 14.915 0 0 1-2.666 7.187 13.622 13.622 0 0 1 .867-3.768zm3.505 40.572a13.582 13.582 0 0 1 1.8-3.421 13.575 13.575 0 0 1-.862 3.769 13.921 13.921 0 0 1-1.8 3.421 13.431 13.431 0 0 1 .863-3.768zm34.715-4.382a13.6 13.6 0 0 1 1.8-3.418 13.678 13.678 0 0 1-.862 3.769 13.533 13.533 0 0 1-1.8 3.418 13.594 13.594 0 0 1 .867-3.768zm-10.945-57.35a13.809 13.809 0 0 1 1.8-3.429 13.661 13.661 0 0 1-.862 3.779 14.059 14.059 0 0 1-1.8 3.418 13.591 13.591 0 0 1 .863-3.767zm4.1 32.542a13.972 13.972 0 0 1 1.8-3.429 13.448 13.448 0 0 1-.862 3.769 13.594 13.594 0 0 1-1.8 3.429 13.508 13.508 0 0 1 .859-3.768zm-82.354 9.953a13.783 13.783 0 0 1 3.421 1.8 14.933 14.933 0 0 1-7.189-2.666 13.487 13.487 0 0 1 3.765.867zm64.385-1.485a13.735 13.735 0 0 1 3.419 1.8 14.917 14.917 0 0 1-7.187-2.666 13.52 13.52 0 0 1 3.765.867zm-6.072-38.246a13.948 13.948 0 0 1 3.418 1.8 13.675 13.675 0 0 1-3.769-.862 13.255 13.255 0 0 1-3.421-1.8 13.588 13.588 0 0 1 3.769.863zm34.548 12.012a13.5 13.5 0 0 1 3.418 1.8 14.916 14.916 0 0 1-7.187-2.666 13.621 13.621 0 0 1 3.769.866zM404.1 224.471a13.872 13.872 0 0 1 3.418 1.8 14.886 14.886 0 0 1-7.187-2.664 13.59 13.59 0 0 1 3.769.864zm46.262 10.117a13.449 13.449 0 0 1 3.421 1.8 14.934 14.934 0 0 1-7.189-2.666 13.5 13.5 0 0 1 3.765.866zM400.5 183.093a13.854 13.854 0 0 1 3.421 1.8 13.619 13.619 0 0 1-3.771-.864 13.149 13.149 0 0 1-3.418-1.8 13.519 13.519 0 0 1 3.768.864z" class="cls-16" transform="translate(-340.335 -140.024)"/>
                                            <g id="Group_2804" transform="translate(16.911 14.377)">
                                                <path id="Path_1965" d="M379.159 165.414a94.851 94.851 0 0 0 2.418 13.769c1.028 4.6 2.463 9.056 3.825 13.552.031.1.189.046.162-.056-1.171-4.521-2.018-9.135-3.019-13.7s-1.691-9.176-2.859-13.678c-.075-.289-.548-.184-.527.113z" class="cls-6" transform="translate(-322.671 -135.427)"/>
                                                <path id="Path_1966" d="M355.966 161.066c7.048-1.753 14.184-3.128 21.323-4.485s14.289-2.729 21.468-3.905c4.056-.667 8.111-1.357 12.19-1.881.108-.015.158.16.05.189-7.036 1.753-14.173 3.16-21.292 4.56q-10.7 2.107-21.458 4c-4.048.713-8.111 1.353-12.191 1.879-.202.025-.297-.305-.09-.357z" class="cls-6" transform="translate(-299.872 -150.794)"/>
                                                <path id="Path_1967" d="M428.121 200.4c-1.125-.99-2.362-1.831-3.537-2.76-1.142-.9-2.291-1.786-3.443-2.673-2.345-1.8-4.7-3.6-7.04-5.407-4.689-3.626-9.288-7.363-13.931-11.049q-3.972-3.148-7.867-6.387c-.106-.089-.253.06-.149.155 3.193 3 6.421 5.981 9.744 8.845-.421-.2-.841-.4-1.256-.609-1.274-.634-2.523-1.322-3.769-2.01-.11-.06-.189.1-.091.166a33.253 33.253 0 0 0 3.638 2.246q.926.5 1.881.936c.307.143.611.282.926.4l.021.008c.754.636 1.506 1.278 2.271 1.9q6.893 5.609 14.086 10.821c1.324.959 2.662 1.9 4.028 2.8 1.442.949 2.828 1.983 4.34 2.818a.127.127 0 0 0 .148-.2z" class="cls-6" transform="translate(-392.119 -127.96)"/>
                                            </g>
                                        </g>
                                    </g>
                                </g>
                            </g>
                            <g id="Group_2826" transform="translate(66.374 11.317)">
                                <g id="Group_2809" transform="translate(20.157 119.442)">
                                    <path id="Path_1968" d="M435.1 177.567l-7.1-10.814-6.693 9.089 2.735 8.036 7.59.161z" class="cls-6" transform="translate(-419.885 -166.753)"/>
                                    <path id="Path_1969" d="M428.642 175.18l12.594 83.779-12.8 29.521-11.536-30.447 4.153-83.014z" class="cls-6" transform="translate(-416.898 -157.894)"/>
                                </g>
                                <g id="Group_2824">
                                    <g id="Group_2811" transform="translate(17.247 69.223)">
                                        <g id="Group_2810">
                                            <path id="Path_1970" d="M422.2 191.951c7.4 1.8 20.188-9.443 25.27-18.588.344-.628-.578-7.266-1.318-15.383-.431-4.927-.791-10.425-.76-15.466L413.73 150s3.039 10.585 2.932 19.371a11.376 11.376 0 0 1-.232 2.066c-.01.1-.037.211-.048.344-.665 3.919-1.334 18.426 5.818 20.17z" class="cls-15" transform="translate(-413.73 -142.514)"/>
                                        </g>
                                        <path id="Path_1971" d="M445.27 142.773c-.961 6.669-5.488 28.622-23.527 28.914a18.114 18.114 0 0 1-3.255-.195c.019-.133.039-.234.046-.331a11.156 11.156 0 0 0 .238-2.078c.11-8.778-2.927-19.367-2.927-19.367z" class="cls-6" transform="translate(-415.838 -142.236)"/>
                                    </g>
                                    <g id="Group_2823">
                                        <g id="Group_2812" transform="translate(0 13.341)">
                                            <path id="Path_1972" d="M467.254 136.085c2.418 11.467-6.338 43.2-14.917 49.686-12.437 9.4-31.373 8.731-39.006-5.894-7.4-14.175 4.747-55.325 14.2-61.075 13.916-8.466 36.151.346 39.723 17.283z" class="cls-15" transform="translate(-411.049 -115.541)"/>
                                        </g>
                                        <g id="Group_2818" transform="translate(9.902 38.571)">
                                            <g id="Group_2813" transform="translate(17.22 12.382)">
                                                <path id="Path_1973" d="M425.3 134.548c.037-.077.139.147.112.234-.646 2.122-1.03 4.659.715 5.894.054.037.019.145-.052.116-2.275-.973-1.73-4.338-.775-6.244z" class="cls-6" transform="translate(-424.474 -132.798)"/>
                                                <path id="Path_1974" d="M425.816 133.728c3.514.669 1.914 7.647-1.34 7.026-3.203-.612-1.604-7.588 1.34-7.026z" class="cls-6" transform="translate(-422.477 -133.695)"/>
                                            </g>
                                            <g id="Group_2814" transform="translate(0 8.104)">
                                                <path id="Path_1975" d="M434.776 133c0-.085-.193.064-.209.153-.427 2.177-1.282 4.6-3.4 4.867-.066.008-.085.12-.01.126 2.46.211 3.563-3.015 3.619-5.146z" class="cls-6" transform="translate(-429.619 -130.191)"/>
                                                <path id="Path_1976" d="M434.848 131.741c-3.414-1.061-5.285 5.847-2.122 6.829 3.115.967 4.985-5.942 2.122-6.829z" class="cls-6" transform="translate(-431.104 -131.631)"/>
                                            </g>
                                            <path id="Path_1977" d="M425.641 135.438a27.853 27.853 0 0 1-2.484-1.572c-.947-.611-1.763-1-2.227-2.084a1.514 1.514 0 0 1 .646-1.732 3.757 3.757 0 0 1 3.775.468 5.515 5.515 0 0 1 2.563 3.035 1.615 1.615 0 0 1-2.273 1.885z" class="cls-5" transform="translate(-401.597 -125.583)"/>
                                            <path id="Path_1978" d="M431.127 131.8a27.8 27.8 0 0 0 2.938-.085 4.734 4.734 0 0 0 2.979-.657 1.513 1.513 0 0 0 .327-1.819 3.754 3.754 0 0 0-3.485-1.523 5.509 5.509 0 0 0-3.752 1.3 1.615 1.615 0 0 0 .993 2.784z" class="cls-5" transform="translate(-429.275 -127.719)"/>
                                            <path id="Path_1979" d="M430.807 144.284c-.632.387-1.309.965-2.107.852a5.847 5.847 0 0 1-2.2-1.075.077.077 0 0 0-.118.089 2.982 2.982 0 0 0 2.474 1.8 2.365 2.365 0 0 0 2.138-1.523c.062-.116-.094-.199-.187-.143z" class="cls-6" transform="translate(-416.052 -110.219)"/>
                                            <g id="Group_2816" transform="translate(1.701 1.455)">
                                                <g id="Group_2815">
                                                    <path id="Path_1980" d="M439.084 154.041a7.557 7.557 0 0 1-5.662 2.148 9.512 9.512 0 0 1-2.675-.487 2.834 2.834 0 0 1-.493-.174c-.153-.054-.29-.106-.456-.18a.553.553 0 0 1-.323-.584v-.014a1.036 1.036 0 0 1 .072-.218v-.017l.048-.189c.336-1.674 1.077-4.166 1.077-4.166-.677.164-4.1.849-3.849-.01 2.08-7.1 4.392-14.992 7.96-21.615a.206.206 0 0 1 .383.147c-1.73 6.9-4.659 13.45-6.506 20.353a13.185 13.185 0 0 1 3.715-.257c.22.122-1.519 4.792-1.61 5.557a.269.269 0 0 0 0 .083c2.714 1 5.014.636 8.159-.617.191-.087.328.099.16.24z" class="cls-6" transform="translate(-426.816 -128.421)"/>
                                                </g>
                                            </g>
                                            <g id="Group_2817" transform="translate(6.794 26.971)">
                                                <path id="Path_1981" d="M426.692 142.16a8.971 8.971 0 0 0 3.029 3.379 4.042 4.042 0 0 0 2.381.59c1.825-.141 2.161-1.73 2.09-3.157a9.672 9.672 0 0 0-.4-2.235 11.594 11.594 0 0 1-7.1 1.423z" class="cls-6" transform="translate(-426.692 -140.737)"/>
                                                <path id="Path_1982" d="M426.692 144.391a4.042 4.042 0 0 0 2.381.59c1.825-.141 2.161-1.73 2.09-3.157-1.902-.149-3.982.781-4.471 2.567z" class="cls-13" transform="translate(-423.663 -139.589)"/>
                                            </g>
                                        </g>
                                        <g id="Group_2819" opacity="0.2" transform="translate(11.096 33.016)">
                                            <path id="Path_1983" d="M434.577 128.334a24.764 24.764 0 0 1-3.425-.5c-1.135-.294-2.2-.808-3.344-1.077a18.824 18.824 0 0 0-6.6-.037c-.193.023-.188.147 0 .128a16.358 16.358 0 0 1 6.895.57 20.856 20.856 0 0 0 5.561 1.334c4.384.311 8.644 1.177 12.124 4.036a.023.023 0 0 0 .031-.033 20.733 20.733 0 0 0-11.242-4.421z" transform="translate(-421.066 -123.533)"/>
                                            <path id="Path_1984" d="M433.8 126.832a23.809 23.809 0 0 1-3.247-.477c-1.077-.28-2.084-.767-3.17-1.021a17.877 17.877 0 0 0-6.259-.035c-.184.021-.178.139 0 .122a15.487 15.487 0 0 1 6.536.539 19.715 19.715 0 0 0 5.273 1.266c4.156.294 8.194 1.115 11.494 3.827.021.019.052-.012.031-.031a19.652 19.652 0 0 0-10.658-4.19z" transform="translate(-419.555 -125.038)"/>
                                        </g>
                                        <g id="Group_2820" transform="translate(2.563)">
                                            <path id="Path_1985" d="M455.965 170.126s11.092-18.292 10.067-28.871c-.464-4.782-6.978-8.005-6.978-8.005a10.8 10.8 0 0 0-3.408-10.869C450 117.055 436.3 118.24 436.3 118.24s-8.865-12.833-21.427-7.755-4.39 19.318-4.39 19.318-4.612 6.537 6.638 11.656c10.956 4.985 33.366.1 33.366.1a78.046 78.046 0 0 0 .331 23.2c.8 4.352 5.147 5.367 5.147 5.367z" class="cls-5" transform="translate(-405.472 -108.894)"/>
                                            <path id="Path_1986" d="M410.758 114.525a22.021 22.021 0 0 1 8.834-1.608 23.733 23.733 0 0 1 7.956 1.249c4.514 1.624 8.53 4.956 9.286 9.918a9.2 9.2 0 0 1-1.757 6.951c-.062.081-.182-.031-.118-.112 2.909-3.593 1.384-9.184-1.614-12.2-3.392-3.408-8.579-4.7-13.247-4.9a38.8 38.8 0 0 0-9.259.97.141.141 0 0 1-.081-.268z" class="cls-5" transform="translate(-382.092 -105.013)"/>
                                            <path id="Path_1987" d="M423.325 116.749c1.044-3.514 4.059-5.772 7.446-6.851a18.323 18.323 0 0 1 11.886.423 23.1 23.1 0 0 1 9.719 7.214c.058.07-.064.17-.124.1-4.72-5.588-12.108-8.774-19.407-7.235-3.265.688-6.532 2.368-8.047 5.486a11.021 11.021 0 0 0 .276 9.325c1.693 3.479 4.829 6.11 8.068 8.1a.069.069 0 0 1-.066.12 21.244 21.244 0 0 1-8.041-6.872 12 12 0 0 1-1.71-9.81z" class="cls-5" transform="translate(-422.906 -109.102)"/>
                                        </g>
                                        <g id="Group_2821" transform="translate(44.159 52.435)">
                                            <path id="Path_1988" d="M411.646 141.536s8.412-9.617 12.851-6.505-2.677 17.6-8.447 19.063a5.674 5.674 0 0 1-7.227-3.856z" class="cls-15" transform="translate(-408.824 -134.411)"/>
                                            <path id="Path_1989" d="M421 136.69a.077.077 0 0 1 .012.151c-4.059 1.152-6.5 4.535-8.339 8.117 1.314-1.314 2.973-1.931 4.751-.344.093.083-.021.232-.128.2a3.485 3.485 0 0 0-3.949.793 16.729 16.729 0 0 0-2.165 2.89c-.22.327-.829.073-.65-.313l.041-.087c.437-4.97 5.047-11.487 10.427-11.407z" class="cls-6" transform="translate(-407.465 -131.968)"/>
                                        </g>
                                        <g id="Group_2822" transform="translate(1.18 39.1)">
                                            <path id="Path_1990" d="M427.736 150.056a9.776 9.776 0 1 0-7.788-13.328 9.777 9.777 0 0 0 7.788 13.328zm2.4-18.087a8.468 8.468 0 1 1-8.977 5.244 8.508 8.508 0 0 1 8.979-5.244z" class="cls-12" transform="translate(-400.349 -125.172)"/>
                                            <path id="Path_1991" d="M436.28 147.219c3.708.493 7.577-2.859 8.832-7.8a11.643 11.643 0 0 0-.319-7.131 6.088 6.088 0 0 0-10.1-2.569 11.671 11.671 0 0 0-3.684 6.116c-1.326 5.223.756 10.276 4.643 11.266a6.122 6.122 0 0 0 .628.118zm3.377-17.9a4.393 4.393 0 0 1 .487.1 5.211 5.211 0 0 1 3.437 3.35 10.407 10.407 0 0 1 .267 6.327c-1.152 4.525-4.674 7.552-7.875 6.735s-4.85-5.153-3.7-9.677a10.365 10.365 0 0 1 3.253-5.432 5.394 5.394 0 0 1 4.131-1.4z" class="cls-12" transform="translate(-430.608 -127.974)"/>
                                            <path id="Path_1992" d="M433.737 135.981l1.061-.764c-1.129-1.57-4.04-4.038-6.984-2.151l.707 1.1c2.633-1.695 5.111 1.672 5.216 1.815z" class="cls-12" transform="translate(-414.099 -123.248)"/>
                                            <path id="Path_1993" d="M431.36 146.289l1.272-.3c-.139-.593-1.425-5.832-4.137-7.011-2.536-1.094-19.918-3.816-20.656-3.932l-.2 1.291c4.985.777 18.381 2.99 20.339 3.841 1.787.78 3.047 4.675 3.382 6.111z" class="cls-12" transform="translate(-370.128 -120.392)"/>
                                        </g>
                                    </g>
                                </g>
                                <g id="Group_2825" transform="translate(16.625 90.848)">
                                    <path id="Path_1994" d="M413.683 159.9l8.849 18.153 21.474-25.1 7.063 7.094s-20.02 38.911-20.279 37.232l-8.76-15.491-10.291 11.9-1.026-28.04z" class="cls-2" transform="translate(-410.387 -152.952)"/>
                                    <path id="Path_1995" d="M411.164 175.256c-.012-4.635-.157-9.3.043-13.933.006-.166.257-.255.311-.066 1.231 4.392 1.191 22.119 1.5 26.347l.046-.052c.427-.514 9.572-10.512 9.68-10.369 1.836 2.428 8.258 13.707 8.716 14.741 3.164-6.178 15.373-28.692 19.214-34.593a.16.16 0 0 1 .288.141c-2.724 6.483-18.845 36.779-19.129 36.717-.18.157-8.153-13.73-9.174-16.386-1.516 2.146-10.67 13.347-10.751 12.663a146.189 146.189 0 0 1-.744-15.21z" class="cls-6" transform="translate(-411.102 -148.347)"/>
                                </g>
                            </g>
                            <g id="Group_2832" transform="translate(1.131 212.112)">
                                <g id="Group_2829" transform="translate(.39 .153)">
                                    <path id="Path_1996" d="M419.555 241.033c7.6 10.871 28.29 12.943 79.9 23.053 7.139 1.4 30.57-46.34 23.02-48.225-9.508-2.376-46.92-9.532-49.723-9.711-23.638-1.502-58.352 27.51-53.197 34.883z" class="cls-15" transform="translate(-419.041 -206.094)"/>
                                    <g id="Group_2828" transform="translate(57.604 7.411)">
                                        <path id="Path_1997" d="M424.223 209.671s21.864 3.3 32.811 8.6c14.662 7.086 24.4 19.239 28.177 24.578 7.879 11.146 19.222 43.541 10.463 48.437-7.931 4.432-17.853-29.268-17.853-29.268s15.785 32.691 5.256 36.271-19.823-36.2-19.823-36.2 15.468 33.953 4.026 35.925c-8.648 1.492-19.094-34.058-19.094-34.058s13.094 29.275 4.266 31.191C442.7 297.265 431 265.052 431 265.052c-23.256 1.1-34.777-7.894-42.213-15.265-1.803-1.787 35.436-40.116 35.436-40.116z" class="cls-15" transform="translate(-388.72 -209.671)"/>
                                        <g id="Group_2827" transform="translate(56.599 40.639)">
                                            <path id="Path_1998" d="M394.749 229.333c1.993 3.773 4.036 7.579 5.687 11.515s3.166 7.935 4.444 12.008c3.133 9.99 3.532 16.736 3.462 16.322-1.657-9.789-7.349-23.977-9-27.915s-3.1-7.941-4.744-11.871c-.044-.1.102-.148.151-.059z" class="cls-6" transform="translate(-366.983 -229.286)"/>
                                            <path id="Path_1999" d="M402.2 232.082c2.337 4.927 4.836 9.733 6.957 14.768 2.109 5.008 3.671 9.943 5.43 15.083.137.4-.12.338-.273-.054-1.962-5.065-4.168-9.6-6.191-14.639-2.016-5.024-3.849-10.164-6.046-15.112-.037-.077.084-.121.123-.046z" class="cls-6" transform="translate(-388.757 -226.331)"/>
                                            <path id="Path_2000" d="M410.378 233.392c3.957 7.347 6.555 15.416 8.911 23.393.118.4-.205.286-.35-.112-2.816-7.834-4.968-14-8.815-23.144-.061-.143.176-.292.254-.137z" class="cls-6" transform="translate(-410.114 -224.956)"/>
                                        </g>
                                    </g>
                                </g>
                                <g id="Group_2831">
                                    <path id="Path_2001" d="M520.595 213.553L475.38 263.9s-45.718-10.5-52.456-22.224c-4.434-7.717 29.985-38.981 55.974-35.337z" class="cls-4" transform="translate(-422.535 -205.989)"/>
                                    <path id="Path_2002" d="M478.193 242.562a13.684 13.684 0 0 0 1.144 3.694 13.513 13.513 0 0 0 2.053 3.276 13.509 13.509 0 0 0-1.144-3.692 13.7 13.7 0 0 0-2.053-3.278zm-31.411-2.82a13.508 13.508 0 0 1 1.144 3.692 13.48 13.48 0 0 1-2.053-3.276 13.686 13.686 0 0 1-1.144-3.694 13.654 13.654 0 0 1 2.053 3.278zm22.4-10.575a13.5 13.5 0 0 1 3.694-1.144 14.956 14.956 0 0 1-6.97 3.2 13.648 13.648 0 0 1 3.279-2.056zM446.8 215.3a13.48 13.48 0 0 1-1.8 3.421 13.506 13.506 0 0 1 .864-3.767 13.662 13.662 0 0 1 1.8-3.423 13.682 13.682 0 0 1-.864 3.769zm45.828 10.9a13.414 13.414 0 0 1-1.8 3.421 13.463 13.463 0 0 1 .866-3.769 13.612 13.612 0 0 1 1.8-3.421 13.683 13.683 0 0 1-.869 3.769zm18.572-11.935a13.55 13.55 0 0 1-3.421-1.8 13.431 13.431 0 0 1 3.769.866 13.688 13.688 0 0 1 3.423 1.8 13.624 13.624 0 0 1-3.771-.866zm-38.5-4.165a13.481 13.481 0 0 1-3.421-1.8 13.536 13.536 0 0 1 3.769.864 13.684 13.684 0 0 1 3.421 1.8 13.667 13.667 0 0 1-3.769-.864zm-14.242 44.268a13.526 13.526 0 0 1-3.423-1.8 13.533 13.533 0 0 1 3.771.864 13.72 13.72 0 0 1 3.421 1.8 13.666 13.666 0 0 1-3.764-.865zm-33.99-25.108a16.157 16.157 0 0 1 2.712.748 13.935 13.935 0 0 1 3.429 1.809 13.82 13.82 0 0 1-3.773-.872 14.892 14.892 0 0 1-2.681-1.289c.109-.126.214-.256.318-.397z" class="cls-16" transform="translate(-420.28 -203.581)"/>
                                    <g id="Group_2830" transform="translate(25.314)">
                                        <path id="Path_2003" d="M442.641 214.566c4.193-3.037 15.992-10.117 31.038-8.231.133.017.137.232 0 .228-11.343-.321-26.654 5.61-30.938 8.19-.112.066-.205-.112-.1-.187z" class="cls-6" transform="translate(-442.595 -206.02)"/>
                                        <path id="Path_2004" d="M431.66 251.888c4.676-5.8 9.655-11.347 14.65-16.881s9.988-11.086 15.126-16.5c2.9-3.058 5.789-6.135 8.8-9.091.079-.077.228.035.155.124-4.666 5.795-9.63 11.37-14.579 16.927s-9.988 11.092-15.06 16.564c-2.867 3.093-5.789 6.133-8.8 9.091-.152.147-.429-.064-.292-.234z" class="cls-6" transform="translate(-416.492 -202.405)"/>
                                        <path id="Path_2005" d="M467.621 212.917a64.437 64.437 0 0 0-8.476-1.929c-2.851-.535-5.714-1.021-8.579-1.481-5.7-.914-17.677-3.5-28.2-3.472-.116 0 .481.566.595.559 5.012-.271 40.926 6.874 43.877 7.084a4.584 4.584 0 0 0-.317.6c-.06.145.083.334.24.23.369-.249.632-.559.98-.833a.422.422 0 0 0-.12-.758z" class="cls-6" transform="translate(-394.794 -206.005)"/>
                                    </g>
                                </g>
                            </g>
                        </g>
                    </g>
                </g>
            </g>
        </g>
    </g>
</svg>
