<svg xmlns="http://www.w3.org/2000/svg" width="1005.655" height="564.489" viewBox="0 0 1005.655 564.489">
    <defs>
        <style>
            .cls-2{fill:#1976d2}
        </style>
    </defs>
    <g id="Group_2840" transform="translate(92.693 -127.855)">
        <g id="Group_2837" transform="translate(-51.035 171.867)">
            <path id="Path_2008" fill="#003a74" d="M417.673 153.8l-134.922-25.552 17.643 42.424-72.248 30.047-83.363 34.789-223.277 92.819 22.62 54.391L167.4 289.9l83.363-34.789 72.248-30.047 17.643 42.424z" transform="translate(78.494 -128.248)"/>
        </g>
        <path id="Path_2009" d="M93.962 251.588l6.574 15.808-26.921 11.2-31.062 12.959 8.429 20.267 31.063-12.963 26.921-11.2 6.574 15.808 28.7-42.364z" class="cls-2" transform="translate(261.558 282.152)"/>
        <path id="Path_2010" d="M152.34 113.247l3.564 8.57-14.6 6.07-16.841 7.028 4.57 10.988 16.84-7.028 14.6-6.07 3.564 8.57 15.563-22.967z" class="cls-2" transform="translate(419.978 14.608)"/>
        <path id="Path_2011" d="M192.323 208.815l3.564 8.57-14.6 6.07-16.841 7.028 4.57 10.988 16.841-7.028 14.6-6.07 3.564 8.57 15.558-22.967z" class="cls-2" transform="translate(497.303 199.432)"/>
        <path id="Path_2012" d="M139.175 234.658l3.564 8.57-14.6 6.07-16.839 7.028 4.57 10.988 16.841-7.028 14.6-6.07 3.564 8.57 15.559-22.967z" class="cls-2" transform="translate(394.518 249.41)"/>
        <path id="Path_2013" fill="#88c4ff" d="M162.321 144.8l9.1 21.88-37.261 15.5-42.995 17.943 11.666 28.052 42.994-17.943 37.261-15.5 9.1 21.88 39.72-58.635z" transform="translate(355.571 75.64)"/>
        <g id="Group_2838" transform="translate(406.684 463.463)">
            <path id="Path_2014" fill="#0064c6" d="M361.2 242.242l-77.142-14.607 10.087 24.255-41.311 17.18-47.662 19.89-127.658 53.069 12.933 31.1L218.1 320.058l47.662-19.89 41.307-17.179 10.087 24.256z" transform="translate(-77.514 -227.635)"/>
        </g>
        <g id="Group_2839" transform="translate(-92.693 176.571)">
            <path id="Path_2015" d="M912.963 181.635l-273.469-51.784 35.76 85.987-146.435 60.9-168.962 70.512-452.55 188.131 45.848 110.243L405.7 457.493l168.964-70.512 146.435-60.9 35.76 85.987z" class="cls-2" transform="translate(92.693 -129.851)"/>
        </g>
    </g>
</svg>
