<svg xmlns="http://www.w3.org/2000/svg" xmlns:xlink="http://www.w3.org/1999/xlink" width="875" height="786.252" viewBox="0 0 875 786.252">
    <defs>
        <linearGradient id="linear-gradient" x1=".99" x2=".063" y1="-.109" y2=".852" gradientUnits="objectBoundingBox">
            <stop offset="0" stop-color="#4361c4"/>
            <stop offset="1"/>
        </linearGradient>
        <linearGradient id="linear-gradient-2" x1="-.073" x2="1.176" y1=".024" y2="1.113" xlink:href="#linear-gradient"/>
        <linearGradient id="linear-gradient-3" x1=".329" x2=".859" y1="-.058" y2="1.173" xlink:href="#linear-gradient"/>
        <linearGradient id="linear-gradient-4" x1="24.177" x2="24.931" y1="-.088" y2=".986" gradientUnits="objectBoundingBox">
            <stop offset="0" stop-color="#25437f"/>
            <stop offset="1" stop-color="#6060e7"/>
        </linearGradient>
        <linearGradient id="linear-gradient-5" x1="23.956" x2="24.956" y1=".5" y2=".5" gradientUnits="objectBoundingBox">
            <stop offset="0" stop-color="#6060e7"/>
            <stop offset="1" stop-color="#25437f"/>
        </linearGradient>
        <linearGradient id="linear-gradient-6" x1="69.894" x2="69.17" y1=".038" y2=".887" gradientUnits="objectBoundingBox">
            <stop offset="0" stop-color="#ffb58e"/>
            <stop offset=".328" stop-color="#feb38a"/>
            <stop offset=".591" stop-color="#fcac80"/>
            <stop offset=".83" stop-color="#f8a270"/>
            <stop offset="1" stop-color="#f5985f"/>
        </linearGradient>
        <linearGradient id="linear-gradient-7" x1="46.421" x2="45.675" y1=".011" y2=".717" xlink:href="#linear-gradient-6"/>
        <linearGradient id="linear-gradient-8" x1="118.005" x2="117.341" y1="1.49" y2="-.527" xlink:href="#linear-gradient-6"/>
        <linearGradient id="linear-gradient-9" x1=".002" x2=".856" y1="-.178" y2="1.103" xlink:href="#linear-gradient"/>
        <linearGradient id="linear-gradient-10" x1=".013" x2="2.353" y1="-.735" y2="4.623" xlink:href="#linear-gradient"/>
        <clipPath id="clip-path">
            <circle id="Ellipse_169" cx="88.609" cy="88.609" r="88.609" class="cls-1"/>
        </clipPath>
        <clipPath id="clip-path-2">
            <circle id="Ellipse_172" cx="36.167" cy="36.167" r="36.167" class="cls-1" transform="rotate(-45 61.741 25.574)"/>
        </clipPath>
        <style>
            .cls-1,.cls-31,.cls-41,.cls-8{fill:none}.cls-2{fill:#fff}.cls-4,.cls-5{fill:#ff6d5e}.cls-4,.cls-52{opacity:.35}.cls-6{fill:#e6edf8}.cls-41,.cls-8{stroke:#88959c;opacity:.34;stroke-linecap:round;stroke-linejoin:round}.cls-8{stroke-width:2.433px}.cls-9{fill:#ffa402}.cls-11{fill:#ff8d68}.cls-12{fill:#e8544a}.cls-13{fill:#437cd8}.cls-18{fill:#a6d0f4}.cls-41{stroke-width:1.216px}.cls-21{fill:#4361c4}.cls-24{fill:#0d1b4a}.cls-31{stroke-miterlimit:10;stroke-width:.108px;stroke:#a6d0f4}.cls-34,.cls-52{fill:#40bfe0}.cls-36{fill:#dce1f3}.cls-37{clip-path:url(#clip-path-2)}.cls-38{fill:#8b9fbf}.cls-39{fill:#d0cfd4}.cls-40{fill:#7a86a7}.cls-44{fill:#2b4177}
        </style>
    </defs>
    <g id="Group_3192" transform="translate(-945 -197)">
        <path id="Path_760" d="M470.12 77H750.6v-786H469.011q-171.834 0-279.922 105.317T81-315.446q0 181.811 108.643 287.129T470.12 77z" class="cls-2" transform="translate(1069.403 906)"/>
        <g id="Group_3186" transform="translate(618.892 257.46)">
            <path id="Path_2304" fill="#ffe0a3" d="M357.377 295.915s49.434-87.1 183.617-61.2S715.2 375.954 825.836 373.6s247.177-47.08 301.323 21.187 9.415 204.806-155.369 195.389-167.141-72.976-258.949-49.435S564.535 613.717 428 568.989s-108.288-216.573-70.623-273.074z" transform="translate(.443 133.223)"/>
            <g id="Group_3185" transform="translate(326.108 154.907)">
                <g id="Group_3117" transform="translate(710.78 415.225)">
                    <g id="Group_3112">
                        <path id="Path_2305" d="M588.368 325.134a3.664 3.664 0 1 1-5.181 0 3.663 3.663 0 0 1 5.181 0z" class="cls-4" transform="translate(-582.113 -269.639)"/>
                        <path id="Path_2306" d="M593.271 320.235a3.665 3.665 0 1 1-5.184 0 3.668 3.668 0 0 1 5.184 0z" class="cls-5" transform="translate(-573.408 -278.345)"/>
                        <path id="Path_2307" d="M598.17 315.336a3.664 3.664 0 1 1-5.184 0 3.665 3.665 0 0 1 5.184 0z" class="cls-4" transform="translate(-564.703 -287.049)"/>
                        <path id="Path_2308" d="M603.069 310.433a3.664 3.664 0 1 1-5.181 0 3.663 3.663 0 0 1 5.181 0z" class="cls-5" transform="translate(-555.998 -295.754)"/>
                        <path id="Path_2309" d="M607.972 305.534a3.665 3.665 0 1 1-5.184 0 3.668 3.668 0 0 1 5.184 0z" class="cls-5" transform="translate(-547.293 -304.46)"/>
                    </g>
                    <g id="Group_3113" transform="translate(13.173 11.794)">
                        <path id="Path_2310" d="M593.114 329.88a3.665 3.665 0 1 1-5.184 0 3.663 3.663 0 0 1 5.184 0z" class="cls-5" transform="translate(-586.858 -273.005)"/>
                        <path id="Path_2311" d="M598.013 324.978a3.664 3.664 0 1 1-5.181 0 3.663 3.663 0 0 1 5.181 0z" class="cls-5" transform="translate(-578.153 -281.71)"/>
                        <path id="Path_2312" d="M602.916 320.078a3.665 3.665 0 1 1-5.184 0 3.668 3.668 0 0 1 5.184 0z" class="cls-5" transform="translate(-569.448 -290.415)"/>
                        <path id="Path_2313" d="M607.815 315.179a3.665 3.665 0 1 1-5.184 0 3.663 3.663 0 0 1 5.184 0z" class="cls-4" transform="translate(-560.743 -299.121)"/>
                        <circle id="Ellipse_165" cx="3.665" cy="3.665" r="3.665" class="cls-5" transform="rotate(-31.722 33.303 -91.417)"/>
                    </g>
                    <g id="Group_3114" transform="translate(26.348 26.348)">
                        <path id="Path_2314" d="M597.859 334.625a3.664 3.664 0 1 1-5.184 0 3.668 3.668 0 0 1 5.184 0z" class="cls-5" transform="translate(-591.603 -279.129)"/>
                        <path id="Path_2315" d="M602.759 329.723a3.665 3.665 0 1 1-5.184 0 3.663 3.663 0 0 1 5.184 0z" class="cls-4" transform="translate(-582.898 -287.834)"/>
                        <circle id="Ellipse_166" cx="3.665" cy="3.665" r="3.665" class="cls-4" transform="translate(27.21 27.211)"/>
                        <circle id="Ellipse_167" cx="3.665" cy="3.665" r="3.665" class="cls-5" transform="translate(40.815 13.605)"/>
                        <path id="Path_2316" d="M617.46 315.022a3.665 3.665 0 1 1-5.183 0 3.663 3.663 0 0 1 5.183 0z" class="cls-5" transform="translate(-556.783 -313.95)"/>
                    </g>
                    <g id="Group_3115" transform="translate(39.52 39.522)">
                        <path id="Path_2317" d="M602.6 339.368a3.665 3.665 0 1 1-5.184 0 3.668 3.668 0 0 1 5.184 0z" class="cls-5" transform="translate(-596.347 -283.875)"/>
                        <path id="Path_2318" d="M607.5 334.468a3.665 3.665 0 1 1-5.184 0 3.668 3.668 0 0 1 5.184 0z" class="cls-5" transform="translate(-587.641 -292.579)"/>
                        <path id="Path_2319" d="M612.4 329.569a3.664 3.664 0 1 1-5.184 0 3.66 3.66 0 0 1 5.184 0z" class="cls-5" transform="translate(-578.937 -301.285)"/>
                        <path id="Path_2320" d="M617.306 324.667a3.665 3.665 0 1 1-5.184 0 3.668 3.668 0 0 1 5.184 0z" class="cls-4" transform="translate(-570.232 -309.99)"/>
                        <path id="Path_2321" d="M622.2 319.767a3.665 3.665 0 1 1-5.184 0 3.668 3.668 0 0 1 5.184 0z" class="cls-5" transform="translate(-561.526 -318.695)"/>
                    </g>
                    <g id="Group_3116" transform="translate(52.694 52.694)">
                        <path id="Path_2322" d="M607.347 344.113a3.664 3.664 0 1 1-5.181 0 3.663 3.663 0 0 1 5.181 0z" class="cls-5" transform="translate(-601.092 -288.618)"/>
                        <path id="Path_2323" d="M612.25 339.214a3.665 3.665 0 1 1-5.183 0 3.668 3.668 0 0 1 5.183 0z" class="cls-4" transform="translate(-592.387 -297.324)"/>
                        <path id="Path_2324" d="M617.149 334.315a3.664 3.664 0 1 1-5.184 0 3.66 3.66 0 0 1 5.184 0z" class="cls-5" transform="translate(-583.682 -306.028)"/>
                        <path id="Path_2325" d="M622.048 329.412a3.664 3.664 0 1 1-5.181 0 3.663 3.663 0 0 1 5.181 0z" class="cls-5" transform="translate(-574.977 -314.733)"/>
                        <path id="Path_2326" d="M626.951 324.513a3.665 3.665 0 1 1-5.184 0 3.669 3.669 0 0 1 5.184 0z" class="cls-5" transform="translate(-566.272 -323.439)"/>
                    </g>
                </g>
                <g id="Group_3118" transform="translate(366.785)">
                    <path id="Path_2327" d="M483.508 330.851c.269.114.541.225.813.336a6.037 6.037 0 0 0 6.55-1.355l141.37-142.564a6.037 6.037 0 0 0 1.3-6.563c-.114-.272-.228-.541-.344-.811z" class="cls-6" transform="translate(-413.283 -110.518)"/>
                    <path id="Path_2328" d="M478.333 332.745l.042.022a5.884 5.884 0 0 0 7.194-.911l148.62-149.875a5.885 5.885 0 0 0 .849-7.2l-.025-.042z" class="cls-6" transform="translate(-422.476 -119.672)"/>
                    <path id="Path_2329" d="M473.732 332.005c1.183.944 2.377 1.877 3.6 2.776L637.02 173.743c-.908-1.213-1.849-2.4-2.8-3.576z" class="cls-6" transform="translate(-430.649 -127.798)"/>
                    <path id="Path_2330" d="M496.026 317.106q1.67.137 3.354.225a5.983 5.983 0 0 0 4.548-1.785L618.208 200.3a5.99 5.99 0 0 0 1.746-4.562q-.1-1.683-.255-3.354z" class="cls-6" transform="translate(-391.046 -88.327)"/>
                    <path id="Path_2331" d="M514.046 278.1a112.3 112.3 0 0 0 10.412-4.556 6.233 6.233 0 0 0 1.641-1.188l49.412-49.831a6.178 6.178 0 0 0 1.174-1.649 112.362 112.362 0 0 0 4.47-10.451z" class="cls-6" transform="translate(-359.034 -56.28)"/>
                    <path id="Path_2332" d="M489.346 325.914c.636.158 1.272.314 1.913.461a6.043 6.043 0 0 0 5.633-1.666l130.337-131.437a6.05 6.05 0 0 0 1.619-5.647c-.156-.639-.314-1.274-.48-1.91z" class="cls-6" transform="translate(-402.912 -100.178)"/>
                    <path id="Path_2333" d="M503.877 302.926c1.835-.194 3.657-.45 5.464-.739a6.04 6.04 0 0 0 3.329-1.721l90.648-91.411a6.051 6.051 0 0 0 1.7-3.346c.272-1.81.511-3.632.691-5.472z" class="cls-6" transform="translate(-377.099 -74.38)"/>
                    <path id="Path_2334" d="M466.1 323.329c.9 1.227 1.821 2.432 2.763 3.623l160.27-161.622c-1.2-.933-2.41-1.846-3.646-2.732z" class="cls-6" transform="translate(-444.214 -141.242)"/>
                    <path id="Path_2335" d="M460.933 246.638a6.043 6.043 0 0 0-1.685 3.254q-.467 2.8-.8 5.656L557.961 155.2q-2.849.354-5.65.844a6.043 6.043 0 0 0-3.24 1.713z" class="cls-6" transform="translate(-457.795 -154.387)"/>
                    <path id="Path_2336" d="M467.467 208.638a6.236 6.236 0 0 0-1.086 1.466 114.235 114.235 0 0 0-5.267 11.35l62.97-63.5a114.453 114.453 0 0 0-11.306 5.361 6.39 6.39 0 0 0-1.455 1.1z" class="cls-6" transform="translate(-453.063 -149.498)"/>
                    <path id="Path_2337" d="M459.973 270.3a5.987 5.987 0 0 0-1.752 4.473q.079 1.753.211 3.487l122.132-123.166q-1.737-.117-3.487-.183a5.991 5.991 0 0 0-4.459 1.791z" class="cls-6" transform="translate(-458.215 -154.907)"/>
                    <path id="Path_2338" d="M462.788 301.165a6.007 6.007 0 0 0-1.349 6.466c.125.308.25.614.378.922l148.92-150.18c-.308-.125-.617-.247-.925-.369a6.009 6.009 0 0 0-6.453 1.4z" class="cls-6" transform="translate(-453.245 -150.129)"/>
                    <path id="Path_2339" d="M465.3 311.225a5.9 5.9 0 0 0-.888 7.16l.053.089 156.2-157.513a6.036 6.036 0 0 0-7.316.969z" class="cls-6" transform="translate(-448.661 -145.601)"/>
                    <path id="Path_2340" d="M631.022 166.123L469.656 328.852q1.562 1.628 3.182 3.2l161.41-162.775c-1.055-1.077-2.132-2.121-3.226-3.154z" class="cls-6" transform="translate(-437.89 -134.981)"/>
                    <path id="Path_2341" d="M460.927 287.86a6.05 6.05 0 0 0-1.635 5.578q.229 1 .475 2l137.9-139.063c-.666-.158-1.333-.311-2-.458a6.045 6.045 0 0 0-5.567 1.683z" class="cls-6" transform="translate(-456.559 -153.354)"/>
                </g>
                <g id="Group_3177" transform="translate(0 84.575)">
                    <path id="Rectangle_1040" fill="#efeeff" d="M0 0H394.038V174.502H0z" transform="translate(179.829 55.683)"/>
                    <path id="Rectangle_1041" d="M0 0H352.382V104.702H0z" class="cls-2" transform="translate(200.657 249.887)"/>
                    <path id="Rectangle_1042" d="M0 0H352.382V104.702H0z" class="cls-2" transform="translate(200.657 378.231)"/>
                    <g id="Group_3119" transform="translate(394.298 102.967)">
                        <path id="Line_130" d="M0 0L139.321 0" class="cls-8"/>
                        <path id="Line_131" d="M0 0L108.923 0" class="cls-8" transform="translate(0 53.195)"/>
                        <path id="Line_132" d="M0 0L49.818 0" class="cls-8" transform="translate(0 25.331)"/>
                        <path id="Line_133" d="M0 0L64.172 0" class="cls-8" transform="translate(71.771 25.331)"/>
                    </g>
                    <g id="Group_3125" transform="translate(355.092 180.494)">
                        <g id="Group_3120">
                            <path id="Path_2342" d="M466.41 271.241l-6.6 3.471a.849.849 0 0 1-1.23-.894l1.26-7.346a.85.85 0 0 0-.242-.752l-5.339-5.2a.846.846 0 0 1 .469-1.444l7.378-1.076a.852.852 0 0 0 .639-.464l3.3-6.686a.846.846 0 0 1 1.519 0l3.3 6.686a.848.848 0 0 0 .636.464l7.38 1.072a.846.846 0 0 1 .469 1.444l-5.339 5.2a.851.851 0 0 0-.244.752l1.26 7.346a.849.849 0 0 1-1.23.894l-6.6-3.471a.843.843 0 0 0-.786.004z" class="cls-9" transform="translate(-454.004 -250.378)"/>
                        </g>
                        <g id="Group_3121" transform="translate(36.752)">
                            <path id="Path_2343" d="M479.649 271.241l-6.6 3.471a.849.849 0 0 1-1.23-.894l1.26-7.346a.851.851 0 0 0-.244-.752l-5.339-5.2a.846.846 0 0 1 .469-1.444l7.38-1.072a.857.857 0 0 0 .639-.464l3.3-6.686a.846.846 0 0 1 1.519 0l3.3 6.686a.857.857 0 0 0 .639.464l7.377 1.072a.845.845 0 0 1 .469 1.444l-5.336 5.2a.851.851 0 0 0-.244.752l1.26 7.346a.849.849 0 0 1-1.23.894l-6.6-3.471a.838.838 0 0 0-.789 0z" class="cls-9" transform="translate(-467.241 -250.378)"/>
                        </g>
                        <g id="Group_3122" transform="translate(73.506)">
                            <path id="Path_2344" d="M492.885 271.241l-6.6 3.471a.847.847 0 0 1-1.227-.894l1.26-7.346a.851.851 0 0 0-.244-.752l-5.339-5.2a.846.846 0 0 1 .469-1.444l7.38-1.072a.848.848 0 0 0 .636-.464l3.3-6.686a.846.846 0 0 1 1.519 0l3.3 6.686a.857.857 0 0 0 .639.464l7.377 1.072a.846.846 0 0 1 .469 1.444l-5.339 5.2a.857.857 0 0 0-.242.752l1.26 7.346a.849.849 0 0 1-1.23.894l-6.6-3.471a.843.843 0 0 0-.788 0z" class="cls-9" transform="translate(-480.479 -250.378)"/>
                        </g>
                        <g id="Group_3123" transform="translate(110.26)">
                            <path id="Path_2345" d="M506.123 271.241l-6.6 3.471a.847.847 0 0 1-1.227-.894l1.261-7.346a.852.852 0 0 0-.244-.752l-5.339-5.2a.846.846 0 0 1 .469-1.444l7.376-1.076a.847.847 0 0 0 .639-.464l3.3-6.686a.844.844 0 0 1 1.516 0l3.3 6.686a.848.848 0 0 0 .639.464l7.377 1.072a.846.846 0 0 1 .469 1.444l-5.339 5.2a.851.851 0 0 0-.244.752l1.26 7.346a.847.847 0 0 1-1.227.894l-6.6-3.471a.843.843 0 0 0-.786.004z" class="cls-9" transform="translate(-493.717 -250.378)"/>
                        </g>
                        <g id="Group_3124" transform="translate(147.015)">
                            <path id="Path_2346" fill="#c2d4d9" d="M519.361 271.241l-6.6 3.471a.847.847 0 0 1-1.227-.894l1.258-7.346a.85.85 0 0 0-.242-.752l-5.339-5.2a.846.846 0 0 1 .469-1.444l7.377-1.076a.852.852 0 0 0 .639-.464l3.3-6.686a.846.846 0 0 1 1.519 0l3.3 6.686a.848.848 0 0 0 .636.464l7.38 1.072a.846.846 0 0 1 .469 1.444l-5.339 5.2a.851.851 0 0 0-.244.752l1.26 7.346a.847.847 0 0 1-1.227.894l-6.6-3.471a.843.843 0 0 0-.789.004z" transform="translate(-506.955 -250.378)"/>
                        </g>
                    </g>
                    <g id="Group_3143">
                        <g id="Group_3132">
                            <g id="Group_3127" transform="translate(16.022 213.808)">
                                <path id="Path_2347" d="M377.9 283.612s4.5-8.443 8.446-8.443 8.443.561 9.568 3.376-3.376 6.755-6.192 8.443-9.007 1.127-9.007 1.127z" class="cls-11" transform="translate(-250.122 -239.652)"/>
                                <path id="Path_2348" d="M352.651 264.5s10.131-4.22 21.109 13.51 20.265 35.463 20.265 35.463l46.439-15.2 5.067 10.978s-47.285 28.708-56.573 29.552-44.75-53.2-44.75-53.2-5.908-14.347 8.443-21.103z" class="cls-12" transform="translate(-312.12 -259.383)"/>
                                <g id="Group_3126" transform="translate(0 88.43)">
                                    <path id="Path_2349" d="M370.072 353.631l5.489 5.067s14.776 5.489 13.51 7.177-21.109.844-21.109.844l-3.8-1.688-2.532 2.11h-6.33l5.067-12.663z" class="cls-13" transform="translate(-290.28 -188.7)"/>
                                    <path id="Path_2350" d="M347.162 353.631l5.489 5.067s14.776 5.489 13.51 7.177-21.109.844-21.109.844l-3.8-1.688-2.532 2.11h-6.333l5.067-12.663z" class="cls-13" transform="translate(-330.978 -188.7)"/>
                                    <path id="Path_2351" fill="url(#linear-gradient)" d="M355.887 297.926c-8.729 5.025-13.1 15.3-11.4 25.224a57.914 57.914 0 0 0 15.176 30.208c19.138 20.265 24.768 29.272 24.768 29.272l-7.882 76.557h19.138s21.392-70.927 22.517-81.061c.994-8.946-26.976-59.146-33.537-70.774a24.164 24.164 0 0 0-5.247-6.472c-4.692-4.048-13.249-8.871-23.533-2.954z" transform="translate(-310.126 -292.565)"/>
                                    <path id="Path_2352" fill="url(#linear-gradient-2)" d="M383.668 302.107s-5.631 66.423-6.755 78.809-21.392 78.806-21.392 78.806h-23.642l11.258-81.058v-73.179s0-11.259 16.886-11.259 23.645 7.881 23.645 7.881z" transform="translate(-331.879 -294.227)"/>
                                </g>
                                <path id="Path_2353" d="M402.73 362.909c-25.332 10.975-65.018 8.443-65.018 8.443s2.535-20.265 0-33.775c0 0-9.287-48.127.844-66.7 0 0 2.535-7.6 18.577-8.443s27.02 8.443 31.24 17.73 4.223 50.661 7.6 60.8 6.757 21.945 6.757 21.945z" class="cls-5" transform="translate(-328.425 -262.377)"/>
                            </g>
                            <g id="Group_3128" transform="translate(25.11 166.358)">
                                <path id="Path_2354" fill="#ff7e61" d="M356.942 260.4s-2.11 6.755 4.645 13.088c0 0-.844 2.535-6.333 1.688s-15.62-4.22-15.62-4.22l3.8-12.666z" transform="translate(-327.191 -222.186)"/>
                                <path id="Path_2355" d="M343.842 249.386s10.553-5.489 18.152 1.688 11.822 29.552 9.29 29.974-16.889 1.269-21.109 0-10.556-8.021-13.088-16.042 4.645-14.354 6.755-15.62z" class="cls-11" transform="translate(-332.664 -241.568)"/>
                                <path id="Path_2356" d="M338.874 265.784l3.1-4.5 12.666 4.784 5.347 3.376v-4.784c-1.127-1.408 4.22 1.127 4.22 1.127l4.223 5.628-4.5-.844-.844 3.376-5.067-2.532-1.408 5.067z" class="cls-2" transform="translate(-328.541 -216.873)"/>
                                <path id="Path_2357" fill="url(#linear-gradient-3)" d="M338.73 256.483a18.865 18.865 0 0 1 10.414-9.29c7.88-3.1 15.479-1.688 15.479-.844s-3.1 1.688-3.1 1.688 4.5 0 5.911-.844c1.968-.564-.844 3.94-3.1 5.631 0 0 2.252-1.691 3.376-1.408s-.844 5.067-5.064 6.191-9.29 1.971-10.134 3.1 1.408 3.659-1.124 7.319l-.283 2.252s2.815 3.1 2.252 3.94-1.688.28-1.688.28-3.379-3.657-4.5-3.1-2.252 3.943.28 5.911 3.384 1.691 3.384 1.691v5.631s-9.851-5.631-12.386-8.443c0-.004-7.599-7.322.283-19.705z" transform="translate(-335.152 -245.286)"/>
                            </g>
                            <g id="Group_3130">
                                <path id="Rectangle_1043" d="M0 0H30.397V40.53H0z" class="cls-18" transform="rotate(42.345 -170.047 367.01)"/>
                                <g id="Group_3129" transform="translate(170.08)">
                                    <circle id="Ellipse_168" cx="96.821" cy="96.821" r="96.821" fill="#fff" opacity="0.53" transform="rotate(-2.56 1105.266 -360.484)"/>
                                    <path id="Path_2358" fill="none" stroke="#4361c4" stroke-dasharray="0 3.649" stroke-linecap="round" stroke-linejoin="round" stroke-width="1.216px" d="M392.09 232.281a143.723 143.723 0 0 1 203.035-9.415" transform="translate(-378.977 -185.368)"/>
                                    <path id="Path_2359" d="M587.09 225.286a119.337 119.337 0 1 0 7.818 168.588 119.338 119.338 0 0 0-7.818-168.588zm-145.6 159.762a96.82 96.82 0 1 1 136.778-6.341 96.82 96.82 0 0 1-136.78 6.341z" class="cls-21" transform="translate(-387.367 -169.767)"/>
                                </g>
                                <path id="Rectangle_1044" d="M0 0H63.328V242.333H0z" class="cls-13" transform="rotate(42.35 -198.75 334.34)"/>
                                <path id="Rectangle_1045" d="M0 0H63.328V15.199H0z" class="cls-5" transform="rotate(42.35 -511.39 213.221)"/>
                            </g>
                            <g id="Group_3131" transform="translate(22.508 217.681)">
                                <path id="Path_2360" d="M356.329 304.77s10.7 1.688 11.822 3.94 0 11.258-2.252 12.383-5.067-4.5-5.067-4.5-7.741 1.5-9.218-4.031 4.715-7.792 4.715-7.792z" class="cls-11" transform="translate(-303.71 -190.941)"/>
                                <path id="Path_2361" d="M338.307 267.3a15.027 15.027 0 0 0-4.07 10.323 151.234 151.234 0 0 0 8.168 51.311c10.237 28.933 39.714 56.453 39.714 56.453l8.579-7.3s-22.531-43.482-23.389-50.645-1.766-43.781-5.289-52.419c-3.02-7.397-15.22-16.332-23.713-7.723z" class="cls-12" transform="translate(-334.215 -263.772)"/>
                            </g>
                        </g>
                        <g id="Group_3142" transform="translate(200.755 55.016)">
                            <g id="Group_3141">
                                <g id="Group_3140" clip-path="url(#clip-path)">
                                    <g id="Group_3139" transform="translate(11.995 15.649)">
                                        <g id="Group_3138">
                                            <path id="Path_2362" fill="#a1caff" d="M512.8 396.106H411.21l55.458-109.984 38.681 68.041z" transform="translate(-387.682 -77.051)"/>
                                            <g id="Group_3137">
                                                <g id="Group_3136">
                                                    <path id="Path_2363" d="M425.015 352.212s-5.642 6.969-6.636 7.632-16.592 8.3-15.6 8.96 31.857-2.654 31.857-2.654l-1.327-8.96.333-4.648z" class="cls-24" transform="translate(-402.736 40.353)"/>
                                                    <path id="Path_2364" d="M466.131 352.451s-5.642 6.969-6.636 7.633-16.592 8.3-15.6 8.959 31.859-2.654 31.859-2.654l-1.33-8.96.333-4.648z" class="cls-24" transform="translate(-329.696 40.778)"/>
                                                    <path id="Path_2365" fill="url(#linear-gradient-4)" d="M430.643 277.31s-8.849 65.485-12.388 96.459-8.849 111.5-8.849 111.5 4.423 4.423 15.043 1.769c0 0 23.008-96.456 26.548-109.73s38.051-94.687 38.051-94.687z" transform="translate(-390.886 -92.705)"/>
                                                    <path id="Path_2366" fill="url(#linear-gradient-5)" d="M485.73 297.856s-.886 57.519-3.54 82.3c0 0 20.354 100.882 21.24 109.73 0 0-7.966 5.309-15.928 1.769 0 0-31.86-90.262-38.054-111.5S428.211 283.7 428.211 283.7s30.971-14.16 52.211-3.54c0-.004 6.194 3.54 5.308 17.696z" transform="translate(-357.48 -94.665)"/>
                                                    <g id="Group_3135" transform="translate(36.731)">
                                                        <path id="Path_2367" fill="url(#linear-gradient-6)" d="M430 231.871l-3.54 28.318h26.99l-4.867-34.512z" transform="translate(-397.325 -184.429)"/>
                                                        <g id="Group_3134" transform="translate(9.256)">
                                                            <g id="Group_3133">
                                                                <path id="Path_2368" fill="url(#linear-gradient-7)" d="M463.427 237.35c-1.063 11.292-15.678 30.938-26.97 29.877s-14.982-22.431-13.921-33.72a20.536 20.536 0 1 1 40.891 3.843z" transform="translate(-413.858 -203.586)"/>
                                                                <path id="Path_2369" d="M469.706 234.189s1.263-9.97-5.758-13.344-25.565 1.124-32.307-7.3-15.448 4.775-11.236 11.517 6.13 14.379 27.248 10.956c10.4-1.685 12.641 5.336 12.08 8.71s-4.215 8.987-4.215 10.392 2.249 1.4 3.09.28 1.966-7.3 5.9-6.461-.844 9.271-4.215 10.395c0 0-1.122 1.685-.28 3.09s14.046-8.71 14.326-18.261-4.633-9.974-4.633-9.974z" class="cls-21" transform="translate(-419.299 -210.82)"/>
                                                            </g>
                                                        </g>
                                                        <path id="Path_2370" d="M445.1 236.8l8.626 3.984 17.258-5.311 4.975 5.975s33.517 12.611 34.181 15.928-16.592 98.891-16.592 98.891v7.3h-76.325l-1.258-107.562 25.815-13.23z" class="cls-2" transform="translate(-415.965 -167.018)"/>
                                                        <path id="Path_2371" d="M451.063 225.447a21.064 21.064 0 0 0-3.762 7.3c-1.547 4.87-5.086-1.991-12.166-3.759s-12.388 1.549-12.169 5.531 5.389 14.487 13.094 15.1 13.677-5.805 14.562-10.453 1.105-9.071 2.876-11.947c.219-2.658-2.435-1.772-2.435-1.772z" class="cls-21" transform="translate(-403.541 -185.089)"/>
                                                    </g>
                                                    <path id="Path_2372" d="M432.847 241.179l-5.747 70.13 5.531 8.185 6.194-8.185-2.876-70.573z" class="cls-13" transform="translate(-359.462 -157.676)"/>
                                                </g>
                                            </g>
                                            <path id="Path_2373" d="M444.9 237.949s-16.775 46.136-6.058 113.712 15.845 136.545 15.845 136.545 35.419.466 44.273-1.863c0 0-11.183-64.78-20.038-112.781S471 329.755 471 328.358s5.592-54.526 5.592-54.526l3.243-22.17s-23.746-10.917-34.935-13.713z" class="cls-13" transform="translate(-344.947 -162.627)"/>
                                            <path id="Path_2374" d="M457.314 239.011S436.807 431.018 436.807 488.8h-32.312s4.351-78.293 13.671-116.818 16.156-124.273 16.156-124.273 7.458-4.969 22.992-8.698z" class="cls-13" transform="translate(-399.61 -160.741)"/>
                                            <path id="Path_2375" fill="none" stroke="#218498" stroke-miterlimit="10" stroke-width="0.108px" d="M457.064 238.116l-10.485 11.651-8.622-4.893-6.758 5.592-6.058-10.719" transform="translate(-362.933 -162.33)"/>
                                            <path id="Path_2376" fill="url(#linear-gradient-8)" d="M467.98 298.438s.7 11.419-1.863 16.545c-1.633 2.1-10.253 7.691-10.72 5.592s2.8-11.417 2.563-12.58c0 0-2.329 4.426-3.962 3.726s.233-5.359 1.633-7.921a51.926 51.926 0 0 1 3.729-5.592z" transform="translate(-312.798 -55.581)"/>
                                            <path id="Path_2377" d="M468.571 244.545s23.477 26.521 23.477 87.413c0 60.273-.933 67.731-.933 67.731h-13.979s-6.214-55.923-10.564-80.778-26.72-40.392-24.855-59.033 18.283-20.727 26.854-15.333z" class="cls-13" transform="translate(-333.683 -155.511)"/>
                                            <path id="Path_2378" d="M463.868 289.815H442.43l5.126 30.758 21.438-.466z" class="cls-31" transform="translate(-332.221 -70.491)"/>
                                            <path id="Path_2379" d="M432.094 288.873l-19.574-.233s-3.493 25.4-3.493 27.728l20.271.466z" class="cls-31" transform="translate(-391.557 -72.578)"/>
                                        </g>
                                        <path id="Path_2380" d="M428.037 242.145s-12.791 6.525-16.4 38.584l-3.607 32.057 26.851.8z" class="cls-13" transform="translate(-393.325 -155.173)"/>
                                    </g>
                                </g>
                            </g>
                        </g>
                    </g>
                    <g id="Group_3145" transform="translate(38.8 78.869)">
                        <g id="Group_3144">
                            <rect id="Rectangle_1046" width="81.85" height="50.747" fill="#dce1f1" rx="1.695"/>
                            <path id="Path_2381" d="M340.7 214.877l40.1 33.234 39-32.545a4.673 4.673 0 0 0-3.668-1.791h-72.439a4.667 4.667 0 0 0-2.993 1.102z" class="cls-13" transform="translate(-338.987 -213.775)"/>
                        </g>
                    </g>
                    <g id="Group_3147" transform="translate(62.442 100.822)">
                        <g id="Group_3146">
                            <rect id="Rectangle_1047" width="81.85" height="50.747" fill="#f0f2f8" rx="1.695" transform="translate(0 .001)"/>
                            <path id="Path_2382" d="M349.215 222.784l40.1 33.234 39-32.545a4.681 4.681 0 0 0-3.668-1.791h-72.436a4.675 4.675 0 0 0-2.996 1.102z" class="cls-5" transform="translate(-347.503 -221.682)"/>
                        </g>
                    </g>
                    <g id="Group_3148" transform="translate(333.674 10.82)">
                        <circle id="Ellipse_170" cx="40.878" cy="40.878" r="40.878" class="cls-34" transform="rotate(-45 69.783 28.905)"/>
                        <path id="Path_2383" fill="none" stroke="#fff" stroke-linecap="round" stroke-linejoin="round" stroke-width="3.799px" d="M461.411 218.208l11.868 11.868L496.355 207" transform="translate(-419.425 -157.761)"/>
                    </g>
                    <g id="Group_3157" transform="translate(213.54 253.201)">
                        <g id="Group_3155">
                            <circle id="Ellipse_171" cx="36.167" cy="36.167" r="36.167" class="cls-36" transform="rotate(-45 61.741 25.574)"/>
                            <g id="Group_3154">
                                <g id="Group_3153" class="cls-37">
                                    <g id="Group_3152" transform="translate(15.346 27.625)">
                                        <g id="Group_3151">
                                            <path id="Path_2384" d="M429.667 327.259a63.316 63.316 0 0 0 2.9-5.7c3.848-8.979-2.29-20.518-6.7-22.231 0 0-6.122 2.135-10.4 13.252a127.509 127.509 0 0 1-6.913 14.682z" class="cls-38" transform="translate(-408.547 -263.758)"/>
                                            <g id="Group_3150" transform="translate(11.195 3.724)">
                                                <g id="Group_3149">
                                                    <path id="Path_2385" d="M467.128 330.717c.333-10.495.389-19.929-.239-23.858-3.768-8.063-26.623-9.482-26.623-9.482s-15.434 2.679-21.57 5.406c-3.884 2.829-3.987 5.078-4.142 8.454a133.165 133.165 0 0 0-1.974 19.479z" class="cls-38" transform="translate(-412.579 -270.941)"/>
                                                    <path id="Path_2386" d="M419.786 299.492l.591 11.8a3.116 3.116 0 0 0 2.623 2.94 11.261 11.261 0 0 0 8.8-2.049 3.074 3.074 0 0 0 1.074-3.076c-1.188-5.508-3.307-16.8-3.307-16.8z" class="cls-39" transform="translate(-399.776 -279.949)"/>
                                                    <path id="Path_2387" d="M418.6 294.889s-3.19 15.409-.522 19.546c2.521 2.826 16-3.518 17.322-7.649s4.934-11.611-.891-16.292-12.295-3.085-15.909 4.395z" class="cls-39" transform="translate(-404.697 -287.856)"/>
                                                </g>
                                            </g>
                                            <path id="Path_2388" d="M435.848 327.34h21.928c-4-8.676-8.89-17.056-11.042-19.7a35.192 35.192 0 0 0-9.62-8.018c-2.565-1.6-9.62 2.565-9.94 10.581s7.374 15.715 7.374 15.715.509.54 1.3 1.422z" class="cls-38" transform="translate(-375.474 -263.84)"/>
                                            <path id="Path_2389" d="M418.281 297.272s-2.9-5.442.786-8.649 9.781-2.565 12.827.641 3.368 3.687 3.368 3.687a6.376 6.376 0 0 1 3.848 2.887c1.444 2.4-1.6 8.5-3.046 10.262s-1.03 1.807-1.03 1.807l-.894-.847a37.443 37.443 0 0 1-.8-7.374c-.161-1.444-2.4-3.529-5.45-4.009s-3.343 2.223-9.609 1.595z" class="cls-40" transform="translate(-393.182 -286.515)"/>
                                            <path id="Path_2390" d="M424.035 293.878a1.966 1.966 0 0 1 2.535-1.408c2.052.625 0 6.513-2.093 6.1-2.036-.48-.442-4.692-.442-4.692z" class="cls-39" transform="translate(-382.088 -276.111)"/>
                                            <path id="Path_2391" d="M432.67 297.553s-2.779 4.49-6.414 5.772c-.641.214-1.283 1.6-1.283 1.6l-1.283-1.924s-3.207-1.6-3.207-4.384l-.427.428-.428 3.634a20.977 20.977 0 0 0 .322 4.7l3.1-2.03a7.522 7.522 0 0 0 4.062.105s1.5 2.565 2.243 2.779 4.812-5.023 5.131-6.841a6.723 6.723 0 0 0-.319-3.634z" class="cls-2" transform="translate(-388.88 -266.906)"/>
                                        </g>
                                    </g>
                                </g>
                            </g>
                        </g>
                        <g id="Group_3156" transform="translate(114.898 22.017)">
                            <path id="Line_134" d="M0 0L195.049 0" class="cls-41"/>
                            <path id="Line_135" d="M0 0L152.493 0" class="cls-41" transform="translate(0 53.195)"/>
                            <path id="Line_136" d="M0 0L69.745 0" class="cls-41" transform="translate(0 25.331)"/>
                            <path id="Line_137" d="M0 0L89.841 0" class="cls-41" transform="translate(100.48 25.331)"/>
                        </g>
                    </g>
                    <g id="Group_3166" transform="translate(213.54 377.604)">
                        <g id="Group_3164">
                            <circle id="Ellipse_173" cx="36.167" cy="36.167" r="36.167" class="cls-36" transform="rotate(-45 61.741 25.574)"/>
                            <g id="Group_3163">
                                <g id="Group_3162" class="cls-37">
                                    <g id="Group_3161" transform="translate(15.346 31.349)">
                                        <g id="Group_3160">
                                            <path id="Path_2392" d="M429.667 372.063a62.952 62.952 0 0 0 2.9-5.7c3.848-8.979-2.29-20.518-6.7-22.231 0 0-6.122 2.135-10.4 13.252a127.266 127.266 0 0 1-6.913 14.679z" class="cls-38" transform="translate(-408.547 -312.289)"/>
                                            <g id="Group_3159" transform="translate(11.195)">
                                                <g id="Group_3158">
                                                    <path id="Path_2393" d="M467.128 375.522c.333-10.492.389-19.926-.239-23.855-3.768-8.063-26.623-9.482-26.623-9.482s-15.434 2.679-21.57 5.406c-3.884 2.829-3.987 5.078-4.142 8.454a133.085 133.085 0 0 0-1.974 19.477z" class="cls-38" transform="translate(-412.579 -315.748)"/>
                                                    <path id="Path_2394" d="M419.786 344.3l.591 11.8a3.116 3.116 0 0 0 2.623 2.939 11.261 11.261 0 0 0 8.8-2.049 3.074 3.074 0 0 0 1.074-3.076c-1.188-5.508-3.307-16.8-3.307-16.8z" class="cls-39" transform="translate(-399.776 -324.756)"/>
                                                    <path id="Path_2395" d="M418.6 339.7s-3.19 15.409-.522 19.546c2.521 2.826 16-3.518 17.322-7.649s4.934-11.611-.891-16.292-12.295-3.089-15.909 4.395z" class="cls-39" transform="translate(-404.697 -332.663)"/>
                                                </g>
                                            </g>
                                            <path id="Path_2396" d="M435.848 372.145h21.928c-4-8.676-8.89-17.053-11.042-19.7a35.151 35.151 0 0 0-9.62-8.016c-2.565-1.6-9.62 2.565-9.94 10.581s7.374 15.715 7.374 15.715.509.542 1.3 1.42z" class="cls-38" transform="translate(-375.474 -312.371)"/>
                                            <path id="Path_2397" d="M424.035 338.685a1.966 1.966 0 0 1 2.535-1.408c2.052.625 0 6.511-2.093 6.1-2.036-.483-.442-4.692-.442-4.692z" class="cls-39" transform="translate(-382.088 -324.642)"/>
                                            <path id="Path_2398" d="M432.67 342.36s-2.779 4.49-6.414 5.772c-.641.214-1.283 1.6-1.283 1.6l-1.283-1.921s-3.207-1.6-3.207-4.384l-.427.427-.428 3.634a20.977 20.977 0 0 0 .322 4.7l3.1-2.03a7.522 7.522 0 0 0 4.062.106s1.5 2.565 2.243 2.779 4.812-5.025 5.131-6.841a6.723 6.723 0 0 0-.319-3.634z" class="cls-2" transform="translate(-388.88 -315.437)"/>
                                        </g>
                                    </g>
                                    <path id="Path_2399" d="M419.491 334.584s-5.278 4.223-1.269 8.021c3.379 3.168 9.29-1.055 10.345.633s.422 3.59 2.954 4.434 2.746.633 2.746 1.9-.844 1.9 0 2.11 1.266-.844 1.477-1.688 2.532-2.11 2.532-2.11l1.055.844s1.48-1.477 1.691-5.067-1.9-4.431-1.9-4.431a6.477 6.477 0 0 0-2.743-5.7c-3.167-2.322-11.613-2.747-16.888 1.054z" class="cls-40" transform="translate(-378.685 -302.927)"/>
                                </g>
                            </g>
                        </g>
                        <g id="Group_3165" transform="translate(114.898 22.017)">
                            <path id="Line_138" d="M0 0L195.049 0" class="cls-41"/>
                            <path id="Line_139" d="M0 0L152.493 0" class="cls-41" transform="translate(0 53.195)"/>
                            <path id="Line_140" d="M0 0L69.745 0" class="cls-41" transform="translate(0 25.331)"/>
                            <path id="Line_141" d="M0 0L89.841 0" class="cls-41" transform="translate(100.48 25.331)"/>
                        </g>
                    </g>
                    <g id="Group_3173" transform="translate(551.773 156.444)">
                        <g id="Group_3167" transform="translate(0 85.573)">
                            <path id="Path_2400" d="M551.239 288.815l-17.428-14.523-3.389 10.166 18.4 18.4z" class="cls-11" transform="translate(-514.932 -269.419)"/>
                            <path id="Path_2401" d="M543.723 277.41s-5.325-5.325-7.746-4.842 0 3.873 0 3.873-11.134.486-11.134 2.9 6.291 7.746 9.682 8.229a18.852 18.852 0 0 0 5.808 0z" class="cls-11" transform="translate(-524.843 -272.537)"/>
                        </g>
                        <path id="Path_2402" d="M590.875 269.815s-14.887 3.607-20.518 12.613-12.383 20.262-12.383 20.262l-17.45-12.946-7.319 15.762s14.074 16.325 22.517 18.013 27.581-9.57 27.581-9.57 20.208-33.103 7.572-44.134z" class="cls-6" transform="translate(-509.987 -191.799)"/>
                        <g id="Group_3172" transform="translate(36.016 27.854)">
                            <path id="Path_2403" fill="#d0d9e7" d="M542.127 410.689s61.64-11.822 104.7 5.067l-31.241-114.833-10.132-25.333s-19.94-15.54-38.678 3.207-17.894 83.762-17.894 83.762z" transform="translate(-530.155 -220.133)"/>
                            <path id="Path_2404" fill="url(#linear-gradient-9)" d="M571.465 252.215s11.822-3.376 21.109 9.287 1.688 19.421 12.666 27.02 27.864 4.223 32.928 16.889 5.067 25.329 15.2 32.928 11.822 24.488 4.223 38.842-32.931 35.463-63.328 10.975-12.666-35.463-21.953-51.506-17.733-16.886-18.577-28.708 5.553-42.163 4.889-46.836 7.778-9.735 12.843-8.891z" transform="translate(-509.676 -251.642)"/>
                            <g id="Group_3171">
                                <g id="Group_3168" transform="translate(61.626 182.768)">
                                    <path id="Path_2405" d="M570.345 360.2s-7.335 7.668-10.334 9.334c.666 1.335 11.333 1.335 15.334-.666s7-6.666 7-6.666l-.333 5h2s2-7 2-8.668-2-4-2-4z" class="cls-44" transform="translate(-560.011 -251.931)"/>
                                    <path id="Path_2406" d="M562.652 327.161l7.335 90.012 8.668-.666s10-66.01 6-88.679-22.003-.667-22.003-.667z" class="cls-11" transform="translate(-555.319 -317.576)"/>
                                    <path id="Path_2407" d="M569.882 353.874s-2.666 7-6.333 10.337 5.667 3.332 9.667 0 4.334-5.336 5.667-6-.333-5-.333-5z" class="cls-11" transform="translate(-555.214 -254.278)"/>
                                </g>
                                <g id="Group_3169" transform="translate(0 184.612)">
                                    <path id="Path_2408" d="M549.576 358.126s-8.521 6.322-11.761 7.458c.433 1.427 10.95 3.226 15.229 1.93s8.027-5.392 8.027-5.392l-1.172 4.873 1.971.336s3.151-6.564 3.432-8.207-1.3-4.279-1.3-4.279z" class="cls-44" transform="translate(-537.815 -253.216)"/>
                                    <path id="Path_2409" d="M552.059 325.375l-7.943 89.962 8.657.8s20.984-63.38 20.862-86.4-21.576-4.362-21.576-4.362z" class="cls-11" transform="translate(-526.622 -318.24)"/>
                                    <path id="Path_2410" d="M549.9 353.212s-3.809 6.45-7.985 9.118 5.023 4.242 9.529 1.63 5.172-4.528 6.6-4.959.514-4.986.514-4.986z" class="cls-11" transform="translate(-532.41 -256.115)"/>
                                </g>
                                <path id="Path_2411" fill="#4385ff" d="M561.195 293.941l-.428 10.348s-6.7 14.246-8.8 29.749-2.935 46.514-2.935 46.514l-4.607 56.148s9.221 3.351 16.761 1.255c0 0 9.221-31.426 11.733-42.321s2.1-31.846 2.1-31.846l7.541-29.333s10.895 42.74 11.314 48.607 5.447 55.731 5.447 55.731a31.209 31.209 0 0 0 15.926-.419s5.028-45.256 4.609-70.4c-.839-18.858-2.1-28.495-2.1-28.495s3.771-9.637-1.258-28.075c-4.609-10.476-7.541-12.988-7.541-12.988l-2.757-5.733z" transform="translate(-526.073 -179.018)"/>
                                <path id="Path_2412" d="M590.057 267.285s15.234 8.774 18.735 14.276 14 35.255 14 35.255-11.753 4.251-22 4.251c0 0 1 9.5 2 12.5s-2.5 4.251-2.5 4.251-24.5 6.752-42.757 2.751c0 0-2.249-.5-2.249-1.5s.25-3.5.25-3.5-1.752-17-2.252-20-6-11.167-5.5-14.418 9-18.335 9-18.335 5.75-6.752 8.251-8.5 9.518-4.09 9.518-4.09z" class="cls-21" transform="translate(-520.164 -224.146)"/>
                                <path id="Path_2413" d="M559.315 272.827c.011.392 1.438 8.879-3.262 14.885-4.7 6.139 13.84 5.875 18.147-.392 3.918-5.614 3.526-6.527 3.526-6.527s-3.132-10.184-2.218-16.845c-.262-6.005-16.454-2.348-16.193 8.879z" class="cls-11" transform="translate(-506.763 -235.164)"/>
                                <g id="Group_3170" transform="translate(43.201)">
                                    <path id="Path_2414" d="M568.646 252.679s-5.569.364-10.106 7.957-5.783 25.307-4.159 27.723 7.866 2.776 16.842 1.571c9.481-1.274 14.24-9.992 16.984-15.817 5.253-11.153-2.682-25.132-19.561-21.434z" class="cls-11" transform="translate(-552.796 -251.17)"/>
                                    <path id="Path_2415" fill="url(#linear-gradient-10)" d="M583.879 253.917s-16.808-6.988-28.056 4.12c-6.552 8.79 1.918 12.511 3.732 13.063s-.117-2.793-.117-2.793a26.394 26.394 0 0 0 10.953 5.25c6.386 1.2.633-2.227.633-2.227a49.089 49.089 0 0 0 5.739 2.354c1.236.233-2.007 7.3-1.7 9.062.516 1.8 5.3-6.68 5.3-6.68l.272 5.378-.839 5.6s8.291-4.414 11.186-9.629 4.481-17.065-7.103-23.498z" transform="translate(-553.375 -251.748)"/>
                                    <path id="Path_2416" fill="#ff7759" d="M564.124 262.056s2.579-2.882 4.326-1.313-2.857 8.315-5.575 7.982-.356-5.025 1.249-6.669z" transform="translate(-538.703 -236.598)"/>
                                </g>
                            </g>
                            <path id="Path_2417" d="M568.226 267.285s5.406 4.72 1.183 18.23-10.131 19.421-9.287 40.53S586.3 422.3 597.273 432.436c0 0 22.8 2.532 37.151-8.446 4.223-10.975-30.4-58.261-31.24-79.37s-2.532-44.751-11.822-59.1-19.251-17.885-23.136-18.235z" class="cls-6" transform="translate(-498.332 -224.146)"/>
                            <path id="Path_2418" d="M586.818 268.377s-16.886 13.51-21.953 44.75-10.131 101.323-11.819 105.546-8.446 2.532-12.666.844 5.067-64.172 10.131-83.593 4.223-30.4 6.755-40.528 14.353-22.796 29.552-27.019z" class="cls-6" transform="translate(-535.162 -222.207)"/>
                        </g>
                        <path id="Path_2419" d="M586.934 286.89l21.953-10.131s2.252-6.755 5.067-5.067 3.376 8.443 2.252 10.134-23.081 17.45-23.081 17.45z" class="cls-11" transform="translate(-414.542 -188.945)"/>
                        <path id="Path_2420" d="M568.331 269.289s37.715 24.769 41.094 25.893S628 287.3 628 287.3l7.882 15.2s-18.014 12.383-24.769 15.2-42.218-18.013-42.218-18.013a40.971 40.971 0 0 1-.564-30.398z" class="cls-6" transform="translate(-452.232 -192.733)"/>
                        <path id="Rectangle_1048" d="M0 0H7.599V271.042H0z" class="cls-18" transform="translate(198.847 58.824)"/>
                        <path id="Rectangle_1049" d="M0 0H115.96V61.92H0z" class="cls-5" transform="translate(145.371)"/>
                        <path id="Path_2421" d="M598.193 271.466s4.22-1.408 5.628.28-.844 9.851-3.1 10.414-3.091-7.318-2.528-10.694z" class="cls-11" transform="translate(-394.842 -189.843)"/>
                        <text id="WE_RE_HIRING" fill="#fff" font-family="Montserrat-Bold, Montserrat" font-size="21px" font-weight="700" transform="translate(201.339 25.649)">
                            <tspan x="-36.613" y="0">WE’RE</tspan><tspan x="-39.669" y="20">HIRING</tspan>
                        </text>
                    </g>
                    <g id="Group_3176" transform="translate(508.661 16.95)">
                        <path id="Rectangle_1050" d="M0 0h170.355v90.352a1.315 1.315 0 0 1-1.315 1.315H1.315A1.315 1.315 0 0 1 0 90.353V0z" class="cls-2" transform="translate(0 10.546)"/>
                        <path id="Rectangle_1051" fill="#6fa4ff" d="M0 0H170.355V18.658H0z"/>
                        <path id="Path_2422" d="M559.63 197.057a3.244 3.244 0 1 1-3.246-3.246 3.244 3.244 0 0 1 3.246 3.246z" class="cls-2" transform="translate(-431.459 -187.321)"/>
                        <path id="Path_2423" fill="#456bff" d="M565.33 197.057a3.246 3.246 0 1 1-3.246-3.246 3.245 3.245 0 0 1 3.246 3.246z" transform="translate(-421.339 -187.321)"/>
                        <path id="Path_2424" fill="#ff6e41" d="M571.026 197.057a3.244 3.244 0 1 1-3.246-3.246 3.244 3.244 0 0 1 3.246 3.246z" transform="translate(-411.217 -187.321)"/>
                        <g id="Group_3174" transform="translate(11.898 29.745)">
                            <path id="Rectangle_1052" d="M0 0H109.784V3.245H0z" class="cls-6"/>
                            <path id="Rectangle_1053" d="M0 0H54.757V3.245H0z" class="cls-6" transform="translate(0 10.275)"/>
                            <path id="Rectangle_1054" d="M0 0H70.44V3.245H0z" class="cls-6" transform="translate(0 20.28)"/>
                        </g>
                        <g id="Group_3175" transform="translate(11.898 61.788)">
                            <path id="Rectangle_1055" d="M0 0H149.804V3.245H0z" class="cls-6"/>
                            <path id="Rectangle_1056" d="M0 0H74.717V3.245H0z" class="cls-6" transform="translate(0 10.275)"/>
                            <path id="Rectangle_1057" d="M0 0H96.118V3.245H0z" class="cls-6" transform="translate(0 20.28)"/>
                        </g>
                    </g>
                </g>
                <g id="Group_3184" transform="translate(86.998 59.655)">
                    <g id="Group_3183">
                        <g id="Group_3178">
                            <path id="Path_2425" d="M362.524 193.188a2.976 2.976 0 1 1-4.209 0 2.975 2.975 0 0 1 4.209 0z" class="cls-52" transform="translate(-357.443 -148.107)"/>
                            <path id="Path_2426" d="M366.506 189.207a2.978 2.978 0 1 1-4.212 0 2.978 2.978 0 0 1 4.212 0z" class="cls-34" transform="translate(-350.371 -155.179)"/>
                            <path id="Path_2427" d="M370.485 185.225a2.977 2.977 0 1 1-4.209 0 2.98 2.98 0 0 1 4.209 0z" class="cls-52" transform="translate(-343.301 -162.249)"/>
                            <path id="Path_2428" d="M374.466 181.246a2.976 2.976 0 1 1-4.209 0 2.974 2.974 0 0 1 4.209 0z" class="cls-34" transform="translate(-336.228 -169.321)"/>
                            <path id="Path_2429" d="M378.448 177.265a2.978 2.978 0 1 1-4.212 0 2.983 2.983 0 0 1 4.212 0z" class="cls-34" transform="translate(-329.157 -176.393)"/>
                        </g>
                        <g id="Group_3179" transform="translate(10.7 10.702)">
                            <path id="Path_2430" d="M366.381 197.042a2.977 2.977 0 1 1-4.212 0 2.979 2.979 0 0 1 4.212 0z" class="cls-34" transform="translate(-361.297 -151.963)"/>
                            <path id="Path_2431" d="M370.359 193.06a2.977 2.977 0 1 1-4.209 0 2.978 2.978 0 0 1 4.209 0z" class="cls-34" transform="translate(-354.225 -159.033)"/>
                            <path id="Path_2432" d="M374.341 189.081a2.977 2.977 0 1 1-4.212 0 2.974 2.974 0 0 1 4.212 0z" class="cls-34" transform="translate(-347.153 -166.105)"/>
                            <path id="Path_2433" d="M378.32 185.1a2.977 2.977 0 1 1-4.209 0 2.978 2.978 0 0 1 4.209 0z" class="cls-52" transform="translate(-340.082 -173.177)"/>
                            <path id="Path_2434" d="M382.3 181.118a2.977 2.977 0 1 1-4.209 0 2.978 2.978 0 0 1 4.209 0z" class="cls-34" transform="translate(-333.011 -180.247)"/>
                        </g>
                        <g id="Group_3180" transform="translate(21.403 21.404)">
                            <path id="Path_2435" d="M370.234 200.9a2.978 2.978 0 1 1-4.212 0 2.983 2.983 0 0 1 4.212 0z" class="cls-34" transform="translate(-365.151 -155.817)"/>
                            <circle id="Ellipse_175" cx="2.977" cy="2.977" r="2.977" class="cls-52" transform="translate(11.051 33.156)"/>
                            <path id="Path_2436" d="M378.194 192.935a2.976 2.976 0 1 1-4.209 0 2.974 2.974 0 0 1 4.209 0z" class="cls-52" transform="translate(-351.009 -169.96)"/>
                            <path id="Path_2437" d="M382.177 188.953a2.978 2.978 0 1 1-4.212 0 2.983 2.983 0 0 1 4.212 0z" class="cls-34" transform="translate(-343.939 -177.03)"/>
                            <path id="Path_2438" d="M386.155 184.974a2.976 2.976 0 1 1-4.209 0 2.974 2.974 0 0 1 4.209 0z" class="cls-34" transform="translate(-336.867 -184.102)"/>
                        </g>
                        <g id="Group_3181" transform="translate(32.104 32.104)">
                            <path id="Path_2439" d="M374.087 204.751a2.976 2.976 0 1 1-4.209 0 2.974 2.974 0 0 1 4.209 0z" class="cls-34" transform="translate(-369.006 -159.67)"/>
                            <path id="Path_2440" d="M378.07 200.77a2.977 2.977 0 1 1-4.212 0 2.979 2.979 0 0 1 4.212 0z" class="cls-34" transform="translate(-361.935 -166.742)"/>
                            <path id="Path_2441" d="M382.048 196.788a2.977 2.977 0 1 1-4.209 0 2.978 2.978 0 0 1 4.209 0z" class="cls-34" transform="translate(-354.864 -173.812)"/>
                            <circle id="Ellipse_176" cx="2.977" cy="2.977" r="2.977" class="cls-52" transform="translate(33.155 11.052)"/>
                            <path id="Path_2442" d="M390.012 188.828a2.978 2.978 0 1 1-4.212 0 2.983 2.983 0 0 1 4.212 0z" class="cls-34" transform="translate(-340.721 -187.956)"/>
                        </g>
                        <g id="Group_3182" transform="translate(42.804 42.806)">
                            <path id="Path_2443" d="M377.941 208.605a2.976 2.976 0 1 1-4.209 0 2.974 2.974 0 0 1 4.209 0z" class="cls-34" transform="translate(-372.86 -163.526)"/>
                            <path id="Path_2444" d="M381.923 204.624a2.978 2.978 0 1 1-4.212 0 2.978 2.978 0 0 1 4.212 0z" class="cls-52" transform="translate(-365.788 -170.598)"/>
                            <path id="Path_2445" d="M385.9 200.644a2.976 2.976 0 1 1-4.209 0 2.977 2.977 0 0 1 4.209 0z" class="cls-34" transform="translate(-358.717 -177.668)"/>
                            <path id="Path_2446" d="M389.883 196.663a2.976 2.976 0 1 1-4.209 0 2.974 2.974 0 0 1 4.209 0z" class="cls-34" transform="translate(-351.645 -184.74)"/>
                            <path id="Path_2447" d="M393.865 192.681a2.978 2.978 0 1 1-4.212 0 2.978 2.978 0 0 1 4.212 0z" class="cls-34" transform="translate(-344.574 -191.81)"/>
                        </g>
                    </g>
                </g>
            </g>
        </g>
    </g>
</svg>
