<svg xmlns="http://www.w3.org/2000/svg" width="960.908" height="786" viewBox="0 0 960.908 786">
    <defs>
        <linearGradient id="linear-gradient" x1=".75" x2=".25" y1="-15.754" y2="15.75" gradientUnits="objectBoundingBox">
            <stop offset="0" stop-color="#e9ebf9"/>
            <stop offset="1" stop-color="#fff"/>
        </linearGradient>
        <style>
            .cls-1{fill:#fff}.cls-3{opacity:.4}.cls-4{fill:none;stroke:#938ffd;stroke-linecap:round;stroke-linejoin:round}.cls-7{fill:#938ffd}.cls-8{fill:#2e317b}.cls-10{fill:#e19b00}.cls-11{fill:#ff9e9b}.cls-13{fill:#5142b2}
        </style>
    </defs>
    <g id="Group_3191" transform="translate(-100.092 -197)">
        <path id="Path_760" d="M361.477 77H81v-786h281.585q171.834 0 279.922 105.317T750.6-315.446q0 181.811-108.643 287.128T361.477 77z" class="cls-1" transform="translate(19.092 906)"/>
        <g id="Group_2707" transform="translate(147.398 407.805)">
            <g id="Group_2707-2" transform="translate(888.899 494.957)">
                <path id="Path_1785" fill="url(#linear-gradient)" d="M959.467 735.975h24.7a182.69 182.69 0 0 1-24.7 0z" transform="translate(-959.467 -735.975)"/>
            </g>
            <g id="Group_2708" class="cls-3" transform="translate(97.254 92.283)">
                <path id="Path_1787" d="M1348.107 543.233a43.137 43.137 0 0 0-11.814 3.345 33.076 33.076 0 0 0-9.712 6.48 26.188 26.188 0 0 0-6.186 9.282 23.146 23.146 0 0 0-1.222 11.766 23.517 23.517 0 0 0 2.888 8.926 28.083 28.083 0 0 0 5.16 6.407 45.838 45.838 0 0 0 6.359 4.9q3.384 2.158 6.39 4.094a38.294 38.294 0 0 1 5.391 4.162 10.889 10.889 0 0 1 3.168 5.07 5.134 5.134 0 0 0 1.522 2.34 3.031 3.031 0 0 0 2.511.732l10.011-1.356a3.661 3.661 0 0 0 2.423-1.4 2.934 2.934 0 0 0 .646-2.634 23.084 23.084 0 0 0-3.391-8.724 32.257 32.257 0 0 0-5.556-6.354 46.834 46.834 0 0 0-6.551-4.811q-3.431-2.08-6.381-4.027a30.3 30.3 0 0 1-4.968-4.021 8.366 8.366 0 0 1-2.4-4.838 10.021 10.021 0 0 1 3.1-8.8q3.778-3.8 10.755-4.745 11.193-1.517 17.973 8.961a7.536 7.536 0 0 0 1.677 1.983 3.4 3.4 0 0 0 2.534.4l10.665-1.445a2.93 2.93 0 0 0 1.933-1.068 2.749 2.749 0 0 0 .571-2.221 20.507 20.507 0 0 0-4.106-9.03 32.454 32.454 0 0 0-8.419-7.71 39.224 39.224 0 0 0-11.531-4.938 34.594 34.594 0 0 0-13.44-.726zm4.87 75.5a3.633 3.633 0 0 0-3.072 4.038l1.57 11.585a3.628 3.628 0 0 0 4.035 3.074l11.322-1.535a3.63 3.63 0 0 0 3.074-4.037l-1.57-11.585a3.637 3.637 0 0 0-4.038-3.074z" class="cls-4" transform="translate(-1318.917 -542.891)"/>
            </g>
            <g id="Group_2709" transform="translate(80.501 235.2)">
                <path id="Path_1788" fill="#c2c2ff" d="M1276.54 699.795a3.727 3.727 0 0 1 2.891-3.737l18.19-4.169a65.566 65.566 0 0 1 1.8-10.7l-15.8-9.9a3.723 3.723 0 0 1-1.5-4.484 85.967 85.967 0 0 1 17.858-28.475 3.711 3.711 0 0 1 4.684-.6l15.8 9.912a65.768 65.768 0 0 1 8.853-6.284l-4.169-18.19a3.716 3.716 0 0 1 2.1-4.225 86.062 86.062 0 0 1 32.769-7.512 3.721 3.721 0 0 1 3.735 2.886l4.169 18.192a65.35 65.35 0 0 1 10.707 1.8l9.908-15.8a3.717 3.717 0 0 1 4.482-1.506 86 86 0 0 1 28.475 17.858 3.726 3.726 0 0 1 .6 4.686l-9.908 15.8a65.262 65.262 0 0 1 6.281 8.851l18.189-4.169a3.724 3.724 0 0 1 4.228 2.1 85.813 85.813 0 0 1 7.512 32.769 3.725 3.725 0 0 1-2.891 3.735l-18.19 4.169a65.7 65.7 0 0 1-1.8 10.7l15.8 9.9a3.727 3.727 0 0 1 1.5 4.48 85.975 85.975 0 0 1-17.854 28.475 3.693 3.693 0 0 1-4.688.6l-15.8-9.906a65.421 65.421 0 0 1-8.853 6.279l4.169 18.191a3.72 3.72 0 0 1-2.106 4.225 85.574 85.574 0 0 1-32.769 7.512 3.722 3.722 0 0 1-3.733-2.888l-4.169-18.19a65.49 65.49 0 0 1-10.7-1.8l-9.9 15.8a3.709 3.709 0 0 1-4.481 1.5 86.046 86.046 0 0 1-28.475-17.858 3.716 3.716 0 0 1-.6-4.686l9.91-15.8a65.4 65.4 0 0 1-6.281-8.853l-18.19 4.169a3.722 3.722 0 0 1-4.227-2.1 85.743 85.743 0 0 1-7.512-32.769zm61.449 7.472a26.714 26.714 0 0 0 26.2 16.429h.006a26.425 26.425 0 0 0 22.738-36.269A26.708 26.708 0 0 0 1360.729 671a27.43 27.43 0 0 0-4.163.626 26.412 26.412 0 0 0-18.577 35.645z" transform="translate(-1276.538 -611.42)"/>
            </g>
            <g id="Group_2710" opacity="0.2" transform="translate(0 358.092)">
                <path id="Path_1789" d="M1353.432 755.689a2.4 2.4 0 0 1 .338-3.018l8.6-8.371a42.3 42.3 0 0 1-2.59-6.48l-11.987-.157a2.393 2.393 0 0 1-2.321-1.962 55.3 55.3 0 0 1 .288-21.61 2.388 2.388 0 0 1 2.373-1.9l11.987.163a42.438 42.438 0 0 1 2.761-6.409l-8.369-8.6a2.392 2.392 0 0 1-.259-3.024 55.373 55.373 0 0 1 15.489-15.08 2.392 2.392 0 0 1 3.016.338l8.371 8.6a41.872 41.872 0 0 1 6.482-2.592l.161-11.992a2.387 2.387 0 0 1 1.958-2.323 55.3 55.3 0 0 1 21.61.288 2.4 2.4 0 0 1 1.894 2.375l-.159 11.992a42.144 42.144 0 0 1 6.409 2.763l8.6-8.371a2.394 2.394 0 0 1 3.026-.256 55.119 55.119 0 0 1 15.08 15.487 2.4 2.4 0 0 1-.338 3.018l-8.6 8.371a42.171 42.171 0 0 1 2.59 6.48l11.989.159a2.4 2.4 0 0 1 2.323 1.956 55.259 55.259 0 0 1-.288 21.61 2.376 2.376 0 0 1-2.373 1.9l-11.989-.161a42.115 42.115 0 0 1-2.763 6.409l8.371 8.6a2.392 2.392 0 0 1 .255 3.024A54.972 54.972 0 0 1 1429.873 772a2.392 2.392 0 0 1-3.016-.338l-8.371-8.6a42.354 42.354 0 0 1-6.48 2.59l-.158 11.987a2.386 2.386 0 0 1-1.96 2.321 55.3 55.3 0 0 1-21.61-.288 2.39 2.39 0 0 1-1.9-2.373l.163-11.989a41.915 41.915 0 0 1-6.409-2.761l-8.6 8.371a2.394 2.394 0 0 1-3.024.256 55.046 55.046 0 0 1-15.08-15.487zm36.248-16.438a17.177 17.177 0 0 0 19.885.265 16.994 16.994 0 0 0 .365-27.524 17.176 17.176 0 0 0-19.887-.261 17.811 17.811 0 0 0-2.077 1.733 16.984 16.984 0 0 0 1.712 25.789z" class="cls-7" transform="translate(-1344.54 -670.348)"/>
            </g>
            <circle id="Ellipse_140" cx="34.003" cy="34.003" r="34.003" class="cls-8" transform="rotate(-135 168.276 54.612)"/>
            <path id="Path_1790" fill="#ffb900" d="M1541.045 827.7a26.671 26.671 0 0 1-23.282 13.664h-330.939a26.669 26.669 0 0 1-22.709-40.652l90.51-146.985a26.656 26.656 0 0 1 32.294-10.886 155.227 155.227 0 0 1 130.748 0 26.66 26.66 0 0 1 32.292 10.888l90.512 146.985a26.666 26.666 0 0 1 .574 26.986zm-306.48-39.67h33.195v-53.9zm235.454 0l-33.192-53.9v53.9z" transform="translate(-1049.363 -357.783)"/>
            <g id="Group_2711" transform="translate(279.233 198.263)">
                <path id="Rectangle_827" d="M0 0h47.392v92.3a11.362 11.362 0 0 1-11.362 11.366H11.362A11.362 11.362 0 0 1 0 92.3V0z" class="cls-10" transform="translate(.001 9.996)"/>
                <path id="Rectangle_828" d="M0 0h47.392v92.3a11.362 11.362 0 0 1-11.362 11.366H11.362A11.362 11.362 0 0 1 0 92.3V0z" class="cls-11" transform="translate(.001)"/>
                <path id="Path_1791" fill="#ff9e9b" d="M1240.924 648.567a23.7 23.7 0 0 0 47.393 0v-51.929h-47.393z" transform="translate(-1240.924 -590.529)" style="mix-blend-mode:multiply;isolation:isolate" opacity="0.5"/>
            </g>
            <path id="Path_1792" d="M1346.238 752.7h-84.375v-.427a42.188 42.188 0 0 1 42.188-42.187 42.188 42.188 0 0 1 42.187 42.187z" class="cls-10" transform="translate(-1063.28 -269.118)"/>
            <path id="Path_1793" d="M1271.214 692.4a50.343 50.343 0 0 1-46.117-54.237l6.388-78.936 100.352 8.119-6.388 78.938a50.341 50.341 0 0 1-54.235 46.116z" class="cls-11" transform="translate(-971.858 -432.88)"/>
            <ellipse id="Ellipse_141" cx="3.29" cy="3.725" class="cls-8" rx="3.29" ry="3.725" transform="translate(293.284 185.624)"/>
            <ellipse id="Ellipse_142" cx="3.29" cy="3.725" class="cls-8" rx="3.29" ry="3.725" transform="translate(333.706 185.624)"/>
            <path id="Path_1794" d="M1247.9 602.984c-.444 6.071 2.329 11.864 7.6 14.6s11.607 1.671 16.317-2.188z" class="cls-1" transform="translate(-959.634 -385.378)"/>
            <path id="Path_1795" d="M1334.307 750.77h-77.02v-.39a38.509 38.509 0 0 1 38.51-38.511 38.509 38.509 0 0 1 38.509 38.511z" class="cls-11" transform="translate(-1041.808 -267.185)"/>
            <path id="Rectangle_829" d="M12.275 0h26.649A12.275 12.275 0 0 1 51.2 12.275v13.584H0V12.275A12.275 12.275 0 0 1 12.275 0z" class="cls-13" transform="translate(251.924 457.726)"/>
            <g id="Group_2712" transform="translate(313.023 326.475)">
                <path id="Path_1796" fill="#7c7efd" d="M1370.023 740.134h-234.044a18.466 18.466 0 0 1-18.467-18.467h270.978a18.466 18.466 0 0 1-18.467 18.467z" transform="translate(-1117.512 -583.024)"/>
                <path id="Path_1797" d="M1292.773 793.83h-187.2a8.21 8.21 0 0 1-8-10.073l28.457-122.22a8.215 8.215 0 0 1 8-6.35h187.2a8.213 8.213 0 0 1 8 10.075l-28.459 122.22a8.212 8.212 0 0 1-7.998 6.348z" class="cls-13" transform="translate(-1016.445 -655.187)"/>
                <path id="Path_1798" d="M1289.679 793.83h-187.2a8.212 8.212 0 0 1-8-10.073l28.459-122.22a8.215 8.215 0 0 1 8-6.35h187.2a8.213 8.213 0 0 1 8 10.075l-28.458 122.22a8.213 8.213 0 0 1-8.001 6.348z" class="cls-7" transform="translate(-1006.895 -655.187)"/>
                <circle id="Ellipse_143" cx="21.721" cy="21.721" r="21.721" fill="#a6a5fb" transform="translate(183.729 47.601)"/>
            </g>
            <path id="Path_1799" d="M1269.563 538.2c33.009-4.455 63.992 23.224 69.2 61.82l-119.54 16.127c-5.209-38.6 17.331-73.499 50.34-77.947z" class="cls-8" transform="translate(-965.317 -456.215)"/>
            <path id="Path_1800" d="M1244.057 593.277a22.834 22.834 0 0 1-25.683-19.576l45.261-6.106a22.836 22.836 0 0 1-19.578 25.682z" class="cls-8" transform="translate(-890.19 -423.793)"/>
            <path id="Path_1801" d="M1285.694 598.348c-22.159 9.547-44.853 6.309-50.69-7.234l80.241-34.579c5.836 13.542-7.395 32.265-29.551 41.813z" class="cls-8" transform="translate(-977.652 -435.799)"/>
            <path id="Path_1802" d="M1268.18 597.509a18.271 18.271 0 1 0 21.833-13.82 18.27 18.27 0 0 0-21.833 13.82z" class="cls-11" transform="translate(-1033.561 -406.81)"/>
            <path id="Path_1803" fill="none" stroke="#ff9e9b" stroke-width="0.911px" d="M1242.71 588.2s3.116 20.029 10.649 26.982c-7.224 3.266-8.749 0-8.749 0" transform="translate(-930.457 -401.431)" style="mix-blend-mode:multiply;isolation:isolate" stroke-miterlimit="10" opacity="0.5"/>
            <path id="Path_1804" d="M1234.419 585.639a14.574 14.574 0 0 1 6.6.88 2.737 2.737 0 0 0 3.283-.968c.667-1.072-.021-2.7-1.656-3.318a19.166 19.166 0 0 0-8.678-1.155c-1.74.169-2.832 1.558-2.467 2.767a2.738 2.738 0 0 0 2.918 1.794z" class="cls-8" transform="translate(-898.137 -409.257)"/>
            <path id="Path_1805" d="M1264.611 585.639a14.58 14.58 0 0 0-6.6.88 2.738 2.738 0 0 1-3.282-.968c-.668-1.072.023-2.7 1.656-3.318a19.178 19.178 0 0 1 8.68-1.155c1.739.169 2.83 1.558 2.465 2.767a2.735 2.735 0 0 1-2.919 1.794z" class="cls-8" transform="translate(-969.221 -409.257)"/>
            <circle id="Ellipse_144" cx="18.237" cy="18.237" r="18.237" class="cls-8" transform="rotate(-155.195 148.267 43.37)"/>
            <path id="Path_1806" d="M1213.854 575.383a29.764 29.764 0 1 0 25.518-33.476 29.764 29.764 0 0 0-25.518 33.476z" class="cls-8" transform="translate(-889.473 -451.97)"/>
            <path id="Path_1807" d="M1272.505 594.645a8.766 8.766 0 1 0 10.475-6.632 8.766 8.766 0 0 0-10.475 6.632z" class="cls-8" transform="translate(-1028.612 -401.862)"/>
            <path id="Path_1808" fill="none" stroke="#fff" stroke-linecap="round" stroke-linejoin="round" stroke-width="1.713px" d="M1287.95 627.758a24.546 24.546 0 0 1-19.456-14.117c-3.153-6.932-2.228-14.411-1.7-21.75" transform="translate(-1014.137 -397.418)"/>
            <path id="Path_1809" d="M1258.787 614.925l13.487 1.051a3.774 3.774 0 0 0 4.054-3.468 3.774 3.774 0 0 0-3.468-4.054l-13.487-1.051z" class="cls-8" transform="translate(-986.965 -380.581)"/>
            <path id="Path_1810" fill="none" stroke="#fff" stroke-linecap="round" stroke-linejoin="round" stroke-width="0.244px" d="M1273.95 593.684a5.443 5.443 0 1 0 6.5-4.119 5.44 5.44 0 0 0-6.5 4.119z" transform="translate(-1026.675 -400.088)"/>
            <g id="Group_2713" class="cls-3" transform="translate(434.593 219.046)">
                <path id="Path_1811" d="M1219.338 638.865l-77.638-35.191 22.951 52.607z" class="cls-4" transform="translate(-1120.367 -603.674)"/>
                <path id="Path_1812" d="M1163.026 603.674l-21.326 47.058 77.641 35.191 21.329-47.058" class="cls-4" transform="translate(-1141.697 -603.674)"/>
                <path id="Path_1813" d="M1209.8 645.728l-39.677 5 21.33-47.058" class="cls-4" transform="translate(-1170.128 -603.674)"/>
                <path id="Path_1814" d="M1141.7 634.471l22.389 33.136 21.329-47.058" class="cls-4" transform="translate(-1086.445 -585.357)"/>
            </g>
            <path id="Path_1816" d="M1088.08 693.924h.175a8.874 8.874 0 0 0 8.876 8.876v.175a8.876 8.876 0 0 0-8.876 8.876h-.175a8.877 8.877 0 0 0-8.876-8.876v-.175a8.876 8.876 0 0 0 8.876-8.876z" class="cls-7" transform="translate(-433.24 -286.664)"/>
            <path id="Path_1817" d="M1309.086 531.833h.175a8.875 8.875 0 0 0 8.876 8.876v.175a8.876 8.876 0 0 0-8.876 8.876h-.175a8.878 8.878 0 0 0-8.878-8.876v-.175a8.876 8.876 0 0 0 8.878-8.876z" class="cls-7" transform="translate(-1115.147 -462.611)"/>
            <path id="Path_1818" d="M1068.754 687.9a2.75 2.75 0 1 0 2.749-2.749 2.749 2.749 0 0 0-2.749 2.749z" class="cls-7" transform="translate(-388.569 -296.181)"/>
            <circle id="Ellipse_145" cx="2.75" cy="2.75" r="2.75" class="cls-7" transform="translate(534.218 1.885)"/>
            <path id="Path_1819" d="M1107.271 584.943a2.75 2.75 0 1 0 2.75-2.751 2.749 2.749 0 0 0-2.75 2.751z" class="cls-7" transform="translate(-507.412 -407.947)"/>
            <circle id="Ellipse_146" cx="2.75" cy="2.75" r="2.75" class="cls-7" transform="translate(210.945 58.392)"/>
            <path id="Path_1820" d="M1326.691 521.493a2.75 2.75 0 1 0 2.751-2.749 2.751 2.751 0 0 0-2.751 2.749z" class="cls-7" transform="translate(-1184.431 -476.819)"/>
            <path id="Path_1821" d="M1360.216 572.378a2.75 2.75 0 1 0 2.749-2.749 2.75 2.75 0 0 0-2.749 2.749z" class="cls-7" transform="translate(-1287.871 -421.584)"/>
            <g id="Group_2715" transform="translate(570.823 30.796)">
                <path id="Path_1822" fill="none" stroke="#d8d8ff" stroke-miterlimit="10" d="M1089.79 539.389a1.617 1.617 0 0 1 1.722-1.116l8.055.909a28.414 28.414 0 0 1 2.277-4.129l-5.051-6.332a1.619 1.619 0 0 1 .031-2.054 37.4 37.4 0 0 1 11.416-9.1 1.616 1.616 0 0 1 2.008.428l5.047 6.336a28.636 28.636 0 0 1 4.534-1.3l.907-8.054a1.616 1.616 0 0 1 1.47-1.431 37.387 37.387 0 0 1 14.513 1.637 1.617 1.617 0 0 1 1.116 1.72l-.909 8.056a28.255 28.255 0 0 1 4.129 2.277l6.336-5.051a1.61 1.61 0 0 1 2.052.027 37.346 37.346 0 0 1 9.1 11.416 1.616 1.616 0 0 1-.43 2.006l-6.333 5.053a28.5 28.5 0 0 1 1.3 4.532l8.056.907a1.62 1.62 0 0 1 1.431 1.472 37.282 37.282 0 0 1-1.635 14.513 1.618 1.618 0 0 1-1.723 1.114l-8.057-.907a28.451 28.451 0 0 1-2.277 4.129l5.051 6.332a1.615 1.615 0 0 1-.027 2.052 37.317 37.317 0 0 1-11.416 9.1 1.606 1.606 0 0 1-2.009-.426l-5.051-6.336a28.323 28.323 0 0 1-4.532 1.3l-.909 8.056a1.614 1.614 0 0 1-1.47 1.429 37.19 37.19 0 0 1-14.512-1.635 1.614 1.614 0 0 1-1.114-1.721l.907-8.056a28.68 28.68 0 0 1-4.129-2.277l-6.332 5.051a1.613 1.613 0 0 1-2.052-.029 37.38 37.38 0 0 1-9.1-11.418 1.616 1.616 0 0 1 .426-2.006l6.335-5.049a28.429 28.429 0 0 1-1.3-4.534l-8.057-.907a1.618 1.618 0 0 1-1.428-1.47 37.175 37.175 0 0 1 1.635-14.513zm24.112 11.9a11.606 11.606 0 0 0 8.378 10.5 11.48 11.48 0 0 0 14.538-11.6 11.418 11.418 0 0 0-10.175-10.847 11.472 11.472 0 0 0-12.742 11.937z" transform="translate(-1088.02 -513.408)"/>
            </g>
            <path id="Path_1823" fill="#d8d8ff" d="M1111.3 565.943a53.072 53.072 0 0 1 43.741-40.986c1.858-.273 3.706-.492 5.566-.744h5.17c1.837.252 3.716.459 5.564.744a53.184 53.184 0 0 1 2.415 104.689c-2.263.482-4.59.613-6.9.93a9.031 9.031 0 0 0-1.082.229h-5.17c-1.86-.252-3.708-.471-5.566-.744a53.17 53.17 0 0 1-44.277-43.63c-.242-1.564-.492-3.116-.732-4.669v-8.5c.411-2.454.738-4.904 1.271-7.319zm18.333 31.558c.469.907 4.805 8.173 6.655 9.954a9.068 9.068 0 0 0 6.173 2.332c.2 0 .4 0 .584-.019 2.615-.188 19.837-5.971 31.67-18.953s16.006-30.665 15.95-33.284a9.1 9.1 0 0 0-2.922-6.5c-1.952-1.7-9.633-5.36-10.536-5.716-.857-.34-2.644-1.062-4.071.822-.551.722-9.422 14.815-9.85 16.44-.244.953-.188 2.407 1.487 3.946.732.661 7.908 5.143 8.221 5.328a2.621 2.621 0 0 1 .419.288c-.01.01-.017.127-.077.354a36.468 36.468 0 0 1-16.995 18.64.981.981 0 0 1-.388.1c-.025-.029-.223-.3-.288-.384-.192-.263-5.318-7.009-6.056-7.685-1.689-1.524-3.147-1.447-4.067-1.12-1.533.555-14.784 10.692-15.466 11.318a3.122 3.122 0 0 0-.44 4.138z" transform="translate(-616.787 -470.884)"/>
            <path id="Path_1824" d="M1133.3 502.1h.2a10.387 10.387 0 0 0 10.386 10.386v.2a10.385 10.385 0 0 0-10.386 10.384h-.2a10.385 10.385 0 0 0-10.385-10.384v-.2A10.386 10.386 0 0 0 1133.3 502.1z" class="cls-7" transform="translate(-571.158 -494.884)"/>
            <path id="Path_1825" d="M1064.6 564.189h.2a10.384 10.384 0 0 0 10.385 10.384v.2a10.385 10.385 0 0 0-10.385 10.386h-.2a10.387 10.387 0 0 0-10.386-10.386v-.2a10.385 10.385 0 0 0 10.386-10.384z" class="cls-7" transform="translate(-359.191 -427.489)"/>
            <path id="Path_1826" d="M1180.124 508.439a.9.9 0 0 1 .857-.623h8.99l2.778-8.553a.9.9 0 0 1 1.714 0l2.778 8.553h8.993a.9.9 0 0 1 .53 1.629l-7.274 5.285 2.778 8.553a.9.9 0 0 1-1.387 1.005l-7.274-5.288-7.274 5.283a.9.9 0 0 1-1.059 0 .9.9 0 0 1-.327-1.005l2.78-8.553-7.274-5.285a.9.9 0 0 1-.329-1.001z" class="cls-7" transform="translate(-753.62 -498.641)"/>
            <path id="Path_1827" d="M1199.58 508.439a.9.9 0 0 1 .857-.623h8.993l2.778-8.553a.9.9 0 0 1 1.714 0l2.778 8.553h8.993a.9.9 0 0 1 .53 1.629l-7.274 5.285 2.778 8.553a.9.9 0 0 1-1.387 1.005l-7.275-5.288-7.274 5.283a.9.9 0 0 1-1.387-1.005l2.778-8.553-7.274-5.285a.9.9 0 0 1-.328-1.001z" class="cls-7" transform="translate(-813.653 -498.641)"/>
            <path id="Path_1828" d="M1219.037 508.439a.9.9 0 0 1 .857-.623h8.993l2.778-8.553a.9.9 0 0 1 1.712 0l2.778 8.553h8.993a.9.9 0 0 1 .53 1.629l-7.274 5.285 2.778 8.553a.9.9 0 0 1-1.385 1.005l-7.275-5.288-7.274 5.283a.9.9 0 0 1-1.387-1.005l2.778-8.553-7.274-5.285a.9.9 0 0 1-.328-1.001z" class="cls-7" transform="translate(-873.685 -498.641)"/>
            <path id="Path_1829" fill="#938ffd" d="M1238.493 508.439a.9.9 0 0 1 .857-.623h8.99l2.778-8.553a.9.9 0 0 1 1.714 0l2.778 8.553h8.993a.9.9 0 0 1 .53 1.629l-7.274 5.285 2.778 8.553a.9.9 0 0 1-1.387 1.005l-7.274-5.288-7.274 5.283a.9.9 0 0 1-1.059 0 .9.9 0 0 1-.328-1.005l2.78-8.553-7.274-5.285a.9.9 0 0 1-.328-1.001z" opacity="0.4" transform="translate(-933.717 -498.641)"/>
        </g>
    </g>
</svg>
