<svg xmlns="http://www.w3.org/2000/svg" xmlns:xlink="http://www.w3.org/1999/xlink" width="804.704" height="905.308" viewBox="0 0 804.704 905.308">
    <defs>
        <linearGradient id="linear-gradient" x1=".887" x2=".359" y1="2.257" y2="-.142" gradientUnits="objectBoundingBox">
            <stop offset="0" stop-color="#e0ecf6"/>
            <stop offset="1" stop-color="#bed3e4"/>
        </linearGradient>
        <linearGradient id="linear-gradient-3" x1=".165" x2=".677" y1="-.03" y2=".805" gradientUnits="objectBoundingBox">
            <stop offset="0" stop-color="#72c7bb"/>
            <stop offset=".981" stop-color="#4473e4"/>
        </linearGradient>
        <linearGradient id="linear-gradient-4" x1=".984" x2=".136" y1=".43" y2=".655" gradientUnits="objectBoundingBox">
            <stop offset="0" stop-color="#6ec2fc"/>
            <stop offset=".981" stop-color="#4473e4"/>
        </linearGradient>
        <linearGradient id="linear-gradient-5" x1="-.004" x2=".557" y1="1.137" y2=".472" xlink:href="#linear-gradient-4"/>
        <linearGradient id="linear-gradient-6" x1=".636" x2=".28" y1=".203" y2="1.077" xlink:href="#linear-gradient-4"/>
        <linearGradient id="linear-gradient-7" x1="-1.619" x2="1.345" y1=".491" y2=".491" xlink:href="#linear-gradient-4"/>
        <linearGradient id="linear-gradient-8" x1="1.025" x2="-.237" y1=".106" y2=".885" gradientUnits="objectBoundingBox">
            <stop offset="0" stop-color="#e3825e"/>
            <stop offset=".563" stop-color="#d3595f"/>
            <stop offset="1" stop-color="#c93f60"/>
        </linearGradient>
        <linearGradient id="linear-gradient-9" x1="-56.855" x2="-55.84" y1="-3.371" y2="-3.371" gradientUnits="objectBoundingBox">
            <stop offset="0" stop-color="#c93f60"/>
            <stop offset=".437" stop-color="#d3595f"/>
            <stop offset="1" stop-color="#e3825e"/>
        </linearGradient>
        <linearGradient id="linear-gradient-10" x1=".014" x2=".892" y1=".47" y2=".366" gradientUnits="objectBoundingBox">
            <stop offset="0" stop-color="#705cb2"/>
            <stop offset=".969" stop-color="#d93e73"/>
        </linearGradient>
        <linearGradient id="linear-gradient-11" x1="-1.085" x2="-.349" y1="-7.45" y2="-7.45" gradientUnits="objectBoundingBox">
            <stop offset=".031" stop-color="#d93e73"/>
            <stop offset="1" stop-color="#705cb2"/>
        </linearGradient>
        <linearGradient id="linear-gradient-12" x2="1" y1=".5" y2=".5" gradientUnits="objectBoundingBox">
            <stop offset="0" stop-color="#2f456b"/>
            <stop offset="1" stop-color="#40689e"/>
        </linearGradient>
        <linearGradient id="linear-gradient-13" x1=".5" x2=".5" y1="1.071" y2=".231" xlink:href="#linear-gradient"/>
        <linearGradient id="linear-gradient-14" x1=".515" x2="-.012" y1=".5" y2=".5" gradientUnits="objectBoundingBox">
            <stop offset="0" stop-color="#fff"/>
            <stop offset=".367" stop-color="#fbfcfd"/>
            <stop offset=".709" stop-color="#f0f5fa"/>
            <stop offset="1" stop-color="#e0ecf6"/>
        </linearGradient>
        <linearGradient id="linear-gradient-15" x1="0" x2="1" y1=".5" y2=".5" xlink:href="#linear-gradient"/>
        <linearGradient id="linear-gradient-21" x1=".656" x2=".984" y1=".5" y2=".5" gradientUnits="objectBoundingBox">
            <stop offset="0" stop-color="#fff"/>
            <stop offset=".452" stop-color="#fcfdfe"/>
            <stop offset=".717" stop-color="#f4f8fb"/>
            <stop offset=".932" stop-color="#e6eff7"/>
            <stop offset="1" stop-color="#e0ecf6"/>
        </linearGradient>
        <linearGradient id="linear-gradient-29" x1=".382" x2=".606" y1="-.193" y2="1.137" xlink:href="#linear-gradient"/>
        <linearGradient id="linear-gradient-30" x2="1" y1=".5" y2=".5" gradientUnits="objectBoundingBox">
            <stop offset="0" stop-color="#fff"/>
            <stop offset=".854" stop-color="#e0ecf6"/>
        </linearGradient>
        <linearGradient id="linear-gradient-39" x1="0" x2="1" y1=".5" y2=".5" xlink:href="#linear-gradient"/>
        <linearGradient id="linear-gradient-42" x1="0" x2="1" y1=".5" y2=".5" xlink:href="#linear-gradient-3"/>
        <linearGradient id="linear-gradient-56" x1="0" x2="1" y1=".5" y2=".5" xlink:href="#linear-gradient"/>
        <linearGradient id="linear-gradient-59" x1="0" x2="1" y1=".5" y2=".5" xlink:href="#linear-gradient-8"/>
        <linearGradient id="linear-gradient-78" x1="1.066" x2=".176" y1=".059" y2=".753" xlink:href="#linear-gradient-12"/>
        <linearGradient id="linear-gradient-80" x1=".5" x2=".5" y1="1.226" y2="-2.063" gradientUnits="objectBoundingBox">
            <stop offset="0" stop-color="#e0ecf6"/>
            <stop offset="1" stop-color="#80939c"/>
        </linearGradient>
        <linearGradient id="linear-gradient-84" x2="1" y1=".5" y2=".5" gradientUnits="objectBoundingBox">
            <stop offset="0" stop-color="#e3825e"/>
            <stop offset="1" stop-color="#c93f60"/>
        </linearGradient>
        <linearGradient id="linear-gradient-85" x1=".5" x2=".5" y1=".277" y2=".942" xlink:href="#linear-gradient-12"/>
        <linearGradient id="linear-gradient-86" x1=".5" x2=".5" y1=".93" y2=".093" xlink:href="#linear-gradient-12"/>
        <linearGradient id="linear-gradient-87" x1="-.917" x2=".812" y1=".5" y2=".5" xlink:href="#linear-gradient-12"/>
        <linearGradient id="linear-gradient-88" x1="-.384" x2=".867" y1=".5" y2=".5" xlink:href="#linear-gradient-12"/>
        <linearGradient id="linear-gradient-89" x1=".926" x2=".072" y1=".5" y2=".5" xlink:href="#linear-gradient-12"/>
        <linearGradient id="linear-gradient-90" x2="1" y1=".5" y2=".5" gradientUnits="objectBoundingBox">
            <stop offset="0" stop-color="#ebb340"/>
            <stop offset="1" stop-color="#f3d646"/>
        </linearGradient>
        <linearGradient id="linear-gradient-91" x1=".5" x2=".5" y1="-.017" y2=".783" xlink:href="#linear-gradient-12"/>
        <linearGradient id="linear-gradient-92" x1=".5" x2=".5" y1=".719" y2="-.331" xlink:href="#linear-gradient-90"/>
        <linearGradient id="linear-gradient-93" x1=".5" x2=".5" y1=".155" y2=".83" gradientUnits="objectBoundingBox">
            <stop offset="0" stop-color="#ebae8e"/>
            <stop offset="1" stop-color="#f0c894"/>
        </linearGradient>
        <linearGradient id="linear-gradient-94" x1=".223" x2="1.085" y1=".5" y2=".5" gradientUnits="objectBoundingBox">
            <stop offset="0" stop-color="#302254"/>
            <stop offset=".997" stop-color="#452a52"/>
        </linearGradient>
        <linearGradient id="linear-gradient-95" x1=".5" x2=".5" y1=".082" y2=".655" xlink:href="#linear-gradient-93"/>
        <linearGradient id="linear-gradient-96" x1="0" x2="1" y1=".5" y2=".5" xlink:href="#linear-gradient-94"/>
        <linearGradient id="linear-gradient-97" x1=".5" x2=".5" y1=".45" y2="1.027" xlink:href="#linear-gradient-94"/>
        <linearGradient id="linear-gradient-98" x1=".5" x2=".5" y1=".928" y2=".347" xlink:href="#linear-gradient-94"/>
        <linearGradient id="linear-gradient-99" x1=".5" x2=".5" y1="1" y2="0" xlink:href="#linear-gradient-93"/>
        <linearGradient id="linear-gradient-100" x1=".5" x2=".5" y1=".188" y2=".566" gradientUnits="objectBoundingBox">
            <stop offset="0" stop-color="#5ca1ed"/>
            <stop offset=".997" stop-color="#467cd1"/>
        </linearGradient>
        <linearGradient id="linear-gradient-102" x1=".5" x2=".5" y1=".212" y2="1.019" gradientUnits="objectBoundingBox">
            <stop offset="0" stop-color="#5ca1ed"/>
            <stop offset=".997" stop-color="#4d87e2"/>
        </linearGradient>
        <linearGradient id="linear-gradient-103" x1=".866" x2=".213" y1=".402" y2=".606" xlink:href="#linear-gradient-14"/>
        <linearGradient id="linear-gradient-104" x1="-.672" x2="2.159" y1=".5" y2=".5" xlink:href="#linear-gradient"/>
        <linearGradient id="linear-gradient-105" x1=".5" x2=".5" y1="1.242" y2=".439" xlink:href="#linear-gradient-93"/>
        <linearGradient id="linear-gradient-106" x1="1.698" x2="-.297" y1=".919" y2=".221" xlink:href="#linear-gradient-12"/>
        <linearGradient id="linear-gradient-107" x1="-.29" x2="1.353" y1=".195" y2=".83" xlink:href="#linear-gradient-94"/>
        <linearGradient id="linear-gradient-108" x1=".5" x2=".5" y1=".998" y2=".034" xlink:href="#linear-gradient-12"/>
        <linearGradient id="linear-gradient-110" x1=".5" x2=".5" y1=".161" y2="1.52" xlink:href="#linear-gradient-94"/>
        <linearGradient id="linear-gradient-112" x1=".5" x2=".5" y1=".117" y2="1.184" xlink:href="#linear-gradient-94"/>
        <linearGradient id="linear-gradient-113" x1=".5" x2=".5" y1=".205" y2=".77" xlink:href="#linear-gradient-94"/>
        <linearGradient id="linear-gradient-114" x1=".5" x2=".5" y1=".084" y2=".55" xlink:href="#linear-gradient-94"/>
        <linearGradient id="linear-gradient-116" x1=".5" x2=".5" y1=".688" y2="-.255" xlink:href="#linear-gradient-93"/>
        <linearGradient id="linear-gradient-117" x1=".423" x2=".641" y1="-.116" y2="1.108" xlink:href="#linear-gradient-8"/>
        <linearGradient id="linear-gradient-118" x1=".757" x2=".757" y1="1.006" y2=".005" xlink:href="#linear-gradient-93"/>
        <linearGradient id="linear-gradient-120" x1=".779" x2=".779" y1=".996" y2="-.004" xlink:href="#linear-gradient-93"/>
        <linearGradient id="linear-gradient-121" x1=".546" x2=".546" y1="-.06" y2=".941" xlink:href="#linear-gradient-94"/>
        <linearGradient id="linear-gradient-123" x1=".5" x2=".5" y1=".236" y2=".883" xlink:href="#linear-gradient-93"/>
        <linearGradient id="linear-gradient-124" x1=".501" x2=".501" y1="1.012" y2=".007" xlink:href="#linear-gradient-93"/>
        <linearGradient id="linear-gradient-125" x1=".544" x2=".544" y1="-.174" y2=".983" xlink:href="#linear-gradient-8"/>
        <linearGradient id="linear-gradient-126" x1=".5" x2=".5" y1="1.206" y2=".63" xlink:href="#linear-gradient-93"/>
        <linearGradient id="linear-gradient-127" x1=".463" x2=".463" y1=".671" y2="1.117" xlink:href="#linear-gradient-94"/>
        <linearGradient id="linear-gradient-128" x1=".508" x2=".508" y1=".366" y2=".842" xlink:href="#linear-gradient-94"/>
        <linearGradient id="linear-gradient-129" x1=".21" x2=".21" y1=".428" y2="1.274" xlink:href="#linear-gradient-14"/>
        <linearGradient id="linear-gradient-130" x1=".076" x2=".076" y1=".57" y2="1.257" xlink:href="#linear-gradient-94"/>
        <linearGradient id="linear-gradient-131" x1=".644" x2=".644" y1=".538" y2=".978" xlink:href="#linear-gradient-94"/>
        <linearGradient id="linear-gradient-132" x1=".5" x2=".5" y1=".196" y2="1.144" gradientUnits="objectBoundingBox">
            <stop offset="0" stop-color="#f5de42"/>
            <stop offset="1" stop-color="#e8a32d"/>
        </linearGradient>
        <linearGradient id="linear-gradient-134" x1="1.066" x2=".217" y1="-.295" y2="1.021" xlink:href="#linear-gradient-12"/>
        <linearGradient id="linear-gradient-135" x1=".895" x2=".183" y1="-.094" y2=".982" xlink:href="#linear-gradient-12"/>
        <linearGradient id="linear-gradient-136" x1="1.034" x2=".039" y1="-.567" y2="1.122" xlink:href="#linear-gradient-12"/>
        <linearGradient id="linear-gradient-137" x1=".5" x2=".5" y1=".355" y2="2.906" xlink:href="#linear-gradient-132"/>
        <linearGradient id="linear-gradient-138" x1=".5" x2=".5" y1="-.109" y2="2.916" xlink:href="#linear-gradient-132"/>
        <linearGradient id="linear-gradient-139" x1=".5" x2=".5" y1="-2.892" y2="2.976" xlink:href="#linear-gradient-132"/>
        <linearGradient id="linear-gradient-140" x1=".5" x2=".5" y1="-5.177" y2=".285" xlink:href="#linear-gradient-132"/>
        <linearGradient id="linear-gradient-142" x1=".5" x2=".5" y1="-2.892" y2="2.976" xlink:href="#linear-gradient-132"/>
        <style>
            .cls-2{fill:url(#linear-gradient)}.cls-17{mix-blend-mode:multiply;isolation:isolate}.cls-12{fill:url(#linear-gradient-12)}.cls-15,.cls-17{fill:url(#linear-gradient-15)}.cls-19{fill:url(#linear-gradient-30)}.cls-20{fill:url(#linear-gradient-39)}.cls-21{fill:url(#linear-gradient-42)}.cls-22{fill:url(#linear-gradient-56)}.cls-23{fill:url(#linear-gradient-59)}.cls-38{fill:url(#linear-gradient-96)}.cls-41{fill:url(#linear-gradient-99)}.cls-50{fill:#fff}.cls-74{fill:url(#linear-gradient-138)}.cls-76{fill:url(#linear-gradient-140)}
        </style>
    </defs>
    <g id="Group_3189" transform="translate(-1038.051 -3061.839)">
        <path id="Path_1061" fill="#20496c" d="M470.12 77H750.6v-786H469.011q-171.833 0-279.922 105.317T81-315.446q0 181.811 108.643 287.129T470.12 77z" transform="translate(1069.092 3770.839)"/>
        <g id="Group_1925" transform="translate(1008.56 3172.097)">
            <g id="Group_1924" transform="translate(29.491 65.903)">
                <path id="Path_1064" d="M318.046 432.17c0 5.128-22.2 9.285-49.58 9.285s-49.58-4.157-49.58-9.285 22.2-9.285 49.58-9.285 49.58 4.157 49.58 9.285z" class="cls-2" transform="translate(94.809 168.384)"/>
                <path id="Path_1065" d="M471.155 403c0 6.267-27.129 11.349-60.6 11.349s-60.59-5.078-60.59-11.349 27.129-11.347 60.594-11.347 60.596 5.083 60.596 11.347z" class="cls-2" transform="translate(180.836 147.888)"/>
                <path id="Path_1066" fill="url(#linear-gradient-3)" d="M533.638 242.689c-14-43.3-39.49-88.213-85.082-104.534-24.086-8.623-50.971-8.046-76.408-3.9s-50.078 11.693-75.322 16.75a392.137 392.137 0 0 1-96.378 7.122c-30.676-1.53-63.216-6.352-90.762 6.224C81.98 177 65.674 205.442 62.331 233.839s4.45 56.907 14.423 83.943 22.237 53.507 28.346 81.507a192.454 192.454 0 0 1 3.009 64.3c-1.27 10.4-3.369 21.1-.292 31.167 6.822 22.332 34.925 31.806 59.463 36.7 57.182 11.4 116.423 15.909 174.345 8.349s114.565-27.6 160.023-61.636c9.958-7.455 19.4-15.6 27.158-25.033 19.452-23.657 26.774-53.855 27.119-83.115.278-23.721-7.874-47.33-10.024-71.039-1.73-19.119-6.328-37.943-12.263-56.293z" transform="translate(-8.454 -22.961)"/>
                <path id="Path_1067" fill="url(#linear-gradient-4)" d="M544.915 531.258c25.214.555 59.844-1.429 81.828-13.789 17.767-9.989 37.247-34.738 41.724-56.637 7.8-38.156 2.658-74.063-18.156-103.328-17.837-25.076-41.482-47.532-49.626-77.208-6.662-24.283.856-52.3-12.1-73.884-12.435-20.717-39.17-27.546-63.3-28.8-40.268-2.1-80.614 6.11-118.47 19.995-80.3 29.449-151.194 85.637-194.9 159.156-22.93 38.57-38.34 81.331-62.469 119.162-7.793 12.217-16.479 23.9-23.372 36.672-2.743 5.081-8.548 13.817-8.517 19.75.041 7.584 6.3 3.589 11.531 2.943 33.028-4.078 67.865-2.534 101.13-3.4q101.13-2.626 202.307-2.135 56.199.27 112.39 1.503z" transform="translate(28.305 7.194)"/>
                <path id="Path_1068" fill="url(#linear-gradient-5)" d="M155.009 280.3c15.261-32.947-.856-52.3 12.1-73.884 12.435-20.717 39.17-27.546 63.3-28.8 40.268-2.1 80.614 6.11 118.47 19.995q16.373 6 32.172 13.486c.076.149.169.3.232.449.055-.084.119-.171.176-.255 66.719 31.589 124.631 82.081 162.319 145.476 22.93 38.57 38.34 81.331 62.469 119.162 4.474 7.014 9.236 13.858 13.79 20.828l-.856.966v.452c0 2.228-2.67 3.692-5.012 2.759-17.317-6.894-79.925-25.355-194.327 8.681 0 0-10.614 3.593-14.913 8.424-3.144 3.535-6.537 9.045-13.845 11.756q-9.91-.055-19.819-.086c-7.155-2.74-10.514-8.172-13.628-11.67-4.3-4.831-14.912-8.424-14.912-8.424-114.389-34.032-177-15.579-194.322-8.682-2.344.932-5.613-.08-5.019-3.21l-14.905-16.8s-29.042-92.569-22.41-142.723 33.679-24.958 48.94-57.9z" transform="rotate(135 416.012 416.046)" style="mix-blend-mode:multiply;isolation:isolate" opacity="0.4"/>
                <g id="Group_1880" transform="translate(478.471)">
                    <path id="Path_1069" fill="url(#linear-gradient-6)" d="M326.494 281.964c-.573 10.479-9.269 20.248-6.445 30.357 2.077 7.437 10.07 11.977 17.779 12.465s15.221-2.208 22.449-4.928c8.315-3.129 16.782-6.453 23.478-12.291s11.377-14.769 9.81-23.513c-1.509-8.416-8.492-16.046-6.625-24.389 2.246-10.029 15.852-14.027 18.579-23.935 2.915-10.6-8.3-20.793-6.754-31.675 1.794-12.657 19.684-19.3 19.248-32.073-.311-9.164-10.441-16.237-9.472-25.355.855-8.025 9.978-13.128 11.215-21.1 1.878-12.108-14.771-19.745-16.2-31.914-.991-8.454 5.421-18.327-.174-24.742-3.629-4.161-10.638-3.649-15.038-.311s-6.761 8.659-8.7 13.828-3.735 10.587-7.447 14.675c-6.108 6.726-16.755 9.136-20.585 17.376-4.24 9.128 2.4 19.715 1.388 29.731-1.431 14.186-17.645 23.885-17.958 38.141-.177 8.073 4.957 15.543 4.83 23.616-.252 15.97-20.122 25.969-21.436 41.888-.967 11.761 8.704 22.364 8.058 34.149z" transform="translate(-318.371 -65.903)"/>
                    <path id="Path_1070" fill="url(#linear-gradient-7)" d="M347.255 232.975l.018-.027a77.65 77.65 0 0 1 20.24-21.628c1.935-1.406-.129-4.5-2.07-3.086a82.14 82.14 0 0 0-17.717 17.544q3.694-28.425 10.152-56.4a1.852 1.852 0 0 0 .472-.744l23.364-18.8c1.852-1.489-.2-4.588-2.072-3.086q-10.132 8.154-20.266 16.3 5.471-22.566 12.717-44.662a1.856 1.856 0 0 0 .482-.248l16.618-11.925c1.943-1.395-.123-4.485-2.072-3.086l-13.062 9.375q3.62-10.641 7.649-21.141c.853-2.218-2.484-3.862-3.346-1.618q-4.47 11.637-8.429 23.453a29.093 29.093 0 0 1-7.112-9.572c-.992-2.157-4.527-1-3.526 1.178a33.5 33.5 0 0 0 9.368 12.194q-7.483 22.777-13.086 46.09a36.673 36.673 0 0 1-4.349-14.537c-.207-2.39-3.915-2.157-3.71.23a40.7 40.7 0 0 0 6.836 19.462q-6.288 27.182-9.992 54.868a113.44 113.44 0 0 0-6.446-14.312c-1.131-2.112-4.207-.02-3.086 2.072a106.726 106.726 0 0 1 8.437 20.853A588.722 588.722 0 0 0 339.449 321c.079 2.4 3.79 2.156 3.71-.232a584.958 584.958 0 0 1 3.573-86.866 1.8 1.8 0 0 0 .523-.927z" transform="translate(-307.73 -50.951)"/>
                </g>
                <g id="Group_1881" transform="translate(510.771 66.556)">
                    <path id="Path_1071" fill="url(#linear-gradient-8)" d="M494.517 117.566c10.857 13.823 5.918 34.925-5.342 48.422s-27.345 21.82-41.644 32.041c-29.982 21.433-52.437 51.559-74.1 81.372-3.92 5.395-8.036 10.976-13.919 14.115s-14.08 3.024-18.365-2.087c-4.694-5.6-2.781-14-.434-20.926a398.373 398.373 0 0 1 77.266-134c9.936-11.351 21.02-22.469 35.162-27.721s32.059-3.082 41.376 8.784z" transform="translate(-337.619 -106.086)"/>
                    <path id="Path_1072" fill="url(#linear-gradient-9)" d="M374.536 225.5a1.627 1.627 0 0 1-.3-1.588 208.475 208.475 0 0 1 25.924-55.786c1.312-1.988 4.558-.172 3.233 1.835a205.213 205.213 0 0 0-22.2 44.546c3.1-4.942 6.3-9.824 9.645-14.617 11.087-15.881 37.787-44.637 38.082-45.068q11.553-16.83 23.1-33.663c1.345-1.959 4.593-.147 3.233 1.834l-16.262 23.7a288.8 288.8 0 0 1 26.5-20.24c1.993-1.347 3.894 1.848 1.916 3.185a282.344 282.344 0 0 0-42.943 35.745 402.116 402.116 0 0 1 43.082-23.355c2.155-1 4.088 2.175 1.918 3.183A402.49 402.49 0 0 0 414 176.586l-.031.017a291.269 291.269 0 0 0-21.424 27.311c-6.869 9.926-13.146 20.215-19.041 30.726a303.469 303.469 0 0 1 46.517-38.711c1.991-1.347 3.892 1.848 1.916 3.183a299.267 299.267 0 0 0-54.684 47.588 1.89 1.89 0 0 1-.51.4c-9.029 17.144-17.252 34.739-25.444 52.253-1.015 2.17-4.245.326-3.233-1.835 11.397-24.368 22.888-48.801 36.47-72.018z" transform="translate(-337.872 -96.749)"/>
                </g>
                <g id="Group_1882" transform="translate(518.81 155.261)">
                    <path id="Path_1073" fill="url(#linear-gradient-10)" d="M372.781 191.325c-4.911 4.79-12.926 4.134-19.021 7.283-10.094 5.214-11.907 19.824-6.721 29.933s15.193 16.7 24.858 22.668c5.378 3.323 10.9 6.647 17.05 8.1s13.139.75 17.974-3.321c5.633-4.744 7.553-13.219 13.928-16.9 10.749-6.214 24.813 5.643 36.354 1.063 10.854-4.31 13.443-20.833 24.744-23.776 8.575-2.233 18.473 4.732 26.06.157 5.726-3.452 6.653-11.675 11.785-15.963 5.211-4.351 12.826-3.333 19.6-3.8s14.888-4.823 13.925-11.543c-.626-4.359-5-7.238-9.289-8.262s-8.8-.787-13.057-1.931c-12.192-3.279-21.379-17.446-33.792-15.134-5.928 1.1-10.527 5.883-16.271 7.713-12.638 4.023-26.628-7.084-39.09-2.544-8.831 3.217-13.878 13.416-22.918 15.993-6.476 1.847-13.27-.7-19.781-2.428s-14.319-2.324-19.142 2.377c-3.015 2.934-4.184 7.377-7.196 10.315z" transform="translate(-341.744 -159.643)"/>
                    <path id="Path_1074" fill="url(#linear-gradient-11)" d="M525.069 177.673q-8.994.994-18.083 2.042l5.356-6.7c1.221-1.524-.967-3.65-2.195-2.117l-6.575 8.22a1.535 1.535 0 0 0-.35 1.039q-8.256.986-16.541 2.1a25.723 25.723 0 0 1 7.758-7.159 1.525 1.525 0 0 0-1.575-2.61 28.835 28.835 0 0 0-10.14 10.314q-8.9 1.25-17.785 2.73a44.464 44.464 0 0 1 9.358-9.505c1.562-1.169 0-3.788-1.575-2.61a48.674 48.674 0 0 0-11.935 12.831c-7.2 1.27-14.372 2.688-21.481 4.3a65.175 65.175 0 0 1 11.394-10.955c1.56-1.173-.007-3.791-1.577-2.61a69.678 69.678 0 0 0-14.451 14.65c-7.106 1.708-14.143 3.622-21.085 5.79a37.038 37.038 0 0 1 9-10.69c1.524-1.244-.692-3.344-2.195-2.117a38.857 38.857 0 0 0-10.88 14.11q-8.8 2.894-17.365 6.39l5.451-11.321c.85-1.766-1.825-3.233-2.678-1.459l-7.013 14.567a199.063 199.063 0 0 0-44.555 26.29c-1.525 1.2.036 3.826 1.575 2.61a197.4 197.4 0 0 1 43.658-25.857l.035.01a1.684 1.684 0 0 0 .291.222 121.161 121.161 0 0 0 28.709 12.533c1.888.548 2.579-2.423.694-2.97a117.652 117.652 0 0 1-26.267-11.268q8.616-3.593 17.5-6.536a1.8 1.8 0 0 0 .394.217 1.571 1.571 0 0 0 .464.4l23.743 13.79c1.7.989 3.157-1.693 1.459-2.678Q424.45 207.2 413.3 200.715q10-3.178 20.261-5.679a76.853 76.853 0 0 0 23.322 15.251c1.8.752 3.271-1.92 1.459-2.678a74.476 74.476 0 0 1-21.217-13.431c7.581-1.785 15.238-3.341 22.935-4.719a1.745 1.745 0 0 0 .379.287 1.6 1.6 0 0 0 .447.417l18.355 11.578c1.665 1.05 3.114-1.635 1.459-2.678l-16.4-10.342q9.163-1.565 18.367-2.846a1.537 1.537 0 0 0 1.448.139 1.642 1.642 0 0 0 .172.118l14.461 7.874a1.525 1.525 0 0 0 1.457-2.678l-11.526-6.276q8.611-1.148 17.2-2.147a1.594 1.594 0 0 0 .59.316l10.421 3.135c1.882.566 2.571-2.4.694-2.97l-4.408-1.327q6.01-.683 11.983-1.338c1.941-.214 1.869-3.265-.09-3.048z" transform="translate(-342.725 -152.603)"/>
                </g>
                <g id="Group_1895" transform="translate(135.071 158.122)">
                    <path id="Path_1075" d="M599.839 355.872l-53.886-27.142-186.879 31.6-186.88-31.6-53.884 27.142 2.865 24.283v.452c0 2.228 2.672 3.692 5.012 2.759 17.318-6.894 79.925-25.355 194.329 8.681 0 0 10.612 3.593 14.912 8.424s9.029 13.38 23.647 13.38 19.347-8.548 23.647-13.38 14.912-8.424 14.912-8.424c114.389-34.032 176.994-15.579 194.32-8.682 2.345.932 5.615-.079 5.02-3.21z" class="cls-12" transform="translate(-106.27 -51.532)"/>
                    <path id="Path_1076" fill="url(#linear-gradient-13)" d="M604.61 352.582l-53.886-27.143-186.879 31.6-186.88-31.6-53.884 27.143-12.04 12.932 14.905 16.8s62.757-34.193 199.341 6.441c0 0 11.344 3.776 14.912 6.607 7.046 5.59 9.029 14.88 23.647 14.88s17.158-9.461 22.59-14.358c2.592-2.337 15.968-7.129 15.968-7.129 136.583-40.634 199.341-6.441 199.341-6.441l14.9-16.8z" transform="translate(-111.041 -53.692)"/>
                    <path id="Path_1077" fill="url(#linear-gradient-14)" d="M263.673 485.089s153.057-62.439 252.8-13.38V188.953c-97.269-53.793-243.534-8.485-252.8 13.381z" transform="translate(-10.869 -159.886)"/>
                    <g id="Group_1883" transform="translate(291.363 41.917)">
                        <path id="Path_1078" d="M352.311 191.9a651.957 651.957 0 0 0-65.358 13.441v7c12.669-3.42 119.853-31.291 177.835-12.4v-7.111c-26.55-7.878-64.345-8.194-112.477-.93z" class="cls-15" transform="translate(-286.953 -186.678)"/>
                    </g>
                    <g id="Group_1884" transform="translate(291.363 82.749)">
                        <path id="Path_1079" d="M352.311 216.556A651.835 651.835 0 0 0 286.953 230v7c12.669-3.42 119.853-31.289 177.835-12.4v-7.119c-26.55-7.881-64.345-8.192-112.477-.925z" class="cls-15" transform="translate(-286.953 -211.33)"/>
                    </g>
                    <g id="Group_1885" transform="translate(291.363 123.581)">
                        <path id="Path_1080" d="M352.311 241.209a651.316 651.316 0 0 0-65.358 13.443v7c12.669-3.42 119.853-31.291 177.835-12.4v-7.117c-26.55-7.878-64.345-8.193-112.477-.926z" class="cls-15" transform="translate(-286.953 -235.983)"/>
                    </g>
                    <g id="Group_1886" transform="translate(291.363 164.413)">
                        <path id="Path_1081" d="M352.311 265.86a652.294 652.294 0 0 0-65.358 13.44v7c12.669-3.42 119.853-31.291 177.835-12.4v-7.119c-26.55-7.871-64.345-8.187-112.477-.921z" class="cls-15" transform="translate(-286.953 -260.635)"/>
                    </g>
                    <g id="Group_1887" transform="translate(291.363 205.245)">
                        <path id="Path_1082" d="M352.311 290.514a651.33 651.33 0 0 0-65.358 13.443v7c12.669-3.42 119.853-31.291 177.835-12.4v-7.117c-26.55-7.878-64.345-8.193-112.477-.926z" class="cls-15" transform="translate(-286.953 -285.288)"/>
                    </g>
                    <g id="Group_1888" transform="translate(291.363 246.077)">
                        <path id="Path_1083" d="M352.311 315.167a651.947 651.947 0 0 0-65.358 13.441v7c12.669-3.42 119.853-31.291 177.835-12.4v-7.117c-26.55-7.876-64.345-8.191-112.477-.924z" class="cls-15" transform="translate(-286.953 -309.941)"/>
                    </g>
                    <path id="Path_1084" fill="url(#linear-gradient-21)" d="M363.845 486.573s-153.059-62.439-252.8-13.38V190.436c98.159-53.5 229.142-23.6 252.8 13.381z" transform="translate(-111.041 -161.37)"/>
                    <g id="Group_1889" transform="translate(36.409 41.917)">
                        <path id="Path_1085" d="M245.5 191.9a652.074 652.074 0 0 1 65.358 13.441v7c-12.671-3.42-119.855-31.291-177.837-12.4v-7.111c26.554-7.878 64.348-8.194 112.479-.93z" class="cls-15" transform="translate(-133.023 -186.678)"/>
                    </g>
                    <g id="Group_1890" transform="translate(36.409 82.749)">
                        <path id="Path_1086" d="M245.5 216.556A651.953 651.953 0 0 1 310.86 230v7c-12.671-3.42-119.855-31.289-177.837-12.4v-7.119c26.552-7.881 64.346-8.192 112.477-.925z" class="cls-15" transform="translate(-133.023 -211.33)"/>
                    </g>
                    <g id="Group_1891" transform="translate(36.409 123.581)">
                        <path id="Path_1087" d="M245.5 241.209a651.433 651.433 0 0 1 65.358 13.443v7c-12.671-3.42-119.855-31.291-177.837-12.4v-7.117c26.554-7.878 64.348-8.193 112.479-.926z" class="cls-15" transform="translate(-133.023 -235.983)"/>
                    </g>
                    <g id="Group_1892" transform="translate(36.409 164.413)">
                        <path id="Path_1088" d="M245.5 265.86a652.411 652.411 0 0 1 65.36 13.44v7c-12.671-3.42-119.855-31.291-177.837-12.4v-7.119c26.552-7.871 64.346-8.187 112.477-.921z" class="cls-15" transform="translate(-133.023 -260.635)"/>
                    </g>
                    <g id="Group_1893" transform="translate(36.409 205.245)">
                        <path id="Path_1089" d="M245.5 290.514a651.447 651.447 0 0 1 65.358 13.443v7c-12.671-3.42-119.855-31.291-177.837-12.4v-7.117c26.554-7.878 64.348-8.193 112.479-.926z" class="cls-15" transform="translate(-133.023 -285.288)"/>
                    </g>
                    <g id="Group_1894" transform="translate(36.409 246.077)">
                        <path id="Path_1090" d="M245.5 315.167a652.064 652.064 0 0 1 65.358 13.441v7c-12.671-3.42-119.855-31.291-177.837-12.4v-7.117c26.554-7.876 64.348-8.191 112.479-.924z" class="cls-15" transform="translate(-133.023 -309.941)"/>
                    </g>
                </g>
                <path id="Path_1091" d="M327.34 323.383c-.613-.648-1.663-.114-2.349.451-4.048 3.326-4.628 3.425-7.548 7.834-1.517 2.294-2.935 4.785-5.183 6.307 0 0-16.7 13.477-22.04 11.763-6.723-2.16-14.279-10.075-19.3-12.553a7.688 7.688 0 0 0-.586-.618 13.588 13.588 0 0 0-8.921-3.467l-.215.043a29.919 29.919 0 0 1-.146-9.517c1.256.358 2.486.9 3.684.316a11.644 11.644 0 0 0 1.419-4.692 12.434 12.434 0 0 1 .225-3.371c.641.354 2.11.417 2.153-.335a8.99 8.99 0 0 0-.84-2.849c-.855-2.1-.106-5.274.479-7.877a3.739 3.739 0 0 0 3.495-2.8c.727-3.737-.923-5.557-2.128-7.074a12.531 12.531 0 0 0-4.712-3.225 30.511 30.511 0 0 0-6.332-2.367c-5.948-1.31-12.237 1.181-16.56 5.616-10.158 10.422-5.494 31-8.684 37.123-1.787 3.429-4 6.677-5.082 10.408s-.765 8.225 1.971 10.893a7.984 7.984 0 0 0 2.181 1.486c-3.221 5.158-5.666 11.553-5.135 18.764.8 10.907 6.178 20.6 10.42 26.691-.429 5.161-.888 9.328-1.244 11.569a4.446 4.446 0 0 0 .851.333c-.081.744-.162 1.567-.24 2.425 3.982 1.092 8.013 2.231 12.129 3.455 0 0 10.612 3.593 14.912 8.424 3.056 3.435 6.35 8.734 13.239 11.518-.394-9.414-1.2-21.06-2.839-29.169a2.218 2.218 0 0 0 .53-1.916c-.981-4.914-3.434-15.738-3.93-18.257a23.993 23.993 0 0 1-.447-4.782c.022-3.313.3-8.959 1.8-13.02 1.368-3.705 4.714-7.165 5.731-12.109a34.442 34.442 0 0 0 9.244 2.922c6.847 1 28.508-18.89 29.891-20.685 1.931-2.5 4.513-2.695 6.935-4.691a6.794 6.794 0 0 0 1.852-3.546c-.068-1.323-1.752-2.208-2.011-2.6-.716-1.091 1.365-2.484 2.839-4.378.56-.714 1.109-1.792.492-2.443zm-88.842 63.4c-1.5-5.045-2.456-10.178-2.132-13.8a23.774 23.774 0 0 1 2.368-8.277c.288 6.625.128 14.549-.234 22.082z" class="cls-17" transform="translate(100.211 80.519)"/>
                <path id="Path_1092" d="M495.341 380.289l-10.706-7.763c.9-14.632 2.084-28.281.836-31.647-2.368-6.388-7.495-7.748-8.989-8.477a33 33 0 0 1-.613-4.566 4.254 4.254 0 0 0 3.516-3.829c.532-4.175 3.829-7.541 4.21-11.733s-.184-8.8-3.109-11.831a15.812 15.812 0 0 0-6.378-3.6 29.033 29.033 0 0 0-9.028-1.6 12.027 12.027 0 0 0-4.679.687 5.079 5.079 0 0 0-3.45 4.439 3.393 3.393 0 0 0 .709 2.166 3.731 3.731 0 0 0 2.607 1.32c-.209 1.087-.343 2.2-.621 3.271a11.764 11.764 0 0 1-3.3 5.557c-.77.724-1.734 1.7-1.289 2.657.374.807 1.482.909 2.162 1.484a2.854 2.854 0 0 1 .522 3.059c-.345 1.043-.982 1.978-1.275 3.036a2.647 2.647 0 0 0 .812 2.963c1.217.754 2.908-.181 4.209.424 1.158.538 1.779 4.237 1.683 6.094-3.644.366-8.682 2.531-11.006 5.082a63.581 63.581 0 0 0-6.286 6.942l-18.518-13.433a3.329 3.329 0 0 0-4.649.742l-3.982 5.489-25.209-18.282a61.224 61.224 0 1 0-8.7 11.995l25.211 18.282-3.982 5.489a3.289 3.289 0 0 0-.6 1.582 5.791 5.791 0 0 0-1.625 4.318 12.063 12.063 0 0 0 2.355 5.986 14.144 14.144 0 0 0 2.471 2.947c.022.028.036.06.06.086a4.918 4.918 0 0 0 3.014 1.585c.017.1.023.2.046.3a38.133 38.133 0 0 0 13.26 1.075l17.85 12.944c-.976 5.954-1.943 12.214-2.86 19.1.931.522 1.941 1.012 3 1.477-1.844 7.952-3.9 19.842-5.862 33a195.238 195.238 0 0 1 40.006 7.086q.465-3.384 1.08-6.74c1.285-6.993 3.064-13.886 3.927-20.957a60.522 60.522 0 0 0 .441-9.906 10.04 10.04 0 0 0 2.181-1.469 51.5 51.5 0 0 1-.692-5.673l11.972-16.51a3.328 3.328 0 0 0-.732-4.648z" transform="translate(134.101 40.508)" style="mix-blend-mode:multiply;isolation:isolate" fill="url(#linear-gradient-29)"/>
                <g id="Group_1909" transform="translate(0 293.155)">
                    <g id="Group_1899" transform="translate(32.742 168.373)">
                        <path id="Path_1093" d="M200.475 386.347v66.9l34.192-38.652v-66.9z" class="cls-19" transform="translate(49.984 -342.491)"/>
                        <g id="Group_1896" transform="translate(5.204 43.856)">
                            <path id="Path_1094" d="M85.85 371.031a33.449 33.449 0 1 0 0 66.9h211.806v-66.9z" class="cls-19" transform="translate(-52.401 -371.031)"/>
                        </g>
                        <path id="Rectangle_258" d="M1.571 0h229.2v5.2H1.571A1.571 1.571 0 0 1 0 3.633V1.571A1.571 1.571 0 0 1 1.571 0z" class="cls-15" transform="translate(19.687 74.703)"/>
                        <g id="Group_1897" transform="translate(250.459 16.621)">
                            <path id="Path_1095" d="M200.475 409.332l34.171-36.526v-5.2l-34.171 36.526z" class="cls-15" transform="translate(-200.475 -346.046)"/>
                            <path id="Path_1096" d="M200.475 415.839l34.171-36.526v-5.2l-34.171 36.526z" class="cls-15" transform="translate(-200.475 -341.775)"/>
                            <path id="Path_1097" d="M200.475 422.346l34.171-36.526v-5.2l-34.171 36.526z" class="cls-15" transform="translate(-200.475 -337.505)"/>
                            <path id="Path_1098" d="M200.475 402.824l34.171-36.524v-5.2l-34.171 36.526z" class="cls-15" transform="translate(-200.475 -350.317)"/>
                            <path id="Path_1099" d="M200.475 396.317l34.171-36.526v-5.2l-34.171 36.526z" class="cls-15" transform="translate(-200.475 -354.588)"/>
                        </g>
                        <path id="Path_1100" d="M289.855 388.35H66.889a2.6 2.6 0 0 1-2.6-2.6 2.6 2.6 0 0 1 2.6-2.6h222.966z" class="cls-15" transform="translate(-39.396 -319.223)"/>
                        <path id="Path_1101" d="M287.547 381.844H70.406a2.6 2.6 0 0 1-2.6-2.6 2.6 2.6 0 0 1 2.6-2.6h217.141z" class="cls-20" transform="translate(-37.088 -323.494)"/>
                        <path id="Path_1102" d="M289.855 396.162H66.889a2.6 2.6 0 0 0-2.6 2.6 2.6 2.6 0 0 0 2.6 2.6h222.966z" class="cls-20" transform="translate(-39.396 -310.682)"/>
                        <path id="Path_1103" d="M287.547 402.67H70.406a2.6 2.6 0 0 0-2.6 2.6 2.6 2.6 0 0 0 2.6 2.6h217.141z" class="cls-15" transform="translate(-37.088 -306.411)"/>
                        <g id="Group_1898" transform="translate(0 38.652)">
                            <path id="Path_1104" d="M308.39 445.193H87.912a38.652 38.652 0 1 1 0-77.3H308.39v5.2H87.912a33.449 33.449 0 0 0 0 66.9H308.39z" class="cls-21" transform="translate(-49.259 -367.889)"/>
                        </g>
                        <path id="Path_1105" d="M205.711 383.205l34.189-38.652v5.2l-34.192 38.652z" class="cls-21" transform="translate(53.42 -344.553)"/>
                        <path id="Path_1106" d="M205.711 426.737l34.189-38.653v5.2l-34.189 38.656z" class="cls-21" transform="translate(53.42 -315.983)"/>
                        <path id="Path_1107" d="M118.064 344.553A38.557 38.557 0 0 0 89.17 357.57h-.007l-33.747 38.158A38.747 38.747 0 0 1 83.871 383.2H304.35l29.59-33.449 4.6-5.2z" class="cls-21" transform="translate(-45.218 -344.553)"/>
                        <path id="Path_1108" d="M234.667 388.084h8.672l-34.192 38.652h-8.672z" class="cls-21" transform="translate(49.984 -315.983)"/>
                    </g>
                    <g id="Group_1903" transform="translate(0 84.186)">
                        <path id="Path_1109" d="M180.706 335.519v66.9l34.194-38.655v-66.9z" class="cls-19" transform="translate(69.752 -291.663)"/>
                        <g id="Group_1900" transform="translate(5.202 43.856)">
                            <path id="Path_1110" d="M66.081 320.2a33.449 33.449 0 1 0 0 66.9h211.806v-66.9z" class="cls-19" transform="translate(-32.632 -320.203)"/>
                        </g>
                        <path id="Rectangle_259" d="M1.571 0h229.2v5.2H1.571A1.571 1.571 0 0 1 0 3.633V1.571A1.571 1.571 0 0 1 1.571 0z" class="cls-15" transform="translate(19.686 74.703)"/>
                        <g id="Group_1901" transform="translate(250.458 16.621)">
                            <path id="Path_1111" d="M180.706 358.5l34.171-36.526v-5.2L180.706 353.3z" class="cls-15" transform="translate(-180.706 -295.218)"/>
                            <path id="Path_1112" d="M180.706 365.011l34.171-36.526v-5.2l-34.171 36.526z" class="cls-15" transform="translate(-180.706 -290.947)"/>
                            <path id="Path_1113" d="M180.706 371.518l34.171-36.526v-5.2l-34.171 36.526z" class="cls-15" transform="translate(-180.706 -286.677)"/>
                            <path id="Path_1114" d="M180.706 352l34.171-36.526v-5.2L180.706 346.8z" class="cls-15" transform="translate(-180.706 -299.489)"/>
                            <path id="Path_1115" d="M180.706 345.489l34.171-36.526v-5.2l-34.171 36.526z" class="cls-15" transform="translate(-180.706 -303.76)"/>
                        </g>
                        <path id="Path_1116" d="M270.086 337.522H47.12a2.6 2.6 0 0 1-2.6-2.6 2.6 2.6 0 0 1 2.6-2.6h222.966z" class="cls-15" transform="translate(-19.629 -268.395)"/>
                        <path id="Path_1117" d="M267.777 331.015H50.636a2.6 2.6 0 0 1-2.6-2.6 2.6 2.6 0 0 1 2.6-2.6h217.141z" class="cls-22" transform="translate(-17.32 -272.665)"/>
                        <path id="Path_1118" d="M270.086 345.334H47.12a2.6 2.6 0 0 0-2.6 2.6 2.6 2.6 0 0 0 2.6 2.6h222.966z" class="cls-15" transform="translate(-19.629 -259.854)"/>
                        <path id="Path_1119" d="M267.777 351.842H50.636a2.6 2.6 0 0 0-2.6 2.6 2.6 2.6 0 0 0 2.6 2.6h217.141z" class="cls-15" transform="translate(-17.32 -255.583)"/>
                        <g id="Group_1902" transform="translate(0 38.652)">
                            <path id="Path_1120" d="M288.621 394.365H68.142a38.652 38.652 0 0 1 0-77.3h220.479v5.2H68.142a33.449 33.449 0 1 0 0 66.9h220.479z" class="cls-23" transform="translate(-29.491 -317.061)"/>
                        </g>
                        <path id="Path_1121" d="M185.942 332.377l34.192-38.652v5.2l-34.192 38.655z" class="cls-23" transform="translate(73.188 -293.725)"/>
                        <path id="Path_1122" d="M185.942 375.909l34.192-38.652v5.2l-34.192 38.652z" class="cls-23" transform="translate(73.188 -265.155)"/>
                        <path id="Path_1123" d="M98.295 293.725A38.559 38.559 0 0 0 69.4 306.742h-.007L35.647 344.9A38.746 38.746 0 0 1 64.1 332.376h220.481l29.59-33.449 4.6-5.2z" class="cls-23" transform="translate(-25.451 -293.725)"/>
                        <path id="Path_1124" d="M214.9 337.256h8.672l-34.193 38.652h-8.672z" class="cls-23" transform="translate(69.752 -265.155)"/>
                    </g>
                    <g id="Group_1908" transform="translate(36.064)">
                        <path id="Path_1125" d="M202.48 284.691v66.9l34.193-38.652v-66.9z" class="cls-19" transform="translate(47.978 -240.835)"/>
                        <g id="Group_1904" transform="translate(5.202 43.856)">
                            <path id="Path_1126" d="M87.855 269.375a33.449 33.449 0 0 0 0 66.9h211.806v-66.9z" class="cls-19" transform="translate(-54.406 -269.375)"/>
                        </g>
                        <g id="Group_1905" transform="translate(250.458 16.621)">
                            <path id="Path_1127" d="M202.48 307.676l34.171-36.526v-5.2l-34.171 36.522z" class="cls-15" transform="translate(-202.48 -244.39)"/>
                            <path id="Path_1128" d="M202.48 314.183l34.171-36.526v-5.2L202.48 308.98z" class="cls-15" transform="translate(-202.48 -240.119)"/>
                            <path id="Path_1129" d="M202.48 320.69l34.171-36.526v-5.2l-34.171 36.523z" class="cls-15" transform="translate(-202.48 -235.849)"/>
                            <path id="Path_1130" d="M202.48 301.168l34.171-36.526v-5.2l-34.171 36.523z" class="cls-15" transform="translate(-202.48 -248.661)"/>
                            <path id="Path_1131" d="M202.48 294.661l34.171-36.526v-5.2l-34.171 36.523z" class="cls-15" transform="translate(-202.48 -252.932)"/>
                        </g>
                        <g id="Group_1906" transform="translate(19.686 53.148)">
                            <path id="Rectangle_260" d="M1.571 0h229.2v5.2H1.571A1.571 1.571 0 0 1 0 3.633V1.571A1.571 1.571 0 0 1 1.571 0z" class="cls-15" transform="translate(0 21.555)"/>
                            <path id="Path_1132" d="M291.86 286.694H68.894a2.6 2.6 0 0 1-2.6-2.6 2.6 2.6 0 0 1 2.6-2.6H291.86z" class="cls-15" transform="translate(-61.089 -270.714)"/>
                            <path id="Path_1133" d="M289.551 280.188H72.41a2.6 2.6 0 0 1-2.6-2.6 2.6 2.6 0 0 1 2.6-2.6h217.141z" class="cls-22" transform="translate(-58.78 -274.985)"/>
                            <path id="Path_1134" d="M291.86 294.506H68.894a2.6 2.6 0 0 0-2.6 2.6 2.6 2.6 0 0 0 2.6 2.6H291.86z" class="cls-15" transform="translate(-61.089 -262.173)"/>
                            <path id="Path_1135" d="M289.551 301.014H72.41a2.6 2.6 0 0 0-2.6 2.6 2.6 2.6 0 0 0 2.6 2.6h217.141z" class="cls-15" transform="translate(-58.78 -257.902)"/>
                        </g>
                        <g id="Group_1907" transform="translate(0 38.652)">
                            <path id="Path_1136" d="M310.395 343.537H89.916a38.652 38.652 0 0 1 0-77.3h220.479v5.2H89.916a33.449 33.449 0 0 0 0 66.9h220.479z" class="cls-12" transform="translate(-51.265 -266.233)"/>
                        </g>
                        <path id="Path_1137" d="M207.716 281.549l34.193-38.649v5.2l-34.192 38.652z" class="cls-12" transform="translate(51.414 -242.897)"/>
                        <path id="Path_1138" fill="url(#linear-gradient-78)" d="M207.716 325.081l34.192-38.652v5.2l-34.192 38.652z" transform="translate(51.414 -214.327)"/>
                        <path id="Path_1139" d="M120.069 242.9a38.565 38.565 0 0 0-28.894 13.017h-.007l-33.747 38.155a38.746 38.746 0 0 1 28.452-12.523h220.482l29.59-33.449 4.6-5.2z" class="cls-12" transform="translate(-47.225 -242.897)"/>
                        <ellipse id="Ellipse_134" cx="49.138" cy="11.867" rx="49.138" ry="11.867" transform="translate(111.046 9.983)" style="mix-blend-mode:multiply;isolation:isolate" fill="url(#linear-gradient-80)"/>
                        <path id="Path_1140" d="M236.673 286.428h8.672l-34.192 38.652h-8.673z" class="cls-12" transform="translate(47.978 -214.327)"/>
                    </g>
                </g>
                <path id="Path_1141" d="M144.36 515.584l14.963-252.306a2.62 2.62 0 0 0-2.549-2.642 1.793 1.793 0 0 0-1.857 1.714l-1.555 26.237h-41.626l1.5-25.31a2.618 2.618 0 0 0-2.547-2.642 1.792 1.792 0 0 0-1.857 1.714L93.815 515.584h4.46l.164-2.781h41.626l-.166 2.781zm-32.83-223.528h41.626l-1.665 28.066h-41.625zm-1.87 31.536h41.624l-1.663 28.066H108zm-1.87 31.534h41.624l-1.665 28.066h-41.623zm-1.87 31.536h41.624l-1.665 28.066h-41.623zm-1.87 31.534h41.624l-1.665 28.068h-41.623zm-1.872 31.536h41.626l-1.663 28.068h-41.625zm-3.535 59.6l1.665-28.066h41.626l-1.665 28.066z" class="cls-17" transform="translate(12.725 61.9)"/>
                <path id="Path_1142" d="M172.18 262.35l-5.716 26.237H124.84l5.512-25.31a2.178 2.178 0 0 0-2.128-2.642 2.177 2.177 0 0 0-2.128 1.714l-58.946 270.6a2.179 2.179 0 0 0 2.128 2.643 2.18 2.18 0 0 0 2.13-1.716L76 512.8h41.626l-4.391 20.152a2.18 2.18 0 0 0 2.13 2.643 2.179 2.179 0 0 0 2.128-1.716l58.946-270.6a2.179 2.179 0 0 0-2.13-2.642 2.179 2.179 0 0 0-2.129 1.713zm-6.471 29.706l-6.109 28.066h-41.631l6.115-28.066zM90.493 446.264l6.113-28.064h41.626l-6.113 28.068zm40.869 3.468l-6.113 28.068H83.623l6.115-28.066zm-34-35l6.113-28.066H145.1l-6.113 28.066zm6.87-31.536l6.113-28.066h41.625l-6.113 28.066zm6.869-31.534l6.113-28.066h41.626l-6.113 28.066zM76.754 509.334l6.113-28.066h41.626l-6.113 28.066z" class="cls-12" transform="translate(-4.809 61.9)"/>
                <path id="Path_1143" fill="url(#linear-gradient-84)" d="M410.731 344.506a2.02 2.02 0 0 1-1.255-.772 23.232 23.232 0 0 1-5.252-10.069 57.211 57.211 0 0 1-1.512-11.354c-.34-5.953-.418-12.053 1.416-17.727 1.776-5.489.85-14.953 2.246-20.551 13.016 5.167 17.826 24.392 17.962 27.167.128 2.7-.8 5.327-1.737 7.864a208.761 208.761 0 0 1-10.145 23.958c-.37.716-.922 1.531-1.723 1.484z" transform="translate(215.327 77.255)"/>
                <g id="Group_1911" transform="translate(249.226 34.959)">
                    <path id="Path_1144" fill="url(#linear-gradient-85)" d="M212.311 114.789v52.164c0 5.646 26.916 17.911 60.119 17.911s60.12-12.265 60.12-17.911v-52.164z" transform="translate(-158.732 -68.778)"/>
                    <path id="Path_1145" fill="url(#linear-gradient-86)" d="M290.385 87.01l-105.432 36.056 105.432 36.056 105.432-36.056z" transform="translate(-176.687 -87.01)"/>
                    <path id="Path_1146" fill="url(#linear-gradient-87)" d="M354.04 108.779v4.985l-105.432 36.055v-4.985z" transform="translate(-134.91 -72.723)"/>
                    <path id="Path_1147" fill="url(#linear-gradient-88)" d="M184.953 108.779l105.432 36.056v4.985l-105.432-36.056z" transform="translate(-176.687 -72.723)"/>
                    <g id="Group_1910" transform="translate(6.976 33.762)">
                        <path id="Path_1148" fill="url(#linear-gradient-89)" d="M185.464 154.763a1.291 1.291 0 0 1-1.29-1.292v-44.787a1.291 1.291 0 0 1 1.29-1.29H290.9a1.29 1.29 0 0 1 0 2.581H186.756v43.5a1.291 1.291 0 0 1-1.292 1.288z" transform="translate(-184.174 -107.394)"/>
                    </g>
                    <path id="Path_1149" fill="url(#linear-gradient-90)" d="M191.445 137.592h-8.155a2.017 2.017 0 0 1-2.016-2.017 2.016 2.016 0 0 1 2.016-2.017h8.156a2.017 2.017 0 0 1 2.017 2.017 2.018 2.018 0 0 1-2.018 2.017z" transform="translate(-179.102 -56.461)"/>
                    <path id="Path_1150" fill="url(#linear-gradient-91)" d="M192.311 135.993h-8.164l-4.185 14.445H196.5z" transform="translate(-179.962 -54.862)"/>
                    <path id="Path_1151" fill="url(#linear-gradient-92)" d="M259.259 109.542c0 1.908-3.415 3.455-7.629 3.455s-7.63-1.547-7.63-3.455 3.415-3.455 7.627-3.455 7.632 1.547 7.632 3.455z" transform="translate(-137.933 -74.489)"/>
                </g>
                <g id="Group_1912" transform="translate(149.91 89.91)">
                    <path id="Path_1152" fill="url(#linear-gradient-93)" d="M159.568 248a1.167 1.167 0 0 0-.361-.77.939.939 0 0 0-.631-.094l-7.771.679a11.18 11.18 0 0 1 .439 4.3c.01 1.456.255 3.074 1.285 3.954a4.515 4.515 0 0 0 3.137.722 7.846 7.846 0 0 0 1.946-.2 2.927 2.927 0 0 0 1.65-1.113 4.78 4.78 0 0 0 .634-2.436 20.664 20.664 0 0 0-.328-5.042z" transform="translate(-99.783 -36.881)"/>
                    <path id="Path_1153" fill="url(#linear-gradient-94)" d="M150.511 261.247a18.11 18.11 0 0 1 1.1-10.763 6.246 6.246 0 0 0 4.437 1.857 6.316 6.316 0 0 0 4.407-1.968c.477-.494 1.189.275 1.57.858s.588 1.3.964 1.883A4.6 4.6 0 0 0 166.6 255c1.366.119 2.749-.075 4.109.121a4.006 4.006 0 0 1 1.949.752 4.638 4.638 0 0 1 1.509 3.188 14.869 14.869 0 0 1-.25 3.7c-4.9 1.949-10.358 1.474-15.48.508-2.672-.503-5.302-1.269-7.926-2.022z" transform="translate(-100.223 -34.849)"/>
                    <path id="Path_1154" fill="url(#linear-gradient-95)" d="M142.113 245.8c.035-.287-1.391.537-1.6.555-2.509.22-4.595-1.274-7.1-1.055.171 1.246-.083 4.865-.073 6.274a4.214 4.214 0 0 0 1.318 3.434 4.37 4.37 0 0 0 3.038.7 7.678 7.678 0 0 0 1.886-.2 2.832 2.832 0 0 0 1.6-1.078 4.616 4.616 0 0 0 .614-2.362c.09-1.628.054-4.108.317-6.268z" transform="translate(-111.248 -38.088)"/>
                    <path id="Path_1155" d="M132.838 259.614a17.552 17.552 0 0 1 1.065-10.43 6.046 6.046 0 0 0 4.3 1.8 6.108 6.108 0 0 0 4.272-1.906c.462-.477 1.151.267 1.522.831s3.106.465 4.429.581 2.665-.073 3.983.116a3.9 3.9 0 0 1 1.89.73 4.49 4.49 0 0 1 1.459 3.087 14.356 14.356 0 0 1-.24 3.587c-4.753 1.89-20.138 2.331-22.68 1.604z" class="cls-38" transform="translate(-111.814 -35.696)"/>
                    <path id="Path_1156" fill="url(#linear-gradient-97)" d="M129.889 185.405c-2.491 6.89-2.781 5.245-2 12.621s6.6 24.48 7.808 31.779a163.064 163.064 0 0 1-.472 55.725 24.727 24.727 0 0 0 14.743.126c1.464-9.717 2.869-19.523 4.333-29.24 1.1-7.313 2.206-14.675 2.115-22.087-.113-9.161-2.051-18.213-1.956-27.374.06-5.86.947-11.8-.128-17.53a6.024 6.024 0 0 0-1.471-3.351c-1.686-1.567-4.189-.561-6.272.212-4.3 1.595-12.289.214-16.7-.881z" transform="translate(-115.075 -77.487)"/>
                    <path id="Path_1157" fill="url(#linear-gradient-98)" d="M131.423 190.625c-.315 7.42 3.3 14.229 6.711 20.58 6.355 11.831 12.464 23.914 16.78 36.856s6.807 26.855 5.7 40.639a20.323 20.323 0 0 0 15.15-.937c3.675-26.728-2.029-54.032-7.054-80.451-1.474-7.743-3.072-15.794-7.478-21.967a23.2 23.2 0 0 1-12.288 7.6 33.988 33.988 0 0 1-13.88.379 6.08 6.08 0 0 1-2.38-.745 2.263 2.263 0 0 1-1.261-1.954z" transform="translate(-112.516 -77.424)"/>
                    <path id="Path_1158" d="M131.115 158.764a16.751 16.751 0 0 0 .926-6.774c-.214-4.6-1.845-9.448-1.539-14.044a25.263 25.263 0 0 1 2.178-9.565 11.736 11.736 0 0 1 7.17-6.347c3.182-.843 7.844.275 9.466 3.139 1.118 1.976.649 3.386 1.224 5.582.586 2.251 1.062 3.755 2.756 5.348.82.773 1.847 1.81 1.371 2.832-.4.861-1.578.971-2.3 1.582-.894.757.265 2.965.633 4.076s.2 2.938.512 4.066a2.113 2.113 0 0 1-1.153 2.541c-1.3.8-3.041.094-4.426.739-1.408.654-1.65 6.614-1.284 8.121s1.365-.663 1.053.858c-.434 2.112-2.68 3.329-4.783 3.808a15.591 15.591 0 0 1-6.975-.017 6.036 6.036 0 0 1-3.482-1.892c-.67-.853-1.645-3.012-1.347-4.053z" class="cls-41" transform="translate(-113.132 -119.154)"/>
                    <path id="Path_1159" d="M140.76 143.226a5.353 5.353 0 0 1-1.391-9.262 2.426 2.426 0 0 1 1.583-.6 1.266 1.266 0 0 1 1.12 1.34 4.954 4.954 0 0 0 1.524 3.463 1.241 1.241 0 0 0 1.53.253l.018-.01a1.2 1.2 0 0 0 .518-1.542 7.579 7.579 0 0 1-.823-4.074 3.708 3.708 0 0 1 .55-1.552c2.148-3.3 7.084-.313 9.449-3.284a3.625 3.625 0 0 0 .757-2.311 5.421 5.421 0 0 0-3.68-4.73 12.792 12.792 0 0 0-4.985-.732 30.9 30.9 0 0 0-9.625 1.7 16.845 16.845 0 0 0-6.8 3.843c-3.119 3.225-4.19 7.924-3.972 12.406.2 4.194 2.821 11.781 7.889 17.028a24.5 24.5 0 0 0 3.23-.666 6.263 6.263 0 0 0 2.418-1.009 2.528 2.528 0 0 0 1.025-2.576c-.27-.921-.707-4.23-.225-5.025s.763-2.335-.11-2.66z" transform="translate(-115.73 -120.187)"/>
                    <path id="Path_1160" fill="url(#linear-gradient-100)" d="M134.945 210.134a2.2 2.2 0 0 0 1.37-.841 25.359 25.359 0 0 0 5.734-10.995 62.506 62.506 0 0 0 1.651-12.4c.371-6.5.455-13.161-1.547-19.357-1.936-5.994-2.647-16.328-4.171-22.441-8.4 4.122-16.56 20.833-17.895 29.668-.442 2.918.878 5.815 1.9 8.586a227.982 227.982 0 0 0 11.079 26.161c.4.785 1.001 1.671 1.879 1.619z" transform="translate(-120 -104.492)"/>
                    <path id="Path_1161" d="M174.379 144.869a91.208 91.208 0 0 0 6.241-10.241 45.9 45.9 0 0 1 6.884-9.792c2.8-2.854 7.12-3.864 7.654-2.99.513.838-.189 3.028-2.027 4.75-.944.884-2.98 3.495-2.254 4.565 1.3 1.916 1.641 5.4.189 7.342-1.234 1.651-3.541 2.049-5.148 3.341-2.521 2.027-4.48 5.822-6.173 8.795-1.307-.467-2.231-2.395-3.212-3.377a8.774 8.774 0 0 0-2.154-2.393z" class="cls-41" transform="translate(-84.311 -119.297)"/>
                    <path id="Path_1162" fill="url(#linear-gradient-102)" d="M168.412 176.064a3.407 3.407 0 0 1 2.5-1.178c18.541-3.112 35.524-16.51 42.492-33.971a9.318 9.318 0 0 0-7.1-6.065c-5.451 6.469-19.134 16.237-21.108 17.075a54.521 54.521 0 0 1-9.366 3.313 18.216 18.216 0 0 1-9.82-.258c-2.123-.73-11.9-3.248-16.324-4.277a22.44 22.44 0 0 1-15.423-.53 15.26 15.26 0 0 0-4.4 3.054 15.092 15.092 0 0 0-3.839 6.743c-1.675 7 3.323 50.11-.146 68.445-.538 2.844 11.422 4.894 14.307 5.113a49.385 49.385 0 0 0 22.29-4.088c1.888-.84 9.587-4.942 9.072-6.945-1.618-6.288-3.654-45.595-3.135-46.431z" transform="translate(-116.278 -110.563)"/>
                </g>
                <g id="Group_1918" transform="translate(410.936 250.047)">
                    <g id="Group_1913" transform="translate(9.979 10.449)">
                        <path id="Path_1163" fill="url(#linear-gradient-103)" d="M389.15 248.363a21.559 21.559 0 0 0-6.438-6.6 2.6 2.6 0 0 1-1.06-.4c-12.055-7.6-25.09-17.565-39.92-18.163-7.891-.318-14.453 2.062-21.355 5.713-6.387 3.379-13.04 6.532-18.377 11.5-8.108 7.543-17.57 17.313-18.251 28.934a86.912 86.912 0 0 0 4.5 32.452c3.763 10.771 10.6 21.32 21.191 26.4 10.513 5.043 22.41 5.13 33.832 4.931 9.689-.167 19.423-.961 27.466-6.971 8.55-6.388 14.261-16.772 18.092-26.534a74.571 74.571 0 0 0 4.759-34.618c-.498-5.591-1.548-11.726-4.439-16.644z" transform="translate(-283.621 -223.179)"/>
                        <path id="Path_1164" fill="url(#linear-gradient-104)" d="M324.632 262.1c-14.087 2.46-27.584 5.183-40.119 7.945a81.6 81.6 0 0 0 3.154 12.043c.116.333.243.663.366 1 30.646-6.708 67.207-13.188 103.992-16.188a74.25 74.25 0 0 0 1.312-13.683q-32.007 2.483-68.705 8.883z" transform="translate(-283.036 -203.464)"/>
                    </g>
                    <g id="Group_1916">
                        <path id="Path_1165" fill="url(#linear-gradient-105)" d="M361.377 298.888a2.531 2.531 0 0 1 2.425.242 2.975 2.975 0 0 1 .769 2.637 8.969 8.969 0 0 0-.131 2.845c.369 1.635 1.992 2.62 3.473 3.407s3.111 1.742 3.523 3.367a3.665 3.665 0 0 1-2.4 4.086 5.653 5.653 0 0 1-4.942-.8 13.018 13.018 0 0 1-3.486-3.806 12.878 12.878 0 0 1-2.511-6.382c-.103-2.317 1.103-4.819 3.28-5.596z" transform="translate(-224.77 -163.17)"/>
                        <path id="Rectangle_261" fill="url(#linear-gradient-106)" d="M0 0H15.794V45.108H0z" transform="rotate(-54.07 152.277 -49.973)"/>
                        <rect id="Rectangle_262" width="37.348" height="96.613" fill="url(#linear-gradient-107)" rx="2.142" transform="rotate(-54.07 201.852 -61.948)"/>
                        <path id="Path_1166" fill="url(#linear-gradient-108)" d="M381.174 229.305a65.262 65.262 0 1 0 14.519 91.145 65.261 65.261 0 0 0-14.519-91.145zm2.284 82.272A50.148 50.148 0 1 1 372.3 241.54a50.148 50.148 0 0 1 11.158 70.037z" transform="translate(-277.596 -216.87)"/>
                        <g id="Group_1914" transform="translate(50.735 23.063)">
                            <path id="Path_1167" d="M312.887 241.443a4.663 4.663 0 0 1-1.219-9.163 42.191 42.191 0 0 1 12.527-1.461 4.661 4.661 0 1 1-.31 9.317 33.169 33.169 0 0 0-9.772 1.141 4.677 4.677 0 0 1-1.226.166z" class="cls-50" transform="translate(-308.228 -230.795)"/>
                        </g>
                        <g id="Group_1915" transform="translate(23.47 30.443)">
                            <path id="Path_1168" d="M296.434 269.192a4.665 4.665 0 0 1-4.616-5.346 42.712 42.712 0 0 1 16.632-27.666 4.661 4.661 0 1 1 5.585 7.463 33.325 33.325 0 0 0-13 21.572 4.665 4.665 0 0 1-4.601 3.977z" class="cls-50" transform="translate(-291.766 -235.251)"/>
                        </g>
                    </g>
                    <g id="Group_1917" transform="translate(135.569 71.632)">
                        <path id="Path_1169" d="M377.32 391.943a1.241 1.241 0 0 1 .406-.815 1.046 1.046 0 0 1 .692-.093l8.49.835c-.267 1.691-.467 5.014-.467 5.014a4.591 4.591 0 0 1-1.539 3.76 5.033 5.033 0 0 1-3.44.727 8.748 8.748 0 0 1-2.127-.245 3.194 3.194 0 0 1-1.787-1.209 4.993 4.993 0 0 1-.659-2.609 21.579 21.579 0 0 1 .431-5.365z" class="cls-41" transform="translate(-348.013 -174.209)"/>
                        <path id="Path_1170" fill="url(#linear-gradient-110)" d="M394.26 406.218a18.869 18.869 0 0 0-1.045-11.493 6.76 6.76 0 0 1-9.673-.243c-.513-.532-1.3.277-1.729.893s-.661 1.373-1.082 2c-.891 1.32-4.293 1.85-5.79 1.958s-3.008-.119-4.5.07a4.472 4.472 0 0 0-2.142.777 4.894 4.894 0 0 0-1.7 3.377 15.513 15.513 0 0 0 .219 3.95c5.1 1.31 17.6 1.612 23.215.654 2.933-.504 3.648-.761 4.227-1.943z" transform="translate(-354.786 -172.05)"/>
                        <path id="Path_1171" d="M398.68 387.267c-.048-.291 6.425-.8 9.057-.535.094 1.636.659 6.647.659 6.647a4.257 4.257 0 0 1-1.431 3.5 4.685 4.685 0 0 1-3.2.677 8.184 8.184 0 0 1-1.978-.23 2.958 2.958 0 0 1-1.661-1.123 4.652 4.652 0 0 1-.614-2.426c-.073-1.677-.504-4.564-.832-6.51z" class="cls-41" transform="translate(-333.698 -177.07)"/>
                        <path id="Path_1172" fill="url(#linear-gradient-112)" d="M414.674 401.557a17.541 17.541 0 0 0-.972-10.688 6.286 6.286 0 0 1-8.994-.225c-.477-.5-1.212.257-1.608.83s-7.5 1.749-8.883 1.925a4.156 4.156 0 0 0-1.992.72 4.555 4.555 0 0 0-1.577 3.14 14.326 14.326 0 0 0 .2 3.674c6.821 2.045 21.152 1.333 23.826.624z" transform="translate(-339.004 -174.561)"/>
                        <path id="Path_1173" fill="url(#linear-gradient-113)" d="M417.135 326.253c2.519 7.086 2.617 14.955 1.694 22.491s-2.816 14.885-4.187 22.339a162.784 162.784 0 0 0-.28 57.035 26.591 26.591 0 0 1-15.477-.071c-1.4-9.964-2.738-20.018-4.139-29.982-1.055-7.5-2.113-15.049-1.915-22.633.245-9.373 2.407-18.61 2.436-27.988.018-6-.832-12.088.376-17.938a6.094 6.094 0 0 1 1.592-3.409c1.792-1.582 4.4-.518 6.581.3 4.49 1.691 8.669.916 13.319-.144z" transform="translate(-337.552 -217.354)"/>
                        <path id="Path_1174" fill="url(#linear-gradient-114)" d="M424.769 331.287c.237 7.917-3.814 15.127-7.639 21.85-7.122 12.527-22.054 51.882-25.712 82.32a22.758 22.758 0 0 1-16.558-1.214c3.324-36.46 12.474-102.488 17.38-109.011a25.469 25.469 0 0 0 13.33 8.277 38.072 38.072 0 0 0 15.175.6 6.753 6.753 0 0 0 2.614-.76 2.414 2.414 0 0 0 1.41-2.062z" transform="translate(-349.331 -217.385)"/>
                        <path id="Path_1175" d="M414.16 299.8a32.046 32.046 0 0 1-.881-8.112c.214-4.6 2.648-9.216 2.342-13.81a25.263 25.263 0 0 0-2.178-9.565 11.734 11.734 0 0 0-7.17-6.349c-3.182-.843-6.971.358-8.591 3.223-1.12 1.976-1.108 4.371-1.683 6.567a12.524 12.524 0 0 1-3.513 5.923c-.822.774-1.848 1.81-1.373 2.832.4.861 1.578.971 2.3 1.582a3.041 3.041 0 0 1 .558 3.261c-.368 1.113-1.047 2.108-1.36 3.236a2.82 2.82 0 0 0 .865 3.159c1.3.805 3.1-.192 4.487.452 1.406.654 2.072 5.691 1.706 7.2a11.3 11.3 0 0 0 .265 4.752c.434 2.112 1.168.026 3.27.505a15.591 15.591 0 0 0 6.975-.017 6.036 6.036 0 0 0 3.482-1.892 3.43 3.43 0 0 0 .499-2.947z" class="cls-41" transform="translate(-338.743 -259.082)"/>
                        <path id="Path_1176" d="M407.116 283.16a5.353 5.353 0 0 0 1.391-9.262 2.433 2.433 0 0 0-1.583-.6 1.266 1.266 0 0 0-1.12 1.34 4.958 4.958 0 0 1-1.524 3.465 1.241 1.241 0 0 1-1.529.252l-.02-.01a1.2 1.2 0 0 1-.518-1.542 7.576 7.576 0 0 0 .823-4.075 3.709 3.709 0 0 0-.55-1.552c-2.148-3.3-7.084-.313-9.449-3.284a3.62 3.62 0 0 1-.757-2.309 5.421 5.421 0 0 1 3.68-4.732 12.824 12.824 0 0 1 4.985-.732 30.9 30.9 0 0 1 9.625 1.7 16.863 16.863 0 0 1 6.8 3.843c3.119 3.226 3.718 8.144 3.314 12.613s-3.92 8.056-4.489 12.505c-.353 2.763-2.764 4.417-4.368 4.035a16.524 16.524 0 0 1-4.023-1.393 2.528 2.528 0 0 1-1.025-2.576c.27-.918-.536-7.361.337-7.686z" transform="translate(-337.898 -260.119)"/>
                        <path id="Path_1177" fill="url(#linear-gradient-116)" d="M360.95 308.549a8.8 8.8 0 0 0 1.459 3.185 5.816 5.816 0 0 0 4.861 1.792 2.925 2.925 0 0 0 2.609-1.4 2.611 2.611 0 0 0-.838-2.778c-1.655-1.6-4.363-1.938-5.645-3.846a19.129 19.129 0 0 1-.9-1.794 2.618 2.618 0 0 0-1.41-1.36 1.265 1.265 0 0 0-1.612.773 1.954 1.954 0 0 0 .121.964l1.355 4.464z" transform="translate(-359.447 -232.441)"/>
                        <path id="Path_1178" fill="url(#linear-gradient-117)" d="M441.811 293.075c-2.529-6.821-8.008-8.265-9.59-9.042-5.325 1.928-8.787 1.723-14.18 0-3.884.393-9.255 2.7-11.733 5.418-3.442 3.155-7.293 7.957-11.892 14.168-10 13.5-22.158 15.824-28 15.3 0 0-4.012 3.15-3.165 6.811a44.551 44.551 0 0 0 36.94-7.284c-2.234 13.244-4.659 26.314-6.826 42.59 13.141 7.366 40.038 9.686 47.733 2.655-3.467-18.338 3.216-63.868.713-70.616z" transform="translate(-357.027 -244.424)"/>
                    </g>
                </g>
                <g id="Group_1919" transform="translate(319.25 362.813)">
                    <path id="Path_1179" fill="url(#linear-gradient-118)" d="M246.417 384.93l1.338 3.786-3.068 55.1-6.551-.192s-2.516-29.191-2.559-40.112l-3.788-16.563z" transform="translate(-215.972 -219.339)"/>
                    <path id="Path_1180" d="M236.647 419.474s1.7 1.9 6.751.692a21.04 21.04 0 0 0 12.722 10.05 6.5 6.5 0 0 1 2.471 1.03 1.968 1.968 0 0 1 .575 2.453c-.509.762-1.565.8-2.46.749l-9.262-.482c-1.3-.068-8.053-.292-11.4-.426a1.574 1.574 0 0 1-1.524-1.67c.177-2.384-.9-4.961-.651-7.4a7.317 7.317 0 0 1 2.778-4.996z" class="cls-38" transform="translate(-214.628 -196.668)"/>
                    <path id="Path_1181" fill="url(#linear-gradient-120)" d="M258.02 385.261l1.421 4.018-3.258 58.5-6.955-.205s-4.267-32.7-4.311-44.3l-2.428-15.874z" transform="translate(-208.95 -219.122)"/>
                    <path id="Path_1182" fill="url(#linear-gradient-121)" d="M229.7 358.17s-4.7 25.933 1.416 51.012c0 0 21.23 5.088 39.324-2.032 0 0-.018-35.132-4.171-49.954z" transform="translate(-218.476 -237.541)"/>
                    <path id="Path_1183" d="M247.646 421.936s1.81 2.017 7.168.737a22.348 22.348 0 0 0 13.507 10.672 6.891 6.891 0 0 1 2.625 1.093 2.089 2.089 0 0 1 .608 2.605c-.54.808-1.661.841-2.61.793l-9.835-.512c-1.33-.069-8.02-.293-11.685-.436a2.116 2.116 0 0 1-2.011-2.206c.048-2.412-.959-4.99-.711-7.437a7.774 7.774 0 0 1 2.944-5.309z" class="cls-38" transform="translate(-207.523 -195.052)"/>
                    <path id="Path_1184" fill="url(#linear-gradient-123)" d="M231.754 349.981c.608-6.761 4.06-12.129 8.243-17.358l.444-15.112s-19.558 13.7-18.127 33.141c1.39 18.89 16.144 34.319 16.144 34.319l.29-8.591c-3.68-7.08-7.617-19.456-6.994-26.399z" transform="translate(-222.24 -263.586)"/>
                    <path id="Path_1185" fill="url(#linear-gradient-124)" d="M257.45 296.444c-.522 2.844-1.953 7.212-.868 9.876a9.239 9.239 0 0 1 .865 2.932c-.045.773-1.557.709-2.216.344a12.85 12.85 0 0 0-.23 3.467 12.016 12.016 0 0 1-1.461 4.826c-1.231.6-2.5.043-3.79-.325a30.34 30.34 0 0 0 .412 11.236c-2.291-.754-4.691-.132-7.091.028s-5.091-.147-6.673-2.016a9 9 0 0 1-1.63-4.007 56.508 56.508 0 0 1-1.252-11.853 32.07 32.07 0 0 1 1.694-11.107 16.713 16.713 0 0 1 6.734-8.641 10.857 10.857 0 0 1 10.469-.6c2.236 1.173 5.502 3.296 5.037 5.84z" transform="translate(-214.839 -281.951)"/>
                    <path id="Path_1186" fill="url(#linear-gradient-125)" d="M263.629 369.747a24.747 24.747 0 0 1-.46-4.919c.022-3.407.31-9.216 1.853-13.393 2.316-6.269 10.176-11.831 3.723-24.7-2.311-4.608-3.458-8.517-5.817-10.635a13.981 13.981 0 0 0-9.176-3.568s-11.137 2.39-16.815-.494a31.323 31.323 0 0 0-7.2 24.959c2.178 15.276-.457 48.419-1.757 56.6 4.306 2.479 41.215 2.579 39.688-5.072-1.004-5.053-3.529-16.186-4.039-18.778z" transform="translate(-218.47 -267.176)"/>
                    <path id="Path_1187" fill="url(#linear-gradient-126)" d="M249.624 319.86c-3.271.371-7.689 4.434-2.784 12.247s15.6 12.73 22.647 13.762 29.325-19.432 30.749-21.279c1.986-2.576 4.641-2.771 7.134-4.825a7 7 0 0 0 1.9-3.649c-.068-1.361-1.8-2.269-2.069-2.677-.735-1.123 1.4-2.556 2.922-4.5.57-.734 1.135-1.842.5-2.513s-1.709-.116-2.417.465c-4.162 3.42-4.76 3.521-7.763 8.058-1.562 2.359-3.019 4.922-5.332 6.488 0 0-17.182 13.863-22.671 12.1-8.418-2.705-18.117-14.207-22.816-13.677z" transform="translate(-207.531 -271.062)"/>
                    <path id="Path_1188" d="M248.5 349.045c-3.311 3.911-8.8 4.86-13.825 4.9-3.382.03-7.062-.363-9.52-2.759-2.814-2.745-3.137-7.367-2.027-11.207s3.389-7.178 5.227-10.706c3.281-6.3-1.516-27.466 8.932-38.186 4.447-4.563 10.917-7.125 17.035-5.779a31.45 31.45 0 0 1 6.514 2.436 12.888 12.888 0 0 1 4.846 3.316c1.241 1.562 2.938 3.434 2.19 7.278a3.881 3.881 0 0 1-3.69 2.9c-1.741.184-6.138-2.19-7.6-1.191a8.213 8.213 0 0 0-2.263 2.7 35.3 35.3 0 0 0-4.749 21.206c.409 4.313 1.613 8.517 1.968 12.835s-.272 8.991-3.038 12.257z" transform="translate(-222.045 -284.954)"/>
                </g>
                <g id="Group_1920" transform="translate(419.733 448.57)">
                    <path id="Rectangle_263" fill="url(#linear-gradient-127)" d="M0 0h112.577v76.561a3.623 3.623 0 0 1-3.623 3.623H3.622A3.622 3.622 0 0 1 0 76.561V0z" transform="rotate(-14.331 148.086 18.617)"/>
                    <path id="Path_1189" fill="url(#linear-gradient-128)" d="M282.907 370.252l9.328 36.513a9.451 9.451 0 0 0 11.493 6.816l90.765-23.19a9.447 9.447 0 0 0 6.816-11.493l-9.328-36.513z" transform="translate(-282.907 -333.018)"/>
                    <path id="Rectangle_264" fill="url(#linear-gradient-129)" d="M0 0h19.58v15.523a2.22 2.22 0 0 1-2.22 2.22H2.22A2.22 2.22 0 0 1 0 15.523V0z" transform="rotate(-14.331 273.358 -184.991)"/>
                    <path id="Rectangle_265" fill="url(#linear-gradient-130)" d="M0 0H12.195V13.714H0z" transform="rotate(-14.332 271.495 -199.658)"/>
                    <path id="Path_1190" fill="url(#linear-gradient-131)" d="M341.131 337.111l-37.631 9.615-.888.227a4.914 4.914 0 0 0-3.545 5.976l3.412 13.351 5.648-1.443-3.158-12.368 37.633-9.615 3.16 12.368 5.648-1.443-3.41-13.352a4.912 4.912 0 0 0-5.976-3.543z" transform="translate(-272.404 -336.73)"/>
                </g>
                <g id="Group_1923" transform="translate(228.516 187.915)">
                    <path id="Path_1191" fill="url(#linear-gradient-132)" d="M268.406 244.851a39.515 39.515 0 1 0-73.3 20.5 74.421 74.421 0 0 1 10.443 38.729v3.631h46.683v-4.744a70.611 70.611 0 0 1 10.254-37.306 39.309 39.309 0 0 0 5.92-20.81z" transform="translate(-153.072 -162.308)"/>
                    <path id="Path_1192" d="M199.143 267.144v19.932a16.628 16.628 0 0 0 16.628 16.624H229.2a16.628 16.628 0 0 0 16.628-16.628v-19.928z" class="cls-12" transform="translate(-146.664 -121.744)"/>
                    <g id="Group_1921" transform="translate(52.479 145.399)">
                        <path id="Path_1193" fill="url(#linear-gradient-134)" d="M211.086 298.972l31.427-18.517v-6.208l-38.322 22.58a16.483 16.483 0 0 0 6.895 2.145z" transform="translate(-195.83 -262.482)"/>
                        <path id="Path_1194" fill="url(#linear-gradient-135)" d="M202.349 297.395l43.079-25.383v-4.868h-2.274l-43.405 25.575a16.565 16.565 0 0 0 2.6 4.676z" transform="translate(-198.746 -267.143)"/>
                        <path id="Path_1195" fill="url(#linear-gradient-136)" d="M221.311 267.144l-22.167 13.062v6.208l32.7-19.27z" transform="translate(-199.143 -267.144)"/>
                    </g>
                    <path id="Path_1196" d="M237.865 226.149a9.522 9.522 0 0 0-9.51 9.51v10.092h-10.86v-10.092a9.511 9.511 0 0 0-19.023 0v2.8a9.522 9.522 0 0 0 9.512 9.512h7.288v46.073h2.223v-46.068h10.86v46.073h2.223v-46.073h7.288a9.522 9.522 0 0 0 9.512-9.512v-2.8a9.522 9.522 0 0 0-9.513-9.515zm-22.594 19.6h-7.288a7.3 7.3 0 0 1-7.289-7.288v-2.8a7.289 7.289 0 0 1 14.577 0zm29.883-7.288a7.3 7.3 0 0 1-7.289 7.288h-7.288v-10.09a7.289 7.289 0 0 1 14.577 0z" class="cls-50" transform="translate(-147.104 -148.649)"/>
                    <g id="Group_1922">
                        <path id="Path_1197" fill="url(#linear-gradient-137)" d="M214.558 179.358a3.335 3.335 0 0 0-3.336 3.336v26.574a3.335 3.335 0 1 0 6.67 0v-26.574a3.334 3.334 0 0 0-3.334-3.336z" transform="translate(-138.737 -179.358)"/>
                        <path id="Path_1198" d="M250.017 188.98a3.336 3.336 0 0 0-4.664.7l-15.8 21.366a3.335 3.335 0 0 0 5.363 3.967l15.8-21.365a3.337 3.337 0 0 0-.699-4.668z" class="cls-74" transform="translate(-127.137 -173.472)"/>
                        <path id="Path_1199" fill="url(#linear-gradient-139)" d="M239.79 223.813a3.33 3.33 0 0 0 4.166 2.213l25.409-7.781a3.335 3.335 0 1 0-1.953-6.377L242 219.649a3.335 3.335 0 0 0-2.21 4.164z" transform="translate(-120.084 -158.119)"/>
                        <path id="Path_1200" d="M268.752 244.07l-25.052-8.854a3.334 3.334 0 1 0-2.223 6.287l25.055 8.855a3.334 3.334 0 1 0 2.223-6.287z" class="cls-76" transform="translate(-120.342 -142.826)"/>
                        <path id="Path_1201" d="M190.023 189.677a3.336 3.336 0 0 0-5.363 3.969l15.8 21.365a3.335 3.335 0 1 0 5.363-3.967z" class="cls-74" transform="translate(-156.598 -173.472)"/>
                        <path id="Path_1202" fill="url(#linear-gradient-142)" d="M169.818 218.245l25.409 7.781a3.335 3.335 0 1 0 1.953-6.377l-25.409-7.781a3.335 3.335 0 1 0-1.953 6.377z" transform="translate(-167.459 -158.119)"/>
                        <path id="Path_1203" d="M195.347 235.216l-25.057 8.854a3.334 3.334 0 1 0 2.223 6.287l25.055-8.855a3.334 3.334 0 1 0-2.221-6.287z" class="cls-76" transform="translate(-167.06 -142.826)"/>
                    </g>
                </g>
            </g>
        </g>
    </g>
</svg>
