<svg xmlns="http://www.w3.org/2000/svg" width="80" height="80" viewBox="0 0 80 80">
    <defs>
        <style>
            .cls-2{fill:#1976d2}
        </style>
    </defs>
    <g id="Group_3355" transform="translate(-130 -1088)">
        <circle id="Ellipse_131" cx="40" cy="40" r="40" fill="#afd7ff" transform="translate(130 1088)"/>
        <g id="smartphone" transform="translate(63.112 1109.011)">
            <path id="Path_2448" d="M94.974 395.1v7.565a1.113 1.113 0 0 0 1.113 1.113h21.678a1.113 1.113 0 0 0 1.113-1.113V395.1zm12.779 4.209h-1.492a1.134 1.134 0 0 1-1.143-1.059 1.113 1.113 0 0 1 1.112-1.167h1.492a1.134 1.134 0 0 1 1.143 1.059 1.113 1.113 0 0 1-1.112 1.158z" class="cls-2" transform="translate(0 -365.772)"/>
            <g id="Group_3198" transform="translate(94.974)">
                <path id="Path_2449" d="M219.336 129.781c-1.425 2.186-2.937 4.9-2.937 5.966a2.94 2.94 0 0 0 5.88 0c0-.257-.135-1.321-1.871-4.248-.375-.63-.751-1.224-1.072-1.718z" class="cls-2" transform="translate(-207.386 -120.149)"/>
                <path id="Path_2450" d="M117.765 0H96.087a1.113 1.113 0 0 0-1.113 1.113V27.1h23.9V1.113A1.113 1.113 0 0 0 117.765 0zm-10.839 20.765a5.173 5.173 0 0 1-5.167-5.167c0-.422 0-1.7 2.182-5.384 1.025-1.727 2.034-3.153 2.076-3.213a1.113 1.113 0 0 1 1.816 0c.042.06 1.051 1.485 2.076 3.213 2.182 3.679 2.182 4.962 2.182 5.384a5.173 5.173 0 0 1-5.165 5.167z" class="cls-2" transform="translate(-94.974)"/>
            </g>
        </g>
    </g>
</svg>
