<svg xmlns="http://www.w3.org/2000/svg" width="883.384" height="786.15" viewBox="0 0 883.384 786.15">
    <defs>
        <style>
            .cls-1{fill:#fff}.cls-2,.cls-6{fill:#6ea2e6}.cls-2{opacity:.18}.cls-3{fill:#3d517d}.cls-4{fill:#fc826a}.cls-5{fill:#ffc182}.cls-7{fill:#323e59}.cls-8{fill:#5a70a1}.cls-9{fill:#6887d9}.cls-10{fill:#a877ba}.cls-11{fill:#b681c9}.cls-12{fill:#ffd587}.cls-13{fill:#ffd98c}.cls-14,.cls-22{fill:#e6e6e6}.cls-16{fill:#ffc987}.cls-17,.cls-19{fill:none;stroke-miterlimit:10}.cls-17{stroke:#6ea2e6}.cls-18{fill:#ff9670}.cls-19{stroke:#ffc182;stroke-linecap:round}.cls-22{mix-blend-mode:multiply;isolation:isolate}
        </style>
    </defs>
    <g id="Group_3196" transform="translate(-936.616 -197)">
        <path id="Path_760" d="M470.12 77H750.6v-786H469.011q-171.834 0-279.922 105.317T81-315.446q0 181.811 108.643 287.129T470.12 77z" class="cls-1" transform="translate(1069.403 906)"/>
        <g id="Group_2883" transform="translate(633.274 259.673)">
            <rect id="Rectangle_836" width="122.426" height="121.607" class="cls-2" rx="5.64" transform="translate(310.201 458.167)"/>
            <rect id="Rectangle_837" width="122.426" height="121.607" class="cls-2" rx="5.64" transform="translate(863.714 228.879)"/>
            <rect id="Rectangle_838" width="122.426" height="121.607" class="cls-2" rx="5.64" transform="translate(746.759 544.276)"/>
            <rect id="Rectangle_839" width="122.426" height="121.607" class="cls-2" rx="5.64" transform="translate(426.611 194.996)"/>
            <g id="Group_2882" transform="translate(303.342 111.944)">
                <g id="Group_2842" transform="translate(92.763 155.139)">
                    <rect id="Rectangle_840" width="509.929" height="339.672" class="cls-3" rx="5.64"/>
                </g>
                <circle id="Ellipse_147" cx="4.594" cy="4.594" r="4.594" class="cls-4" transform="translate(576.606 170.989)"/>
                <path id="Path_2017" d="M577.339 197.875a4.593 4.593 0 1 1-4.593-4.593 4.594 4.594 0 0 1 4.593 4.593z" class="cls-5" transform="translate(-11.464 -22.292)"/>
                <path id="Path_2018" d="M567.865 197.875a4.593 4.593 0 1 1-4.593-4.593 4.594 4.594 0 0 1 4.593 4.593z" class="cls-6" transform="translate(-21.906 -22.292)"/>
                <g id="Group_2843" transform="translate(113.61 200.824)">
                    <rect id="Rectangle_841" width="122.426" height="121.607" class="cls-3" rx="5.64"/>
                    <path id="Path_2019" d="M362.264 324.454v-102.7a9.456 9.456 0 0 1 9.456-9.456h103.515a9.428 9.428 0 0 1 3.753.778 9.453 9.453 0 0 0-8.632-5.607H366.841a9.456 9.456 0 0 0-9.456 9.456v102.7a9.453 9.453 0 0 0 5.7 8.678 9.411 9.411 0 0 1-.821-3.849z" class="cls-7" transform="translate(-357.385 -207.474)"/>
                    <path id="Path_2020" d="M473.642 207.924a9.421 9.421 0 0 1 1.556 5.19v102.7a9.456 9.456 0 0 1-9.456 9.456H362.226a9.383 9.383 0 0 1-4.1-.946 9.443 9.443 0 0 0 7.9 4.265H469.54a9.456 9.456 0 0 0 9.46-9.46v-102.7a9.449 9.449 0 0 0-5.358-8.505z" class="cls-8" transform="translate(-356.569 -206.978)"/>
                </g>
                <g id="Group_2844" transform="translate(258.892 341.856)">
                    <rect id="Rectangle_842" width="122.426" height="121.607" class="cls-3" rx="5.64"/>
                    <path id="Path_2021" d="M431.373 391.541v-102.7a9.456 9.456 0 0 1 9.456-9.456h103.515a9.43 9.43 0 0 1 3.752.778 9.453 9.453 0 0 0-8.632-5.607H435.95a9.456 9.456 0 0 0-9.456 9.456v102.7a9.453 9.453 0 0 0 5.7 8.678 9.411 9.411 0 0 1-.821-3.849z" class="cls-7" transform="translate(-426.494 -274.561)"/>
                    <path id="Path_2022" d="M542.751 275.011a9.415 9.415 0 0 1 1.556 5.19V382.9a9.456 9.456 0 0 1-9.456 9.456H431.335a9.413 9.413 0 0 1-4.1-.946 9.443 9.443 0 0 0 7.9 4.265H538.65a9.456 9.456 0 0 0 9.456-9.456v-102.7a9.449 9.449 0 0 0-5.355-8.508z" class="cls-8" transform="translate(-425.678 -274.065)"/>
                </g>
                <g id="Group_2846" transform="translate(114.388 341.856)">
                    <g id="Group_2845">
                        <rect id="Rectangle_843" width="122.426" height="121.607" class="cls-9" rx="5.64" transform="translate(.001)"/>
                        <path id="Path_2023" d="M470.726 395.74a9.456 9.456 0 0 0 9.456-9.456v-102.7a9.453 9.453 0 0 0-5.623-8.64c-42.616 66.243-89.142 97.293-116.8 110.978v.357a9.456 9.456 0 0 0 9.456 9.456z" class="cls-6" transform="translate(-357.755 -274.134)"/>
                    </g>
                </g>
                <path id="Path_2024" d="M420.6 321.275l-3.431-1.98a.59.59 0 0 1-.292-.576c.059-.6.1-1.211.1-1.829a19.308 19.308 0 0 0-.307-3.42.586.586 0 0 1 .284-.62l2.886-1.667a2.464 2.464 0 0 0 .9-3.364l-3.948-6.839a2.466 2.466 0 0 0-3.366-.9l-3.145 1.816a.592.592 0 0 1-.66-.048 18.958 18.958 0 0 0-4.932-2.767.591.591 0 0 1-.385-.553v-2.834a2.465 2.465 0 0 0-2.464-2.464h-7.9a2.463 2.463 0 0 0-2.462 2.464v2.834a.593.593 0 0 1-.387.553 19.008 19.008 0 0 0-5.529 3.273.594.594 0 0 1-.681.065l-1.762-1.017a2.462 2.462 0 0 0-3.366.9l-3.948 6.838a2.464 2.464 0 0 0 .9 3.364l2.012 1.16a.6.6 0 0 1 .29.6 18.283 18.283 0 0 0-.2 2.621 18.8 18.8 0 0 0 .481 4.171.6.6 0 0 1-.282.65l-1.537.887a2.464 2.464 0 0 0-.9 3.364l3.948 6.838a2.466 2.466 0 0 0 3.366.9l2.3-1.326a.587.587 0 0 1 .641.034 19 19 0 0 0 5.75 2.788.592.592 0 0 1 .433.568v2.323a2.463 2.463 0 0 0 2.464 2.462h7.894a2.461 2.461 0 0 0 2.464-2.462V334.6a.594.594 0 0 1 .339-.532 19.017 19.017 0 0 0 4.642-3.151.594.594 0 0 1 .7-.082l2.678 1.547a2.462 2.462 0 0 0 3.366-.9l3.948-6.836a2.466 2.466 0 0 0-.902-3.371zm-21.945 4.963a9.349 9.349 0 1 1 9.345-9.349 9.348 9.348 0 0 1-9.346 9.349z" class="cls-1" transform="translate(-223.831 87.871)"/>
                <g id="Group_2847" transform="translate(258.893 201.77)">
                    <rect id="Rectangle_844" width="122.426" height="48.394" class="cls-10" rx="4.703"/>
                    <path id="Path_2025" d="M548.815 246.091v-29.484a9.441 9.441 0 0 0-4.4-7.982c-39.089 27.991-94.31 36.818-117.823 39.4a9.453 9.453 0 0 0 9.254 7.515h103.513a9.454 9.454 0 0 0 9.456-9.449z" class="cls-11" transform="translate(-426.389 -207.151)"/>
                    <circle id="Ellipse_148" cx="14.127" cy="14.127" r="14.127" class="cls-1" transform="translate(10.531 10.35)"/>
                    <path id="Path_2027" d="M506.9 217.776h-54.746a1.356 1.356 0 0 1-1.356-1.354 1.356 1.356 0 0 1 1.356-1.356H506.9a1.355 1.355 0 0 1 1.354 1.356 1.354 1.354 0 0 1-1.354 1.354z" class="cls-1" transform="translate(-399.706 -200.052)"/>
                    <path id="Path_2028" d="M506.9 222.144h-54.746a1.355 1.355 0 0 1-1.356-1.354 1.356 1.356 0 0 1 1.356-1.356H506.9a1.355 1.355 0 0 1 1.354 1.356 1.353 1.353 0 0 1-1.354 1.354z" class="cls-1" transform="translate(-399.706 -195.237)"/>
                    <path id="Path_2029" d="M493.284 226.514h-41.13a1.356 1.356 0 0 1-1.356-1.356 1.357 1.357 0 0 1 1.356-1.356h41.13a1.357 1.357 0 0 1 1.356 1.356 1.357 1.357 0 0 1-1.356 1.356z" class="cls-1" transform="translate(-399.706 -190.423)"/>
                </g>
                <g id="Group_2848" transform="translate(258.893 272.864)">
                    <rect id="Rectangle_845" width="122.426" height="48.394" class="cls-5" rx="4.703"/>
                    <path id="Path_2030" d="M548.815 279.909v-29.484a9.441 9.441 0 0 0-4.4-7.982c-39.089 27.991-94.31 36.818-117.823 39.4a9.455 9.455 0 0 0 9.254 7.518h103.513a9.456 9.456 0 0 0 9.456-9.452z" class="cls-13" transform="translate(-426.389 -240.97)"/>
                    <path id="Path_2032" d="M459.758 260.793a14.127 14.127 0 1 1-14.127-14.127 14.128 14.128 0 0 1 14.127 14.127z" class="cls-1" transform="translate(-420.972 -236.315)"/>
                    <path id="Path_2033" d="M506.9 251.594h-54.746a1.355 1.355 0 0 1-1.356-1.354 1.357 1.357 0 0 1 1.356-1.356H506.9a1.355 1.355 0 0 1 1.354 1.356 1.353 1.353 0 0 1-1.354 1.354z" class="cls-1" transform="translate(-399.706 -233.871)"/>
                    <path id="Path_2034" d="M506.9 255.963h-54.746a1.356 1.356 0 0 1-1.356-1.356 1.355 1.355 0 0 1 1.356-1.354H506.9a1.353 1.353 0 0 1 1.354 1.354 1.355 1.355 0 0 1-1.354 1.356z" class="cls-1" transform="translate(-399.706 -229.055)"/>
                    <path id="Path_2035" d="M493.284 260.331h-41.13a1.356 1.356 0 0 1-1.356-1.356 1.355 1.355 0 0 1 1.356-1.354h41.13a1.355 1.355 0 0 1 1.356 1.354 1.357 1.357 0 0 1-1.356 1.356z" class="cls-1" transform="translate(-399.706 -224.24)"/>
                </g>
                <g id="Group_2849" transform="translate(443.417 407.026)">
                    <rect id="Rectangle_846" width="122.426" height="48.394" class="cls-5" rx="4.703"/>
                    <path id="Path_2036" d="M636.591 343.727v-29.484a9.438 9.438 0 0 0-4.4-7.98c-39.089 27.991-94.31 36.816-117.823 39.4a9.455 9.455 0 0 0 9.254 7.516h103.513a9.456 9.456 0 0 0 9.456-9.452z" class="cls-13" transform="translate(-514.164 -304.789)"/>
                    <circle id="Ellipse_149" cx="14.127" cy="14.127" r="14.127" class="cls-1" transform="translate(10.531 10.35)"/>
                    <path id="Path_2038" d="M594.676 315.414H539.93a1.357 1.357 0 0 1-1.356-1.356 1.355 1.355 0 0 1 1.356-1.354h54.746a1.353 1.353 0 0 1 1.354 1.354 1.355 1.355 0 0 1-1.354 1.356z" class="cls-1" transform="translate(-487.482 -297.689)"/>
                    <path id="Path_2039" d="M594.676 319.782H539.93a1.357 1.357 0 0 1-1.356-1.356 1.355 1.355 0 0 1 1.356-1.354h54.746a1.353 1.353 0 0 1 1.354 1.354 1.355 1.355 0 0 1-1.354 1.356z" class="cls-1" transform="translate(-487.482 -292.875)"/>
                    <path id="Path_2040" d="M581.06 324.15h-41.13a1.355 1.355 0 0 1-1.356-1.354 1.357 1.357 0 0 1 1.356-1.356h41.13a1.357 1.357 0 0 1 1.356 1.356 1.355 1.355 0 0 1-1.356 1.354z" class="cls-1" transform="translate(-487.482 -288.06)"/>
                </g>
                <g id="Group_2854" transform="translate(304.111 401.383)">
                    <g id="Group_2851">
                        <g id="Group_2850">
                            <rect id="Rectangle_847" width="122.426" height="121.607" class="cls-10" rx="5.64"/>
                            <path id="Path_2041" d="M560.975 424.056a9.456 9.456 0 0 0 9.456-9.456V311.9a9.453 9.453 0 0 0-5.623-8.64C522.191 369.51 475.665 400.558 448 414.243v.357a9.456 9.456 0 0 0 9.456 9.456z" class="cls-11" transform="translate(-448.004 -302.45)"/>
                        </g>
                    </g>
                    <g id="Group_2853" transform="translate(23.322 41.451)">
                        <g id="Group_2852">
                            <path id="Path_2042" d="M460.973 342.989a3.158 3.158 0 0 1-1.362-1.211 3.195 3.195 0 0 1 .061-3.563 3.758 3.758 0 0 1 1.7-1.327l20.354-8.426a1.641 1.641 0 0 1 .45-.1 1.947 1.947 0 0 1 1.526.94 3.214 3.214 0 0 1 .7 1.938 1.661 1.661 0 0 1-1.1 1.676l-17.627 7.15 17.678 7.475a1.493 1.493 0 0 1 .849 1.551 3.631 3.631 0 0 1-.6 1.974 1.659 1.659 0 0 1-1.347.95 1.4 1.4 0 0 1-.427-.074z" class="cls-1" transform="translate(-459.098 -316.239)"/>
                            <path id="Path_2043" d="M474.652 361.724a1.889 1.889 0 0 1-.687-1.526 4.95 4.95 0 0 1 .227-1.274l11.6-34.354a3.01 3.01 0 0 1 .874-1.45 1.962 1.962 0 0 1 1.327-.523 2.326 2.326 0 0 1 1.575.584 1.975 1.975 0 0 1 .675 1.564 4.35 4.35 0 0 1-.225 1.251l-11.751 34.779a2.02 2.02 0 0 1-2.05 1.524 2.373 2.373 0 0 1-1.565-.575z" class="cls-1" transform="translate(-442.711 -322.595)"/>
                            <path id="Path_2044" d="M486 352.016a1.693 1.693 0 0 1-1.364-.95 3.593 3.593 0 0 1-.612-1.974 1.493 1.493 0 0 1 .849-1.551l17.68-7.475-17.6-7.15a1.66 1.66 0 0 1-1.125-1.676 3.2 3.2 0 0 1 .7-1.938 1.943 1.943 0 0 1 1.524-.94 1.64 1.64 0 0 1 .45.1l20.354 8.426a3.664 3.664 0 0 1 1.713 1.327 3.254 3.254 0 0 1 .561 1.825 3.32 3.32 0 0 1-.5 1.749 2.906 2.906 0 0 1-1.377 1.2l-20.827 8.953a1.391 1.391 0 0 1-.426.074z" class="cls-1" transform="translate(-431.843 -316.239)"/>
                        </g>
                    </g>
                </g>
                <g id="Group_2855" transform="translate(265.983 13.712)">
                    <path id="Path_2045" d="M466.254 118.467h-32.172a4.213 4.213 0 0 0-4.215 4.215v52.078a4.213 4.213 0 0 0 4.215 4.215H473.6a4.215 4.215 0 0 0 4.217-4.215V129.5z" class="cls-14" transform="translate(-429.867 -118.467)"/>
                    <path id="Path_2046" fill="#c4c4c4" d="M447.176 118.467l11.566 11.033h-9.489a2.079 2.079 0 0 1-2.077-2.079z" transform="translate(-410.789 -118.467)"/>
                    <path id="Path_2047" d="M462.612 139.827h-27.531a.681.681 0 0 1-.681-.681.681.681 0 0 1 .681-.681h27.531a.681.681 0 0 1 .681.681.681.681 0 0 1-.681.681z" class="cls-6" transform="translate(-424.871 -96.425)"/>
                    <path id="Path_2048" d="M462.612 136.239h-27.531a.681.681 0 0 1-.681-.681.681.681 0 0 1 .681-.681h27.531a.681.681 0 0 1 .681.681.681.681 0 0 1-.681.681z" class="cls-6" transform="translate(-424.871 -100.38)"/>
                    <path id="Path_2049" d="M462.612 132.652h-27.531a.681.681 0 0 1-.681-.681.681.681 0 0 1 .681-.681h27.531a.681.681 0 0 1 .681.681.681.681 0 0 1-.681.681z" class="cls-6" transform="translate(-424.871 -104.333)"/>
                    <path id="Path_2050" d="M462.612 129.064h-27.531a.681.681 0 0 1-.681-.681.681.681 0 0 1 .681-.681h27.531a.681.681 0 0 1 .681.681.681.681 0 0 1-.681.681z" class="cls-6" transform="translate(-424.871 -108.288)"/>
                    <path id="Path_2051" d="M455.765 143h-20.684a.681.681 0 0 1-.681-.681.681.681 0 0 1 .681-.681h20.684a.681.681 0 0 1 .681.681.681.681 0 0 1-.681.681z" class="cls-6" transform="translate(-424.871 -92.932)"/>
                </g>
                <path id="Path_2052" d="M472.743 134.8l-4.463 4.7-37.19.1a5.244 5.244 0 0 0-5.228 5.256l.1 38.485a5.24 5.24 0 0 0 5.253 5.228l58.435-.156a5.242 5.242 0 0 0 5.228-5.256l-.1-39.343-.013-4.383-.006-2.71a2.883 2.883 0 0 0-2.891-2.874l-17.043.044a2.883 2.883 0 0 0-2.082.909z" class="cls-16" transform="translate(-168.299 -87.797)"/>
                <path id="Rectangle_848" d="M0 0h9.674a1.611 1.611 0 0 1 1.611 1.611v10.66a1.611 1.611 0 0 1-1.611 1.611H0V0z" class="cls-6" transform="translate(326.508 67.682)"/>
                <path id="Rectangle_849" d="M0 0h9.674a1.611 1.611 0 0 1 1.611 1.611v10.66a1.611 1.611 0 0 1-1.611 1.611H0V0z" class="cls-6" transform="rotate(-90 303.539 -148.4)"/>
                <path id="Path_2053" d="M461.342 147.441H566.73a21.343 21.343 0 0 1 21.342 21.342v59.175" class="cls-17" transform="translate(-129.192 -72.819)"/>
                <path id="Rectangle_850" d="M0 0h9.673a1.611 1.611 0 0 1 1.611 1.611v10.66a1.611 1.611 0 0 1-1.611 1.611H0V0z" class="cls-6" transform="translate(602.692 206.633)"/>
                <path id="Rectangle_851" d="M0 0h9.674a1.611 1.611 0 0 1 1.611 1.611v10.66a1.611 1.611 0 0 1-1.611 1.611H0V0z" class="cls-6" transform="rotate(-90 579.185 -67.749)"/>
                <path id="Path_2054" d="M592.719 213.539h24.2a21.341 21.341 0 0 1 21.342 21.342V511.4" class="cls-17" transform="translate(15.614 .035)"/>
                <g id="Group_2860" transform="translate(206.762 494.811)">
                    <g id="Group_2858" transform="translate(13.666 39.503)">
                        <g id="Group_2856">
                            <rect id="Rectangle_852" width="41.685" height="41.406" class="cls-4" rx="1.608"/>
                            <path id="Path_2055" d="M446.663 407.373a3.219 3.219 0 0 0 3.219-3.221v-34.966a3.219 3.219 0 0 0-1.915-2.943c-14.509 22.557-30.352 33.129-39.77 37.787v.122a3.221 3.221 0 0 0 3.221 3.221z" class="cls-18" transform="translate(-408.197 -365.966)"/>
                        </g>
                        <g id="Group_2857" transform="translate(8.297 11.993)">
                            <path id="Path_2056" d="M413.3 385.685h11.335a1.153 1.153 0 0 0 .952-1.8l-5.668-8.34a1.151 1.151 0 0 0-1.9 0l-5.67 8.34a1.154 1.154 0 0 0 .951 1.8z" class="cls-1" transform="translate(-412.144 -368.264)"/>
                            <path id="Path_2057" d="M418.36 385.685h11.335a1.153 1.153 0 0 0 .952-1.8l-5.668-8.34a1.153 1.153 0 0 0-1.907 0l-5.668 8.34a1.154 1.154 0 0 0 .956 1.8z" class="cls-1" transform="translate(-406.565 -368.264)"/>
                            <path id="Path_2058" d="M421.178 373.994a2.176 2.176 0 1 1-2.178-2.178 2.177 2.177 0 0 1 2.178 2.178z" class="cls-1" transform="translate(-406.983 -371.816)"/>
                        </g>
                    </g>
                    <path id="Path_2059" d="M448.576 377.757l-4.461 4.711-37.192.1a5.24 5.24 0 0 0-5.226 5.256l.1 38.485a5.244 5.244 0 0 0 5.256 5.228l58.435-.156a5.242 5.242 0 0 0 5.228-5.256l-.105-39.343-.011-4.382-.008-2.71a2.881 2.881 0 0 0-2.888-2.874l-17.043.044a2.891 2.891 0 0 0-2.085.897z" class="cls-16" transform="translate(-401.696 -314.812)"/>
                    <g id="Group_2859" transform="translate(68.946)">
                        <path id="Rectangle_853" d="M0 0h9.673a1.611 1.611 0 0 1 1.611 1.611v10.66a1.611 1.611 0 0 1-1.611 1.611H0V0z" class="cls-6" transform="translate(0 86.772)"/>
                        <path id="Rectangle_854" d="M0 0h9.674a1.611 1.611 0 0 1 1.611 1.611v10.66a1.611 1.611 0 0 1-1.611 1.611H0V0z" class="cls-6" transform="rotate(90 118.69 118.69)"/>
                        <path id="Path_2060" d="M437.177 441.033H640.63a21.341 21.341 0 0 0 21.342-21.342V347.32" class="cls-17" transform="translate(-431.534 -347.32)"/>
                    </g>
                </g>
                <g id="Group_2861" transform="translate(45.765 71.21)">
                    <path id="Rectangle_855" d="M0 0h9.674a1.611 1.611 0 0 1 1.611 1.611v10.66a1.611 1.611 0 0 1-1.611 1.611H0V0z" class="cls-6" transform="rotate(90 6.941 6.941)"/>
                    <path id="Rectangle_856" d="M0 0h9.674a1.611 1.611 0 0 1 1.611 1.611v10.66a1.611 1.611 0 0 1-1.611 1.611H0V0z" class="cls-6" transform="rotate(-90 111.324 -27.394)"/>
                    <path id="Path_2061" d="M328.414 148.5v17.633a21.341 21.341 0 0 0 21.342 21.342H447.6a19.537 19.537 0 0 1 19.536 19.536v15.376" class="cls-17" transform="translate(-321.472 -142.859)"/>
                </g>
                <g id="Group_2862" transform="translate(411.2 199.956)">
                    <path id="Path_2062" d="M569.84 208.907h-62.682a8.214 8.214 0 0 0-8.213 8.213v101.466a8.213 8.213 0 0 0 8.213 8.213h77a8.213 8.213 0 0 0 8.213-8.213v-88.175z" class="cls-14" transform="translate(-498.945 -205.026)"/>
                    <path id="Path_2063" d="M569.84 207.061h-62.682a8.213 8.213 0 0 0-8.213 8.213V316.74a8.213 8.213 0 0 0 8.213 8.213h77a8.213 8.213 0 0 0 8.213-8.213v-88.175z" class="cls-1" transform="translate(-498.945 -207.061)"/>
                    <path id="Path_2064" d="M532.669 207.061l22.534 21.5h-18.485a4.048 4.048 0 0 1-4.049-4.049z" class="cls-14" transform="translate(-461.774 -207.061)"/>
                    <path id="Path_2065" d="M562.743 248.679H509.1a1.328 1.328 0 0 1-1.326-1.329 1.328 1.328 0 0 1 1.326-1.327h53.638a1.328 1.328 0 0 1 1.329 1.327 1.329 1.329 0 0 1-1.324 1.329z" class="cls-6" transform="translate(-489.209 -164.115)"/>
                    <path id="Path_2066" d="M562.743 241.689H509.1a1.326 1.326 0 0 1-1.326-1.327 1.328 1.328 0 0 1 1.326-1.329h53.638a1.329 1.329 0 0 1 1.329 1.329 1.327 1.327 0 0 1-1.324 1.327z" class="cls-6" transform="translate(-489.209 -171.82)"/>
                    <path id="Path_2067" d="M562.743 234.7H509.1a1.328 1.328 0 0 1-1.326-1.329 1.326 1.326 0 0 1 1.326-1.326h53.638a1.327 1.327 0 0 1 1.329 1.326 1.329 1.329 0 0 1-1.324 1.329z" class="cls-6" transform="translate(-489.209 -179.523)"/>
                    <path id="Path_2068" d="M562.743 227.71H509.1a1.328 1.328 0 0 1-1.326-1.329 1.328 1.328 0 0 1 1.326-1.327h53.638a1.328 1.328 0 0 1 1.329 1.327 1.329 1.329 0 0 1-1.324 1.329z" class="cls-6" transform="translate(-489.209 -187.228)"/>
                    <path id="Path_2069" d="M549.4 254.853h-40.3a1.326 1.326 0 0 1-1.326-1.326 1.328 1.328 0 0 1 1.326-1.327h40.3a1.327 1.327 0 0 1 1.327 1.329 1.325 1.325 0 0 1-1.327 1.324z" class="cls-6" transform="translate(-489.209 -157.31)"/>
                    <circle id="Ellipse_150" cx="5.162" cy="5.162" r="5.162" class="cls-6" transform="translate(7.196 7.892)"/>
                </g>
                <g id="Group_2863" transform="translate(472.446 261.499)">
                    <path id="Path_2070" d="M598.974 238.182h-62.682a8.215 8.215 0 0 0-8.214 8.215v101.466a8.214 8.214 0 0 0 8.214 8.213h77a8.214 8.214 0 0 0 8.213-8.213v-88.175z" class="cls-14" transform="translate(-528.079 -234.301)"/>
                    <path id="Path_2071" d="M598.974 236.336h-62.682a8.213 8.213 0 0 0-8.214 8.213v101.466a8.213 8.213 0 0 0 8.214 8.213h77a8.213 8.213 0 0 0 8.213-8.213V257.84z" class="cls-1" transform="translate(-528.079 -236.336)"/>
                    <path id="Path_2072" d="M561.8 236.336l22.534 21.5h-18.482a4.048 4.048 0 0 1-4.049-4.047z" class="cls-14" transform="translate(-490.908 -236.336)"/>
                    <path id="Path_2073" d="M591.877 277.954h-53.638a1.327 1.327 0 0 1-1.327-1.327 1.328 1.328 0 0 1 1.327-1.329h53.638a1.329 1.329 0 0 1 1.329 1.329 1.327 1.327 0 0 1-1.329 1.327z" class="cls-6" transform="translate(-518.343 -193.39)"/>
                    <path id="Path_2074" d="M591.877 270.965h-53.638a1.328 1.328 0 0 1-1.327-1.329 1.327 1.327 0 0 1 1.327-1.327h53.638a1.327 1.327 0 0 1 1.329 1.327 1.329 1.329 0 0 1-1.329 1.329z" class="cls-6" transform="translate(-518.343 -201.094)"/>
                    <path id="Path_2075" d="M591.877 263.975h-53.638a1.328 1.328 0 0 1-1.327-1.329 1.328 1.328 0 0 1 1.327-1.326h53.638a1.328 1.328 0 0 1 1.329 1.326 1.329 1.329 0 0 1-1.329 1.329z" class="cls-6" transform="translate(-518.343 -208.798)"/>
                    <path id="Path_2076" d="M591.877 256.985h-53.638a1.328 1.328 0 0 1-1.327-1.327 1.328 1.328 0 0 1 1.327-1.329h53.638a1.329 1.329 0 0 1 1.329 1.329 1.328 1.328 0 0 1-1.329 1.327z" class="cls-6" transform="translate(-518.343 -216.503)"/>
                    <path id="Path_2077" d="M578.538 284.129h-40.3a1.328 1.328 0 0 1-1.327-1.329 1.327 1.327 0 0 1 1.327-1.327h40.3a1.325 1.325 0 0 1 1.326 1.327 1.327 1.327 0 0 1-1.326 1.329z" class="cls-6" transform="translate(-518.343 -186.584)"/>
                    <path id="Path_2078" d="M541.826 245.252a5.162 5.162 0 1 1-5.163-5.161 5.161 5.161 0 0 1 5.163 5.161z" class="cls-6" transform="translate(-524.306 -232.197)"/>
                </g>
                <g id="Group_2866" transform="translate(411.072 342.802)">
                    <g id="Group_2865">
                        <g id="Group_2864">
                            <rect id="Rectangle_857" width="38.558" height="38.3" class="cls-9" rx="1.589"/>
                            <path id="Path_2079" d="M534.464 313.175a2.977 2.977 0 0 0 2.977-2.977v-32.345a2.976 2.976 0 0 0-1.77-2.72C522.248 296 507.6 305.775 498.884 310.085v.113a2.977 2.977 0 0 0 2.977 2.977z" class="cls-6" transform="translate(-498.884 -274.876)"/>
                        </g>
                    </g>
                    <path id="Path_2080" d="M514 294.82l4.427-4.427a.736.736 0 0 1 .759-.166 6.078 6.078 0 0 0 6.021-1.318 5.992 5.992 0 0 0 1.877-4.219.732.732 0 0 0-1.245-.557l-2.01 2.01c-.513.515-.973.513-1.257.227l-3.332-3.33a.73.73 0 0 1 0-1.03l2.237-2.237a.733.733 0 0 0-.551-1.247 6.005 6.005 0 0 0-5.556 7.9.744.744 0 0 1-.166.769l-4.427 4.427a.736.736 0 0 1-.759.166 6.078 6.078 0 0 0-6.021 1.318 5.991 5.991 0 0 0-1.877 4.219.732.732 0 0 0 1.245.557l2.237-2.237a.726.726 0 0 1 1.03 0l3.332 3.33a.732.732 0 0 1 0 1.032l-2.237 2.235a.733.733 0 0 0 .551 1.247 6.005 6.005 0 0 0 5.556-7.9.744.744 0 0 1 .166-.769z" class="cls-1" transform="translate(-495.32 -271.136)"/>
                </g>
                <g id="Group_2867" transform="translate(524.558 255.507)">
                    <path id="Path_2081" d="M565.082 241.043v13.694c0 2.712-.973 6.506-6.065 6.506-5.325 0-6.149-3.795-6.149-6.506v-20.871" class="cls-19" transform="translate(-552.868 -233.067)"/>
                    <path id="Path_2082" d="M563.05 251.292v-13.635a4.17 4.17 0 1 0-8.339 0v10.686" class="cls-19" transform="translate(-550.837 -233.486)"/>
                    <path id="Path_2083" d="M554.713 239.55v9.8c0 1.034-.172 3.469 2.155 3.469 2.592 0 2.392-2.434 2.392-3.469v-12.07" class="cls-19" transform="translate(-550.838 -229.304)"/>
                </g>
                <g id="Group_2868" transform="translate(462.7 191.898)">
                    <path id="Path_2084" d="M535.657 210.786v13.694c0 2.71-.973 6.5-6.065 6.5-5.327 0-6.149-3.794-6.149-6.5v-20.873" class="cls-19" transform="translate(-523.443 -202.81)"/>
                    <path id="Path_2085" d="M533.626 221.034V207.4a4.17 4.17 0 0 0-8.339 0v10.688" class="cls-19" transform="translate(-521.412 -203.228)"/>
                    <path id="Path_2086" d="M525.288 209.29v9.8c0 1.036-.172 3.471 2.155 3.471 2.592 0 2.392-2.434 2.392-3.471v-12.068" class="cls-19" transform="translate(-521.413 -199.046)"/>
                </g>
                <path id="Path_2087" d="M587.091 185.889h80.767a19.106 19.106 0 0 0 0-38.212c-.16 0-.313.021-.471.025a39.083 39.083 0 0 0-73.645-11.266 25.175 25.175 0 1 0-6.651 49.453z" class="cls-6" transform="translate(-18.348 -108.933)"/>
                <g id="Group_2869" transform="translate(594.691 32.384)">
                    <path id="Path_2088" d="M611.623 149.786l-24.3-.023a1.1 1.1 0 0 1-.94-1.663l12.166-20.219a1.1 1.1 0 0 1 1.882 0l12.13 20.24a1.1 1.1 0 0 1-.938 1.665z" class="cls-1" transform="translate(-586.23 -127.349)"/>
                    <path id="Rectangle_858" d="M.939 0H4.8a.94.94 0 0 1 .94.94v18.935a.94.94 0 0 1-.94.94H.94a.94.94 0 0 1-.94-.94V.939A.939.939 0 0 1 .939 0z" class="cls-1" transform="rotate(-179.946 8.058 14.9)"/>
                </g>
                <path id="Path_2089" d="M328.527 436.055h80.767a19.106 19.106 0 0 0 0-38.212c-.158 0-.311.021-.469.023A39.083 39.083 0 0 0 335.18 386.6a25.175 25.175 0 1 0-6.654 49.453z" class="cls-6" transform="translate(-303.342 166.804)"/>
                <g id="Group_2870" transform="translate(51.145 558.287)">
                    <path id="Path_2090" d="M328.772 381.019l24.3.021a1.1 1.1 0 0 1 .94 1.663l-12.172 20.221a1.1 1.1 0 0 1-1.882 0l-12.13-20.242a1.1 1.1 0 0 1 .944-1.663z" class="cls-1" transform="translate(-327.671 -373.652)"/>
                    <path id="Rectangle_859" d="M.94 0H4.8a.939.939 0 0 1 .939.939v18.936a.94.94 0 0 1-.94.94H.94a.94.94 0 0 1-.94-.94V.94A.94.94 0 0 1 .94 0z" class="cls-1" transform="translate(10.381)"/>
                </g>
                <g id="Group_2873" transform="translate(21.99 167.77)">
                    <g id="Group_2871">
                        <rect id="Rectangle_860" width="122.426" height="121.607" class="cls-4" rx="5.64" transform="translate(7.522 7.471)"/>
                        <path id="Path_2091" d="M430.351 316.482a9.455 9.455 0 0 0 9.456-9.456v-102.7a9.45 9.45 0 0 0-5.624-8.638c-42.616 66.243-89.142 97.291-116.8 110.976v.357a9.455 9.455 0 0 0 9.456 9.456z" class="cls-18" transform="translate(-309.859 -187.405)"/>
                        <rect id="Rectangle_861" width="137.469" height="136.55" fill="none" stroke="#ff9670" stroke-miterlimit="10" stroke-width="2px" rx="5.64"/>
                    </g>
                    <g id="Group_2872" transform="translate(31.887 42.691)">
                        <path id="Path_2092" d="M332.36 252.793h33.293a3.387 3.387 0 0 0 2.8-5.291l-16.647-24.5a3.382 3.382 0 0 0-5.6 0l-16.645 24.5a3.387 3.387 0 0 0 2.799 5.291z" class="cls-1" transform="translate(-328.971 -201.626)"/>
                        <path id="Path_2093" d="M347.224 252.793h33.291a3.387 3.387 0 0 0 2.8-5.291l-16.645-24.5a3.382 3.382 0 0 0-5.6 0l-16.645 24.5a3.386 3.386 0 0 0 2.799 5.291z" class="cls-1" transform="translate(-312.587 -201.626)"/>
                        <path id="Path_2094" d="M355.5 218.453a6.391 6.391 0 1 1-6.391-6.395 6.393 6.393 0 0 1 6.391 6.395z" class="cls-1" transform="translate(-313.814 -212.058)"/>
                    </g>
                </g>
                <g id="Group_2874" transform="translate(139.61 276.728)">
                    <path id="Path_2095" d="M405.806 254.662l-25.035 24.989a1.6 1.6 0 0 1-2.678-.744l-8.293-33.341a1.6 1.6 0 0 1 1.938-1.936l33.326 8.352a1.6 1.6 0 0 1 .742 2.68z" class="cls-1" transform="translate(-369.753 -243.581)"/>
                    <path id="Rectangle_862" d="M.939 0h6.477a.939.939 0 0 1 .939.939v28.425a.94.94 0 0 1-.94.94H.94a.94.94 0 0 1-.94-.94V.939A.939.939 0 0 1 .939 0z" class="cls-1" transform="rotate(135.07 13.142 25.832)"/>
                </g>
                <circle id="Ellipse_151" cx="19.274" cy="19.274" r="19.274" class="cls-6" transform="rotate(-78.624 568.415 57.764)"/>
                <g id="Group_2875" transform="translate(413.607 575.555)">
                    <path id="Path_2096" d="M511.847 388.6a4.757 4.757 0 0 0-.4-.736c-.034-.053-.071-.1-.107-.151a4.946 4.946 0 0 0-.433-.526l-.118-.122a4.654 4.654 0 0 0-1.381-.929c-.059-.027-.12-.046-.181-.072a4.5 4.5 0 0 0-.62-.191c-.078-.019-.153-.038-.231-.053a4.758 4.758 0 0 0-.849-.086h-1.062a4.78 4.78 0 0 0-.851.086c-.078.015-.151.034-.229.053a4.508 4.508 0 0 0-.62.191c-.061.025-.122.044-.183.072a4.65 4.65 0 0 0-1.379.931c-.04.038-.078.08-.118.12a4.831 4.831 0 0 0-.435.528l-.105.149a4.436 4.436 0 0 0-.4.736 4.657 4.657 0 0 0-.368 1.823v2.838a.828.828 0 0 0 1.657 0v-2.838a2.994 2.994 0 0 1 .248-1.2 3.081 3.081 0 0 1 .4-.65c.046-.059.092-.118.143-.172a2.98 2.98 0 0 1 .557-.5c.025-.019.057-.029.082-.046a3.075 3.075 0 0 1 .624-.292c.065-.023.13-.044.2-.063a3.082 3.082 0 0 1 .788-.116h1.062a3.067 3.067 0 0 1 .786.116c.067.019.135.04.2.063a3.009 3.009 0 0 1 .622.292c.027.017.059.027.084.046a3.051 3.051 0 0 1 .557.5c.05.055.1.113.143.172a3.172 3.172 0 0 1 .4.65 3.03 3.03 0 0 1 .248 1.2v2.838a.828.828 0 0 0 1.657 0v-2.838a4.659 4.659 0 0 0-.388-1.823z" class="cls-1" transform="translate(-498.237 -385.729)"/>
                    <path id="Path_2097" d="M504.689 397.215a.827.827 0 0 1-.828-.828v-2.914a.828.828 0 1 1 1.656 0v2.914a.827.827 0 0 1-.828.828z" class="cls-1" transform="translate(-495.934 -378.106)"/>
                    <path id="Path_2098" d="M513.462 406.654h-9.233a4.145 4.145 0 0 1-4.139-4.141v-9.233a4.143 4.143 0 0 1 4.139-4.139h9.233a4.145 4.145 0 0 1 4.141 4.139v9.233a4.147 4.147 0 0 1-4.141 4.141zm-9.233-15.859a2.488 2.488 0 0 0-2.483 2.485v9.233a2.487 2.487 0 0 0 2.483 2.487h9.233a2.487 2.487 0 0 0 2.485-2.485v-9.233a2.488 2.488 0 0 0-2.485-2.485z" class="cls-1" transform="translate(-500.09 -381.969)"/>
                    <path id="Path_2099" d="M506.924 393.876a1.751 1.751 0 1 1-1.751-1.751 1.751 1.751 0 0 1 1.751 1.751z" class="cls-1" transform="translate(-496.417 -378.679)"/>
                </g>
                <circle id="Ellipse_152" cx="19.274" cy="19.274" r="19.274" class="cls-6" transform="rotate(-76.76 273.916 -223.731)"/>
                <g id="Group_2876" transform="translate(443.183 66.795)">
                    <path id="Path_2100" d="M525.916 146.588a4.771 4.771 0 0 0-.4-.736c-.034-.053-.072-.1-.107-.151a4.985 4.985 0 0 0-.433-.526l-.118-.122a4.726 4.726 0 0 0-1.381-.929c-.059-.027-.12-.046-.181-.069a4.179 4.179 0 0 0-.622-.193c-.076-.019-.151-.038-.229-.053a4.756 4.756 0 0 0-.852-.086h-1.059a4.774 4.774 0 0 0-.852.086c-.078.015-.153.034-.229.053a4.258 4.258 0 0 0-.622.193c-.059.023-.122.042-.181.069a4.692 4.692 0 0 0-1.381.931c-.04.038-.076.08-.116.12a4.6 4.6 0 0 0-.435.528c-.036.048-.074.1-.107.149a4.761 4.761 0 0 0-.4.736 4.664 4.664 0 0 0-.368 1.823v2.84a.828.828 0 0 0 1.656 0v-2.84a3 3 0 0 1 .248-1.2 3.082 3.082 0 0 1 .4-.65c.046-.059.092-.116.143-.172a3.041 3.041 0 0 1 .555-.5c.027-.017.059-.029.084-.046a3.069 3.069 0 0 1 .624-.292c.065-.023.13-.044.2-.063a3.077 3.077 0 0 1 .788-.116h1.059a3.064 3.064 0 0 1 .788.116c.067.019.135.04.2.063a3.051 3.051 0 0 1 .622.292c.027.017.057.029.084.046a3.048 3.048 0 0 1 .557.5c.048.055.1.114.141.172a2.93 2.93 0 0 1 .645 1.848v2.84a.828.828 0 0 0 1.657 0v-2.84a4.668 4.668 0 0 0-.378-1.821z" class="cls-1" transform="translate(-512.306 -143.718)"/>
                    <path id="Path_2101" d="M518.758 155.2a.827.827 0 0 1-.828-.828v-2.914a.828.828 0 0 1 1.657 0v2.914a.827.827 0 0 1-.829.828z" class="cls-1" transform="translate(-510.003 -136.095)"/>
                    <path id="Path_2102" d="M527.531 164.643H518.3a4.145 4.145 0 0 1-4.139-4.141v-9.233a4.143 4.143 0 0 1 4.139-4.139h9.233a4.145 4.145 0 0 1 4.141 4.139v9.231a4.147 4.147 0 0 1-4.143 4.143zm-9.231-15.857a2.488 2.488 0 0 0-2.485 2.483v9.231a2.488 2.488 0 0 0 2.485 2.485h9.233a2.487 2.487 0 0 0 2.485-2.485v-9.233a2.487 2.487 0 0 0-2.485-2.483z" class="cls-1" transform="translate(-514.159 -139.958)"/>
                    <path id="Path_2103" d="M520.993 151.865a1.751 1.751 0 1 1-1.751-1.751 1.751 1.751 0 0 1 1.751 1.751z" class="cls-1" transform="translate(-510.486 -136.668)"/>
                </g>
                <g id="Group_2877" transform="translate(628.421 534.591)">
                    <rect id="Rectangle_863" width="50.701" height="32.264" fill="#d6d6d6" rx="1.906" transform="translate(0 .001)"/>
                    <path id="Path_2104" d="M649.938 366.243H605.1a2.925 2.925 0 0 0-2.723 1.865l23.4 21.327a2.786 2.786 0 0 0 3.488 0l23.4-21.327a2.927 2.927 0 0 0-2.727-1.865z" class="cls-22" transform="translate(-602.166 -366.243)"/>
                    <path id="Path_2105" d="M649.938 366.243H605.1a2.925 2.925 0 0 0-2.723 1.865l23.4 18.228a2.786 2.786 0 0 0 3.488 0l23.4-18.228a2.927 2.927 0 0 0-2.727-1.865z" class="cls-14" transform="translate(-602.166 -366.243)"/>
                </g>
                <g id="Group_2878" transform="translate(519.173 200.562)">
                    <rect id="Rectangle_864" width="46.67" height="29.7" class="cls-1" rx="1.906"/>
                    <path id="Path_2106" d="M594.18 207.349H552.9a2.689 2.689 0 0 0-2.506 1.715l21.542 19.636a2.564 2.564 0 0 0 3.21 0l21.539-19.633a2.689 2.689 0 0 0-2.505-1.718z" class="cls-22" transform="translate(-550.206 -207.349)"/>
                    <path id="Path_2107" d="M594.18 207.349H552.9a2.689 2.689 0 0 0-2.506 1.715l21.539 16.78a2.564 2.564 0 0 0 3.21 0l21.539-16.78a2.689 2.689 0 0 0-2.502-1.715z" class="cls-1" transform="translate(-550.206 -207.349)"/>
                </g>
                <path id="Path_2108" d="M644.848 377.729l-4.463 4.709-37.19.1a5.242 5.242 0 0 0-5.228 5.255l.1 38.485a5.239 5.239 0 0 0 5.255 5.226l58.435-.154a5.24 5.24 0 0 0 5.226-5.256l-.1-39.343-.013-4.383-.006-2.71a2.884 2.884 0 0 0-2.891-2.876l-17.041.046a2.875 2.875 0 0 0-2.084.901z" class="cls-16" transform="translate(21.398 179.966)"/>
                <rect id="Rectangle_865" width="71.255" height="40.18" class="cls-3" rx="4.064" transform="translate(17.078 31.03)"/>
                <g id="Group_2879" transform="translate(23.495 39.729)">
                    <rect id="Rectangle_866" width="5.516" height="4.413" class="cls-4" rx=".96"/>
                    <rect id="Rectangle_867" width="5.516" height="4.413" class="cls-4" rx=".96" transform="translate(22.054)"/>
                    <rect id="Rectangle_868" width="9.464" height="4.413" class="cls-5" rx=".96" transform="translate(9.053)"/>
                    <rect id="Rectangle_869" width="23.255" height="4.413" class="cls-4" rx=".96" transform="translate(32.95)"/>
                    <rect id="Rectangle_870" width="5.516" height="4.413" class="cls-5" rx=".96" transform="translate(0 18.368)"/>
                    <rect id="Rectangle_871" width="5.516" height="4.413" class="cls-5" rx=".96" transform="translate(52.905 18.368)"/>
                    <rect id="Rectangle_872" width="9.464" height="4.413" class="cls-4" rx=".96" transform="translate(9.053 18.368)"/>
                    <rect id="Rectangle_873" width="20.163" height="4.413" class="cls-5" rx=".96" transform="translate(28.105 18.368)"/>
                    <rect id="Rectangle_874" width="5.516" height="4.413" class="cls-5" rx=".96" transform="translate(0 9.095)"/>
                    <rect id="Rectangle_875" width="5.516" height="4.413" class="cls-4" rx=".96" transform="translate(8.56 9.095)"/>
                    <rect id="Rectangle_876" width="13.553" height="4.413" class="cls-5" rx=".96" transform="translate(18.243 9.095)"/>
                </g>
                <g id="Group_2881" transform="translate(17.078)">
                    <rect id="Rectangle_877" width="71.255" height="26.983" class="cls-3" rx="4.064"/>
                    <g id="Group_2880" transform="translate(6.417 6.648)">
                        <rect id="Rectangle_878" width="5.516" height="4.413" class="cls-5" rx=".96" transform="translate(0 9.273)"/>
                        <rect id="Rectangle_879" width="5.516" height="4.413" class="cls-5" rx=".96" transform="translate(52.905 9.273)"/>
                        <rect id="Rectangle_880" width="9.464" height="4.413" class="cls-4" rx=".96" transform="translate(9.053 9.273)"/>
                        <rect id="Rectangle_881" width="20.163" height="4.413" class="cls-5" rx=".96" transform="translate(28.105 9.273)"/>
                        <rect id="Rectangle_882" width="5.516" height="4.413" class="cls-5" rx=".96"/>
                        <rect id="Rectangle_883" width="5.516" height="4.413" class="cls-4" rx=".96" transform="translate(8.56)"/>
                        <rect id="Rectangle_884" width="13.553" height="4.413" class="cls-5" rx=".96" transform="translate(18.243)"/>
                    </g>
                </g>
            </g>
        </g>
    </g>
</svg>
