<svg xmlns="http://www.w3.org/2000/svg" width="578.777" height="470.169" viewBox="0 0 578.777 470.169">
    <defs>
        <style>
            .cls-5{fill:#fff}.cls-2{fill:#d9dadb}.cls-4{fill:#f2f2f2}.cls-9{fill:#faec22}.cls-10{fill:#f1b32e}.cls-12{fill:#008acd}.cls-13{fill:#b2b3b3}.cls-14{fill:#cccbcb}.cls-15{fill:#faaf3a}.cls-16{fill:#f69339}.cls-18{fill:#e6e6e5}.cls-19{fill:#bababa}.cls-21{fill:#f48f8c}.cls-23{fill:#f8ad99}.cls-27{fill:#4d4e4e}.cls-36{mix-blend-mode:multiply;isolation:isolate}.cls-30{fill:#f79539}.cls-36{opacity:.1}.cls-56{fill:#b5b5b5}
        </style>
    </defs>
    <g id="Group_3194" transform="translate(-1240.894 -1839.551)">
        <g id="Path_2170" fill="#fff" stroke="none" stroke-dasharray="15" stroke-linecap="round">
            <path d="M378.652 0C268.126 0 0 20.68 0 120.742c0 33.921 30.813 76.965 75.817 119.013 87.861 82.092 229.778 160.495 302.835 160.495 110.526 0 200.125-89.6 200.125-200.125S489.178 0 378.652 0z" transform="translate(1240.894 1909.469)"/>
            <path fill="#1976d2" d="M408.17 2.19c.121 0 .244.008.367.026.402.06.81.123 1.21.185l.01.002.147.023h.001l.076.012h.006l.149.024h.002l.073.012.016.003.13.02.017.003.068.011.02.003.121.02c.008 0 .017.002.025.004l.064.01.03.005.112.018.027.004.064.01.029.005.108.018.032.005.06.01.037.006.1.016.036.006.06.01.039.006.088.015.048.008.052.008.052.009.08.013.048.008.054.01.047.007.082.014.049.008.053.009.048.008.082.014.049.008.054.01.047.007.077.013.055.01.05.008.055.01.07.011.057.01.05.009.057.01.061.01.065.011.046.008.06.01.063.011.062.011.047.009.06.01.06.01.065.012.044.007.065.012.059.01.063.011.046.008.066.012.049.009.072.012.042.008.068.012.05.009.072.013.041.007.069.012.05.01.07.012.043.008.068.012.05.01.07.012.043.008.07.012.045.008.072.014.044.008.064.011.056.01.067.013.044.008.07.013.04.007.079.015.038.007.074.014.044.008.073.013.042.008.07.013.047.009.07.013.043.008.068.013.052.01.068.012.044.009.067.012.05.01.07.013.042.008.071.014.044.008.074.014.04.008.078.015.031.006.081.015.04.008.076.014.037.007.078.015.039.008.078.015.032.006.08.016.038.007.08.016.033.006.079.016.04.008.077.015.033.006.08.016.038.007.079.016.033.007.08.016.038.007.079.016.032.006.081.016.035.007.088.018.02.004.088.017.034.007.094.019.007.002.095.019.032.006.09.018.018.004.09.018.032.007.095.02h.006l.098.02.026.006.102.02.101.021.027.006.202.042.026.005.102.02v.001l.102.021.025.005c.069.015.138.03.206.043l.019.004.21.044.018.004.214.045.012.003.216.046.013.003.218.046.008.002.222.048h.004c.76.164 1.519.332 2.276.505 1.346.306 2.189 1.646 1.882 2.993-.264 1.159-1.294 1.945-2.435 1.945-.184 0-.37-.02-.558-.063-4.729-1.077-9.563-1.988-14.368-2.708-1.365-.204-2.306-1.477-2.102-2.843.186-1.24 1.252-2.13 2.47-2.13zm28.86 6.573c.244 0 .493.036.738.112.412.127.824.256 1.235.385l.222.07.004.002.218.07.008.002.213.068.012.004.107.034h.002l.105.034.008.003.106.034.01.003.097.031.012.004.103.033.013.005.096.03.01.004c.034.01.068.022.1.033l.021.006.093.03.01.003.099.033.023.007.092.03.008.003.097.032.028.009.09.03.008.002.096.031.03.01.09.03.02.007.078.025.034.011.091.03.022.008.077.025.031.01.093.03c.012.005.01.005.023.009l.073.024.034.011.089.03.03.01.07.023.032.01.088.03.034.011.066.023.033.01.087.03.037.012.065.022.032.01.089.03.034.012.069.023.032.011.086.03.032.01.078.026.033.012.076.025c.012.004.026.01.038.013l.07.024.047.016.064.022.039.013.08.028.038.013.065.022.038.013.085.029.035.012.062.021.037.013.086.03.036.012.063.021.036.013.085.03.038.012.06.021.037.013.083.029.04.014.061.02c.012.005.024.01.036.013l.084.03.039.013.067.023c.006.002.026.01.032.011l.082.029.04.014.063.022.051.018.065.023.041.014.067.024.049.017.064.022.037.013.085.03.034.012.062.022.04.014.085.03.034.012.061.022.039.014.085.03.035.013.061.021.039.014.083.03.037.013.064.023.032.011.087.031.036.013.065.023.032.012.087.031.034.012.07.025.032.012.081.03.037.013.07.025.04.014c.024.01.05.018.073.027l.035.012.088.032.02.008.078.028.032.011.089.033.025.009.074.027.03.01.09.034.024.008.079.03c.006.001.016.005.022.008.031.01.063.022.093.034l.027.01.075.027.025.01.093.033.024.01.079.028.022.008.092.034.027.01.08.03.019.007.092.034.028.01.087.033.01.003.093.035.03.01.088.034.008.003.096.035.022.009.097.036.007.003.092.034.022.008.097.037.01.004.09.033.02.008.099.037.01.004.089.033.02.008.098.037.013.005.092.035.013.005.1.038.013.004.096.037.007.003.102.038.014.006.096.037.006.002.101.038.015.006.099.038h.002l.102.04.014.005.205.079.012.004.207.08.009.004.211.081.005.002.106.041.002.001.107.042h.001l.107.042.004.001.214.084.004.001.213.084.004.002.212.083.004.001c1.284.506 1.915 1.957 1.41 3.242-.388.984-1.33 1.585-2.327 1.585-.305 0-.615-.056-.915-.175-4.518-1.778-9.16-3.405-13.796-4.837-1.32-.407-2.059-1.807-1.651-3.126.331-1.074 1.32-1.763 2.388-1.763zm27.541 10.839c.365 0 .736.08 1.086.25 1.092.528 2.179 1.065 3.26 1.612l.005.003.201.102.01.005.098.05.007.003.093.048.01.005.095.048.017.009.085.043.012.007.092.046.022.012.085.043.008.004.089.046.028.014.081.042.025.013.07.036.034.017.08.042.033.016.056.03c.017.008.022.01.039.02l.076.038.042.022.045.023.056.03.06.03.05.027.032.016.094.049.026.013.053.028.033.017.093.048.024.013c.023.012.037.02.06.03.003.003.006.005.01.006l.12.063.009.005.195.102.006.003c2.548 1.335 5.059 2.72 7.54 4.16 1.185.695 1.586 2.218.896 3.408-.464.8-1.303 1.247-2.165 1.247-.426 0-.857-.11-1.252-.338-4.201-2.437-8.546-4.743-12.914-6.855-1.243-.6-1.764-2.096-1.162-3.339.431-.892 1.323-1.412 2.252-1.412zm25.604 14.847c.483 0 .97.14 1.4.43 4.14 2.835 8.162 5.816 12.07 8.946 1.068.865 1.238 2.431.378 3.505-.494.617-1.22.938-1.953.938-.548 0-1.1-.18-1.56-.549-3.793-3.036-7.745-5.965-11.75-8.707-1.139-.78-1.43-2.336-.65-3.475.485-.708 1.268-1.088 2.065-1.088zm23.106 18.5c.61 0 1.221.221 1.703.67l.512.479.003.002.166.156.006.006.167.157.002.001.083.08.003.002.08.075.005.005.08.076.008.007.16.151.012.012.078.074.005.004.073.07.014.013.076.072.01.01.072.068.009.009.077.073.013.012.074.071.004.004.076.072.017.016.148.142.022.021.07.068.014.013.063.06.02.02.07.066.02.02.056.054c.01.008.012.011.021.02l.068.065.024.023.059.057.016.016.07.066c.008.01.013.014.022.022l.063.061.026.025.053.052.025.023.067.065.023.023.054.052.021.02.068.067.024.023.055.053c.009.01.01.01.02.019l.067.066.024.024.061.059.02.02.06.058.026.025.069.067.014.014.06.058.02.02.07.068.02.02.058.057.018.018.07.068.02.02.063.062.01.01.071.07.022.021.068.067.016.016.06.06.02.02.071.069.015.014.064.064.013.013.073.072.016.015.066.066.01.01.074.073.016.015.149.148.015.016.075.074.005.005.073.072.01.012.077.076.007.006.074.075.006.005.078.079.007.006.157.157.01.01.156.157.007.007.161.162.002.002.08.081.005.004.161.163.002.002.164.166c1.537 1.556 3.049 3.137 4.535 4.743.938 1.013.876 2.595-.137 3.533-.481.445-1.09.665-1.697.665-.673 0-1.343-.27-1.836-.802-3.298-3.564-6.772-7.048-10.325-10.357-1.01-.94-1.067-2.522-.127-3.533.493-.529 1.16-.797 1.83-.797zm20.101 21.725c.732 0 1.457.32 1.95.934.425.534.85 1.074 1.27 1.612l.003.004.088.113.002.003.042.054.015.02.065.083.024.031.034.044.03.039.048.062.032.041.028.035.053.069.025.033.04.052.021.026.059.076.017.023.055.071.008.01.062.082.015.018.13.171.009.01.136.178.005.006.069.09.001.002c.687.899 1.367 1.803 2.04 2.714v.002c.046.06.09.122.135.182l.007.01.132.179.007.009.065.089.004.006.062.084.007.009c.02.029.042.057.063.086l.01.013.061.085.003.003.062.085.013.018.061.084.005.006.057.078.015.022.057.078.017.023.045.062.02.027.053.074.023.031.04.055.02.027.05.071.028.037.035.049.038.053.033.046.032.043.03.04.046.066.026.036.032.044.03.043.05.068.02.028.117.163.013.018.122.17.006.009c.03.04.052.073.081.114l.003.004c.897 1.254 1.777 2.517 2.645 3.793.77 1.141.472 2.69-.666 3.465-.431.293-.92.433-1.404.433-.8 0-1.586-.383-2.07-1.094-2.73-4.012-5.647-7.974-8.671-11.775-.86-1.08-.681-2.653.4-3.513.46-.366 1.009-.544 1.554-.544zm16.648 24.473c.861 0 1.699.445 2.163 1.242 2.46 4.27 4.77 8.647 6.915 13.11l.002.002.082.172c.593 1.244.067 2.733-1.175 3.33-.35.167-.717.246-1.08.246-.932 0-1.826-.523-2.256-1.42-2.098-4.373-4.391-8.725-6.815-12.934-.69-1.197-.278-2.725.919-3.414.393-.227.822-.334 1.245-.334zm12.802 26.684c1 0 1.945.604 2.33 1.592 1.81 4.64 3.453 9.366 4.92 14.167.402 1.32-.341 2.718-1.662 3.122-.243.074-.489.11-.73.11-1.071 0-2.062-.694-2.39-1.771-1.418-4.642-3.032-9.288-4.796-13.811-.502-1.286.134-2.736 1.42-3.238.3-.116.606-.171.908-.171zm8.648 28.305c1.14 0 2.169.785 2.434 1.941.345 1.535.674 3.084.983 4.633l.045.228v.003l.045.225.002.006.044.223v.007c.016.076.03.144.044.22l.002.013.042.216.003.015.042.214c0 .006.002.011.003.016l.04.213.004.019.04.211.004.02.04.21.004.019.04.211c0 .007.002.013.003.02l.04.211c0 .007.002.012.003.018l.039.21.004.024.039.207c0 .008.002.015.004.023l.038.208.004.022.037.206.005.027.037.205.005.026.036.203.006.03.036.203.004.025.037.208.004.02.037.211.004.021.037.212.003.018.037.213.003.019.037.214.002.014.038.217.002.016.037.217.002.013.037.22.002.011.037.221.002.01.037.22.002.014.037.222v.005l.037.226.002.008.036.226.001.004.037.227v.007l.037.225.001.008.036.224.001.009.036.223v.01l.036.223.001.009.035.224.001.008.035.222.002.014.034.22.001.011.034.223.002.01.033.223.001.01.034.223.001.01.034.225v.007c.01.058.019.12.027.18.196 1.363-.748 2.629-2.112 2.829-.123.018-.245.027-.366.027-1.22 0-2.288-.895-2.47-2.138-.705-4.807-1.601-9.644-2.664-14.376-.302-1.347.545-2.684 1.892-2.987.184-.041.368-.06.55-.06zm4.297 29.284c1.3 0 2.398 1.006 2.491 2.323l.016.221v.003l.016.22v.003l.022.332.015.223v.001l.022.333v.002l.035.556v.001l.034.558.013.222v.004l.019.332v.002l.012.221v.004l.018.33v.006l.012.22v.002c.01.186.02.372.028.558v.001l.017.334v.003l.01.22v.005l.016.331v.005l.01.22v.005l.014.33v.007l.01.219v.005l.009.221v.001l.004.108v.006l.009.22v.005l.004.109.008.218v.012l.008.213v.016l.004.1v.004l.004.11v.005l.004.102v.012l.007.216v.01l.004.104v.003l.004.112.003.102v.018l.007.21v.017l.003.095v.011l.004.106v.012l.003.095v.016l.006.21v.018l.003.092v.015l.003.105v.01l.003.097v.016l.006.21v.02l.002.094v.01l.003.106v.014l.002.09.001.022.004.206.001.024.002.086v.018l.002.103v.015l.002.088v.025l.005.205v.023l.002.086v.02l.002.1v.024l.002.08v.028l.004.203v.024l.002.085v.02l.001.102v.019l.002.085v.025l.003.203v.028l.002.084v.018l.001.102v.02l.001.084v.027l.002.1V197.961l.001.028.001.08v.024l.001.1v.022l.001.08v.03l.002.202v.11l.001.02v.123l.001.083v.027l.001.1v.131l.001.078v.15l.001.079v.26l.001.08V200.734c-.005 1.378-1.123 2.493-2.5 2.493h-.008c-1.38-.004-2.497-1.127-2.493-2.508l.001-.594c0-4.67-.167-9.39-.496-14.028-.098-1.377.94-2.573 2.317-2.67.06-.005.12-.007.18-.007zm-.094 29.607c.065 0 .13.002.195.007 1.377.106 2.407 1.308 2.3 2.685-.162 2.117-.359 4.226-.587 6.324v.004l-.025.225-.002.012-.024.22c0 .007 0 .009-.002.015l-.024.215-.002.024-.01.092-.002.014-.012.1-.003.031-.01.083-.002.021-.011.096-.004.038-.008.069-.004.034-.01.092-.006.041-.007.061-.005.043-.01.087-.005.045-.007.058-.005.044-.01.085-.006.05-.006.049-.006.052-.01.08-.006.055-.006.045-.006.054-.009.07-.007.065-.006.045-.007.055-.005.046-.011.09-.005.04-.007.06-.004.032-.013.106-.005.034-.007.061-.004.03-.014.115-.003.026-.009.065-.003.025-.014.115-.004.03-.008.062-.003.03-.014.11-.005.032-.007.062-.004.03-.015.116-.003.024-.008.063-.004.03-.015.12-.003.02-.008.064-.005.031-.014.115-.004.024-.008.063-.004.032-.015.113-.003.027-.008.06-.005.037-.012.088-.006.049-.008.054-.006.045-.008.061-.01.074-.007.051-.006.048-.007.051-.011.084-.007.047-.007.055-.006.044-.012.09-.005.035-.01.068-.005.037-.013.094-.004.028-.01.076-.005.033-.013.099-.002.012-.013.095-.003.02-.03.213-.002.017-.031.218-.002.01c-.098.691-.2 1.381-.305 2.07-.19 1.237-1.254 2.123-2.468 2.123-.126 0-.253-.01-.381-.03-1.365-.208-2.302-1.484-2.094-2.848.733-4.792 1.294-9.68 1.668-14.528.1-1.312 1.196-2.308 2.49-2.308zm-4.475 29.257c.187 0 .376.021.565.065 1.346.31 2.184 1.653 1.874 2.998-1.131 4.895-2.441 9.721-3.924 14.471v.004c-.335 1.07-1.322 1.755-2.386 1.755-.247 0-.498-.037-.746-.114-1.318-.411-2.053-1.813-1.642-3.131 1.446-4.632 2.733-9.38 3.826-14.11.267-1.156 1.296-1.938 2.433-1.938zm-8.814 28.25c.307 0 .62.057.922.178 1.284.51 1.91 1.963 1.401 3.246-1.851 4.661-3.873 9.237-6.057 13.719-.433.888-1.323 1.405-2.249 1.405-.367 0-.74-.081-1.093-.253-1.241-.605-1.757-2.101-1.152-3.342 2.127-4.366 4.113-8.866 5.904-13.375.39-.98 1.33-1.578 2.324-1.578zm-12.961 26.606c.428 0 .862.11 1.258.342 1.19.694 1.593 2.22.903 3.411-.384.658-.774 1.316-1.165 1.969l-.002.004-.192.32-.001.002-.111.183-.01.016-.106.177-.014.022-.103.17-.02.032-.044.075-.026.041-.029.048-.02.035-.05.08-.02.032-.03.05-.022.036-.045.074-.024.04-.028.045-.043.07-.023.039-.028.046-.025.04-.044.072-.024.038-.03.05-.028.046-.04.064-.022.036-.038.061-.022.036-.041.067-.02.031-.046.076-.018.028-.039.064-.018.029-.048.079-.019.029-.038.062-.016.025-.05.082-.016.026c-.015.023-.03.046-.043.07-.004.004-.01.013-.013.019l-.051.082-.017.027-.048.078-.006.009-.053.086-.013.02-.056.09-.003.005-.052.083-.013.02-.055.088-.007.012-.05.08-.01.016-.056.088-.01.015-.05.08-.008.014-.056.088-.01.016-.114.181-.01.016c-.02.03-.038.06-.057.091l-.002.003-.056.089-.01.014-.056.09-.007.01-.053.085-.007.01-.057.09-.01.014-.055.088-.002.003-.06.093-.007.012-.117.184-.009.013-.119.186-.005.009-.121.19-.005.006-.06.094-.004.006-.06.092-.002.004-.06.093-.006.01-.12.185-.007.012-.119.183-.009.014-.057.089-.008.011-.054.084-.006.01-.059.09-.01.014-.051.08-.008.012-.057.087-.012.019-.055.085-.002.003-.058.087-.012.02c-.02.028-.038.057-.057.086l-.006.01-.05.076-.016.025-.054.082-.012.018-.046.07-.015.023-.054.082-.014.022-.045.068-.015.022-.052.08-.019.028-.042.064-.019.028-.046.07-.023.035-.036.054-.034.052-.033.05-.025.037-.043.065-.03.045-.028.042-.028.042-.044.066-.03.045-.025.038-.044.066-.029.043-.031.047-.02.031c-.021.031-.04.058-.06.09l-.013.019-.037.055-.013.019-.065.097-.013.02-.117.175-.007.01-.122.181-.003.004c-.407.604-.813 1.2-1.225 1.799-.486.698-1.264 1.073-2.055 1.073-.49 0-.983-.144-1.417-.442-1.136-.784-1.423-2.34-.64-3.477 2.757-4 5.396-8.152 7.843-12.342.464-.796 1.301-1.24 2.16-1.24zm-16.798 24.372c.55 0 1.105.181 1.567.554 1.075.866 1.245 2.44.379 3.515-3.139 3.896-6.42 7.672-9.837 11.32-.492.525-1.158.79-1.825.79-.613 0-1.227-.223-1.709-.675-1.007-.944-1.06-2.526-.115-3.533 3.32-3.545 6.547-7.259 9.592-11.039.494-.613 1.218-.932 1.948-.932zM512.4 343.117c.675 0 1.347.271 1.84.807.932 1.014.87 2.59-.139 3.525-2.43 2.235-4.917 4.413-7.456 6.527l-.172.143-.004.003-.17.141-.005.005-.099.082-.018.015-.051.042-.01.008-.093.077-.025.02-.046.039-.06.048-.043.037-.031.025-.07.057c-.01.01-.022.02-.034.028l-.042.036-.032.026-.069.056-.035.03-.04.032-.046.038-.053.043-.042.034-.037.03-.064.053-.036.03-.044.035-.032.027-.07.056-.028.024-.057.046-.023.019-.07.057-.031.025-.065.053-.022.018-.064.052-.026.021-.076.061-.015.013-.067.054-.02.017c-.027.02-.052.041-.078.062l-.017.014-.07.057-.014.011-.08.064-.017.015c-.026.02-.052.04-.077.062l-.006.004-.083.067-.014.011-.084.068h-.001l-.084.068-.012.01-.084.067-.007.006-.084.067-.004.004-.088.07-.006.005-.174.139-.011.009-.176.14-.004.003-.18.143-.002.002-.367.29c-.459.364-1.006.54-1.549.54-.738 0-1.47-.326-1.963-.95-.856-1.083-.672-2.655.41-3.511 3.808-3.011 7.551-6.205 11.126-9.492.48-.442 1.087-.66 1.692-.66zm-23.22 18.358c.802 0 1.59.386 2.073 1.1.773 1.145.473 2.699-.671 3.472-1.002.677-2.01 1.345-3.024 2.004l-.193.125-.006.004-.095.062-.003.002-.094.06-.003.003-.093.06-.012.007-.09.058-.001.001-.09.058-.018.011-.176.114-.02.013-.088.056-.009.006-.08.052-.02.012-.084.054-.02.013-.07.044-.022.015-.081.051-.027.017-.064.042-.024.015-.08.05-.03.02-.062.04-.042.026-.058.037-.034.022-.07.044-.038.024-.053.033-.036.023-.074.047-.035.022-.05.032-.036.023-.072.045-.04.025-.047.03-.051.032-.056.035-.044.028-.044.028-.061.038-.046.03-.043.026-.048.03-.064.04-.04.025-.046.03-.052.031-.059.037-.04.025-.043.027-.066.042-.05.03-.03.02-.085.052-.03.02-.05.03-.032.02-.08.05-.035.021-.047.03-.036.022-.08.05-.032.02-.05.03-.04.025-.074.046-.031.019-.096.06-.018.01-.05.03-.034.022-.082.05-.03.019-.052.032-.03.018-.082.05-.033.02-.05.031-.037.023-.071.043-.042.026-.046.028-.047.029-.066.04-.035.022-.048.029-.068.041-.043.027-.044.026-.045.028-.069.042-.037.022-.051.03-.055.034-.053.032-.039.024-.056.034-.053.032-.05.03-.039.024-.074.045-.035.02-.053.032-.034.021-.077.046-.033.02-.058.035-.03.019-.077.046-.034.02-.065.039-.021.013-.08.048-.031.018-.076.046-.025.015-.069.04-.029.018-.083.05-.019.01-.074.045-.02.011-.088.053-.015.01c-.029.016-.056.032-.084.05l-.01.005-.094.056-.01.006-.193.114-.006.004-.199.117c-.775.457-1.553.91-2.334 1.356-.392.224-.818.33-1.239.33-.868 0-1.711-.452-2.173-1.26-.685-1.198-.269-2.725.93-3.41 4.212-2.41 8.388-5.01 12.412-7.73.43-.29.916-.429 1.398-.429zm-25.693 14.691c.934 0 1.83.526 2.259 1.426.591 1.242.067 2.728-1.17 3.326-3.398 1.617-6.846 3.141-10.347 4.57h-.001c-.07.03-.134.055-.204.084l-.018.007-.124.05-.007.003-.063.026-.024.01-.095.038-.038.015-.05.02c-.017.008-.034.014-.05.02l-.066.027-.054.022-.043.018-.082.032-.029.012-.07.028-.029.012-.091.037-.02.008-.082.032-.02.008-.1.04-.008.004-.101.04-.003.001-.108.043h-.002c-.618.247-1.237.49-1.858.73-.297.115-.602.169-.901.169-1.003 0-1.95-.608-2.333-1.6-.498-1.287.143-2.735 1.43-3.233 4.526-1.75 9.044-3.694 13.429-5.782.347-.165.712-.243 1.073-.243zm-27.603 10.67c1.073 0 2.066.698 2.392 1.778.398 1.318-.344 2.71-1.659 3.113-2.333.705-4.677 1.367-7.046 1.988l-.008.002-.21.055-.02.005-.066.017-.01.003-.121.031-.035.01-.056.014-.078.02-.05.013-.05.013-.044.012-.086.022-.037.01-.069.017-.03.008-.093.024-.031.007-.078.02-.022.006-.099.025-.022.006-.091.023-.012.003c-.035.01-.07.018-.106.027l-.012.003-.22.056h-.001c-1.896.479-3.801.93-5.717 1.355-.182.04-.364.06-.543.06-1.147 0-2.18-.795-2.439-1.961-.298-1.348.553-2.683 1.901-2.981 4.74-1.05 9.5-2.293 14.144-3.696.241-.073.484-.107.724-.107zm-28.893 6.398c1.224 0 2.293.899 2.472 2.145.196 1.367-.753 2.634-2.12 2.83-3.379.485-6.785.886-10.216 1.2h-.006l-.107.01h-.01l-.112.011h-.004l-.103.01-.019.001-.106.01h-.01l-.098.01-.022.001-.104.01-.016.001-.086.008-.033.002-.09.008-.034.003-.075.007-.04.003-.073.006-.054.005-.064.006c-.013 0-.037.003-.05.004l-.052.004-.08.007-.053.004-.053.005-.044.003-.097.009c-.013 0-.026.002-.038.003l-.06.005-.036.003-.127.01h-.01l-.07.007-.022.001-.217.018-.017.001-.222.018h-.013l-.23.019h-.002c-.649.05-1.297.098-1.947.142-.054.003-.109.005-.163.005-1.303 0-2.402-1.01-2.492-2.33-.093-1.378.947-2.57 2.325-2.664 4.851-.33 9.744-.847 14.542-1.535.12-.018.24-.026.358-.026zm-44.187.928c.106 0 .213.007.321.02 5.084.653 9.923 1.01 14.384 1.061 1.381.016 2.487 1.148 2.471 2.53-.015 1.37-1.132 2.47-2.499 2.47h-.03c-2.248-.026-4.56-.124-6.933-.293l-.059-.004-.056-.004-.01-.001-.048-.004h-.01l-.048-.004h-.011l-.046-.004-.015-.001-.042-.003-.019-.002-.04-.002-.016-.002-.042-.003-.015-.001-.044-.003-.014-.001-.043-.004h-.018l-.04-.004-.016-.001-.043-.003-.016-.002c-.014 0-.028-.002-.041-.003l-.02-.001-.036-.003-.023-.002-.036-.003-.022-.001-.036-.003-.022-.002-.037-.003c-.01 0-.012 0-.021-.002l-.035-.002-.025-.002-.033-.003-.026-.002-.031-.003c-.01 0-.017 0-.026-.002l-.033-.002-.027-.002-.027-.003-.032-.002-.028-.002-.029-.003-.03-.002-.029-.003-.029-.002-.029-.002-.027-.003-.033-.002-.022-.002-.036-.003-.021-.002-.037-.003-.022-.002-.037-.003-.016-.001-.043-.004h-.009l-.05-.005h-.004c-2.03-.173-4.095-.395-6.207-.666-1.365-.18-2.328-1.43-2.153-2.797.162-1.261 1.238-2.182 2.477-2.182zm-28.994-6.03c.22 0 .443.03.665.09 4.913 1.353 9.716 2.527 14.276 3.491 1.351.286 2.215 1.612 1.93 2.963-.25 1.177-1.288 1.984-2.444 1.984-.168 0-.338-.017-.508-.053-4.514-.953-9.154-2.083-13.928-3.384l-.016-.005-.104-.028-.032-.01c-.023-.005-.034-.008-.057-.015l-.073-.02-.048-.013c-.02-.005-.04-.01-.061-.017l-.05-.013-.074-.02-.032-.01-.092-.025-.015-.004c-1.33-.367-2.112-1.742-1.745-3.073.305-1.11 1.311-1.837 2.408-1.837zm-28.315-9.215c.289 0 .583.05.869.156 4.745 1.76 9.447 3.402 13.974 4.882 1.312.43 2.028 1.841 1.6 3.153-.346 1.055-1.325 1.724-2.377 1.724-.253 0-.511-.039-.766-.12-4.64-1.518-9.367-3.17-14.175-4.953-1.29-.482-1.948-1.918-1.47-3.21.375-1.009 1.33-1.632 2.345-1.632zm-27.632-11.272c.338 0 .682.07 1.01.215 4.605 2.038 9.205 3.998 13.673 5.824 1.278.522 1.89 1.982 1.368 3.26-.395.968-1.33 1.554-2.315 1.554-.314 0-.634-.06-.943-.185l-.03-.013-.043-.017-.054-.022-.01-.005-.137-.055-.011-.005c-4.085-1.672-8.219-3.43-12.385-5.263l-.016-.007-.065-.028-.029-.013-.057-.025-.086-.038-.03-.013c-.028-.013-.057-.026-.087-.038l-.006-.003-.76-.336c-1.263-.56-1.833-2.036-1.274-3.298.413-.934 1.328-1.489 2.287-1.489zm-27-12.778c.377 0 .76.086 1.12.267 4.476 2.25 8.975 4.446 13.373 6.53 1.248.59 1.78 2.081 1.19 3.33-.428.901-1.326 1.43-2.262 1.43-.358 0-.723-.078-1.068-.242-4.464-2.115-8.96-4.31-13.478-6.58-1.234-.62-1.732-2.124-1.112-3.357.44-.874 1.321-1.378 2.236-1.378zm-26.422-13.993c.411 0 .828.101 1.213.315 4.36 2.425 8.765 4.817 13.093 7.11 1.22.647 1.685 2.16 1.038 3.38-.449.847-1.315 1.33-2.211 1.33-.395 0-.795-.094-1.169-.291-1.677-.89-3.357-1.788-5.038-2.696h-.002l-.094-.052-.012-.006-.19-.102-.039-.022-.056-.03-.043-.023-.045-.025-.047-.025-.051-.028-.193-.104-.014-.008-.07-.038-.013-.007c-2.425-1.313-4.854-2.647-7.284-3.998-1.2-.674-1.63-2.191-.96-3.395.457-.822 1.309-1.285 2.187-1.285zm-25.85-15.032c.442 0 .89.117 1.295.363 4.248 2.578 8.56 5.14 12.815 7.616 1.194.694 1.598 2.224.904 3.418-.464.798-1.302 1.243-2.163 1.243-.427 0-.86-.11-1.255-.34-1.98-1.152-3.962-2.315-5.941-3.49l-.012-.007-.084-.05-.017-.01-.187-.11-.039-.024-.05-.03c-.013-.007-.037-.021-.05-.03l-.034-.02-.06-.035-.02-.012-.308-.183-.006-.004c-2.035-1.21-4.064-2.43-6.096-3.663-1.173-.719-1.546-2.252-.831-3.43.47-.774 1.294-1.202 2.14-1.202zm-25.283-15.982c.472 0 .948.134 1.372.412 4.136 2.72 8.352 5.44 12.53 8.08 1.168.739 1.516 2.283.778 3.45-.476.752-1.286 1.164-2.115 1.164-.455 0-.916-.124-1.33-.384-3.258-2.06-6.506-4.145-9.743-6.255l-.046-.03-.128-.083-.1-.066-.07-.045-.136-.089c-.02-.013-.042-.028-.063-.04-.05-.034-.102-.067-.153-.1l-.025-.018c-.716-.467-1.432-.936-2.147-1.407-1.153-.758-1.473-2.309-.715-3.462.48-.73 1.278-1.127 2.091-1.127zm-24.686-16.885c.501 0 1.007.15 1.447.463 4.018 2.857 8.132 5.727 12.228 8.529 1.14.78 1.432 2.335.653 3.474-.485.709-1.269 1.09-2.066 1.09-.482 0-.97-.14-1.398-.43-4.139-2.83-8.253-5.7-12.327-8.597-1.115-.803-1.374-2.357-.577-3.478.488-.686 1.258-1.051 2.04-1.051zm-24.038-17.79c.533 0 1.07.169 1.524.52 3.889 2.996 7.89 6.017 11.894 8.98 1.11.82 1.344 2.386.523 3.496-.49.663-1.246 1.013-2.012 1.013-.516 0-1.036-.159-1.483-.488l-.082-.062-.012-.008c-2.276-1.685-4.53-3.372-6.776-5.073l-.004-.003-.144-.109-.045-.034-.14-.105-.08-.061-.091-.07-.11-.083-.065-.05-.129-.097-.049-.038-.149-.113-.028-.021-.167-.127-.008-.006-.182-.139-.004-.003c-1.241-.944-2.477-1.89-3.709-2.84-1.093-.842-1.297-2.412-.454-3.506.493-.639 1.233-.974 1.982-.974zm-23.294-18.732c.568 0 1.139.193 1.607.586 3.74 3.142 7.61 6.323 11.505 9.453 1.076.865 1.247 2.439.382 3.515-.494.615-1.219.934-1.95.934-.55 0-1.103-.18-1.564-.55-.018-.016-.03-.026-.049-.04l-.023-.019-.048-.038-.038-.03-.041-.034-.06-.048-.022-.018-.077-.062-.04-.032-.049-.04-.028-.022-.06-.049-.027-.021-.075-.06-.008-.007-.083-.067-.027-.022-.062-.05-.022-.018-.067-.053-.02-.016-.172-.139-.018-.015-.068-.054-.02-.017-.073-.059-.013-.01-.17-.137-.027-.022-.067-.054-.013-.011-.262-.212-.018-.015-.077-.062-.006-.005-.09-.072-.09-.073-.006-.005-.078-.064-.018-.014-.076-.062-.01-.007-.266-.216-.01-.009-.08-.065-.008-.006-.175-.142-.022-.018-.056-.046-.035-.028-.057-.047-.024-.02-.168-.135-.024-.02-.06-.049-.029-.023-.067-.055-.013-.01-.085-.07-.02-.015c-.02-.018-.043-.036-.064-.053l-.029-.024-.055-.045-.03-.024-.068-.056-.014-.01-.083-.069-.027-.021-.055-.045-.033-.028-.048-.038-.041-.034-.039-.031-.074-.06-.04-.033-.044-.037-.04-.032-.046-.038-.028-.023-.054-.044-.02-.016-.09-.074-.044-.036-.036-.03c-.015-.012-.03-.023-.044-.036l-.042-.034-.037-.03-.047-.038-.075-.062-.02-.017-.057-.046-.046-.038-.033-.027-.055-.045-.012-.01-.2-.163-.01-.008-.062-.051-.015-.013-.06-.049-.014-.011-.275-.226-.005-.004-.28-.23-.007-.006-.425-.35-.006-.004-.283-.233-.355-.294-.004-.003-.066-.055-.012-.01-.271-.224-.013-.01-.267-.221-.018-.015-.06-.05-.011-.009-.065-.053-.005-.004c-.07-.06-.13-.108-.201-.167l-.014-.011c-.018-.015-.037-.03-.054-.046l-.03-.023-.052-.044-.026-.022-.081-.067-.04-.033-.046-.039-.037-.03-.043-.036-.039-.032-.04-.033-.055-.046-.06-.05-.039-.032-.044-.037-.042-.035-.031-.026-.063-.052-.02-.017-.166-.138-.02-.016-.075-.062-.006-.005c-.806-.671-1.61-1.343-2.41-2.016-1.057-.888-1.193-2.465-.305-3.522.494-.588 1.202-.892 1.915-.892zM78.88 236.69c.609 0 1.219.221 1.7.668 3.558 3.301 7.27 6.657 11.032 9.972 1.036.913 1.135 2.493.222 3.529-.494.56-1.183.847-1.876.847-.587 0-1.177-.205-1.652-.624l-.008-.007-.073-.064-.02-.018-.063-.056-.02-.017-.082-.073-.006-.005-.072-.064-.03-.026-.052-.046-.029-.025-.056-.05-.042-.037-.06-.053-.03-.027-.043-.038-.043-.038-.035-.03-.058-.052-.056-.05-.04-.034-.034-.03-.048-.043-.022-.02-.18-.159-.011-.01-.06-.054-.01-.009c-2.835-2.512-5.61-5.019-8.348-7.541l-.013-.012-.058-.054c-.002 0-.003-.002-.004-.003l-.099-.091-.035-.032-.027-.025-.059-.054-.017-.016-1.184-1.096c-1.012-.94-1.071-2.521-.132-3.533.493-.531 1.162-.8 1.833-.8zm-21.267-20.927c.66 0 1.318.26 1.81.775 3.32 3.483 6.824 7.037 10.414 10.565.984.968.998 2.55.03 3.535-.49.498-1.136.748-1.783.748-.632 0-1.265-.239-1.752-.717-3.056-3.003-6.034-6.008-8.928-9.011l-.003-.003-.074-.077-.007-.007-.148-.154-.026-.027-.041-.043-.036-.037-.034-.035-.073-.076-.018-.02-.05-.05-.016-.017c-.363-.378-.72-.752-1.08-1.13-.947-1-.907-2.577.09-3.528.484-.461 1.105-.69 1.725-.69zM37.899 193.43c.73 0 1.452.317 1.946.928 2.989 3.697 6.202 7.49 9.55 11.275.914 1.034.817 2.614-.217 3.529-.476.42-1.067.627-1.655.627-.69 0-1.375-.283-1.869-.838-.568-.642-1.13-1.283-1.69-1.924l-.002-.003-.156-.18-.007-.006-.15-.172-.013-.016-.142-.163-.02-.022-.044-.052-.004-.004-.089-.103-.021-.025-.04-.046-.027-.03-.073-.085-.016-.019-.046-.052-.015-.017-.08-.093-.018-.02-.041-.049-.025-.028-.065-.076-.028-.032-.039-.045-.026-.03-.048-.056-.043-.05-.038-.044c-.01-.01-.019-.022-.028-.033l-.038-.043-.021-.025-.07-.082c-.01-.01-.019-.02-.027-.031l-.035-.04-.043-.05-.047-.054-.033-.039c-.01-.013-.024-.028-.035-.04l-.033-.04-.054-.062-.033-.039-.035-.04-.031-.037-.054-.062-.037-.043-.034-.04-.029-.034-.054-.064-.037-.043-.032-.037-.037-.043-.03-.035-.057-.067c-.01-.01-.022-.026-.031-.036l-.036-.042-.03-.034-.059-.07-.027-.032-.037-.044-.034-.039-.044-.052-.044-.052-.029-.033-.039-.046-.027-.032-.058-.068-.033-.038-.036-.043-.025-.03-.072-.084-.017-.02-.04-.048c-.01-.01-.018-.02-.026-.03l-.073-.086-.015-.018-.043-.05-.019-.023-.137-.161-.015-.019-.14-.166-.013-.014-.046-.055-.004-.004-.088-.105-.018-.021-.044-.051-.009-.011-.091-.109-.006-.007-.047-.055-.01-.013-.145-.172-.008-.008-.146-.174-.007-.009c-1.315-1.564-2.606-3.13-3.865-4.688-.861-1.074-.693-2.642.378-3.508.463-.374 1.018-.556 1.57-.556zm-17.339-24.09c.834 0 1.648.417 2.123 1.176 2.47 3.955 5.23 8.043 8.202 12.153.81 1.119.558 2.682-.56 3.49-.443.32-.956.475-1.463.475-.771 0-1.531-.355-2.02-1.024-3.03-4.19-5.838-8.344-8.405-12.452-.725-1.17-.368-2.707.8-3.437.413-.258.87-.38 1.323-.38zm-13.192-26.3c1.02 0 1.98.63 2.349 1.645 1.542 4.233 3.487 8.666 5.778 13.176.626 1.23.135 2.735-1.096 3.36-.363.185-.75.273-1.13.273-.91 0-1.785-.498-2.228-1.361-1.717-3.379-3.247-6.712-4.583-10.002v-.003l-.022-.052-.002-.006-.02-.048-.003-.008-.019-.047-.004-.01-.018-.045-.004-.01-.018-.045-.005-.01-.017-.043-.005-.014-.016-.04-.007-.015-.015-.038-.007-.018-.013-.032-.01-.024-.01-.026-.011-.029-.008-.018c-.422-1.056-.824-2.107-1.205-3.153-.472-1.298.196-2.732 1.493-3.205.283-.103.572-.152.856-.152zm-4.75-28.352c.056 0 .113.001.17.005 1.379.094 2.42 1.286 2.326 2.664C5.038 118.47 5 119.61 5 120.742c0 3.29.324 6.764.963 10.325.243 1.36-.66 2.659-2.02 2.902-.15.027-.298.04-.444.04-1.187 0-2.24-.85-2.458-2.06-.15-.836-.284-1.668-.402-2.496l-.001-.009-.006-.037v-.008l-.006-.038-.001-.007-.017-.118-.001-.011-.004-.028-.003-.022-.004-.024c0-.009-.002-.016-.003-.025l-.003-.023-.004-.027c0-.007-.002-.014-.003-.02l-.004-.035-.002-.013-.007-.049-.001-.01-.005-.039-.002-.014-.005-.034-.002-.017-.005-.034-.001-.014-.006-.039v-.01l-.027-.202v-.003l-.007-.048v-.003c-.236-1.84-.39-3.657-.463-5.45l-.002-.05-.009-.25v-.004l-.002-.046v-.003l-.001-.049-.007-.2v-.004l-.001-.043v-.008l-.001-.04v-.01l-.002-.045v-.001c0-.034-.002-.066-.003-.1v-.001-.046-.008l-.002-.042v-.007l-.001-.04v-.01l-.001-.044v-.003l-.002-.098v-.006l-.001-.04v-.013l-.001-.036v-.012l-.001-.036v-.013l-.001-.039v-.008l-.002-.096v-.01-.036-.017l-.001-.03v-.017-.033-.014l-.001-.038v-.008l-.001-.096v-.01-.037-.015l-.001-.032v-.015-.033-.015-.036l-.001-.01v-.096-.012-.033-.018-.03-.017-.03L0 120.836v-.033-.014-.047-.052-.011-.05-.011-.045-.01-.05-.013-.05-.004l.001-.046v-.017-.046-.016-.037l.001-.017v-.044-.02-.038l.001-.022v-.033-.022l.001-.041v-.025-.025l.001-.038v-.024l.001-.029v-.02l.001-.048v-.014l.002-.1v-.01l.002-.068c.01-.522.028-1.04.052-1.558v-.003l.006-.103v-.014l.003-.048v-.022l.002-.024.002-.043.001-.016.002-.039v-.011l.004-.05v-.01c.013-.23.027-.459.042-.688.09-1.32 1.189-2.33 2.492-2.33zm9.554-26.665c.486 0 .976.141 1.408.436 1.14.779 1.433 2.334.654 3.474-2.684 3.93-4.81 8.024-6.316 12.167-.369 1.016-1.328 1.646-2.35 1.646-.283 0-.571-.048-.853-.15-1.298-.473-1.967-1.907-1.496-3.205.972-2.672 2.156-5.278 3.54-7.819l.055-.1.002-.004.027-.05c.003-.005-.002.004 0-.001l.028-.05.027-.049.003-.006.026-.047.003-.004.025-.045.002-.005.025-.046.005-.009.026-.045.003-.005.022-.041.006-.01.024-.043.007-.012.02-.038.01-.015.019-.035.007-.012.023-.042.008-.013.02-.036.007-.013.02-.037.01-.015.022-.04.008-.013.02-.035.005-.01.023-.04.01-.017.02-.035.011-.021.015-.026.012-.02.019-.034.012-.02.017-.03c.003-.006.01-.02.014-.024l.013-.024.012-.021.02-.034.012-.022.013-.022.02-.035.011-.019.014-.024.018-.032.015-.025.008-.014.026-.044.007-.012.016-.028.006-.01.028-.047.006-.012.028-.046.007-.012.016-.027c0-.003.002-.005.004-.007l.03-.052.005-.009.052-.088.002-.003.032-.054.005-.01.145-.243c.666-1.113 1.37-2.211 2.113-3.298.485-.704 1.266-1.082 2.061-1.082zm20.48-20.58c.762 0 1.516.347 2.007 1.007.824 1.107.594 2.674-.513 3.498-4.025 2.996-7.685 6.114-10.876 9.269-.488.482-1.123.722-1.758.722-.644 0-1.289-.248-1.778-.743-.97-.982-.961-2.565.02-3.535.722-.713 1.46-1.42 2.216-2.12l.082-.076.005-.003.08-.075.005-.004.038-.035.002-.002.04-.036c.004-.005 0-.002.005-.006l.034-.03.007-.008.04-.036.036-.033.012-.01.029-.027.011-.01.034-.032.011-.01.029-.026.01-.01.037-.033.008-.007.03-.028.012-.01.036-.034.006-.005.031-.029.013-.011.028-.026.017-.015.027-.025.017-.015.024-.021.012-.012.035-.031.015-.014.023-.021.015-.013.034-.031.015-.014.022-.02.017-.015.022-.02L23 74.6l.024-.021.02-.017.014-.014.043-.038.01-.008.02-.019.017-.015.02-.019.014-.012.039-.035.013-.012.022-.02.016-.014.039-.034.011-.01.024-.022.012-.01.077-.069.012-.01.023-.021.01-.01.045-.039.01-.009.025-.022.007-.006.052-.046.005-.004.028-.026.002-.001.089-.079.002-.002c1.216-1.074 2.469-2.13 3.765-3.173l.007-.006.09-.073.005-.004.094-.075.002-.002.093-.074.005-.004.028-.023.01-.008.058-.046.028-.022.011-.01.026-.02.007-.005.049-.04.017-.013.023-.019.012-.009.048-.038.011-.009.023-.018.02-.016.028-.022.028-.022.018-.015.025-.02.015-.01.04-.032.009-.008.034-.027.01-.008.086-.068.009-.006c.876-.691 1.77-1.376 2.682-2.054.448-.334.971-.495 1.49-.495zm25.3-15.21c.92 0 1.806.51 2.242 1.391.613 1.238.106 2.737-1.13 3.35-4.547 2.25-8.87 4.594-12.85 6.966-.402.239-.843.352-1.278.352-.852 0-1.682-.436-2.15-1.22-.707-1.187-.318-2.721.868-3.428.585-.348 1.175-.695 1.77-1.04h.002l.195-.114.006-.003.044-.026.003-.002.144-.083.01-.005.04-.023.007-.004.04-.024.008-.004.048-.028h.002c.014-.01.028-.017.043-.025l.016-.01.031-.018.014-.007.035-.02.013-.008.09-.051.018-.011.029-.016.018-.01.028-.017.018-.01.028-.016.092-.053.009-.005.032-.018.012-.007c3.318-1.893 6.763-3.72 10.355-5.498.354-.173.729-.255 1.098-.255zm27.352-11.607c1.02 0 1.977.628 2.348 1.641.475 1.297-.192 2.732-1.488 3.207-4.759 1.743-9.379 3.558-13.732 5.395-.317.134-.646.197-.97.197-.976 0-1.902-.574-2.305-1.528-.536-1.269.056-2.731 1.321-3.271 4.51-1.904 9.17-3.732 13.976-5.491.28-.102.568-.15.85-.15zm28.368-9.157c1.088 0 2.09.717 2.403 1.815.378 1.328-.391 2.711-1.719 3.09-4.865 1.387-9.64 2.833-14.197 4.299-.254.082-.512.12-.766.12-1.056 0-2.038-.675-2.379-1.735-.423-1.314.3-2.722 1.614-3.145 1.061-.341 2.127-.68 3.199-1.015h.003l.097-.031.02-.006.087-.028c.01-.002.023-.007.032-.01l.066-.02.065-.02.04-.013.074-.023.028-.009.083-.026.026-.008c3.459-1.076 6.978-2.124 10.54-3.14.228-.064.458-.095.684-.095zm28.938-7.382c1.14 0 2.171.786 2.436 1.944.307 1.347-.536 2.687-1.882 2.994-4.918 1.122-9.782 2.294-14.457 3.484-.207.052-.415.077-.619.077-1.116 0-2.133-.752-2.42-1.884-.34-1.334.463-2.692 1.795-3.036.963-.245 1.912-.484 2.88-.725l.022-.006.08-.02.044-.01.047-.012.073-.018.036-.01.084-.02.022-.006.096-.023.015-.004.104-.026.005-.001c2.45-.607 4.916-1.201 7.398-1.783l.01-.002.107-.026h.003l.107-.025.018-.005.095-.022.027-.006.069-.016.058-.014.054-.012.064-.015.036-.009.09-.02.014-.004c.983-.23 1.952-.452 2.94-.678.184-.041.368-.061.55-.061zm29.285-6.021c1.182 0 2.233.842 2.456 2.046.25 1.357-.646 2.662-2.004 2.913-4.95.915-9.87 1.874-14.624 2.85-.17.034-.339.05-.506.05-1.162 0-2.203-.814-2.446-1.997-.278-1.353.594-2.674 1.946-2.952 4.869-.999 9.78-1.954 14.72-2.868.154-.028.307-.042.458-.042zm29.509-4.928c1.216 0 2.282.889 2.469 2.128.205 1.366-.736 2.639-2.101 2.844-4.967.747-9.925 1.532-14.736 2.334-.14.023-.278.035-.414.035-1.2 0-2.26-.867-2.463-2.09-.227-1.362.693-2.65 2.055-2.877 3.922-.654 7.857-1.283 11.798-1.888h.002l.222-.034.02-.004.207-.031.033-.005.184-.028.062-.01.165-.025.085-.013.115-.018.143-.021.072-.011 1.714-.26c.124-.018.246-.026.368-.026zm29.659-4.015c1.246 0 2.325.93 2.478 2.2.167 1.37-.81 2.616-2.18 2.782-4.975.603-9.959 1.241-14.812 1.898-.113.015-.226.022-.338.022-1.232 0-2.305-.91-2.474-2.165-.185-1.368.774-2.627 2.142-2.812 2.404-.325 4.808-.642 7.209-.95l.009-.001.22-.028.018-.003.2-.025.044-.006.184-.023.056-.007.177-.023.056-.007.157-.02.094-.012.13-.017.114-.014.112-.014.132-.017.091-.012.152-.019.075-.01c1.884-.237 3.774-.471 5.654-.7.101-.011.2-.017.3-.017zm29.763-3.223c1.273 0 2.362.969 2.486 2.262.132 1.374-.876 2.595-2.25 2.727-4.974.477-9.974.986-14.862 1.515-.091.01-.182.015-.272.015-1.26 0-2.344-.95-2.482-2.232-.148-1.37.84-2.6 2.207-2.753l1.978-.212.068-.008.132-.014.128-.013.09-.01.168-.018c.01 0 .036-.003.046-.005l.2-.02.023-.003c4.053-.429 8.088-.835 12.099-1.22.081-.007.161-.01.241-.01zm29.84-2.509c1.298 0 2.395 1.004 2.49 2.32.1 1.376-.935 2.574-2.312 2.674-4.966.36-9.978.753-14.899 1.166-.07.006-.142.01-.212.01-1.286 0-2.379-.987-2.488-2.292-.116-1.374.904-2.583 2.278-2.7l1.12-.093.035-.003.063-.006.058-.004.044-.004.08-.007.036-.003.096-.008h.01l.347-.03h.005c3.606-.297 7.184-.578 10.73-.841l.035-.003.067-.005c.747-.056 1.493-.11 2.238-.164.06-.005.12-.007.179-.007zm29.89-1.835c1.322 0 2.427 1.038 2.494 2.374.07 1.38-.992 2.553-2.371 2.623-4.946.248-9.969.529-14.928.833-.052.003-.104.005-.156.005-1.31 0-2.411-1.021-2.493-2.347-.084-1.378.964-2.564 2.342-2.648 5.088-.313 10.088-.591 14.984-.837l.127-.003zM350.476.396c1.35 0 2.462 1.076 2.498 2.434.037 1.38-1.052 2.529-2.432 2.566-4.897.13-9.921.296-14.933.49-.033.002-.066.002-.099.002-1.336 0-2.444-1.056-2.496-2.403-.054-1.378 1.019-2.538 2.396-2.595 4.893-.19 9.65-.346 14.263-.473h.004l.188-.005.064-.002h.04l.098-.003h.001l.104-.003.026-.001.077-.002.047-.001.067-.002h.02l.067-.002zM378.652 0H379.26l.085.001h.154l.08.001h.153l.086.001h.029l.103.001h.104l.032.001h.107l.097.002h.139l.098.002h.142l.096.002h.036l.07.001h.037l.095.002H381.108l.037.001.096.001h.03l.072.002h.041l.077.001.05.001.069.001h.044l.064.002h.058l.07.002h.047l.057.001.057.001.076.001.051.001.05.001h.051l.084.002.056.001.044.001.056.001.058.001.08.002h.043l.058.002h.044l.096.003h.04l.06.002h.033l.115.003h.027l.065.002h.032l.125.003h.016l.07.002h.023l.214.006h.027l.214.006h.023l.222.007h.015l.234.006h.002l.08.003c3.083.088 6.142.245 9.188.47 1.372.107 2.4 1.304 2.299 2.677-.098 1.315-1.194 2.316-2.49 2.316-.063 0-.125-.002-.188-.007-4.832-.358-9.75-.539-14.618-.539-4.242 0-8.677.031-13.184.092h-.034c-1.365 0-2.48-1.097-2.5-2.466-.018-1.378 1.082-2.51 2.46-2.533.751-.01 1.486-.02 2.227-.028 3.255-.037 6.405-.058 9.44-.064H378.358l.046-.001h.248z" transform="translate(1240.894 1909.469)"/>
        </g>
        <g id="Group_2999" transform="translate(1316.213 1839.551)">
            <g id="Group_2998">
                <g id="Group_2910" transform="translate(44.75 158.792)">
                    <g id="Group_2908">
                        <path id="Path_2171" d="M438.715 318.062V353.3a8.2 8.2 0 0 1-8.171 8.173H141.45a8.2 8.2 0 0 1-8.173-8.173v-35.238z" class="cls-2" transform="translate(-133.277 -145.934)"/>
                        <rect id="Rectangle_895" width="305.438" height="213.5" fill="#3b4c66" rx="8"/>
                        <path id="Path_2172" d="M438.715 316.553V351.8a8.2 8.2 0 0 1-8.171 8.173H141.45a8.2 8.2 0 0 1-8.173-8.173v-35.247z" class="cls-4" transform="translate(-133.277 -146.468)"/>
                        <path id="Rectangle_896" d="M0 0H289.094V152.208H0z" class="cls-5" transform="translate(7.662 8.683)"/>
                        <circle id="Ellipse_161" cx="10.215" cy="10.215" r="10.215" class="cls-2" transform="translate(142.504 183.365)"/>
                    </g>
                    <g id="Group_2909" transform="translate(84.788 215.543)">
                        <path id="Path_2173" fill="#dddede" d="M217.9 369.6v-19.473h91.784V369.6c0 9.057 2.114 26.266 19.323 26.266H198.573c17.209.001 19.327-17.208 19.327-26.266z" transform="translate(-196.761 -350.127)"/>
                        <path id="Path_2174" d="M198.614 389.344h130.429a2.725 2.725 0 0 0 2.717-2.717 2.726 2.726 0 0 0-2.717-2.717H198.614a2.726 2.726 0 0 0-2.717 2.717 2.725 2.725 0 0 0 2.717 2.717z" class="cls-4" transform="translate(-195.897 -338.169)"/>
                    </g>
                    <path id="Path_2175" fill="#cbcccd" d="M258.736 350.127h45.892v11.759c-7.593-2.634-21.248-5.119-45.752-5.119-25.357 0-38.854 2.662-46.031 5.394v-12.034z" transform="translate(-106.922 -134.584)"/>
                    <path id="Path_2176" d="M310.351 381.358H209.493a28.107 28.107 0 0 0 3.986-11.238h92.884a28.13 28.13 0 0 0 3.988 11.238z" class="cls-4" transform="translate(-108.108 -127.507)"/>
                </g>
                <g id="Group_2914" transform="translate(176.554 120.155)">
                    <path id="Rectangle_897" fill="#0d72b9" d="M0 0H143.891V199.529H0z"/>
                    <path id="Rectangle_898" d="M0 0H143.891V10.532H0z" class="cls-9"/>
                    <path id="Path_2177" d="M164.176 170.327h38a3.212 3.212 0 0 0 3.2-3.2 3.211 3.211 0 0 0-3.2-3.2h-38a3.211 3.211 0 0 0-3.2 3.2 3.212 3.212 0 0 0 3.2 3.2z" class="cls-10" transform="translate(-69.244 -161.859)"/>
                    <g id="Group_2912" transform="translate(21.572 1.156)">
                        <path id="Path_2178" d="M243.8 163.253l3.742 4.477h-1.062v3.742h-5.36v-3.742h-1.062z" class="cls-10" transform="translate(-240.057 -163.253)"/>
                        <g id="Group_2911" transform="translate(2.52 4.961)">
                            <path id="Rectangle_899" d="M0 0H1.074V1.075H0z" class="cls-9" transform="translate(1.368)"/>
                            <path id="Rectangle_900" d="M0 0H1.075V1.075H0z" class="cls-9"/>
                            <path id="Rectangle_901" d="M0 0H1.074V1.074H0z" class="cls-9" transform="translate(1.368 1.358)"/>
                            <path id="Rectangle_902" d="M0 0H1.075V1.074H0z" class="cls-9" transform="translate(0 1.358)"/>
                        </g>
                    </g>
                    <path id="Path_2179" d="M164.1 167.893a1.987 1.987 0 1 1 2.969-.647c.009.007.022.008.031.016l.19.146a.338.338 0 0 1 .087.1.638.638 0 0 1 .631.084l1.151.89a.64.64 0 0 1-.783 1.013l-1.151-.89a.638.638 0 0 1-.24-.589.375.375 0 0 1-.119-.058l-.19-.148c-.011-.007-.015-.018-.023-.026a1.986 1.986 0 0 1-2.553.109zm2.409-.651a1.508 1.508 0 1 0-2.115.272 1.508 1.508 0 0 0 2.114-.272z" class="cls-9" transform="translate(-36.459 -161.714)"/>
                    <text id="Search.." fill="#faec22" font-family="MyriadPro-Regular, Myriad Pro" font-size="5px" transform="matrix(-1 0 0 1 125.352 7.078)">
                        <tspan x="0" y="0">Search..</tspan>
                    </text>
                    <g id="Group_2913" transform="translate(11.1 1.659)">
                        <path id="Path_2180" d="M248.432 164.826h6.227a.6.6 0 0 0 .6-.6.6.6 0 0 0-.6-.6h-6.227a.6.6 0 0 0-.6.6.6.6 0 0 0 .6.6z" class="cls-10" transform="translate(-247.831 -163.624)"/>
                        <path id="Path_2181" d="M248.432 166.306h6.227a.6.6 0 0 0 .6-.6.6.6 0 0 0-.6-.6h-6.227a.6.6 0 0 0-.6.6.6.6 0 0 0 .6.6z" class="cls-10" transform="translate(-247.831 -163.1)"/>
                        <path id="Path_2182" d="M248.432 167.786h6.227a.6.6 0 0 0 .6-.6.6.6 0 0 0-.6-.6h-6.227a.6.6 0 0 0-.6.6.6.6 0 0 0 .6.6z" class="cls-10" transform="translate(-247.831 -162.576)"/>
                        <path id="Path_2183" d="M248.432 169.266h6.227a.6.6 0 0 0 .6-.6.6.6 0 0 0-.6-.6h-6.227a.6.6 0 0 0-.6.6.6.6 0 0 0 .6.6z" class="cls-10" transform="translate(-247.831 -162.052)"/>
                    </g>
                    <rect id="Rectangle_903" width="129.153" height="29.317" class="cls-12" rx="9.792" transform="translate(7.369 18.359)"/>
                    <rect id="Rectangle_904" width="64.576" height="57.781" class="cls-12" rx="12" transform="translate(71.946 57.069)"/>
                    <path id="Path_2184" d="M220.817 212.5h45.17a3.988 3.988 0 0 0 3.975-3.977 3.987 3.987 0 0 0-3.975-3.975h-45.17a3.988 3.988 0 0 0-3.977 3.975 3.989 3.989 0 0 0 3.977 3.977z" class="cls-13" transform="translate(-209.471 -147.479)"/>
                    <path id="Path_2185" d="M220.817 221.7h45.17a3.987 3.987 0 0 0 3.975-3.975 3.988 3.988 0 0 0-3.975-3.977h-45.17a3.989 3.989 0 0 0-3.977 3.977 3.988 3.988 0 0 0 3.977 3.975z" class="cls-13" transform="translate(-209.471 -144.222)"/>
                    <path id="Path_2186" d="M220.817 230.9h45.17a3.988 3.988 0 0 0 3.975-3.977 3.987 3.987 0 0 0-3.975-3.975h-45.17a3.988 3.988 0 0 0-3.977 3.975 3.989 3.989 0 0 0 3.977 3.977z" class="cls-13" transform="translate(-209.471 -140.965)"/>
                    <path id="Path_2187" d="M220.817 240.1h45.17a3.987 3.987 0 0 0 3.975-3.975 3.988 3.988 0 0 0-3.975-3.977h-45.17a3.989 3.989 0 0 0-3.977 3.977 3.988 3.988 0 0 0 3.977 3.975z" class="cls-13" transform="translate(-209.471 -137.708)"/>
                    <path id="Path_2188" d="M220.817 249.3h45.17a3.988 3.988 0 0 0 3.975-3.977 3.987 3.987 0 0 0-3.975-3.975h-45.17a3.988 3.988 0 0 0-3.977 3.975 3.989 3.989 0 0 0 3.977 3.977z" class="cls-13" transform="translate(-209.471 -134.451)"/>
                    <rect id="Rectangle_905" width="129.153" height="15.939" class="cls-12" rx="5.886" transform="translate(7.369 123.674)"/>
                    <rect id="Rectangle_906" width="93.898" height="29.491" class="cls-13" rx="8.353" transform="translate(42.624 159.253)"/>
                    <path id="Path_2189" d="M174.239 275.7h87.747a2.815 2.815 0 0 0 2.807-2.807 2.815 2.815 0 0 0-2.807-2.807h-87.747a2.815 2.815 0 0 0-2.807 2.807 2.815 2.815 0 0 0 2.807 2.807z" class="cls-13" transform="translate(-142.821 -124.28)"/>
                    <rect id="Rectangle_907" width="29.491" height="29.491" class="cls-12" rx="9.057" transform="translate(6.826 159.253)"/>
                </g>
                <path id="Path_2190" d="M408.62 344.474s-85.156-21.5-88.108-98.066 75.1-92.446 75.1-92.446l-11.893-25.5s-95.783 32.089-87.1 117.943 112.001 98.069 112.001 98.069z" class="cls-14" transform="translate(-278.84 -54.256)"/>
                <g id="Group_2917" transform="translate(288.57 89.936)">
                    <g id="Group_2916" transform="translate(0 15.562)">
                        <g id="Group_2915" transform="translate(0 80.306)">
                            <path id="Path_2191" d="M162.426 210.885l17.855 5.39 17.855 5.39-39.113 123.1h-34.9z" class="cls-15" transform="translate(-124.122 -210.885)"/>
                            <path id="Path_2192" d="M169.034 219.2L129.92 342.3h-5.8l40.38-124.464z" class="cls-16" transform="translate(-95.019 -208.425)"/>
                            <path id="Path_2193" d="M180.541 210.885l11.182 3.375-38.42 130.5h-11.066z" class="cls-16" transform="translate(-142.237 -210.885)"/>
                            <path id="Path_2194" fill="#fdc13a" d="M178.69 217.863L138 343.355h-8.023l38.783-128.489z" transform="translate(-112.601 -209.476)"/>
                            <path id="Path_2195" d="M169.668 221.665l-35.71-10.779-9.836 34.378 34.718 10.48z" class="cls-14" transform="translate(-95.654 -210.885)"/>
                            <path id="Path_2196" d="M129.975 249.094l10.332-34.228 9.93 3-11.031 34.018z" class="cls-18" transform="translate(-84.148 -209.476)"/>
                            <path id="Path_2197" d="M124.122 251.852l11.035-34.016 4.533 1.368-10.828 34.079z" class="cls-19" transform="translate(-65.676 -208.425)"/>
                            <path id="Path_2198" d="M142.237 245.264l9.836-34.378 11.182 3.375-10.1 34.3z" class="cls-19" transform="translate(-113.769 -210.885)"/>
                        </g>
                        <path id="Path_2199" fill="#ffd864" d="M148.493 242.659s19.771-4.991 25.055-26.53-22.131-51.732-12.172-64.555c0 0-34.74 10.213-49.858 36.09s1.265 44.216 1.265 44.216z" transform="translate(-74.479 -151.574)"/>
                        <path id="Path_2200" d="M106.784 176.6c16.808-17.768 41.479-25.023 41.479-25.023-7.233 9.314 5.243 27.789 10.592 45.459-1.21 1.919-3.1 2.81-5.979-.232-6.464-6.823-23.371 20.95-24.909 5.875s-.632-22.108-7.559-19.328-.653-9.938-6.464-6.823a7.57 7.57 0 0 1-7.16.072z" class="cls-21" transform="translate(-61.366 -151.574)"/>
                        <ellipse id="Ellipse_162" cx="4.663" cy="12.24" fill="#ffe882" rx="4.663" ry="12.24" transform="rotate(-144.49 54.23 29.805)"/>
                        <path id="Path_2201" d="M115.883 174.988c1.732 5.018 4.272 8.693 5.675 8.209s1.135-4.943-.6-9.961-4.272-8.693-5.673-8.209-1.134 4.944.598 9.961z" class="cls-23" transform="translate(-35.261 -146.827)"/>
                    </g>
                    <path id="Path_2202" d="M76.287 169.426s3.335-23.458 21.779-28.354 26.453 9.5 22.273 17.622c-3.853 7.492-11.33 8.043-23.565 5.859s-18.385-.211-20.487 4.873z" class="cls-21" transform="translate(17.358 -140.08)"/>
                    <path id="Path_2203" d="M86.645 166.076s19.013-7.547 24.9 3.4-4.138 10.04.448 20.349-9.921 15.244-13.54 4.606-2.077-21.953-11.808-28.355z" class="cls-21" transform="translate(11.307 -131.776)"/>
                    <path id="Path_2204" d="M82.289 144.23c-.146 1.4 2.921 2.87 6.848 3.279s7.23-.4 7.376-1.8-2.921-2.872-6.848-3.279-7.231.397-7.376 1.8z" class="cls-23" transform="translate(34.142 -139.286)"/>
                    <path id="Path_2205" d="M89.45 166.606c-1.1.471-1.034 3.059.135 5.78s3.007 4.547 4.1 4.075 1.034-3.06-.137-5.782-3.003-4.544-4.098-4.073z" class="cls-23" transform="translate(27.548 -130.717)"/>
                    <path id="Path_2206" d="M90.552 181.675c-.883.2-1.194 2.122-.695 4.283s1.621 3.748 2.5 3.543 1.194-2.122.695-4.283-1.617-3.747-2.5-3.543z" class="cls-23" transform="translate(27.438 -125.363)"/>
                </g>
                <g id="Group_2984" transform="translate(0 277.584)">
                    <g id="Group_2918" transform="translate(0 3.065)">
                        <path id="Rectangle_908" fill="#de9b31" d="M0 0H185.179V38.925H0z"/>
                    </g>
                    <g id="Group_2919">
                        <path id="Rectangle_909" fill="#e2be30" d="M0 0H185.179V38.925H0z"/>
                    </g>
                    <g id="Group_2920" transform="translate(182.229)">
                        <path id="Rectangle_910" d="M0 0H1.022V6.895H0z" class="cls-5"/>
                    </g>
                    <g id="Group_2921" transform="translate(179.292)">
                        <path id="Rectangle_911" d="M0 0H1.022V4.725H0z" class="cls-5"/>
                    </g>
                    <g id="Group_2922" transform="translate(176.483)">
                        <path id="Rectangle_912" d="M0 0H1.021V6.895H0z" class="cls-5"/>
                    </g>
                    <g id="Group_2923" transform="translate(173.546)">
                        <path id="Rectangle_913" d="M0 0H1.021V4.725H0z" class="cls-5"/>
                    </g>
                    <g id="Group_2924" transform="translate(170.737)">
                        <path id="Rectangle_914" d="M0 0H1.022V6.895H0z" class="cls-5"/>
                    </g>
                    <g id="Group_2925" transform="translate(167.8)">
                        <path id="Rectangle_915" d="M0 0H1.022V4.725H0z" class="cls-5"/>
                    </g>
                    <g id="Group_2926" transform="translate(164.991)">
                        <path id="Rectangle_916" d="M0 0H1.022V6.895H0z" class="cls-5"/>
                    </g>
                    <g id="Group_2927" transform="translate(162.054)">
                        <path id="Rectangle_917" d="M0 0H1.022V4.725H0z" class="cls-5"/>
                    </g>
                    <g id="Group_2928" transform="translate(159.245)">
                        <path id="Rectangle_918" d="M0 0H1.022V6.895H0z" class="cls-5"/>
                    </g>
                    <g id="Group_2929" transform="translate(156.308)">
                        <path id="Rectangle_919" d="M0 0H1.021V4.725H0z" class="cls-5"/>
                    </g>
                    <g id="Group_2930" transform="translate(153.499)">
                        <path id="Rectangle_920" d="M0 0H1.021V6.895H0z" class="cls-5"/>
                    </g>
                    <g id="Group_2931" transform="translate(150.562)">
                        <path id="Rectangle_921" d="M0 0H1.021V4.725H0z" class="cls-5"/>
                    </g>
                    <g id="Group_2932" transform="translate(147.752)">
                        <path id="Rectangle_922" d="M0 0H1.022V6.895H0z" class="cls-5"/>
                    </g>
                    <g id="Group_2933" transform="translate(144.815)">
                        <path id="Rectangle_923" d="M0 0H1.022V4.725H0z" class="cls-5"/>
                    </g>
                    <g id="Group_2934" transform="translate(142.006)">
                        <path id="Rectangle_924" d="M0 0H1.022V6.895H0z" class="cls-5"/>
                    </g>
                    <g id="Group_2935" transform="translate(139.069)">
                        <path id="Rectangle_925" d="M0 0H1.022V4.725H0z" class="cls-5"/>
                    </g>
                    <g id="Group_2936" transform="translate(136.26)">
                        <path id="Rectangle_926" d="M0 0H1.021V6.895H0z" class="cls-5"/>
                    </g>
                    <g id="Group_2937" transform="translate(133.323)">
                        <path id="Rectangle_927" d="M0 0H1.021V4.725H0z" class="cls-5"/>
                    </g>
                    <g id="Group_2938" transform="translate(130.514)">
                        <path id="Rectangle_928" d="M0 0H1.021V6.895H0z" class="cls-5"/>
                    </g>
                    <g id="Group_2939" transform="translate(127.577)">
                        <path id="Rectangle_929" d="M0 0H1.022V4.725H0z" class="cls-5"/>
                    </g>
                    <g id="Group_2940" transform="translate(124.768)">
                        <path id="Rectangle_930" d="M0 0H1.022V6.895H0z" class="cls-5"/>
                    </g>
                    <g id="Group_2941" transform="translate(121.831)">
                        <path id="Rectangle_931" d="M0 0H1.022V4.725H0z" class="cls-5"/>
                    </g>
                    <g id="Group_2942" transform="translate(119.022)">
                        <path id="Rectangle_932" d="M0 0H1.022V6.895H0z" class="cls-5"/>
                    </g>
                    <g id="Group_2943" transform="translate(116.085)">
                        <path id="Rectangle_933" d="M0 0H1.022V4.725H0z" class="cls-5"/>
                    </g>
                    <g id="Group_2944" transform="translate(113.276)">
                        <path id="Rectangle_934" d="M0 0H1.021V6.895H0z" class="cls-5"/>
                    </g>
                    <g id="Group_2945" transform="translate(110.339)">
                        <path id="Rectangle_935" d="M0 0H1.021V4.725H0z" class="cls-5"/>
                    </g>
                    <g id="Group_2946" transform="translate(107.53)">
                        <path id="Rectangle_936" d="M0 0H1.022V6.895H0z" class="cls-5"/>
                    </g>
                    <g id="Group_2947" transform="translate(104.593)">
                        <path id="Rectangle_937" d="M0 0H1.022V4.725H0z" class="cls-5"/>
                    </g>
                    <g id="Group_2948" transform="translate(101.783)">
                        <path id="Rectangle_938" d="M0 0H1.022V6.895H0z" class="cls-5"/>
                    </g>
                    <g id="Group_2949" transform="translate(98.846)">
                        <path id="Rectangle_939" d="M0 0H1.022V4.725H0z" class="cls-5"/>
                    </g>
                    <g id="Group_2950" transform="translate(96.037)">
                        <path id="Rectangle_940" d="M0 0H1.022V6.895H0z" class="cls-5"/>
                    </g>
                    <g id="Group_2951" transform="translate(93.1)">
                        <path id="Rectangle_941" d="M0 0H1.021V4.725H0z" class="cls-5"/>
                    </g>
                    <g id="Group_2952" transform="translate(90.291)">
                        <path id="Rectangle_942" d="M0 0H1.021V6.895H0z" class="cls-5"/>
                    </g>
                    <g id="Group_2953" transform="translate(87.354)">
                        <path id="Rectangle_943" d="M0 0H1.022V4.725H0z" class="cls-5"/>
                    </g>
                    <g id="Group_2954" transform="translate(84.545)">
                        <path id="Rectangle_944" d="M0 0H1.022V6.895H0z" class="cls-5"/>
                    </g>
                    <g id="Group_2955" transform="translate(81.608)">
                        <path id="Rectangle_945" d="M0 0H1.022V4.725H0z" class="cls-5"/>
                    </g>
                    <g id="Group_2956" transform="translate(78.799)">
                        <path id="Rectangle_946" d="M0 0H1.022V6.895H0z" class="cls-5"/>
                    </g>
                    <g id="Group_2957" transform="translate(75.862)">
                        <path id="Rectangle_947" d="M0 0H1.022V4.725H0z" class="cls-5"/>
                    </g>
                    <g id="Group_2958" transform="translate(73.053)">
                        <path id="Rectangle_948" d="M0 0H1.021V6.895H0z" class="cls-5"/>
                    </g>
                    <g id="Group_2959" transform="translate(70.116)">
                        <path id="Rectangle_949" d="M0 0H1.021V4.725H0z" class="cls-5"/>
                    </g>
                    <g id="Group_2960" transform="translate(67.307)">
                        <path id="Rectangle_950" d="M0 0H1.022V6.895H0z" class="cls-5"/>
                    </g>
                    <g id="Group_2961" transform="translate(64.37)">
                        <path id="Rectangle_951" d="M0 0H1.022V4.725H0z" class="cls-5"/>
                    </g>
                    <g id="Group_2962" transform="translate(61.561)">
                        <path id="Rectangle_952" d="M0 0H1.022V6.895H0z" class="cls-5"/>
                    </g>
                    <g id="Group_2963" transform="translate(58.624)">
                        <path id="Rectangle_953" d="M0 0H1.022V4.725H0z" class="cls-5"/>
                    </g>
                    <g id="Group_2964" transform="translate(55.814)">
                        <path id="Rectangle_954" d="M0 0H1.022V6.895H0z" class="cls-5"/>
                    </g>
                    <g id="Group_2965" transform="translate(52.878)">
                        <path id="Rectangle_955" d="M0 0H1.021V4.725H0z" class="cls-5"/>
                    </g>
                    <g id="Group_2966" transform="translate(50.068)">
                        <path id="Rectangle_956" d="M0 0H1.021V6.895H0z" class="cls-5"/>
                    </g>
                    <g id="Group_2967" transform="translate(47.131)">
                        <path id="Rectangle_957" d="M0 0H1.021V4.725H0z" class="cls-5"/>
                    </g>
                    <g id="Group_2968" transform="translate(44.322)">
                        <path id="Rectangle_958" d="M0 0H1.022V6.895H0z" class="cls-5"/>
                    </g>
                    <g id="Group_2969" transform="translate(41.385)">
                        <path id="Rectangle_959" d="M0 0H1.022V4.725H0z" class="cls-5"/>
                    </g>
                    <g id="Group_2970" transform="translate(38.576)">
                        <path id="Rectangle_960" d="M0 0H1.022V6.895H0z" class="cls-5"/>
                    </g>
                    <g id="Group_2971" transform="translate(35.639)">
                        <path id="Rectangle_961" d="M0 0H1.022V4.725H0z" class="cls-5"/>
                    </g>
                    <g id="Group_2972" transform="translate(32.83)">
                        <path id="Rectangle_962" d="M0 0H1.021V6.895H0z" class="cls-5"/>
                    </g>
                    <g id="Group_2973" transform="translate(29.893)">
                        <path id="Rectangle_963" d="M0 0H1.021V4.725H0z" class="cls-5"/>
                    </g>
                    <g id="Group_2974" transform="translate(27.084)">
                        <path id="Rectangle_964" d="M0 0H1.021V6.895H0z" class="cls-5"/>
                    </g>
                    <g id="Group_2975" transform="translate(24.147)">
                        <path id="Rectangle_965" d="M0 0H1.022V4.725H0z" class="cls-5"/>
                    </g>
                    <g id="Group_2976" transform="translate(21.338)">
                        <path id="Rectangle_966" d="M0 0H1.022V6.895H0z" class="cls-5"/>
                    </g>
                    <g id="Group_2977" transform="translate(18.401)">
                        <path id="Rectangle_967" d="M0 0H1.022V4.725H0z" class="cls-5"/>
                    </g>
                    <g id="Group_2978" transform="translate(15.591)">
                        <path id="Rectangle_968" d="M0 0H1.022V6.895H0z" class="cls-5"/>
                    </g>
                    <g id="Group_2979" transform="translate(12.655)">
                        <path id="Rectangle_969" d="M0 0H1.022V4.725H0z" class="cls-5"/>
                    </g>
                    <g id="Group_2980" transform="translate(9.845)">
                        <path id="Rectangle_970" d="M0 0H1.021V6.895H0z" class="cls-5"/>
                    </g>
                    <g id="Group_2981" transform="translate(6.909)">
                        <path id="Rectangle_971" d="M0 0H1.021V4.725H0z" class="cls-5"/>
                    </g>
                    <g id="Group_2982" transform="translate(4.099)">
                        <path id="Rectangle_972" d="M0 0H1.022V6.895H0z" class="cls-5"/>
                    </g>
                    <g id="Group_2983" transform="translate(1.162)">
                        <path id="Rectangle_973" d="M0 0H1.022V4.725H0z" class="cls-5"/>
                    </g>
                </g>
                <g id="Group_2985" transform="translate(291.799 236.761)">
                    <path id="Path_2207" fill="#ffd962" d="M121.618 288.134s23.8-36.67 21.493-39.345-42.07 15.5-42.07 15.5l-13.31 11.483 20.576 23.848z" transform="translate(-23.211 -248.519)"/>
                    <path id="Path_2208" d="M91.128 262.668a12.843 12.843 0 0 1-3.4-8.12c9.41-3.8 18.42-6.992 19.482-5.76s-3.413 9.677-8.552 18.428a12.838 12.838 0 0 1-7.53-4.548z" class="cls-27" transform="translate(12.687 -248.52)"/>
                    <path id="Path_2209" fill="#4d4e4e" d="M95.276 271.94a18.638 18.638 0 0 0-5.164 3.546l-2.265-4.979 7.21-6.22s39.761-18.173 42.07-15.5c-1.727-.366-38.764 21.754-41.851 23.153z" transform="translate(-17.226 -248.52)" style="mix-blend-mode:multiply;isolation:isolate" opacity="0.16"/>
                    <path id="Path_2210" fill="#fff" d="M96.5 290.412s29.027-40.308 27.831-41.694c0 0-29.677 31.9-34.95 36.312s4.287 9.37 7.119 5.382z" opacity="0.18" transform="translate(-4.43 -248.449)"/>
                    <path id="Path_2211" d="M177.405 266.036c-4.1 3.538-.781 7.607-.781 7.607s3.539 3.881 7.639.341l-59.4 51.258h-16.076z" class="cls-15" transform="translate(-92.715 -242.319)"/>
                    <path id="Path_2212" d="M162.346 279.514s3.538 3.879 7.639.341l-50.192 43.308h-16.072l59.4-51.258c-4.095 3.54-.775 7.609-.775 7.609z" class="cls-30" transform="translate(-71.577 -240.241)"/>
                    <path id="Path_2213" fill="#f48137" d="M191.683 260.165c-4.1 3.538-.781 7.607-.781 7.607s3.539 3.88 7.641.343l-68.619 59.205h-16.072z" transform="translate(-113.852 -244.397)"/>
                </g>
                <g id="Group_2990" transform="translate(37.576 150.332)">
                    <g id="Group_2986" transform="translate(0 26.448)">
                        <path id="Rectangle_974" d="M0 0H41.871V135.349H0z" class="cls-5" transform="rotate(127.248 46.23 73.959)"/>
                        <path id="Rectangle_975" fill="#f9b08b" d="M0 0H41.871V23.251H0z" transform="rotate(127.248 19.233 19.516)"/>
                        <path id="Rectangle_976" fill="#f6976c" d="M0 0H41.871V23.251H0z" transform="rotate(127.23 25.844 32.849)"/>
                        <path id="Rectangle_977" fill="#f37c48" d="M0 0H41.871V23.251H0z" transform="rotate(127.248 32.45 46.17)"/>
                        <path id="Rectangle_978" fill="#f05a26" d="M0 0H41.871V23.251H0z" transform="rotate(127.23 39.061 59.508)"/>
                    </g>
                    <path id="Path_2214" d="M265.869 208.233l33.3 25.319 1.839 1.4 12.683 9.644 8.534 6.489 44.24 33.639-25.343 33.33-4.906-3.731z" class="cls-36" transform="translate(-233.379 -176.351)"/>
                    <g id="Group_2987" transform="translate(33.148 5.629)">
                        <path id="Rectangle_979" d="M0 0H41.871V135.349H0z" class="cls-5" transform="rotate(146.453 37.846 72.934)"/>
                        <path id="Rectangle_980" fill="#a4dad7" d="M0 0H41.871V23.251H0z" transform="rotate(146.453 21.437 18.492)"/>
                        <path id="Rectangle_981" fill="#79cbc8" d="M0 0H41.871V23.251H0z" transform="rotate(146.453 25.454 31.819)"/>
                        <path id="Rectangle_982" fill="#4fc1bc" d="M0 0H41.871V23.251H0z" transform="rotate(146.454 29.47 45.146)"/>
                        <path id="Rectangle_983" fill="#00b6af" d="M0 0H41.871V23.251H0z" transform="rotate(146.453 33.487 58.473)"/>
                    </g>
                    <path id="Path_2215" d="M258.663 193.1l5.229-1.61 3.092 4.663 11.041 16.647 2.533 3.821 30.15 45.471 9.625 14.515 15.983 24.105-34.9 23.139-4.691-7.075z" class="cls-36" transform="translate(-193.474 -182.28)"/>
                    <g id="Group_2988" transform="translate(68.023)">
                        <path id="Rectangle_984" d="M0 0H41.871V135.349H0z" class="cls-5" transform="rotate(162.94 30.191 70.673)"/>
                        <path id="Rectangle_985" fill="#fbcec4" d="M0 0H41.871V23.251H0z" transform="rotate(162.893 22 16.242)"/>
                        <path id="Rectangle_986" fill="#f7adb3" d="M0 0H41.871V23.251H0z" transform="rotate(162.94 24.004 29.564)"/>
                        <path id="Rectangle_987" fill="#f38493" d="M0 0H41.871V23.251H0z" transform="rotate(162.893 26.008 42.896)"/>
                        <path id="Rectangle_988" fill="#f06686" d="M0 0H41.871V23.251H0z" transform="rotate(162.893 28.013 56.223)"/>
                    </g>
                    <path id="Path_2216" d="M259.4 273.51l-1.3-24.41-1.675-31.555-1.3-24.41-.179-3.374 11.481-.609 5.924 19.248 1 3.252 6.839 22.222 1 3.252 4.873 15.832 18.315 59.508-40.019 12.317-2.717-8.829z" class="cls-36" transform="translate(-156.538 -183.106)"/>
                    <g id="Group_2989" transform="translate(100.568 4.323)">
                        <path id="Rectangle_989" d="M0 0H41.871V135.349H0z" class="cls-5" transform="scale(-1) rotate(-3.04 -2572.862 856.044)"/>
                        <path id="Rectangle_990" fill="#f4f2b1" d="M0 0H41.871V23.251H0z" transform="scale(-1) rotate(-3.04 -519.89 801.596)"/>
                        <path id="Rectangle_991" fill="#f6ef80" d="M0 0H41.871V23.251H0z" transform="scale(-1) rotate(-3.04 -1022.432 814.935)"/>
                        <path id="Rectangle_992" fill="#f5ec56" d="M0 0H41.871V23.251H0z" transform="rotate(176.962 21.964 40.44)"/>
                        <path id="Rectangle_993" fill="#f6eb0f" d="M0 0H41.871V23.251H0z" transform="scale(-1) rotate(-3.04 -2027.535 841.594)"/>
                    </g>
                </g>
                <g id="Group_2992" transform="translate(99.373 227.342)">
                    <path id="Path_2217" d="M280.55 333.256a9.279 9.279 0 0 0 12.765-2.868L304.45 312.8a9.278 9.278 0 0 0-2.866-12.765 9.279 9.279 0 0 0-12.765 2.868l-11.135 17.587a9.278 9.278 0 0 0 2.866 12.766z" class="cls-27" transform="translate(-248.653 -221.37)"/>
                    <path id="Path_2218" fill="#3f3f3f" d="M304.449 312.754l-1.066 1.684c-1.522-.043-3.939-.575-7.3-2.7-6.23-3.944-7.642-.9-9.5 2.028l-9.615 15.185a9.252 9.252 0 0 1 .707-8.507l11.135-17.587a9.217 9.217 0 0 1 6.052-4.112l10.994 8.7a9.173 9.173 0 0 1-1.407 5.309z" transform="translate(-248.652 -221.322)"/>
                    <g id="Group_2991" transform="translate(19.505)">
                        <circle id="Ellipse_163" cx="42.751" cy="42.751" r="42.751" class="cls-27" transform="rotate(-102.454 50.156 43.559)"/>
                        <circle id="Ellipse_164" cx="34.934" cy="34.934" r="34.934" fill="#6fcbdc" transform="rotate(-135 46.27 39.63)"/>
                        <path id="Path_2219" d="M289.7 301.238c2.8-.956 3.166-7.278.827-14.122s-6.5-11.617-9.3-10.661-3.164 7.276-.826 14.121 6.499 11.617 9.299 10.662z" class="cls-4" transform="translate(-257.873 -229.255)"/>
                        <path id="Path_2220" fill="#63b4c3" d="M278.25 273.591c-15.1-21.669-37.557-17.385-37.58-17.381a34.932 34.932 0 1 1 23.165 65.756c10.265-4.059 29.519-26.695 14.415-48.375z" transform="translate(-203.422 -237.371)"/>
                    </g>
                    <path id="Rectangle_994" fill="gray" d="M12 0h8.669a12 12 0 0 1 12 12v29.059a12 12 0 0 1-12 12H12a12 12 0 0 1-12-12V12A12 12 0 0 1 12 0z" transform="rotate(-147.67 35.43 70.595)"/>
                    <path id="Path_2221" fill="#6f7070" d="M301.546 361.443l-10.015-6.343a10.437 10.437 0 0 1-3.225-14.36l17.247-27.24a10.441 10.441 0 0 1 14.362-3.225l5.9 3.74c-5.251-3.325-11.269-1.481-15.6 5.358L296.841 340.5c-2.861 4.518-2.439 10.431 6.354 16s13.716.13 13.716.13l-1 1.588a10.437 10.437 0 0 1-14.365 3.225z" transform="translate(-282.736 -217.809)"/>
                    <path id="Path_2222" fill="#898989" d="M285.77 346.321a2.537 2.537 0 0 0 3.491-.784l11.908-18.808a2.537 2.537 0 0 0-.784-3.491 2.537 2.537 0 0 0-3.491.784l-11.908 18.808a2.537 2.537 0 0 0 .784 3.491z" transform="translate(-255.627 -212.79)"/>
                </g>
                <g id="Group_2996" transform="translate(25.597 106.079)">
                    <g id="Group_2993">
                        <path id="Path_2223" d="M357.628 152c23.076 0 35.382 20.028 31.537 40.8s-14.615 28.189-15.384 39.316c0 0 0 5.935-3.845 5.935h-24.614c-3.845 0-3.845-5.935-3.845-5.935-.769-11.127-11.539-18.545-15.384-39.316s8.461-40.8 31.535-40.8z" class="cls-15" transform="translate(-325.397 -152.003)"/>
                        <path id="Path_2224" fill="#ffd339" d="M334.075 168.868c3.554 5.165 7.993 8.278 9.915 6.955s.6-6.582-2.953-11.746-7.993-8.278-9.915-6.955-.601 6.578 2.953 11.746z" transform="translate(-286.964 -150.298)"/>
                        <path id="Path_2225" d="M342.187 205.332c6.147 9.988 9.988 14.6 9.988 18.44s4.61 3.841 12.293 3.841 10.756-.769 13.062-6.915 10.423-14.122 10.464-14.161c-4.136 8.131-8.468 13.612-8.946 20.52 0 0 0 5.935-3.845 5.935h-24.614c-3.845 0-3.845-5.935-3.845-5.935-.769-11.127-11.539-18.545-15.384-39.316a38.41 38.41 0 0 1 1.966-21.439c-4.976 17.357 2.722 29.052 8.861 39.03z" class="cls-30" transform="translate(-330.664 -146.941)"/>
                    </g>
                    <g id="Group_2994" transform="translate(14.06 86.05)">
                        <path id="Path_2226" d="M339.313 221.064H369.1a2.762 2.762 0 0 0 2.754-2.754 2.762 2.762 0 0 0-2.754-2.754h-29.787a2.762 2.762 0 0 0-2.754 2.754 2.762 2.762 0 0 0 2.754 2.754z" class="cls-14" transform="translate(-336.559 -215.556)"/>
                        <path id="Path_2227" d="M336.559 218.31a2.762 2.762 0 0 1 2.754-2.754c-1.6 1.2-1.082 4.465 4.585 4.465h24.381a4.01 4.01 0 0 0 3.54-2.021 2.856 2.856 0 0 1 .031.306 2.762 2.762 0 0 1-2.754 2.754h-29.783a2.762 2.762 0 0 1-2.754-2.75z" class="cls-56" transform="translate(-336.559 -215.556)"/>
                        <path id="Path_2228" d="M338.225 217.624h26.767a.6.6 0 0 0 .6-.6.6.6 0 0 0-.6-.6h-26.767a.6.6 0 0 0-.6.6.6.6 0 0 0 .6.6z" class="cls-18" transform="translate(-331.744 -215.246)"/>
                    </g>
                    <g id="Group_2995" transform="translate(14.06 91.558)">
                        <path id="Path_2229" d="M339.313 225.133H369.1a2.762 2.762 0 0 0 2.754-2.754 2.764 2.764 0 0 0-2.754-2.755h-29.787a2.763 2.763 0 0 0-2.754 2.755 2.762 2.762 0 0 0 2.754 2.754z" class="cls-14" transform="translate(-336.559 -219.624)"/>
                        <path id="Path_2230" d="M336.559 222.379a2.763 2.763 0 0 1 2.754-2.755c-1.6 1.2-1.082 4.465 4.585 4.465h24.381a4.01 4.01 0 0 0 3.541-2.016 2.82 2.82 0 0 1 .031.306 2.762 2.762 0 0 1-2.754 2.754h-29.784a2.762 2.762 0 0 1-2.754-2.754z" class="cls-56" transform="translate(-336.559 -219.624)"/>
                        <path id="Path_2231" d="M338.225 221.692h26.767a.6.6 0 0 0 .6-.6.6.6 0 0 0-.6-.6h-26.767a.6.6 0 0 0-.6.6.6.6 0 0 0 .6.6z" class="cls-18" transform="translate(-331.744 -219.314)"/>
                    </g>
                    <path id="Path_2232" fill="#333" d="M338.6 223.693h29.784s1.206 13.081-14.893 13.081-14.891-13.081-14.891-13.081z" transform="translate(-321.785 -126.626)"/>
                    <path id="Path_2233" fill="#292929" d="M338.6 223.693h29.784a8.484 8.484 0 0 1 .016.879c-3.009.11-14.809.575-18.181 1.267-3.878.795-2.685 4.872 3.273 7.05a17.823 17.823 0 0 0 11.531 0c-2.172 2.179-5.721 3.885-11.531 3.885-16.099 0-14.892-13.081-14.892-13.081z" transform="translate(-321.785 -126.626)"/>
                </g>
                <g id="Group_2997" transform="translate(103.379)">
                    <rect id="Rectangle_995" width="111.347" height="79.68" class="cls-15" rx="7.333" transform="rotate(155.058 59.292 51.004)"/>
                    <path id="Path_2234" fill="#f79739" d="M315.323 134.736l-87.378 40.637a7.493 7.493 0 0 1-9.952-3.634s32.328-56.456 34.643-57.533 66.319 10.579 66.319 10.579a7.491 7.491 0 0 1-3.632 9.951z" transform="translate(-187.552 -59.328)"/>
                    <path id="Path_2235" fill="#ffcd39" d="M242.994 116.809l87.378-40.636a7.492 7.492 0 0 1 9.952 3.633S308 136.263 305.679 137.339 239.36 126.76 239.36 126.76a7.492 7.492 0 0 1 3.634-9.951z" transform="translate(-236.202 -73.014)"/>
                </g>
            </g>
        </g>
    </g>
</svg>
