<svg xmlns="http://www.w3.org/2000/svg" width="80" height="80" viewBox="0 0 80 80">
    <defs>
        <style>
            .cls-2{fill:#1976d2}
        </style>
    </defs>
    <g id="Group_3354" transform="translate(-715 -1088)">
        <circle id="Ellipse_132" cx="40" cy="40" r="40" fill="#afd7ff" transform="translate(715 1088)"/>
        <g id="settings" transform="translate(737.237 1110.934)">
            <path id="Path_2451" d="M139.753 16.9a2.927 2.927 0 0 1 3.389.533l1.187-1.187a8.36 8.36 0 0 0 11.021-9.232.762.762 0 0 0-1.29-.417L152.3 8.36a3.675 3.675 0 0 1-5.2-5.2l1.762-1.76a.761.761 0 0 0-.417-1.29 8.358 8.358 0 0 0-9.184 11.151l-2.574 2.574z" class="cls-2" transform="translate(-119.919)"/>
            <path id="Path_2452" d="M15.143 156.964l-3.053-3.053-10.676 10.676a3.555 3.555 0 0 0 5.027 5.027l9.2-9.2a2.927 2.927 0 0 1-.498-3.45z" class="cls-2" transform="translate(0 -135.398)"/>
            <path id="Path_2453" d="M22.182 34.425a1.118 1.118 0 0 0-1.581 0l-.637.637L8.61 23.709l.531-.531a1.119 1.119 0 0 0-.128-1.691l-4.632-3.411a1.118 1.118 0 0 0-1.454.11L.96 20.152a1.118 1.118 0 0 0-.11 1.454l3.411 4.632a1.118 1.118 0 0 0 1.691.128l.531-.531 11.354 11.353-.682.682a1.118 1.118 0 0 0 0 1.581l10.473 10.474a3.555 3.555 0 0 0 5.027-5.025z" class="cls-2" transform="translate(-.229 -15.709)"/>
        </g>
    </g>
</svg>
