<svg xmlns="http://www.w3.org/2000/svg" xmlns:xlink="http://www.w3.org/1999/xlink" width="578.777" height="465.013" viewBox="0 0 578.777 465.013">
    <defs>
        <linearGradient id="linear-gradient" x1=".928" x2=".201" y1="1.388" y2="-.12" gradientUnits="objectBoundingBox">
            <stop offset="0" stop-color="#ff9f55"/>
            <stop offset="1" stop-color="#ffd255"/>
        </linearGradient>
        <linearGradient id="linear-gradient-2" x1=".862" x2=".124" y1="2.939" y2="-1.441" xlink:href="#linear-gradient"/>
        <linearGradient id="linear-gradient-3" x1="2.163" x2="-.547" y1="3.221" y2="-1.214" xlink:href="#linear-gradient"/>
        <linearGradient id="linear-gradient-4" x1=".632" x2=".368" y1="1.123" y2="-.123" xlink:href="#linear-gradient"/>
        <linearGradient id="linear-gradient-5" x1=".577" x2=".195" y1=".968" y2="-.108" xlink:href="#linear-gradient"/>
        <linearGradient id="linear-gradient-6" x1="15.556" x2="19.631" y1="-27.961" y2="-21.965" xlink:href="#linear-gradient"/>
        <linearGradient id="linear-gradient-7" x1="15.79" x2="19.865" y1="-27.197" y2="-21.201" xlink:href="#linear-gradient"/>
        <linearGradient id="linear-gradient-8" x1=".5" x2=".5" y1="-.519" y2=".389" xlink:href="#linear-gradient"/>
        <linearGradient id="linear-gradient-9" x1=".742" x2=".323" y1="1.835" y2="-.479" xlink:href="#linear-gradient"/>
        <linearGradient id="linear-gradient-10" x1=".825" x2=".401" y1="2.998" y2="-.851" xlink:href="#linear-gradient"/>
        <linearGradient id="linear-gradient-11" x1="7.233" x2="-7.89" y1="1.91" y2="-1.257" xlink:href="#linear-gradient"/>
        <linearGradient id="linear-gradient-12" x1=".93" x2=".125" y1="32.279" y2="-27.25" xlink:href="#linear-gradient"/>
        <style>
            .cls-2{fill:#e0e0e0}.cls-16{fill:#252e3b}.cls-18{fill:#eea886}.cls-19{fill:#a77860}.cls-21{fill:#4586e6}.cls-23{fill:#5f8cc9}.cls-24{fill:#c98e72}.cls-25{fill:#de9d7d}.cls-26{fill:#464240}.cls-31{fill:#eddad3}
        </style>
    </defs>
    <g id="Group_3193" transform="translate(-117.893 -2365.706)">
        <g id="Path_2303" fill="#fff" stroke="none" stroke-dasharray="15" stroke-linecap="round">
            <path d="M200.125 0c110.526 0 378.652 20.68 378.652 120.742 0 33.921-30.813 76.965-75.817 119.013C415.1 321.847 273.183 400.25 200.125 400.25 89.6 400.25 0 310.651 0 200.125S89.6 0 200.125 0z" transform="translate(117.893 2430.469)"/>
            <path fill="#1976d2" d="M230.04.444l.071.001c4.843.137 9.847.307 14.993.514 1.38.055 2.453 1.219 2.398 2.598-.054 1.346-1.162 2.4-2.497 2.4-.034 0-.068 0-.102-.002-5.008-.201-10.032-.373-14.933-.512-1.38-.039-2.467-1.19-2.428-2.57.038-1.355 1.15-2.429 2.497-2.429zm29.916 1.199c.043 0 .087.001.13.003l2.182.115h.009l.09.005.037.002.078.004.042.002.06.003.07.004.054.003.072.004h.01l.815.044h.005l.767.042.062.004.064.003.054.003.078.005.029.001.077.004.068.004.028.002.098.005h.012l.107.007h.003l.11.006h.01l.34.02h.006c3.143.174 6.325.362 9.54.564 1.378.086 2.425 1.273 2.339 2.651-.083 1.325-1.183 2.344-2.493 2.344-.052 0-.105-.002-.159-.005-4.955-.31-9.975-.597-14.92-.852-1.38-.071-2.44-1.247-2.369-2.626.069-1.335 1.173-2.371 2.495-2.371zm29.893 1.875c.058 0 .116.002.175.006 4.936.364 9.92.76 14.97 1.191 1.37.123 2.385 1.33 2.268 2.703-.112 1.304-1.204 2.288-2.488 2.288-.072 0-.144-.003-.216-.01-4.916-.42-9.926-.818-14.89-1.185-1.378-.102-2.411-1.3-2.31-2.678.098-1.314 1.194-2.315 2.491-2.315zm29.831 2.548c.079 0 .157.004.237.011 1.039.101 2.07.203 3.112.307l.058.005.15.016.104.01.127.013.105.01.124.013.123.012.092.01c.052.004.103.01.155.015l.069.007.173.017.052.005.178.018.054.006.19.019.033.003.205.021.025.003.214.021.015.002.217.022.013.001c3.102.316 6.216.645 9.34.987 1.372.15 2.362 1.385 2.212 2.758-.14 1.28-1.223 2.228-2.482 2.228-.091 0-.183-.005-.276-.015-4.885-.536-9.884-1.053-14.858-1.536-1.374-.134-2.38-1.356-2.246-2.73.126-1.293 1.214-2.259 2.485-2.259zm29.759 3.266c.102 0 .204.006.308.02 4.95.607 9.912 1.25 14.875 1.93 1.368.186 2.325 1.447 2.138 2.815-.172 1.253-1.244 2.161-2.474 2.161-.113 0-.227-.007-.342-.023-4.851-.664-9.832-1.31-14.807-1.921-1.37-.168-2.344-1.416-2.176-2.786.155-1.267 1.233-2.196 2.478-2.196zm29.65 4.064c.125 0 .252.01.38.029 3.789.576 7.572 1.175 11.345 1.796l.007.001.218.036.02.004.21.034.026.005.191.031.052.009.178.03.055.009.167.027.077.013.146.024.087.015.129.021.128.021.082.014c.563.094 1.14.19 1.702.286 1.357.233 2.27 1.52 2.04 2.88-.205 1.22-1.263 2.084-2.461 2.084-.138 0-.279-.012-.42-.035-4.808-.812-9.765-1.606-14.731-2.362-1.365-.208-2.304-1.483-2.096-2.848.188-1.237 1.254-2.124 2.468-2.124zm29.497 4.986c.153 0 .308.014.463.043 4.942.925 9.852 1.892 14.718 2.903 1.352.28 2.22 1.604 1.94 2.956-.246 1.18-1.286 1.992-2.446 1.992-.168 0-.34-.017-.51-.053-4.753-.987-9.672-1.957-14.622-2.883-1.357-.254-2.251-1.56-1.997-2.918.225-1.201 1.275-2.04 2.454-2.04zm29.268 6.091c.187 0 .376.021.565.065 4.921 1.137 9.783 2.322 14.575 3.557 1.337.345 2.141 1.708 1.797 3.045-.291 1.128-1.306 1.876-2.42 1.876-.206 0-.416-.025-.625-.08-4.672-1.203-9.534-2.39-14.452-3.526-1.345-.31-2.184-1.653-1.873-2.999.267-1.156 1.295-1.938 2.433-1.938zm28.91 7.471c.228 0 .46.032.69.098 4.75 1.372 9.394 2.794 13.954 4.277l.016.005.092.03.014.005.088.029.03.01.08.025.02.007.059.02c1.31.428 2.026 1.839 1.598 3.15-.344 1.056-1.323 1.726-2.376 1.726-.257 0-.519-.04-.776-.124-4.548-1.485-9.32-2.95-14.182-4.355-1.327-.384-2.091-1.77-1.708-3.096.317-1.095 1.316-1.807 2.4-1.807zm28.335 9.28c.287.001.579.05.863.156.469.174.93.347 1.396.522l.005.002.093.035.054.02.06.023.048.019.059.022.055.02.053.02.077.03.025.01.084.031.024.01.09.033.015.006.1.038.011.004.104.04c.009.003-.004-.002.004.002l.109.04v.001c2.593.988 5.142 1.998 7.644 3.029l.006.002.096.04.017.007.083.034.027.011.076.032.036.014.066.028.05.02.054.023.052.022.055.022.076.032.021.009.086.036.01.003c1.018.424 2.026.85 3.028 1.28 1.26.55 1.84 2.014 1.298 3.279-.407.947-1.33 1.514-2.298 1.514-.33 0-.664-.066-.986-.204-4.338-1.864-8.947-3.705-13.698-5.472-1.294-.482-1.953-1.921-1.472-3.215.375-1.007 1.33-1.63 2.344-1.63zm27.273 11.782c.375 0 .756.084 1.114.263 2.746 1.387 5.406 2.805 7.988 4.26h.001c.04.024.077.044.118.067l.005.003.03.017.016.01.03.016.011.006.033.019.003.002.064.035.019.012.025.014.019.01.026.015.022.013.023.013.092.052.01.005.037.022.013.007.195.111h.001c1.478.844 2.928 1.698 4.348 2.565 1.179.718 1.552 2.257.833 3.436-.471.772-1.294 1.198-2.137 1.198-.444 0-.893-.118-1.3-.366-3.948-2.408-8.244-4.788-12.768-7.073-1.233-.623-1.727-2.127-1.104-3.359.44-.87 1.32-1.373 2.233-1.373zm25.11 15.46c.53 0 1.065.167 1.518.515 4.13 3.165 7.892 6.467 11.245 9.911.963.99.942 2.572-.047 3.535-.486.473-1.115.709-1.744.709-.65 0-1.301-.253-1.791-.756-3.125-3.21-6.726-6.383-10.704-9.43-1.096-.84-1.303-2.41-.464-3.505.493-.643 1.235-.98 1.987-.98zm20.047 20.948c.818 0 1.618.4 2.097 1.135.811 1.256 1.567 2.521 2.277 3.81l.002.005.05.091.002.004.03.055.004.007.048.089.005.009.028.052.004.007.048.087c.001.004.004.008.006.011l.027.052.004.006.016.03c0 .002.002.004.003.005l.028.053.006.01c.01.022.017.034.029.055l.002.004.015.029.004.008.028.05.005.012.026.048.006.01.015.029.005.01.026.05.005.009.047.088.005.01.025.047.007.014.045.086.005.01.025.047.007.013.014.027.007.014.022.043.01.018.02.04.009.017.013.025.01.02.02.038.008.017.021.04.009.017.013.025.01.02.02.037.008.018.019.037.011.022.012.023.01.021.019.036.01.02.011.022.018.035.012.023.01.022.018.035.01.02.014.027.016.032.01.02.013.026.015.03.013.025.01.02.018.036.01.021.013.027.013.026.015.029c.002.005.006.014.01.019.005.013.012.025.018.038l.009.018.013.027.013.026.015.03.009.018.018.038.01.018.013.029.01.02.017.034.01.021.015.032.013.025.01.023.013.026.015.03.011.023.013.026.014.03.012.025.01.02.017.036.01.02.014.03.012.025.013.027.01.02.018.037.009.019.014.03.012.025.013.029.01.019.017.037.01.02.013.028.01.023.016.032.008.018.018.039.009.018.013.028.012.025.014.03.009.02.018.038.008.018.014.03.007.015.018.038.009.02.018.039.007.014.015.033.007.015.019.041.006.015.02.043.005.01.016.036.007.014.019.042.006.014.018.04.007.014.016.035.007.015.018.042.007.013c.005.013.01.026.017.039l.006.014.017.037.006.014.02.042.005.014.018.039.003.008.02.045.006.011.02.044.004.012.017.037.005.011.019.043.006.014.02.044.004.01.017.04.004.009.02.044.005.013.02.045.003.007.018.042.004.009.02.045.005.011.02.045c.002.006 0 .004.003.01l.018.04.004.01.02.045.004.01.02.047.001.003.02.045.004.01.02.046.004.01.02.045v.003l.02.047.005.01.02.046c.002.006 0 .003.003.008l.042.099.002.006.021.05.001.003.021.05.001.002.021.05.002.005.022.051v.001l.022.052v.001l.021.051.003.005.065.158v.001l.065.16.001.002c.481 1.182.92 2.378 1.317 3.587.43 1.312-.285 2.724-1.597 3.154-.259.085-.521.125-.78.125-1.05 0-2.03-.668-2.375-1.722C570 101.395 568 97.25 565.431 93.27c-.748-1.16-.415-2.708.745-3.456.42-.27.89-.4 1.353-.4zm8.715 26.925c1.335 0 2.442 1.054 2.497 2.397.016.448.027.894.032 1.344v.066l.001.016v.068l.001.029v.115l.001.047v.189l.001.013V121.061l-.001.027v.123l-.001.025V121.31l-.001.025V121.407l-.001.027v.05l-.001.022V121.557l-.001.026v.049l-.001.024v.026l-.001.023v.026l-.001.025v.049l-.001.025v.024l-.001.026v.024l-.001.025v.025l-.001.025-.001.025v.024l-.001.025v.026l-.001.023v.026l-.001.024-.001.026v.024l-.001.025-.001.025v.025l-.001.024-.001.026v.024l-.002.026v.023l-.001.027v.023l-.001.027-.001.022-.001.027v.024l-.002.026v.023l-.001.028v.022l-.002.027v.023l-.002.026v.024l-.001.026-.001.023-.001.028v.022l-.002.029v.02l-.002.029v.022l-.002.028v.022l-.002.027v.024l-.002.025v.024l-.002.026v.025l-.002.025v.024l-.002.025-.001.026-.001.023-.001.026-.001.025-.001.026-.002.024v.025l-.002.026-.001.024-.001.028-.001.021-.002.027v.025l-.002.025-.001.024-.002.028v.022l-.003.036v.013l-.002.032v.02l-.003.033v.016l-.002.035-.001.015-.005.092-.002.033-.001.026-.002.019-.001.03-.002.023-.001.028-.002.026-.001.023-.002.026-.001.025-.001.023-.002.027-.002.025-.001.025-.002.03-.001.02-.002.028-.001.023-.002.025-.002.025-.001.025-.002.025-.001.026-.002.024-.002.026-.001.025-.002.026-.002.024-.001.025-.002.026-.002.026-.001.023-.002.028-.002.022-.002.029-.001.021-.002.028-.002.023-.002.028-.002.022c0 .01 0 .018-.002.028l-.001.023-.002.028-.002.022-.002.027-.002.024-.002.027-.001.023-.002.027-.002.023-.002.027-.002.024-.002.026-.002.025-.002.026-.002.023-.002.027-.002.024-.002.027-.002.024-.002.026-.002.025-.002.026-.002.023-.002.028-.002.023-.003.027c0 .009 0 .015-.002.023l-.002.027-.002.025-.002.026-.002.024-.002.027-.002.023-.003.027-.002.024-.002.026-.002.024c0 .01-.002.019-.003.028l-.001.022-.003.028-.002.023-.002.028-.003.023-.002.027-.002.024-.003.027-.002.023-.002.027-.003.025-.002.025-.002.027-.003.023-.002.028-.002.024-.003.024-.002.027-.002.023-.003.028-.003.024-.002.026-.003.026-.002.025-.002.025-.003.025-.002.027-.003.024-.003.028-.002.022-.003.029-.002.023-.003.024-.002.027-.003.026-.002.024-.003.03-.003.021-.002.028-.003.023-.003.033-.002.017-.016.154-.002.01-.004.04c0 .01-.002.02-.003.029l-.002.022-.003.026-.003.025-.002.023-.004.028-.002.022-.003.029-.003.022c0 .011-.002.018-.003.03l-.002.019-.004.032-.002.02-.003.03-.003.025-.003.025-.003.027-.003.025-.003.024-.003.027-.003.024-.003.027-.003.024-.003.027-.003.024-.003.027c0 .008-.002.015-.003.022l-.003.03-.003.022-.003.029-.003.023-.003.027-.003.026-.004.025-.002.024-.004.028c0 .008-.002.016-.003.023 0 .011-.002.017-.003.028l-.003.023-.003.029-.003.021-.004.03-.002.02-.004.032-.003.02-.004.03-.002.022-.004.03-.003.022-.004.03-.002.02-.004.03-.003.022-.004.03c0 .007-.002.014-.003.02 0 .01-.003.023-.004.031l-.002.02-.004.032-.003.02-.004.032-.003.02c0 .008-.003.022-.004.03l-.003.021c0 .009-.002.022-.004.03l-.003.022c0 .008-.002.022-.004.03l-.002.02-.005.032-.002.02-.005.032-.002.018-.005.034-.002.018-.005.034-.002.017-.005.036-.002.015-.005.036-.002.015-.005.036-.003.016-.005.037-.002.014-.005.038-.002.014-.005.038-.002.013-.006.038-.002.014-.006.04v.01l-.007.042-.001.01-.006.042-.002.01-.006.04-.001.012-.007.047v.003l-.008.05v.001c-.19 1.283-.417 2.574-.683 3.878-.243 1.182-1.284 1.996-2.446 1.996-.165 0-.333-.016-.501-.05-1.353-.276-2.226-1.596-1.951-2.949.841-4.133 1.268-8.144 1.268-11.92 0-.604-.01-1.214-.032-1.813-.05-1.38 1.028-2.539 2.408-2.589l.091-.001zm-5.43 28.293c.298 0 .6.053.894.165 1.287.493 1.932 1.934 1.443 3.222-.169.441-.341.883-.517 1.327l-.003.007-.019.047-.004.01-.018.045-.005.013-.016.039-.008.02-.013.033-.009.022-.012.032-.01.024-.012.03-.01.024-.011.03-.011.026-.01.026-.012.028-.01.024-.012.032-.008.018-.014.036-.006.014c-1.556 3.853-3.382 7.772-5.46 11.747-.446.853-1.316 1.342-2.217 1.342-.39 0-.787-.092-1.157-.285-1.223-.64-1.696-2.15-1.057-3.374 2.346-4.486 4.354-8.9 5.97-13.118.38-.995 1.329-1.606 2.334-1.606zm-13.513 26.16c.46 0 .924.126 1.34.391 1.163.74 1.506 2.28.77 3.445-2.3 3.611-4.784 7.258-7.44 10.93l-.007.012-.035.048-.007.009-.04.055-.001.002-.04.054-.017.025-.021.029-.021.029-.017.022-.025.035-.007.01c-.27.371-.54.742-.812 1.113-.49.668-1.248 1.021-2.018 1.021-.513 0-1.03-.157-1.476-.484-1.114-.817-1.354-2.381-.537-3.495 2.999-4.087 5.791-8.157 8.3-12.095.477-.748 1.285-1.157 2.11-1.157zm-17.51 23.974c.556 0 1.116.185 1.58.565 1.066.872 1.226 2.44.36 3.51-3.098 3.788-6.36 7.596-9.769 11.415-.493.547-1.174.826-1.857.826-.593 0-1.188-.21-1.665-.635-1.03-.92-1.119-2.5-.2-3.53 3.366-3.77 6.6-7.549 9.613-11.234.495-.604 1.213-.917 1.937-.917zm-19.82 22.245c.623 0 1.247.232 1.732.698.996.956 1.027 2.539.07 3.534-3.17 3.297-6.44 6.597-9.805 9.896l-.002.001-.069.068-.026.025-.053.053-.045.044-.045.044-.052.05-.01.01-.469.458c-.485.472-1.113.706-1.74.706-.65 0-1.3-.252-1.79-.754-.964-.988-.945-2.57.043-3.535 3.602-3.515 7.12-7.058 10.458-10.53.491-.511 1.147-.768 1.803-.768zm-21.344 20.855c.674 0 1.346.27 1.839.805.935 1.014.872 2.593-.14 3.53-3.636 3.353-7.367 6.705-11.172 10.039-.473.411-1.057.613-1.639.613-.695 0-1.387-.289-1.881-.853-.91-1.038-.806-2.618.233-3.527 3.772-3.306 7.495-6.652 11.066-9.945.48-.443 1.088-.662 1.694-.662zm-22.467 19.7c.715 0 1.425.305 1.92.897.885 1.058.745 2.633-.312 3.519l-.762.636-.017.013-.051.043-.034.028-.048.04-.024.02-.115.096-.005.005-.055.045-.028.024-.051.042-.023.02-.054.044-.02.017-.098.081c-.01.01-.021.018-.032.027l-.05.042-.028.023-.048.04-.033.027-.062.051-.06.05-.032.027-.046.038-.038.032-.052.042-.027.023-.062.051-.02.018-.08.065-.03.025-.05.042-.04.034c-.015.011-.03.023-.043.035l-.035.028-.049.041-.056.046-.055.046-.037.03-.04.034-.041.034-.048.04-.034.028-.048.04-.07.057-.036.03-.047.039-.033.027-.052.043-.026.022-.047.039-.043.035-.063.052-.054.045-.034.028-.04.033-.047.038-.034.029-.049.04-.007.006-.2.164-.014.012-.065.054-.002.001-.211.175-.003.002-.428.352-.003.002c-2.426 1.995-4.877 3.982-7.351 5.96-.46.367-1.01.544-1.555.544-.733 0-1.46-.32-1.954-.938-.862-1.078-.687-2.652.39-3.514 3.902-3.12 7.781-6.291 11.53-9.424.467-.391 1.036-.582 1.601-.582zM452.82 276.24c.75 0 1.493.337 1.985.98.84 1.094.634 2.662-.46 3.502l-.028.022-.13.1-.058.044-.128.099-.053.04-.132.101-.058.045-.132.1-.047.037-.14.107-.046.035-.141.108-.042.032-.143.109-.039.03-.152.116-.038.029-.145.11-.03.023-.16.123-.034.025-.156.118-.018.014-.17.13-.025.019-.16.122-.018.013-.174.132-.012.01-.172.13-.012.01-.366.278-.002.001c-2.92 2.215-5.865 4.417-8.834 6.603-.446.329-.965.487-1.48.487-.768 0-1.525-.352-2.015-1.017-.82-1.112-.582-2.677.53-3.496 4.01-2.953 8.019-5.966 11.915-8.954.454-.348.989-.517 1.52-.517zM428.74 293.98c.784 0 1.556.368 2.043 1.056.795 1.123.533 2.676-.584 3.477-1.881 1.332-3.772 2.658-5.667 3.976l-.021.014-.144.1-.03.021-.178.124c-.016.01-.031.022-.047.033l-.126.087-.065.045-.105.073-.102.07-.104.073-.09.062-.092.064-.107.074-.087.06-.1.07-.09.063-.114.078-.066.046-.125.086-.074.051-.13.09-.058.04-.129.089-.062.043-.142.098-.051.035-.139.096c-.013.01-.026.018-.04.027l-.158.11-.047.032-.144.1-.04.027-.16.11-.031.022-.162.11-.03.022-.165.113-.02.014-.176.12-.024.017-.172.118-.013.01-.186.127-.005.003-.187.129-.006.004c-.773.53-1.547 1.059-2.322 1.587-.43.293-.92.433-1.405.433-.8 0-1.585-.382-2.068-1.093-.777-1.141-.482-2.696.66-3.473 4.1-2.793 8.22-5.653 12.245-8.503.439-.31.943-.46 1.442-.46zm-24.721 16.834c.815 0 1.614.398 2.094 1.13.756 1.155.433 2.703-.72 3.46l-.036.023-.135.089-.059.038-.138.09-.049.033-.152.1-.046.029-.155.102-.038.024-.158.103c-.007.005-.025.017-.032.02l-.168.11-.034.023-.166.108-.018.012-.18.117-.026.017-.172.112-.016.01-.188.123-.004.003-.19.123-.008.006-.382.248-.016.01-.182.118-.01.007-.185.12-.019.012-.173.113-.021.013-.185.12-.011.007-.176.114-.026.017-.18.116-.015.01-.173.112-.027.017-.173.112-.017.011-.177.115-.031.02-.16.103-.031.02-.17.11-.038.024-.152.098-.038.025-.163.105-.045.029c-.05.031-.098.063-.147.095l-.047.03-.138.089-.073.047-.13.083-.063.04-.123.08-.086.055-.108.07-.092.058-.099.064-.122.078-.054.035-.127.082-.077.049-.151.097-.037.023-.146.094-.01.006-.22.141-.02.013c-1.808 1.157-3.61 2.3-5.423 3.442-.411.255-.867.377-1.318.377-.831 0-1.644-.414-2.119-1.169-.735-1.168-.384-2.712.785-3.447 4.183-2.633 8.405-5.342 12.548-8.055.422-.276.897-.409 1.367-.409zm-25.316 15.927c.847 0 1.673.43 2.143 1.208.713 1.182.334 2.718-.848 3.432-3.29 1.987-6.583 3.944-9.878 5.871-.007.004-.002 0-.008.005l-.196.114-.01.006-.088.051-.017.01-.072.042-.031.018-.067.04-.029.016-.081.048-.059.034-.034.02-.065.038-.022.012-.074.044c-.73.425-1.457.848-2.186 1.27-.393.225-.82.332-1.243.332-.863 0-1.703-.447-2.166-1.248-.692-1.195-.284-2.724.911-3.416 4.26-2.465 8.576-5.017 12.83-7.587.404-.244.85-.36 1.29-.36zm-25.883 14.975c.88 0 1.734.466 2.19 1.29.667 1.206.233 2.723-.969 3.393-.884.49-1.765.974-2.648 1.459-.01.004-.018.01-.027.014l-.053.03-.049.026-.033.018-.073.04-.025.014-.195.107-.011.006-.094.05c-.007.004.001 0-.005.004-3.339 1.825-6.672 3.615-9.997 5.366-.372.196-.77.289-1.163.289-.898 0-1.766-.486-2.214-1.336-.644-1.221-.175-2.733 1.047-3.377 4.332-2.282 8.744-4.664 13.112-7.08.383-.212.798-.313 1.207-.313zm-26.454 13.928c.918 0 1.801.507 2.24 1.384.614 1.23.118 2.726-1.108 3.347-1.222.61-2.438 1.213-3.656 1.812l-.041.02-.047.023-.055.027-.034.016c-3.238 1.591-6.463 3.142-9.671 4.65-.344.162-.706.239-1.062.239-.939 0-1.839-.531-2.264-1.437-.588-1.25-.051-2.739 1.198-3.326 4.4-2.07 8.904-4.253 13.386-6.491.358-.18.74-.264 1.114-.264zm-27.04 12.703c.962 0 1.879.558 2.29 1.496.554 1.261-.018 2.732-1.276 3.29-2.13.935-4.257 1.852-6.367 2.746l-.025.01-.055.024-.038.016-.053.022-.083.035-.032.014-.067.028-.035.015-.08.034-.013.005-.095.04-.026.011-.084.036-.013.005c-2.265.955-4.518 1.886-6.756 2.792-.307.124-.624.183-.937.183-.988 0-1.924-.59-2.318-1.563-.518-1.28.1-2.737 1.38-3.255 4.468-1.808 9.07-3.75 13.68-5.773.326-.143.667-.211 1.003-.211zm-27.67 11.17c1.019 0 1.977.629 2.347 1.642.473 1.292-.187 2.722-1.475 3.202-1.975.722-3.94 1.425-5.887 2.103h-.001l-.218.076h-.003l-.217.076h-.002l-.216.076-.007.002c-2.577.892-5.127 1.744-7.65 2.555-.252.08-.507.118-.757.118-1.057 0-2.039-.676-2.38-1.736-.422-1.314.3-2.722 1.615-3.145 4.53-1.456 9.237-3.076 13.992-4.816.283-.104.573-.153.858-.153zm-28.345 9.067c1.103 0 2.113.736 2.413 1.852.357 1.33-.429 2.698-1.756 3.06-2.49.67-4.937 1.29-7.356 1.863l-.007.002-.125.03-.006.001-.188.044-.03.008-.09.02-.036.01c-.022.005-.05.01-.071.016l-.055.013-.049.011-.066.016-.05.011-.061.015-.04.01-.078.017-.036.009-.086.02-.029.006-.092.022-.016.004-.092.02-.016.004-.1.024-.016.003-.104.024-.005.001c-1.926.444-3.829.857-5.707 1.238-.168.034-.335.05-.5.05-1.164 0-2.206-.818-2.447-2.003-.275-1.353.6-2.673 1.953-2.947 4.56-.926 9.37-2.065 14.294-3.388.217-.058.435-.086.65-.086zm-29.049 5.789c1.251 0 2.331.937 2.48 2.21.16 1.37-.819 2.61-2.187 2.773l-.726.083h-.001l-.056.006-.013.001-.045.006-.018.001-.04.005-.022.002-.038.005-.025.002-.03.004-.04.004-.019.002-.042.005-.016.001-.044.005-.014.002-.052.005h-.005c-3.9.423-7.653.672-11.248.738h-.001l-.162.003c-.004 0 .004 0 0 0H201.84l-.05.002h-.061l-.047.001h-.003l-.05.001h-.055-.002l-.052.001h-.005l-.049.001H201.406l-.048.002h-.112l-.05.001H201.139l-.049.001h-.062l-.045.001h-.073l-.034.001H200.768l-.027.001h-.165l-.023.001H199.6c-1.381-.003-2.498-1.125-2.494-2.506.004-1.379 1.122-2.494 2.5-2.494h.52c4.295 0 8.953-.289 13.844-.86.098-.011.196-.017.293-.017zm-44.175-1.39c.125 0 .252.01.38.03 4.792.73 9.68 1.289 14.529 1.66 1.376.106 2.407 1.307 2.301 2.684-.1 1.312-1.196 2.31-2.49 2.31-.061 0-.123-.003-.186-.008-.337-.026-.666-.052-1.003-.08h-.004l-.225-.018-.02-.002-.21-.017-.035-.003-.06-.005-.039-.003-.097-.009c-.015 0-.03-.002-.045-.004l-.05-.004-.088-.007-.042-.004-.064-.006c-.014 0-.025-.002-.038-.003l-.097-.008-.024-.002-.081-.007-.03-.003-.103-.01h-.01l-.1-.009-.017-.001-.22-.02-.014-.001-.224-.02-.007-.001c-4.023-.368-8.01-.855-11.96-1.457-1.366-.208-2.303-1.483-2.095-2.848.188-1.238 1.254-2.124 2.468-2.124zm-28.837-6.65c.247 0 .497.037.745.114 4.633 1.444 9.38 2.729 14.111 3.82 1.346.31 2.185 1.652 1.875 2.997-.267 1.157-1.296 1.94-2.434 1.94-.185 0-.373-.021-.56-.064l-.035-.008-.05-.012-.067-.015-.06-.014c-.019-.005-.038-.01-.056-.013l-.039-.01-.097-.022-.035-.008-.06-.014-.033-.008-.111-.026-.022-.005-.065-.015-.022-.005-.208-.05c-.005 0-.01-.001-.014-.003l-.215-.05-.008-.002c-2.14-.507-4.257-1.047-6.369-1.622h-.002l-.222-.06v-.001l-.223-.06-.002-.002-.144-.04h-.004l-.074-.02-.142-.04-.01-.002-.068-.02c-.005 0-.009-.002-.013-.003l-.13-.036-.013-.004-.205-.057-.02-.006-.066-.018-.013-.004-.122-.034-.025-.007-.197-.055-.028-.008-.062-.018-.01-.003-.123-.034-.03-.009-.19-.054-.036-.01-.189-.054-.033-.01-.11-.03-.023-.007-.057-.017-.035-.01-.096-.027-.035-.01-.057-.017-.035-.01-.097-.028-.035-.01-.056-.016-.036-.01c-.03-.01-.067-.02-.098-.029l-.033-.01-.055-.016-.04-.011-.092-.027-.037-.01-.056-.017-.036-.01-.092-.028-.039-.01-.055-.017-.039-.011-.087-.026-.045-.013-.05-.015-.045-.013-.081-.024-.047-.014c-.012-.003-.037-.01-.05-.015l-.047-.014-.082-.024-.043-.013-.05-.015-.058-.017-.067-.02-.049-.014-.049-.015-.052-.015-.075-.023-.047-.014-.05-.015-.054-.016-.074-.022-.043-.013-.051-.016-.045-.013-.087-.026-.037-.012-.055-.016-.066-.02-.063-.019-.04-.012-.053-.016-.05-.015-.078-.024-.042-.013-.052-.016-.075-.023-.056-.017-.036-.01-.189-.059-.03-.009c-.03-.01-.07-.021-.101-.03l-.031-.01-.058-.018-.033-.01-.118-.037-.01-.003-.063-.02-.026-.007-.114-.036-.02-.006-.062-.02-.024-.007-.124-.038-.008-.003-.038-.011c-1.314-.414-2.047-1.813-1.637-3.13.334-1.07 1.321-1.756 2.386-1.756zm-27.507-10.911c.368 0 .74.08 1.093.252 4.366 2.126 8.867 4.11 13.376 5.9 1.284.508 1.911 1.962 1.402 3.245-.389.981-1.33 1.579-2.324 1.579-.307 0-.619-.057-.921-.177-.692-.274-1.382-.552-2.07-.834l-.002-.001c-.07-.03-.142-.059-.214-.088l-.004-.002-.106-.043h-.002c-.034-.015-.068-.03-.102-.043l-.008-.004-.101-.041-.013-.006-.094-.038-.009-.004-.099-.041-.017-.007-.093-.039-.007-.003-.098-.04-.02-.009-.096-.04h-.001l-.096-.04-.025-.01-.093-.04-.013-.005-.08-.034-.032-.013-.09-.037-.019-.008-.075-.032-.03-.012-.089-.038-.024-.01-.073-.03-.029-.013-.087-.037-.03-.012-.07-.03-.026-.01-.087-.038-.033-.014-.064-.027-.043-.018-.072-.03-.039-.017c-.02-.01-.041-.018-.062-.027l-.048-.02-.064-.028-.039-.016-.066-.028-.054-.023-.053-.023-.043-.018-.07-.03-.052-.022-.045-.02-.048-.02-.065-.028-.057-.025-.043-.018-.058-.025c-.02-.01-.042-.018-.063-.027l-.05-.022-.04-.017-.08-.035-.04-.017-.054-.024-.038-.016-.081-.035-.042-.018-.052-.023-.034-.015-.094-.04-.028-.013-.058-.025-.028-.012-.096-.042-.032-.014-.055-.024-.042-.018-.08-.035-.036-.016-.053-.023-.037-.016-.086-.038-.035-.016-.1-.043-.023-.01-.057-.026-.028-.012-.104-.046-.021-.01-.058-.025-.028-.012-.097-.043-.03-.014-.057-.025-.025-.01-.098-.044-.032-.014-.053-.024-.036-.016-.089-.04-.033-.014-.055-.025-.015-.007-.11-.048-.03-.014c-.035-.016-.064-.03-.1-.045l-.024-.01-.051-.024-.042-.018-.07-.032-.05-.022-.05-.023-.04-.018-.073-.033-.048-.021-.048-.022-.046-.02-.071-.033-.047-.021-.048-.022-.047-.021-.071-.032-.044-.02-.047-.022c-.02-.008-.039-.017-.057-.026l-.064-.028-.043-.02-.048-.022-.075-.034-.041-.019-.05-.023c-.018-.008-.025-.01-.042-.019l-.078-.035-.04-.019-.054-.024-.045-.021-.073-.033-.038-.018-.062-.028-.035-.016-.076-.036-.037-.016-.066-.03-.043-.02-.066-.031-.034-.016-.085-.039-.025-.011-.07-.033-.029-.013-.085-.04-.03-.013-.068-.032-.027-.013-.09-.041-.02-.01-.082-.038-.015-.007-.095-.044-.017-.008-.093-.044-.003-.001-.099-.046-.015-.007-.196-.092-.015-.007-.2-.095-.007-.003-.208-.098h-.001c-.705-.333-1.407-.67-2.108-1.011-1.241-.604-1.758-2.1-1.153-3.342.433-.89 1.323-1.406 2.25-1.406zM88.18 360.507c.489 0 .983.143 1.416.441 4 2.755 8.154 5.392 12.345 7.837 1.192.696 1.595 2.226.9 3.419-.465.796-1.302 1.24-2.163 1.24-.425 0-.856-.108-1.25-.337-.294-.171-.578-.337-.87-.51-.002 0-.004-.002-.005-.003l-.187-.11-.012-.008-.184-.108-.014-.009-.115-.068-.007-.004-.06-.036-.012-.007-.111-.066-.014-.008-.06-.036-.005-.003-.11-.066-.026-.016-.168-.1-.034-.02-.062-.037-.053-.032-.047-.028-.037-.023-.072-.043-.043-.026-.045-.027-.041-.025-.07-.041-.042-.026-.042-.026-.06-.035-.05-.031-.049-.03-.039-.023-.073-.044-.037-.023-.051-.03-.035-.022-.076-.046-.033-.02-.06-.037-.032-.018-.072-.044-.037-.023-.063-.038-.035-.022-.064-.039-.034-.02-.078-.048-.025-.015-.064-.04-.029-.017-.08-.05-.026-.015-.066-.04-.024-.016-.082-.05-.027-.017-.068-.041-.02-.013-.085-.052-.022-.014-.083-.05-.01-.007-.082-.05-.023-.015-.085-.052-.017-.01-.073-.046-.023-.014-.086-.053c-.005-.004-.011-.008-.017-.01l-.075-.048-.018-.011-.085-.052-.023-.015-.076-.047-.013-.008-.087-.054-.02-.013-.178-.11-.02-.013-.087-.055-.01-.006-.08-.05-.02-.013-.087-.054-.014-.009-.078-.05-.016-.01-.088-.055-.017-.01-.081-.052-.01-.006-.088-.055-.02-.012-.087-.056h-.001l-.09-.057-.017-.01-.088-.057-.011-.006-.08-.052-.018-.01-.087-.056-.016-.01-.078-.05-.015-.009-.087-.056-.017-.01-.082-.052-.01-.006-.086-.056-.021-.013-.176-.113-.019-.011-.088-.057-.005-.003-.085-.055-.017-.01-.088-.057-.012-.008-.081-.052-.014-.009-.087-.056-.019-.012-.075-.049-.015-.01-.087-.055-.018-.012-.083-.053-.007-.005-.085-.055-.022-.014-.083-.054-.02-.013-.068-.044-.026-.017-.081-.053-.022-.014-.065-.042-.026-.017-.078-.05c-.01-.008-.02-.014-.03-.02l-.061-.04-.026-.017-.076-.05-.033-.021-.065-.042-.025-.017-.07-.046-.035-.023-.063-.04-.041-.028-.054-.035-.037-.024-.072-.048-.034-.022-.05-.033-.036-.024-.071-.047-.04-.026-.043-.028-.058-.038-.05-.034-.044-.029-.036-.023-.08-.053-.029-.02-.048-.031-.035-.023-.079-.053-.03-.02-.05-.033-.016-.01-.1-.067-.022-.014-.169-.113-.02-.013-.175-.117-.004-.003-.31-.207v-.001c-.662-.444-1.327-.896-1.983-1.348-1.13-.785-1.413-2.336-.632-3.47.485-.705 1.266-1.083 2.061-1.083zm-23.06-18.56c.612 0 1.225.224 1.707.675 3.546 3.319 7.261 6.544 11.043 9.588 1.075.866 1.245 2.44.38 3.515-.494.614-1.219.933-1.95.933-.55 0-1.104-.181-1.565-.553-2.618-2.107-5.182-4.278-7.689-6.512l-.004-.004-.168-.15-.009-.008-.082-.073-.005-.004-.078-.07-.008-.008-.08-.07-.013-.013-.071-.064-.01-.01-.077-.068-.019-.017-.07-.062-.015-.014-.064-.058-.027-.024-.065-.058-.03-.028-.047-.043-.031-.028-.066-.058-.03-.028-.043-.039-.034-.03-.06-.054-.039-.036-.035-.032-.061-.056-.034-.03-.043-.039-.03-.027-.07-.064-.024-.022-.048-.043-.008-.007-.094-.086-.017-.016-.157-.143-.004-.004c-.595-.544-1.184-1.088-1.772-1.639-1.002-.944-1.052-2.521-.11-3.527.492-.526 1.158-.791 1.825-.791zm-20.05-21.778c.738 0 1.469.325 1.962.948 3.013 3.807 6.208 7.549 9.497 11.122.935 1.016.87 2.597-.146 3.532-.48.443-1.088.66-1.693.66-.672 0-1.341-.268-1.834-.8-.355-.386-.71-.775-1.063-1.164l-.011-.012-.143-.157-.008-.01-.085-.094-.013-.014-.044-.049-.016-.018-.073-.08-.024-.027-.04-.044-.024-.027-.063-.07-.03-.034-.033-.036-.056-.063-.031-.035-.04-.043-.036-.04c-.016-.02-.032-.037-.049-.055l-.028-.032-.051-.057-.027-.03-.05-.056-.023-.026-.064-.071-.016-.019-.055-.06-.018-.022-.066-.074-.015-.016-.06-.069-.011-.011-.07-.08-.011-.012-.144-.162-.01-.012-.148-.166-.005-.006-.075-.085v-.001l-.155-.175c-2.323-2.639-4.577-5.338-6.76-8.097-.857-1.082-.674-2.655.408-3.511.46-.364 1.007-.54 1.55-.54zm-16.584-24.516c.867 0 1.71.452 2.172 1.258 2.41 4.211 5.012 8.386 7.734 12.41.773 1.143.473 2.697-.67 3.47-.43.291-.917.43-1.399.43-.802 0-1.59-.385-2.073-1.1-.611-.903-1.216-1.813-1.813-2.728l-.062-.094-.006-.01-.12-.182-.01-.017-.058-.09-.057-.086-.013-.02-.055-.086-.01-.015-.048-.075-.013-.02-.054-.083-.015-.023-.045-.07-.012-.019-.052-.08-.019-.03-.04-.063-.019-.028-.046-.072-.022-.034-.04-.064c-.008-.01-.018-.027-.025-.037l-.039-.06-.02-.033-.049-.075-.021-.034-.032-.05-.025-.039-.045-.07-.027-.041-.025-.04-.043-.067-.027-.044-.03-.046-.023-.036-.052-.081-.018-.03-.033-.05-.016-.027-.057-.089-.017-.027-.033-.053-.01-.016-.064-.1-.016-.024-.108-.172-.012-.018-.112-.178-.007-.011-.074-.118-.002-.004-.039-.062-.002-.004-.197-.314-.002-.003c-.827-1.322-1.634-2.646-2.43-3.988l-.007-.013-.108-.182-.01-.016-.063-.107-.01-.016-.033-.056-.012-.021-.056-.095-.017-.03c-.01-.015-.021-.035-.03-.052l-.014-.022-.056-.094-.017-.03-.03-.05-.039-.067-.027-.047-.024-.041-.03-.051-.037-.063-.024-.042-.031-.052-.023-.04-.04-.07-.02-.032-.045-.078-.013-.022-.041-.07-.017-.03-.05-.085-.008-.014-.045-.078-.012-.02-.052-.09-.008-.013-.05-.086-.005-.01-.055-.094-.006-.01-.113-.197-.001-.002-.292-.508c-.686-1.198-.27-2.726.928-3.412.392-.224.818-.33 1.24-.33zm-12.73-26.719c1.003 0 1.95.607 2.333 1.598 1.751 4.525 3.698 9.042 5.787 13.426.594 1.246.065 2.738-1.181 3.332-.347.166-.713.244-1.074.244-.932 0-1.826-.524-2.256-1.42-.095-.2-.186-.39-.28-.591l-.005-.008-.09-.193-.01-.018-.086-.185-.013-.028-.041-.088-.018-.037-.024-.052-.017-.035-.033-.071-.025-.054-.02-.042-.026-.056-.023-.049-.03-.065-.019-.04-.027-.06-.024-.052c-.01-.019-.019-.039-.027-.058l-.019-.039-.034-.075-.016-.034-.032-.068-.014-.03-.04-.086-.011-.026-.034-.073-.01-.023-.042-.09-.011-.024-.035-.076-.01-.02-.042-.092-.01-.022-.038-.083-.006-.013-.043-.094-.009-.02-.088-.193-.008-.018-.09-.195-.007-.015-.045-.1-.045-.099-.006-.013-.045-.101-.049-.106v-.001l-.048-.106v-.001l-.096-.213-.095-.211-.002-.005-.093-.208-.003-.006-.094-.21v-.002l-.095-.212-.142-.32-.002-.004-.093-.211-.001-.002-.093-.211-.002-.005-.092-.21-.002-.004-.091-.208-.003-.008-.09-.207-.004-.007-.045-.104-.001-.003c-.015-.034-.03-.067-.044-.102l-.003-.005-.044-.103-.004-.008-.043-.098-.002-.006-.043-.1-.006-.013-.042-.098-.001-.003-.044-.1-.006-.014-.085-.2-.008-.016-.042-.1-.001-.002-.04-.095-.009-.019-.04-.096-.006-.013-.037-.086-.009-.02-.04-.093-.009-.023-.033-.078-.009-.02-.039-.092-.011-.027-.032-.075-.01-.022-.037-.09-.013-.03-.03-.07-.011-.027-.035-.084-.016-.036-.028-.066-.02-.05-.025-.057-.019-.046-.025-.06-.025-.059-.02-.047-.02-.05-.02-.047-.032-.077-.016-.037-.075-.18-.013-.032-.077-.185-.01-.023-.08-.196-.004-.008-.085-.205v-.002c-.547-1.327-1.083-2.667-1.602-4.009-.49-1.284.15-2.725 1.434-3.222.297-.114.602-.169.902-.169zM7.19 240.607c1.147 0 2.18.793 2.439 1.959 1.05 4.74 2.296 9.498 3.701 14.143.4 1.321-.347 2.717-1.669 3.117-.241.073-.485.107-.725.107-1.073 0-2.065-.696-2.392-1.777-1.44-4.763-2.709-9.601-3.797-14.507-.299-1.348.552-2.683 1.9-2.982.182-.04.364-.06.543-.06zm-4.22-29.294c1.303 0 2.402 1.01 2.492 2.33.332 4.851.85 9.744 1.54 14.541.198 1.367-.75 2.634-2.117 2.83-.121.018-.241.027-.36.027-1.223 0-2.292-.899-2.471-2.144-.133-.92-.259-1.843-.379-2.767l-.001-.01-.028-.218-.003-.018-.012-.099-.001-.009c-.005-.034-.01-.068-.013-.102l-.004-.028-.01-.08-.004-.027-.011-.093-.005-.04-.008-.061-.005-.043-.011-.083-.007-.055-.005-.042-.012-.093-.005-.042-.007-.06-.004-.033-.026-.209-.002-.02-.028-.224v-.004C1.158 221.93.9 219.41.69 216.873v-.005l-.02-.227v-.017l-.018-.215-.002-.028-.016-.2-.004-.046-.004-.053-.007-.085-.004-.048c0-.018-.002-.035-.004-.053l-.003-.048-.007-.09-.003-.034-.006-.073-.002-.034-.008-.1-.001-.017-.007-.089-.002-.027-.008-.105v-.004l-.008-.105-.001-.017-.017-.223v-.01l-.067-.936c-.094-1.378.946-2.57 2.324-2.665.058-.004.116-.006.173-.006zm.16-29.608c.067 0 .134.003.201.008 1.377.11 2.404 1.314 2.294 2.69-.385 4.83-.594 9.747-.62 14.614-.009 1.376-1.126 2.487-2.5 2.487h-.015c-1.38-.008-2.494-1.134-2.486-2.514v-.108-.02l.002-.218v-.02l.001-.1v-.009l.001-.11v-.016l.001-.1v-.011l.001-.11v-.015l.001-.096v-.018l.002-.109v-.01l.001-.101v-.016l.003-.221v-.016l.003-.22v-.017l.003-.22v-.017l.004-.222v-.01l.002-.11v-.003l.002-.114v-.008l.002-.109v-.006l.004-.23v-.005l.005-.23v-.006l.005-.23v-.006l.005-.232v-.001c.087-3.883.284-7.738.589-11.563.104-1.31 1.198-2.302 2.489-2.302zm4.553-29.246c.188 0 .38.022.571.067 1.345.314 2.18 1.659 1.865 3.003-1.104 4.723-2.042 9.552-2.789 14.352-.192 1.234-1.256 2.116-2.467 2.116-.128 0-.257-.01-.388-.03-1.364-.213-2.298-1.49-2.085-2.855.187-1.203.385-2.402.593-3.598v-.005l.04-.226.001-.006.04-.225.001-.006.04-.226.001-.005.04-.226.001-.005.041-.226.001-.006.04-.225.002-.006.04-.223.002-.01.041-.223.001-.005.042-.227v-.003c.015-.076.03-.153.043-.229v-.001c.553-2.96 1.17-5.897 1.85-8.81.27-1.152 1.298-1.93 2.433-1.93zm8.895-28.227c.309 0 .623.058.928.18 1.282.513 1.905 1.968 1.392 3.25-1.804 4.507-3.458 9.14-4.916 13.768-.336 1.067-1.321 1.75-2.384 1.75-.248 0-.502-.038-.752-.117-1.316-.415-2.047-1.817-1.634-3.134l.006-.017.027-.086.005-.014.03-.1c.003-.005.006-.015.008-.022l.031-.099.033-.103.006-.02.065-.204.006-.019.033-.102v-.002l.032-.1.007-.019.032-.102.003-.007.03-.097.006-.016.033-.103.002-.007.033-.1.003-.01.034-.106.003-.008.033-.103.002-.006.035-.108.002-.005.034-.105.001-.005.035-.106.003-.01.07-.213.003-.01.07-.213.003-.01.071-.215.002-.006.072-.219c.002-.006 0 .004.001-.002l.074-.221v-.002l.186-.555v-.002c1.197-3.561 2.49-7.078 3.879-10.546.39-.977 1.33-1.572 2.322-1.572zm13.034-26.57c.43 0 .867.11 1.264.344 1.19.7 1.589 2.232.89 3.422-2.46 4.188-4.792 8.52-6.928 12.876-.435.885-1.323 1.4-2.247 1.4-.37 0-.745-.083-1.099-.257-1.238-.607-1.75-2.103-1.145-3.342l.012-.024.032-.066.02-.039.032-.067.016-.032.043-.087.008-.018.04-.078.01-.023.046-.092.006-.013.044-.089.006-.011.048-.098.005-.01.101-.203.001-.002c1.62-3.259 3.327-6.467 5.116-9.622l.002-.003.11-.194.008-.015.054-.094.002-.004.05-.087.01-.018.052-.09.008-.015.044-.077.012-.022.048-.084.016-.027.037-.065.016-.027.045-.078.02-.036.034-.058.027-.047.032-.056.025-.043.027-.047.039-.068.023-.04.028-.048.016-.028.053-.092.015-.026.103-.178.008-.013c.186-.321.373-.642.561-.962.467-.789 1.3-1.228 2.154-1.228zm16.86-24.328c.553 0 1.109.182 1.572.557 1.073.87 1.238 2.444.37 3.517-3.058 3.774-6.01 7.71-8.774 11.699-.486.7-1.265 1.076-2.057 1.076-.491 0-.988-.145-1.422-.446-1.13-.783-1.415-2.333-.639-3.466 1.15-1.66 2.316-3.29 3.514-4.912l.012-.016.08-.108.003-.004.04-.054.015-.02.065-.088.019-.025.036-.049.023-.03.053-.072.029-.04.03-.039.05-.067.025-.035.036-.048.024-.032.053-.071.024-.032.042-.057.018-.024c.02-.025.038-.05.057-.077l.019-.024.058-.077.005-.008c.02-.025.038-.05.057-.076l.018-.024.06-.08.01-.012.056-.075.011-.016.064-.084.007-.01.061-.08.007-.01.065-.086.008-.011.136-.179.002-.003c1.343-1.775 2.714-3.527 4.114-5.255.494-.61 1.216-.927 1.944-.927zM66.76 51.783c.677 0 1.352.273 1.845.812.932 1.019.862 2.6-.157 3.532-3.582 3.278-7.086 6.732-10.415 10.267-.492.523-1.155.786-1.82.786-.615 0-1.23-.225-1.714-.68-1.005-.946-1.052-2.528-.106-3.533 3.428-3.641 6.99-7.153 10.68-10.529.48-.439 1.084-.655 1.687-.655zm23.264-18.299c.805 0 1.595.388 2.077 1.106.77 1.146.466 2.7-.68 3.47-4.028 2.706-8.006 5.601-11.823 8.604-.459.36-1.003.535-1.544.535-.74 0-1.474-.327-1.967-.954-.852-1.083-.666-2.65.412-3.505.97-.763 1.94-1.512 2.924-2.257l.006-.005.175-.132.005-.003.175-.132c.002-.002.005-.005.008-.006l.103-.078.016-.012.054-.04.009-.007.1-.076.02-.015.161-.12.026-.02.076-.057.034-.025.045-.034.032-.024.075-.056.03-.023c.016-.01.032-.023.047-.034l.035-.026.07-.053.035-.025.045-.034.042-.031.063-.047.034-.025.045-.034.062-.046.043-.031.038-.029.055-.04.05-.038.041-.03.044-.032.053-.04.049-.036.038-.028.049-.036.054-.04.047-.034c.015-.01.02-.015.036-.027l.067-.049.038-.028.045-.033.034-.025.07-.052c.016-.01.02-.014.035-.025l.05-.036.035-.026.067-.05.035-.025.054-.04.04-.029.058-.042.034-.024.066-.049.035-.025.05-.037.038-.027.07-.05c.01-.008.022-.018.033-.025l.047-.034.036-.026.07-.05.033-.025.051-.037.042-.03.06-.044.036-.026.054-.04.043-.03.055-.04.034-.025.064-.046c.016-.01.023-.016.038-.027l.054-.039.031-.022.072-.052.034-.024.05-.036.032-.023.07-.05.037-.027.05-.035.042-.031.06-.042.037-.028.05-.035.052-.038.046-.032c.015-.011.026-.018.04-.03l.052-.036.055-.039.041-.03.041-.029.067-.047.04-.028c.012-.01.026-.019.039-.028.025-.018.04-.03.066-.047l.04-.028.046-.033.033-.024.076-.054.032-.022.049-.034.025-.018.088-.063.023-.016.053-.037.009-.006.104-.074.02-.014.172-.12.009-.007c1.139-.8 2.285-1.588 3.441-2.365.425-.282.906-.418 1.381-.418zm25.733-14.624c.937 0 1.835.53 2.262 1.432.59 1.249.057 2.739-1.192 3.329-4.386 2.074-8.75 4.342-12.973 6.742-.39.222-.815.327-1.233.327-.87 0-1.716-.455-2.176-1.265-.68-1.197-.265-2.719.929-3.404.52-.295 1.048-.592 1.57-.883h.001l.122-.068.015-.009.058-.032.023-.013.092-.05.036-.02.047-.027.071-.04.042-.022c.016-.01.032-.018.049-.027l.037-.02c.026-.015.051-.03.077-.043l.034-.02c.021-.01.042-.022.063-.034l.027-.014.082-.045c.01-.007.018-.01.03-.017l.081-.045.006-.003.089-.049.023-.013.091-.05.004-.001.09-.05.017-.009.094-.051.005-.003.095-.052.007-.004.098-.053.005-.003.1-.054c.856-.466 1.716-.926 2.58-1.38h.003l.205-.108.002-.001.204-.107.004-.002.1-.052.007-.003.097-.051.004-.002.098-.051.012-.006.095-.05c.005-.003-.003.002.002 0l.095-.05.018-.01.187-.096.023-.012.091-.047.008-.004.084-.044.024-.012.088-.045.021-.011.072-.037.028-.014.085-.044.026-.013.07-.036.024-.013.084-.042.034-.018.06-.03.041-.022.07-.035.039-.02c.017-.01.036-.018.054-.027l.062-.032.046-.024.048-.024.037-.019.087-.044.03-.015.056-.029.007-.003.118-.06.02-.01.187-.094.015-.008c1.517-.765 3.057-1.518 4.596-2.245.341-.16.7-.235 1.054-.235zm27.636-10.597c1.076 0 2.07.7 2.394 1.784.396 1.323-.356 2.716-1.679 3.112-4.65 1.39-9.305 2.977-13.837 4.716-.295.112-.597.166-.895.166-1.005 0-1.953-.61-2.335-1.605-.494-1.29.15-2.735 1.44-3.23 2.143-.822 4.304-1.608 6.482-2.358h.001l.217-.075.008-.002.107-.037h.002l.101-.036.013-.004.103-.035.01-.003.095-.033.014-.004.1-.034.017-.006.09-.03.015-.006.098-.033.021-.007.086-.03.016-.005.094-.032.03-.01.077-.025.023-.008.087-.03.041-.013.065-.022.04-.013.074-.025.042-.014.062-.02.058-.02.057-.019.048-.016.048-.016.079-.026.042-.014.052-.018.044-.014.09-.03.03-.01.196-.065.02-.006.202-.067.016-.005.209-.068.005-.002c1.587-.519 3.175-1.016 4.78-1.495.235-.07.472-.102.705-.102zm28.913-6.32c1.226 0 2.297.902 2.473 2.151.192 1.367-.76 2.632-2.127 2.824-4.811.678-9.653 1.547-14.39 2.582-.18.04-.36.059-.537.059-1.149 0-2.184-.798-2.44-1.967-.294-1.346.557-2.676 1.9-2.974 3.704-.81 7.44-1.516 11.218-2.118l.008-.001.224-.036.008-.001.217-.034.022-.004.206-.032.03-.004.064-.01.018-.003.113-.018.044-.006.054-.009.083-.013.047-.007.052-.008.048-.007.086-.013.043-.007.059-.009.044-.006.09-.014.036-.005.064-.01.042-.006.092-.014.03-.005.076-.011.031-.005.097-.014.025-.004.08-.012.03-.004.1-.015.02-.003.087-.013.024-.003.105-.016.01-.001.096-.014.021-.003.106-.016.01-.001.1-.015c.007 0 .009 0 .015-.002l.11-.016h.002l.109-.015.01-.002.223-.032.011-.001.226-.032h.004c.118-.017.235-.026.351-.026zM200.125 0H201.446l.038.001h.299l.256.001H202.39l.047.001H202.79l.103.001H203.12l.118.001h.159l.016.001c.222 0 .436.002.66.003h.184c3.483.016 7.11.052 10.862.109 1.376.027 2.472 1.16 2.451 2.537-.02 1.368-1.136 2.462-2.499 2.462h-.039C209.923 5.039 204.907 5 200.125 5c-4.303 0-8.652.142-12.927.421-.056.004-.11.006-.166.006-1.306 0-2.405-1.015-2.492-2.337-.09-1.375.95-2.563 2.323-2.658.776-.05 1.542-.096 2.32-.138h.008l.307-.017h.014l.07-.004h.015l.212-.012h.023l.062-.004.025-.001.063-.003.022-.002.14-.006h.003l.063-.004.026-.001.06-.003.03-.001.06-.003.13-.006.04-.002.052-.003c.013 0 .026 0 .04-.002l.052-.002.038-.002.088-.004.046-.002.048-.002.044-.002.048-.002.05-.002.04-.002.086-.004.04-.002.053-.002.043-.002.052-.002.04-.002.066-.003.045-.002.07-.003.037-.001.059-.003.036-.001.062-.003.033-.001.089-.004h.03l.063-.003.037-.002.063-.002.03-.001.09-.004h.011l.087-.004h.025l.07-.003.03-.002.079-.002.015-.001.094-.004h.024l.072-.003.03-.001.069-.003h.026l.095-.004h.004l.09-.003.028-.001.068-.003h.03l.078-.003h.016l.095-.004h.021l.074-.003.03-.001.073-.002.021-.001.097-.003h.002l.092-.003h.026c.023-.002.047-.002.07-.003h.029l.19-.007h.02l.076-.003h.026l.077-.002.019-.001.098-.003h.003l.091-.002.026-.001.075-.002h.02l.094-.003h.003l.098-.003h.019l.079-.002.021-.001.085-.002h.012l.098-.003h.013l.084-.002h.022l.076-.003h.024l.191-.004.023-.001.076-.002h.023l.081-.002h.016l.097-.002h.014l.081-.002h.028l.074-.002h.021l.193-.005h.023l.073-.001h.028l.08-.002h.015l.096-.002h.02l.075-.002h.029l.07-.002h.027l.19-.003h.026l.072-.001h.027l.082-.002h.013l.097-.002h.095l.028-.001.076-.001h.019l.097-.002H197.718l.026-.001.071-.001h.028l.082-.001h.013l.095-.001h.026l.07-.001h.03l.072-.001h.024l.096-.001h.01l.083-.001h.099l.028-.001h.095l.095-.001h.026l.07-.001h.126l.095-.001h.096l.03-.001h.192L199.49 0H199.934l.068-.001h.123z" transform="translate(117.893 2430.469)"/>
        </g>
        <g id="Group_3107" transform="translate(-125.826 2267.129)">
            <g id="Group_3000" transform="translate(443.365 195.103)">
                <path id="Path_2237" d="M1414.743 647.273h24.109l53.356 140.306h-28.061L1451.1 752.6h-49.009l-12.844 34.978h-28.062zm31.42 86.16L1426.8 678.3l-20.156 55.134z" class="cls-2" transform="translate(-1361.189 -647.273)"/>
            </g>
            <g id="Group_3041" transform="translate(393 195.104)">
                <g id="Group_3001" transform="translate(285.608 45.294)">
                    <path id="Rectangle_997" d="M0 0H26.658V6.015H0z" class="cls-2" transform="rotate(180 13.329 3.008)"/>
                </g>
                <g id="Group_3040">
                    <g id="Group_3002" transform="translate(315.057 227.136)">
                        <path id="Rectangle_998" d="M0 0H58.747V6.015H0z" class="cls-2" transform="rotate(180 29.373 3.008)"/>
                    </g>
                    <g id="Group_3003" transform="translate(256.201 181.843)">
                        <path id="Rectangle_999" d="M0 0H42.415V6.015H0z" class="cls-2" transform="rotate(180 21.207 3.008)"/>
                    </g>
                    <g id="Group_3004" transform="translate(221.446 181.843)">
                        <path id="Rectangle_1000" d="M0 0H28.147V6.015H0z" class="cls-2" transform="rotate(180 14.073 3.008)"/>
                    </g>
                    <g id="Group_3005" transform="translate(344.99 67.941)">
                        <path id="Rectangle_1001" d="M0 0H28.147V6.015H0z" class="cls-2" transform="rotate(180 14.073 3.008)"/>
                    </g>
                    <g id="Group_3006" transform="translate(147.927 181.843)">
                        <path id="Rectangle_1002" d="M0 0H67.958V6.015H0z" class="cls-2" transform="rotate(180 33.979 3.008)"/>
                    </g>
                    <g id="Group_3007" transform="translate(329.469 90.754)">
                        <path id="Rectangle_1003" d="M0 0H43.668V6.015H0z" class="cls-2" transform="rotate(180 21.834 3.008)"/>
                    </g>
                    <g id="Group_3008" transform="translate(320.321 45.294)">
                        <path id="Rectangle_1004" d="M0 0H52.816V6.015H0z" class="cls-2" transform="rotate(180 26.408 3.008)"/>
                    </g>
                    <g id="Group_3009" transform="translate(261.924 227.136)">
                        <path id="Rectangle_1005" d="M0 0H41.704V6.015H0z" class="cls-2" transform="rotate(180 20.852 3.008)"/>
                    </g>
                    <g id="Group_3010" transform="translate(261.924 159.196)">
                        <path id="Rectangle_1006" d="M0 0H41.704V6.015H0z" class="cls-2" transform="rotate(180 20.852 3.008)"/>
                    </g>
                    <g id="Group_3011" transform="translate(306.661 136.549)">
                        <path id="Rectangle_1007" d="M0 0H17.819V6.015H0z" class="cls-2" transform="rotate(180 8.91 3.008)"/>
                    </g>
                    <g id="Group_3012" transform="translate(302.275 113.568)">
                        <path id="Rectangle_1008" d="M0 0H40.024V6.015H0z" class="cls-2" transform="rotate(180 20.012 3.008)"/>
                    </g>
                    <g id="Group_3013" transform="translate(240.971 113.568)">
                        <path id="Rectangle_1009" d="M0 0H55.253V6.015H0z" class="cls-2" transform="rotate(180 27.627 3.008)"/>
                    </g>
                    <g id="Group_3014" transform="translate(331.433 136.382)">
                        <path id="Rectangle_1010" d="M0 0H41.704V6.015H0z" class="cls-2" transform="rotate(180 20.852 3.008)"/>
                    </g>
                    <g id="Group_3015" transform="translate(348.392 113.568)">
                        <path id="Rectangle_1011" d="M0 0H24.745V6.015H0z" class="cls-2" transform="rotate(180 12.373 3.008)"/>
                    </g>
                    <g id="Group_3016" transform="translate(274.915 136.382)">
                        <path id="Rectangle_1012" d="M0 0H23.346V6.015H0z" class="cls-2" transform="rotate(180 11.673 3.008)"/>
                    </g>
                    <g id="Group_3017" transform="translate(331.6)">
                        <path id="Rectangle_1013" d="M0 0H40.838V6.015H0z" class="cls-2" transform="rotate(180 20.419 3.008)"/>
                    </g>
                    <g id="Group_3018" transform="translate(331.6 181.843)">
                        <path id="Rectangle_1014" d="M0 0H41.704V6.015H0z" class="cls-2" transform="rotate(180 20.852 3.008)"/>
                    </g>
                    <g id="Group_3019" transform="translate(222.436 67.941)">
                        <path id="Rectangle_1015" d="M0 0H113.988V6.015H0z" class="cls-2" transform="rotate(180 56.994 3.008)"/>
                    </g>
                    <g id="Group_3020" transform="translate(184.083 22.647)">
                        <path id="Rectangle_1016" d="M0 0H188.354V6.015H0z" class="cls-2" transform="rotate(180 94.177 3.008)"/>
                    </g>
                    <g id="Group_3021" transform="translate(313.854 159.196)">
                        <path id="Rectangle_1017" d="M0 0H59.45V6.015H0z" class="cls-2" transform="rotate(180 29.725 3.008)"/>
                    </g>
                    <g id="Group_3022" transform="translate(44.202 227.136)">
                        <path id="Rectangle_1018" d="M0 0H50.52V6.015H0z" class="cls-2" transform="rotate(180 25.26 3.008)"/>
                    </g>
                    <g id="Group_3023" transform="translate(168.243)">
                        <path id="Rectangle_1019" d="M0 0H75.045V6.015H0z" class="cls-2" transform="rotate(180 37.523 3.008)"/>
                    </g>
                    <g id="Group_3024" transform="translate(165.915 227.136)">
                        <path id="Rectangle_1020" d="M0 0H84.78V6.015H0z" class="cls-2" transform="rotate(180 42.39 3.008)"/>
                    </g>
                    <g id="Group_3025" transform="translate(20.326 204.49)">
                        <path id="Rectangle_1021" d="M0 0H23.347V6.015H0z" class="cls-2" transform="rotate(180 11.674 3.008)"/>
                    </g>
                    <g id="Group_3026" transform="translate(0 181.843)">
                        <path id="Rectangle_1022" d="M0 0H108.837V6.015H0z" class="cls-2" transform="rotate(180 54.419 3.008)"/>
                    </g>
                    <g id="Group_3027" transform="translate(105.132 227.136)">
                        <path id="Rectangle_1023" d="M0 0H53.133V6.015H0z" class="cls-2" transform="rotate(180 26.567 3.008)"/>
                    </g>
                    <g id="Group_3028" transform="translate(94.722 159.196)">
                        <path id="Rectangle_1024" d="M0 0H124.171V6.015H0z" class="cls-2" transform="rotate(180 62.086 3.008)"/>
                    </g>
                    <g id="Group_3029" transform="translate(231.247 159.196)">
                        <path id="Rectangle_1025" d="M0 0H19.449V6.015H0z" class="cls-2" transform="rotate(180 9.725 3.008)"/>
                    </g>
                    <g id="Group_3030" transform="translate(343.378 204.49)">
                        <path id="Rectangle_1026" d="M0 0H30.426V6.015H0z" class="cls-2" transform="rotate(180 15.213 3.008)"/>
                    </g>
                    <g id="Group_3031" transform="translate(326.085 204.49)">
                        <path id="Rectangle_1027" d="M0 0H9.824V6.015H0z" class="cls-2" transform="rotate(180 4.912 3.008)"/>
                    </g>
                    <g id="Group_3032" transform="translate(308.841 204.49)">
                        <path id="Rectangle_1028" d="M0 0H10.025V6.015H0z" class="cls-2" transform="rotate(180 5.013 3.008)"/>
                    </g>
                    <g id="Group_3033" transform="translate(115.157 181.843)">
                        <path id="Rectangle_1029" d="M0 0H26.566V6.015H0z" class="cls-2" transform="rotate(180 13.283 3.008)"/>
                    </g>
                    <g id="Group_3034" transform="translate(251.765)">
                        <path id="Rectangle_1030" d="M0 0H71.053V6.015H0z" class="cls-2" transform="rotate(180 35.526 3.008)"/>
                    </g>
                    <g id="Group_3035" transform="translate(49.02 204.49)">
                        <path id="Rectangle_1031" d="M0 0H182.829V6.015H0z" class="cls-2" transform="rotate(180 91.415 3.008)"/>
                    </g>
                    <g id="Group_3036" transform="translate(239.869 204.49)">
                        <path id="Rectangle_1032" d="M0 0H19.449V6.015H0z" class="cls-2" transform="rotate(180 9.725 3.008)"/>
                    </g>
                    <g id="Group_3037" transform="translate(305.332 181.843)">
                        <path id="Rectangle_1033" d="M0 0H19.449V6.015H0z" class="cls-2" transform="rotate(180 9.725 3.008)"/>
                    </g>
                    <g id="Group_3038" transform="translate(259.317 90.587)">
                        <path id="Rectangle_1034" d="M0 0H61.587V6.015H0z" class="cls-2" transform="rotate(180 30.794 3.008)"/>
                    </g>
                    <g id="Group_3039" transform="translate(266.736 204.49)">
                        <path id="Rectangle_1035" d="M0 0H33.885V6.015H0z" class="cls-2" transform="rotate(180 16.942 3.008)"/>
                    </g>
                </g>
            </g>
            <g id="Group_3045" transform="translate(397.277 146.656)">
                <g id="Group_3042">
                    <path id="Path_2238" fill="url(#linear-gradient)" d="M1321.758 571.694h-130.37v-102.91h130.37zm-126.115-4.254H1317.5v-94.4h-121.857z" transform="translate(-1191.388 -468.784)"/>
                </g>
                <g id="Group_3043" transform="translate(1.122 44.342)">
                    <path id="Path_2239" fill="url(#linear-gradient-2)" d="M1321.3 667.579l-23.169-18.922-28.114 17.685-31.273-29.007-41.209 22.109-2.011-3.749 43.886-23.546L1270.513 661l27.938-17.574 25.537 20.857z" transform="translate(-1195.521 -632.148)"/>
                </g>
                <g id="Group_3044" transform="translate(77.91 10.227)">
                    <path id="Path_2240" fill="url(#linear-gradient-3)" d="M1495.921 541.455a17.5 17.5 0 1 1 17.5-17.5 17.516 17.516 0 0 1-17.5 17.5zm0-30.738a13.242 13.242 0 1 0 13.242 13.242 13.257 13.257 0 0 0-13.242-13.242z" transform="translate(-1478.425 -506.463)"/>
                </g>
            </g>
            <g id="Group_3047" transform="translate(678.992 214.541)">
                <g id="Group_3046">
                    <path id="Path_2241" fill="url(#linear-gradient-4)" d="M2335.6 803.429h-106.31v-84.544h106.31zm-101.117-5.192h95.917v-74.16h-95.926z" transform="translate(-2229.286 -718.885)"/>
                </g>
                <path id="Path_2242" fill="url(#linear-gradient-5)" d="M2364.711 836.351l40.368-23.307-40.368-23.306z" transform="translate(-2327.953 -770.507)"/>
            </g>
            <g id="Group_3053" transform="translate(678.953 144.176)">
                <g id="Group_3049" transform="translate(85.952 .835)">
                    <path id="Path_2258" fill="url(#linear-gradient-6)" d="M2573.875 495.758l-10.722-7.807-10.738 7.785 4.112-12.61-10.722-7.807 13.263.014 4.112-12.61 4.086 12.618 13.263.014-10.738 7.785z" transform="translate(-2545.804 -462.723)"/>
                </g>
                <g id="Group_3050" transform="translate(42.5 .835)">
                    <path id="Path_2259" fill="url(#linear-gradient-7)" d="M2413.789 495.758l-10.722-7.807-10.738 7.785 4.112-12.61-10.722-7.807 13.263.014 4.112-12.61 4.085 12.618 13.263.014-10.738 7.785z" transform="translate(-2385.719 -462.723)"/>
                </g>
                <g id="Group_3052">
                    <g id="Group_3051">
                        <path id="Path_2260" fill="url(#linear-gradient-8)" d="M2258.629 494.352l-11.264-8.2-11.281 8.178 4.32-13.247-11.264-8.2 13.934.014 4.319-13.247 4.292 13.256 13.933.014-11.28 8.178zm-11.261-10.566l7.627 5.554-2.906-8.977 7.639-5.538-9.436-.01-2.906-8.976-2.925 8.971-9.436-.01 7.627 5.553-2.925 8.971z" transform="translate(-2229.14 -459.647)"/>
                    </g>
                </g>
            </g>
            <g id="Group_3054" transform="translate(558.056 98.577)">
                <path id="Path_2261" fill="url(#linear-gradient-9)" d="M1865.151 349.771h-81.418v-58.122h81.418zm-79.158-2.259h76.9v-53.6h-76.9z" transform="translate(-1783.733 -291.649)"/>
            </g>
            <g id="Group_3055" transform="translate(558.468 98.834)">
                <path id="Path_2262" fill="url(#linear-gradient-10)" d="M1825.546 327.544l-40.3-33.2 1.437-1.744 38.861 32.019 38.861-32.019 1.437 1.744z" transform="translate(-1785.249 -292.598)"/>
            </g>
            <g id="Group_3056" transform="translate(608.304 123.982)">
                <path id="Rectangle_1036" fill="url(#linear-gradient-11)" d="M0 0H2.259V42.463H0z" transform="rotate(-43.484 1.95 .778)"/>
            </g>
            <g id="Group_3057" transform="translate(558.367 123.982)">
                <path id="Rectangle_1037" fill="url(#linear-gradient-12)" d="M0 0H42.463V2.259H0z" transform="rotate(-46.516 35.842 15.405)"/>
            </g>
            <g id="Group_3073" transform="translate(415.32 224.472)">
                <g id="Group_3058" transform="translate(0 259.057)">
                    <path id="Rectangle_1038" fill="#ffc955" d="M0 0H361.884V6.614H0z"/>
                </g>
                <g id="Group_3068" transform="translate(104.636)">
                    <g id="Group_3059" transform="translate(9.159)">
                        <path id="Path_2263" d="M1774.741 819.931s15.528-45.537-14.1-59.654-54.791 6.29-59.543 17.332-3.495 31.122.559 45.123 3.463 35.317-5.343 42.445-19.724 18.968-19.183 43.067c.336 14.951 58.833-38.245 58.833-38.245z" class="cls-16" transform="translate(-1677.108 -755.471)"/>
                    </g>
                    <g id="Group_3060" transform="translate(0 117.398)">
                        <path id="Path_2264" fill="#ffd255" d="M1708.521 1189.22s-24.355 5.4-34.022 11.048-31.135 31.637-31.135 42.81 93.883 21.613 93.883 21.613l17.795 64.965s47.453-11.581 53.1-21.185-18.024-78.434-22.075-92.364c-4.133-14.21-21.141-24.119-40.913-26.889a135.785 135.785 0 0 0-36.633.002z" transform="translate(-1643.364 -1187.989)"/>
                    </g>
                    <g id="Group_3061" transform="translate(57.067 116.675)">
                        <path id="Path_2265" d="M1896.646 1187.056s-.547 29.6-24.023 30.48-18.59-28.392-18.59-28.392 17.173-6.956 42.613-2.088z" class="cls-18" transform="translate(-1853.611 -1185.327)"/>
                    </g>
                    <g id="Group_3062" transform="translate(86.729 29.079)">
                        <path id="Path_2266" d="M1986.2 862.6s8.3 47.61-15.345 82c-24.496 35.624 15.345-82 15.345-82z" class="cls-16" transform="translate(-1962.891 -862.604)"/>
                    </g>
                    <g id="Group_3063" transform="translate(60.284 87.759)">
                        <path id="Path_2267" d="M1900.242 1088.509s-1.632 14.161 1.094 22.966-35.9 9.05-35.875 1.808c.025-8.225 3.951-15.1.252-29.2s34.529 4.426 34.529 4.426z" class="cls-18" transform="translate(-1865.461 -1078.793)"/>
                    </g>
                    <g id="Group_3064" transform="translate(65.106 99.281)">
                        <path id="Path_2268" d="M1883.228 1121.242s12.194 12.7 27.788 1.326c0 0-1.289 8.12-12.5 9.168s-15.288-10.494-15.288-10.494z" class="cls-19" transform="translate(-1883.228 -1121.242)"/>
                    </g>
                    <g id="Group_3065" transform="translate(46.112 11.954)">
                        <path id="Path_2269" d="M1847.515 800.13s30.818 9.12 26.416 51.888-24.529 40.567-26.416 40.882-25.787 1.887-33.334-50 33.334-42.77 33.334-42.77z" class="cls-18" transform="translate(-1813.251 -799.513)"/>
                    </g>
                    <g id="Group_3066" transform="translate(43.876 9.321)">
                        <path id="Path_2270" d="M1833.558 812.134s16.746 26.639 34.371 32.817c0 0 9.624-44.7-30.125-54.063s-33.522 45.147-30.555 59.683c0 0 8.278-21.385 26.309-38.437z" class="cls-16" transform="translate(-1805.013 -789.813)"/>
                    </g>
                    <g id="Group_3067" transform="translate(49.96 7.407)">
                        <path id="Path_2271" fill="#88c0ff" d="M1827.427 802.982s8.816-17.071 23.7-17.833 23.737 12.15 23.737 12.15-5.811-14.539-23.719-14.539-23.718 20.222-23.718 20.222z" transform="translate(-1827.427 -782.76)"/>
                    </g>
                </g>
                <g id="Group_3069" transform="translate(77.637 161.891)">
                    <path id="Path_2272" d="M1681.451 1351.912l10.451 97.165h-137.557l-10.451-97.165z" class="cls-21" transform="translate(-1543.894 -1351.912)"/>
                </g>
                <g id="Group_3070" transform="translate(72.991 157.358)">
                    <path id="Path_2273" d="M1676.121 1433.576h-138.763l-10.58-98.365h138.764zm-137.686-1.2h136.351l-10.322-95.966h-136.351z" class="cls-21" transform="translate(-1526.778 -1335.211)"/>
                </g>
                <g id="Group_3071" transform="translate(142.816 199.564)">
                    <path id="Path_2274" fill="#4d95ff" d="M1801.387 1500.045c1.235 6.045-1.584 11.725-6.3 12.688s-9.536-3.156-10.771-9.2 1.584-11.725 6.3-12.689 9.537 3.156 10.771 9.201z" transform="translate(-1784.029 -1490.705)"/>
                </g>
                <g id="Group_3072" transform="translate(212.641 249.29)">
                    <path id="Rectangle_1039" d="M0 0H25.668V9.767H0z" class="cls-21" transform="rotate(180 12.834 4.884)"/>
                </g>
            </g>
            <g id="Group_3095" transform="translate(375.221 373.815)">
                <g id="Group_3075" transform="translate(0 154.479)">
                    <g id="Group_3074">
                        <path id="Path_2275" d="M1117.492 1878.367s-4.26 7.221-6.058 8.4c-2.441 1.6-.912 3.22.248 3.221s7.081.425 8.385-1.056 1.952-5.918 3.165-7.079 2.467-5.774-.591-6.895c-2.702-.991-5.149 3.409-5.149 3.409z" class="cls-23" transform="translate(-1110.132 -1874.814)"/>
                    </g>
                </g>
                <g id="Group_3077" transform="translate(3.313 154.625)">
                    <g id="Group_3076">
                        <path id="Path_2276" d="M1128.23 1875.581s-4.879 8.457-5.719 9.706 1.584 1.247 3.085.654 5.281-6.659 5.823-7.763a4.073 4.073 0 0 0 .116-2.828z" class="cls-24" transform="translate(-1122.338 -1875.35)"/>
                    </g>
                </g>
                <g id="Group_3079" transform="translate(12.425 159.406)">
                    <g id="Group_3078">
                        <path id="Path_2277" d="M1157.63 1892.966l-1.126 8.67-.6.026.186-6.237z" class="cls-23" transform="translate(-1155.907 -1892.966)"/>
                    </g>
                </g>
                <g id="Group_3081" transform="translate(42.243 154.506)">
                    <g id="Group_3080">
                        <path id="Path_2278" d="M1273.125 1878.439s-4.26 7.221-6.059 8.4c-2.441 1.6-.912 3.22.248 3.221s7.081.425 8.385-1.056 1.952-5.918 3.166-7.079 2.508-5.893-.591-6.895c-2.717-.878-5.149 3.409-5.149 3.409z" class="cls-23" transform="translate(-1265.765 -1874.912)"/>
                    </g>
                </g>
                <g id="Group_3083" transform="translate(45.556 154.625)">
                    <g id="Group_3082">
                        <path id="Path_2279" d="M1283.606 1875.6s-4.623 8.439-5.464 9.688 1.583 1.247 3.086.654 5.281-6.659 5.823-7.763a4.072 4.072 0 0 0 .116-2.828z" class="cls-25" transform="translate(-1277.97 -1875.35)"/>
                    </g>
                </g>
                <g id="Group_3085" transform="translate(54.668 159.406)">
                    <g id="Group_3084">
                        <path id="Path_2280" d="M1313.263 1892.966l-1.126 8.67-.6.026.186-6.237z" class="cls-23" transform="translate(-1311.54 -1892.966)"/>
                    </g>
                </g>
                <g id="Group_3087" transform="translate(9.2 86.298)">
                    <g id="Group_3086">
                        <path id="Path_2281" d="M1203.331 1629.634l-38.549 17.565a7.413 7.413 0 0 0-4.785 6.177c-1.505 14.913-12.66 38.571-12.66 38.571-3.58 1.75-3.305.231-3.305.231 2.255-7.24 5-37.081 5.981-49.078.207-2.541.335-4.281.364-4.837.019-.379.433-.875 1.147-1.453 5.289-4.29 27.055-13.17 27.055-13.17 16.343-.415 24.752 5.994 24.752 5.994z" class="cls-24" transform="translate(-1144.027 -1623.62)"/>
                    </g>
                </g>
                <g id="Group_3089" transform="translate(26.46 83.649)">
                    <g id="Group_3088">
                        <path id="Path_2282" d="M1256.927 1630.065c-1.194 10.42-16.067 9.227-16.067 9.227h-18.027s4.735 10.537 6.563 19.424c1.94 9.432 6.514 26.12 6.514 26.12s-.3.567-3.561.249c0 0-14.15-28.2-19.567-35.293-1.165-1.525-4.5-9.808-5.08-14.748-.194-1.663-.074-2.947.546-3.467a45.059 45.059 0 0 1 3.979-2.72c5.646-3.56 15.453-9.042 20.917-10.27 7.317-1.644 18.89-4.727 18.89-4.727s6.086 5.786 4.893 16.205z" class="cls-25" transform="translate(-1207.617 -1613.859)"/>
                    </g>
                </g>
                <path id="Path_2283" d="M1273.323 1325.277a16.793 16.793 0 0 0 1.383-10.577c-1.316-5.455-6.377-10.891-13.788-8.395s-13.4 8.254-8.96 14.911-4.02 9.664-1.863 12.832 1.338 6.475.425 7.212-3.858 3.365-3.534 6.474 14.379-9.064 14.379-9.064 7.655-15.382 11.958-13.393z" class="cls-26" transform="translate(-1209.822 -1305.681)"/>
                <path id="Path_2284" fill="#eb4747" d="M1260.856 1612.364s1.117 5.423 29.908-1.424c0 0-9.652-3.206-29.908 1.424z" transform="translate(-1219.945 -1527.296)"/>
                <g id="Group_3090" transform="translate(33.407 33.29)">
                    <path id="Path_2285" d="M1270.951 1480.2l1.338 2.556-31.573.92c1.665-5.575 1.125-13.124.833-18.854-.356-7-4.222-11.864-3.809-18.942-2.083.336-2.442.4-4.527.719 3.188-9.086 4.28-13.588 14.187-17.085a18.509 18.509 0 0 1 8.836-1.076c11.473.946 14.933 1.081 20.568 11.478-8.821 1.4-7.369 4.572-10.044 13.347-1.3 4.279-2.667 9.054-1.967 13.568.687 4.445 6.158 9.319 6.158 13.369z" class="cls-23" transform="translate(-1233.212 -1428.327)"/>
                </g>
                <g id="Group_3091" transform="translate(46.761 24.22)">
                    <path id="Path_2286" d="M1288.484 1407.373c4.7-.887 3.7-3.5 3.7-3.5s-.219-1.474-.3-3.337c-.021-.477-.035-.98-.032-1.49a19.838 19.838 0 0 1 .129-2.31c.384-3.151-8.523-1.271-8.523-1.271s.514 6.377-.715 8.288 1.045 4.507 5.741 3.62z" class="cls-18" transform="translate(-1282.409 -1394.911)"/>
                </g>
                <g id="Group_3092" transform="translate(46.471 32.312)">
                    <path id="Path_2287" d="M1296.665 1425.578s-9.472 10.936-12.974 13.472c0 0-4.022-3.636-1.543-13.235 0 0 4.573-2.29 14.517-.237z" class="cls-18" transform="translate(-1281.341 -1424.724)"/>
                </g>
                <path id="Path_2288" d="M1292.777 1326.17s4.918 9.477.04 18.454-14.463-3.91-15.083-5.422-3.907-10.064 2.63-12.662 11.02-2.94 12.413-.37z" class="cls-18" transform="translate(-1231.241 -1319.324)"/>
                <path id="Path_2289" d="M1288.445 1324.262s3.385 4.447 3.786 7.733a17.615 17.615 0 0 0-2.463-12.182c-3.812-5.969-13.5-.283-14.8 2.1s-5.1 4.486 1.288 14.735c.001.001 11.494-7.983 12.189-12.386z" class="cls-26" transform="translate(-1228.544 -1314.053)"/>
                <path id="Path_2290" d="M1301.858 1402.375s.854 1.866 4.191 3.6c-.021-.477-.035-.98-.032-1.49a7.975 7.975 0 0 1-4.159-2.11z" class="cls-19" transform="translate(-1249.818 -1376.129)"/>
                <path id="Path_2291" d="M1480.048 1587.133s2.338 1.04 3.447.568a10.344 10.344 0 0 1 3.364-.564c.723 0 2.987-.809 2.948.075s-3.676 1.5-4.42 1.777 2.226 1.911 2.5 2.638-3.077 5.494-4.968 4.135-2.915-4.07-3.3-4.242a13.726 13.726 0 0 1-1.419-.933z" class="cls-18" transform="translate(-1378.297 -1510.495)"/>
                <path id="Path_2292" d="M1500.45 1603.033s5.483 4.547 5.569 5.161-.2.9-.735.5-5.438-4.237-5.438-4.237 5.494 6.489 5.679 6.971c.109.282-.419.868-.725.679s-6.15-6.3-6.15-6.3 5.118 6.068 5.146 6.523a.6.6 0 0 1-1 .4c-.413-.423-5.508-5.777-5.508-5.777s3.425 4.659 3.214 5.069c-.129.251-.561.777-1.4-.454s-3.16-3.916-3.16-3.916z" class="cls-18" transform="translate(-1391.216 -1522.323)"/>
                <g id="Group_3093" transform="translate(15.528 83.649)">
                    <path id="Path_2293" fill="#202338" d="M1195.37 1639.293h16.146s14.874 1.193 16.066-9.227-4.89-16.206-4.89-16.206-7.858 2.093-14.718 3.75a53.105 53.105 0 0 0-12.408-1.082s-29.08 9.609-28.2 14.668c-.005.004 12.159-6.504 28.004 8.097z" transform="translate(-1167.342 -1613.86)"/>
                </g>
                <path id="Path_2294" fill="#5e5853" d="M1226.7 1639.871l-30.782-.453 15.542 7.891z" transform="translate(-1172.63 -1548.832)"/>
                <path id="Path_2295" d="M1269.618 1618.779a26.327 26.327 0 0 0 15.414.257l.4-3.169-17.478.971z" class="cls-23" transform="translate(-1225.115 -1531.673)"/>
                <path id="Path_2296" fill="#91887f" d="M1249.938 1648.524l15.24-5.9v-1.535l-16.445 5.932z" transform="translate(-1211.113 -1550.047)"/>
                <g id="Group_3094" transform="translate(14.614 32.484)">
                    <path id="Path_2297" d="M1193.969 1483.914a1.523 1.523 0 0 1-2.117 1.51l-1.786-.763a1.273 1.273 0 0 1-.757-1.373c.744-4.656 2.34-22.78.006-25.891a11.272 11.272 0 0 1-1.7-3.037c-1.541 3.972-3.457 9.089-4.219 11.841l-14.544 19.348-4.875 1.237c6.085-14.662 10.972-22.43 10.972-22.43.953-2.556 3.681-10.293 6.1-17.183 1.526-4.35 2.928-8.362 3.682-10.519a4.93 4.93 0 0 1 2.127-2.608c2.253-1.347 6.007-3.468 9.411-5.121l.041-.019c.109-.053.217-.106.326-.157h.005c-6.472 9.792-3.948 37.447-2.671 55.13-.003.009-.003.021-.001.035z" class="cls-31" transform="translate(-1163.972 -1427.826)"/>
                    <path id="Path_2298" d="M1321.243 1427.114c2.074.321 7.213 5.311 9.944 10.348 3.115 5.749 6.287 12.295 8.664 14.447 4.371 3.961 16.6 17.957 17.186 17.618a37.9 37.9 0 0 1-3.811 4.38c-.226.1-20.108-17.127-22.017-19.752-1.811-2.488-6.652-12.931-8.1-12.7v.008a77.5 77.5 0 0 0-3.54 9.638l-.083.278c-1.151 3.892-1.045 8.119-.422 12.869.47 3.586 3.146 9.446 4.76 12.3a1.937 1.937 0 0 1-.064 1.491 1.073 1.073 0 0 1-.53.619l-5.837 2.162-1.371.508a2.99 2.99 0 0 1-4-2.415c-1.3-9.983-2.94-20.184-4.249-24.026a36.4 36.4 0 0 1 2.244-29.528s9.407 1.076 11.226 1.755z" class="cls-31" transform="translate(-1267.221 -1425.36)"/>
                </g>
                <path id="Path_2299" fill="#6e6760" d="M1149.366 1601.388l-9.156-25-29.517.482 8.726 23.037z" transform="translate(-1110.54 -1502.911)"/>
                <path id="Path_2300" fill="#807066" d="M1171.2 1610.884c.9 1.8.628 3.761-.608 4.38s-2.969-.34-3.869-2.14-.629-3.762.608-4.38 2.969.339 3.869 2.14z" transform="translate(-1150.976 -1526.346)"/>
                <path id="Path_2301" d="M1267.1 1365.131s-1.891 2.941-.144 5.481-.441 5.033-.82 7.717 7.292 9.826-1.239 13.419-11.246-2.346-9.07-5.615 3.722-5.92 3.906-10.581 1.718-11.925 7.367-10.421z" class="cls-26" transform="translate(-1215.76 -1348.848)"/>
                <path id="Path_2302" fill="#ffcb55" d="M1405.12 1320.678h-17.8v15.617l2.717-2.717h15.08z" transform="translate(-1312.086 -1316.607)"/>
            </g>
        </g>
    </g>
</svg>
