<svg xmlns="http://www.w3.org/2000/svg" width="51.418" height="50.614" viewBox="0 0 51.418 50.614">
  <g id="Group_3369" data-name="Group 3369" transform="translate(-50.78 -12.643)">
    <g id="Group_3199" data-name="Group 3199" transform="translate(55.836 12.643)">
      <path id="Path_2457" data-name="Path 2457" d="M61.9-450.1a23.065,23.065,0,0,1,17.389,7.3,25.064,25.064,0,0,1,6.977,18,25.064,25.064,0,0,1-6.977,18,23.065,23.065,0,0,1-17.389,7.3H41.8V-450.1Z" transform="translate(-41.796 450.1)" fill="#fff"/>
    </g>
    <path id="Path_2458" data-name="Path 2458" d="M-7.486-439.4h-21.53v35.223h-8.471V-439.4H-58.236l-.668-7.983H-7.486Z" transform="translate(109.685 467.43)" fill="#5730ab"/>
    <path id="Path_2459" data-name="Path 2459" d="M-33.856-442.786h-7.853v20.265h-4.873v-20.265H-58.52l-.384-4.593h25.048Z" transform="translate(134.563 482.851)" fill="#5730ab"/>
  </g>
</svg>
